M48
;DRILL file {KiCad (5.0.2)-1} date 05.03.2019 23:40:08
;FORMAT={-:-/ absolute / inch / decimal}
FMAT,2
INCH,TZ
T1C0.0197
T2C0.0236
T3C0.0315
T4C0.0335
T5C0.0354
T6C0.0394
T7C0.0433
T8C0.0591
T9C0.1181
%
G90
G05
T1
X6.6114Y-3.925
X6.6374Y-3.8624
X6.6374Y-3.9876
X6.7Y-3.8364
X6.7Y-4.0136
X6.7626Y-3.8624
X6.7626Y-3.9876
X6.7886Y-3.925
X5.1364Y-5.
X5.1624Y-4.9374
X5.1624Y-5.0626
X5.225Y-4.9114
X5.225Y-5.0886
X5.2876Y-4.9374
X5.2876Y-5.0626
X5.3136Y-5.
X4.7114Y-3.125
X4.7374Y-3.0624
X4.7374Y-3.1876
X4.8Y-3.0364
X4.8Y-3.2136
X4.8626Y-3.0624
X4.8626Y-3.1876
X4.8886Y-3.125
T2
X6.4173Y-3.2677
X6.4764Y-3.2677
T3
X5.8268Y-3.7402
X5.9268Y-3.7402
X5.5906Y-3.7402
X5.6906Y-3.7402
X5.648Y-2.7953
X5.748Y-2.7953
X4.5472Y-3.7992
X4.626Y-3.7992
X4.7047Y-3.7992
X4.7835Y-3.7992
X4.8622Y-3.7992
X4.9409Y-3.7992
X5.0197Y-3.7992
X5.0984Y-3.7992
T4
X5.4921Y-4.9818
X5.689Y-4.9818
X4.9213Y-4.7638
X5.0197Y-4.7638
X6.4173Y-3.5827
X6.5157Y-3.5827
X6.6142Y-3.5827
T5
X5.4331Y-2.7953
X5.5331Y-2.7953
T6
X5.6Y-4.5
X5.6707Y-4.5707
X5.7414Y-4.6414
X5.8121Y-4.7121
X5.8828Y-4.7828
X5.9536Y-4.8536
X6.0243Y-4.9243
X6.095Y-4.995
X5.015Y-2.9921
X5.015Y-3.3921
X5.015Y-3.4921
X5.015Y-3.5921
X5.115Y-2.9921
X5.115Y-3.5921
X5.215Y-2.9921
X5.215Y-3.5921
X5.265Y-3.4921
X5.315Y-2.9921
X5.315Y-3.5921
X5.365Y-3.4921
X5.415Y-2.9921
X5.415Y-3.5921
X5.515Y-2.9921
X5.515Y-3.5921
X5.615Y-2.9921
X5.615Y-3.5921
X5.665Y-3.4921
X5.715Y-2.9921
X5.715Y-3.5921
X5.765Y-3.4921
X5.815Y-2.9921
X5.815Y-3.5921
X5.915Y-2.9921
X5.915Y-3.5921
X6.015Y-2.9921
X6.015Y-3.5921
X6.115Y-2.9921
X6.115Y-3.5921
X6.1Y-4.
X6.1707Y-4.0707
X6.2414Y-4.1414
X6.3121Y-4.2121
X6.3828Y-4.2828
X6.4536Y-4.3536
X6.5243Y-4.4243
X6.595Y-4.495
T7
X4.6063Y-3.3465
X4.6063Y-3.5236
X4.8622Y-3.3465
X4.8622Y-3.5236
T8
X4.784Y-4.507
T9
X6.7Y-3.925
X5.225Y-5.
X4.8Y-3.125
T2
X5.4528Y-5.1019G85X5.4528Y-5.0743
G05
X5.7283Y-5.0743G85X5.7283Y-5.1019
G05
T0
M30
