G04 #@! TF.GenerationSoftware,KiCad,Pcbnew,(5.0.2)-1*
G04 #@! TF.CreationDate,2019-03-05T23:40:05+01:00*
G04 #@! TF.ProjectId,HB-OU-MP3-LED_PCB,48422d4f-552d-44d5-9033-2d4c45445f50,rev?*
G04 #@! TF.SameCoordinates,Original*
G04 #@! TF.FileFunction,Soldermask,Bot*
G04 #@! TF.FilePolarity,Negative*
%FSLAX46Y46*%
G04 Gerber Fmt 4.6, Leading zero omitted, Abs format (unit mm)*
G04 Created by KiCad (PCBNEW (5.0.2)-1) date 05.03.2019 23:40:05*
%MOMM*%
%LPD*%
G01*
G04 APERTURE LIST*
%ADD10C,0.100000*%
G04 APERTURE END LIST*
D10*
G36*
X138627618Y-128245920D02*
X138709427Y-128270737D01*
X138750333Y-128283145D01*
X138850491Y-128336681D01*
X138863426Y-128343595D01*
X138962553Y-128424947D01*
X139043905Y-128524074D01*
X139043906Y-128524076D01*
X139104355Y-128637167D01*
X139104356Y-128637170D01*
X139141580Y-128759882D01*
X139151000Y-128855527D01*
X139151000Y-129619473D01*
X139141580Y-129715118D01*
X139116763Y-129796927D01*
X139104355Y-129837833D01*
X139053085Y-129933751D01*
X139043905Y-129950926D01*
X138962553Y-130050053D01*
X138962551Y-130050055D01*
X138896468Y-130104288D01*
X138863425Y-130131405D01*
X138810782Y-130159543D01*
X138750332Y-130191855D01*
X138709426Y-130204263D01*
X138627617Y-130229080D01*
X138500000Y-130241649D01*
X138372382Y-130229080D01*
X138290573Y-130204263D01*
X138249667Y-130191855D01*
X138136576Y-130131406D01*
X138136574Y-130131405D01*
X138037447Y-130050053D01*
X137956095Y-129950925D01*
X137895646Y-129837833D01*
X137895645Y-129837832D01*
X137858421Y-129715119D01*
X137858420Y-129715117D01*
X137849000Y-129619472D01*
X137849000Y-128855527D01*
X137858420Y-128759882D01*
X137895645Y-128637168D01*
X137956096Y-128524074D01*
X138037448Y-128424947D01*
X138136575Y-128343595D01*
X138149510Y-128336681D01*
X138249668Y-128283145D01*
X138290574Y-128270737D01*
X138372383Y-128245920D01*
X138500000Y-128233351D01*
X138627618Y-128245920D01*
X138627618Y-128245920D01*
G37*
G36*
X145627617Y-128245920D02*
X145709426Y-128270737D01*
X145750332Y-128283145D01*
X145810782Y-128315457D01*
X145863425Y-128343595D01*
X145962553Y-128424947D01*
X146043905Y-128524074D01*
X146043906Y-128524076D01*
X146104355Y-128637167D01*
X146104356Y-128637170D01*
X146141580Y-128759882D01*
X146151000Y-128855527D01*
X146151000Y-129619473D01*
X146141580Y-129715118D01*
X146116763Y-129796927D01*
X146104355Y-129837833D01*
X146053085Y-129933751D01*
X146043905Y-129950926D01*
X145962553Y-130050053D01*
X145863426Y-130131405D01*
X145863424Y-130131406D01*
X145750333Y-130191855D01*
X145709427Y-130204263D01*
X145627618Y-130229080D01*
X145500000Y-130241649D01*
X145372383Y-130229080D01*
X145290574Y-130204263D01*
X145249668Y-130191855D01*
X145136577Y-130131406D01*
X145136575Y-130131405D01*
X145037448Y-130050053D01*
X144956096Y-129950926D01*
X144895645Y-129837832D01*
X144858420Y-129715118D01*
X144857301Y-129703760D01*
X144849000Y-129619474D01*
X144849000Y-128855527D01*
X144858420Y-128759885D01*
X144858420Y-128759883D01*
X144883237Y-128678074D01*
X144895645Y-128637168D01*
X144944071Y-128546570D01*
X144956095Y-128524075D01*
X145037447Y-128424947D01*
X145136574Y-128343595D01*
X145149509Y-128336681D01*
X145249667Y-128283145D01*
X145290573Y-128270737D01*
X145372382Y-128245920D01*
X145500000Y-128233351D01*
X145627617Y-128245920D01*
X145627617Y-128245920D01*
G37*
G36*
X133604941Y-124066248D02*
X133604943Y-124066249D01*
X133604944Y-124066249D01*
X134160190Y-124296239D01*
X134409023Y-124462504D01*
X134659902Y-124630136D01*
X135084864Y-125055098D01*
X135084866Y-125055101D01*
X135418761Y-125554810D01*
X135648751Y-126110056D01*
X135648752Y-126110059D01*
X135766000Y-126699501D01*
X135766000Y-127300499D01*
X135671942Y-127773359D01*
X135648751Y-127889944D01*
X135418761Y-128445190D01*
X135290484Y-128637170D01*
X135084864Y-128944902D01*
X134659902Y-129369864D01*
X134659899Y-129369866D01*
X134160190Y-129703761D01*
X133604944Y-129933751D01*
X133604943Y-129933751D01*
X133604941Y-129933752D01*
X133015499Y-130051000D01*
X132414501Y-130051000D01*
X131825059Y-129933752D01*
X131825057Y-129933751D01*
X131825056Y-129933751D01*
X131269810Y-129703761D01*
X130770101Y-129369866D01*
X130770098Y-129369864D01*
X130345136Y-128944902D01*
X130139516Y-128637170D01*
X130011239Y-128445190D01*
X129781249Y-127889944D01*
X129758059Y-127773359D01*
X129664000Y-127300499D01*
X129664000Y-126699501D01*
X129781248Y-126110059D01*
X129781249Y-126110056D01*
X130011239Y-125554810D01*
X130345134Y-125055101D01*
X130345136Y-125055098D01*
X130770098Y-124630136D01*
X131020977Y-124462504D01*
X131269810Y-124296239D01*
X131825056Y-124066249D01*
X131825057Y-124066249D01*
X131825059Y-124066248D01*
X132414501Y-123949000D01*
X133015499Y-123949000D01*
X133604941Y-124066248D01*
X133604941Y-124066248D01*
G37*
G36*
X154917009Y-125977307D02*
X154988986Y-125984396D01*
X155102212Y-126018743D01*
X155158826Y-126035916D01*
X155297446Y-126110011D01*
X155315350Y-126119581D01*
X155351088Y-126148911D01*
X155452545Y-126232173D01*
X155535807Y-126333630D01*
X155565137Y-126369368D01*
X155565138Y-126369370D01*
X155648802Y-126525892D01*
X155661069Y-126566332D01*
X155700322Y-126695732D01*
X155717718Y-126872359D01*
X155700322Y-127048986D01*
X155675276Y-127131552D01*
X155648802Y-127218826D01*
X155605147Y-127300497D01*
X155565137Y-127375350D01*
X155545177Y-127399671D01*
X155452545Y-127512545D01*
X155351088Y-127595807D01*
X155315350Y-127625137D01*
X155315348Y-127625138D01*
X155158826Y-127708802D01*
X155102212Y-127725975D01*
X154988986Y-127760322D01*
X154922802Y-127766840D01*
X154856619Y-127773359D01*
X154768099Y-127773359D01*
X154701916Y-127766840D01*
X154635732Y-127760322D01*
X154522506Y-127725975D01*
X154465892Y-127708802D01*
X154309370Y-127625138D01*
X154309368Y-127625137D01*
X154273630Y-127595807D01*
X154172173Y-127512545D01*
X154079541Y-127399671D01*
X154059581Y-127375350D01*
X154019571Y-127300497D01*
X153975916Y-127218826D01*
X153949442Y-127131552D01*
X153924396Y-127048986D01*
X153907000Y-126872359D01*
X153924396Y-126695732D01*
X153963649Y-126566332D01*
X153975916Y-126525892D01*
X154059580Y-126369370D01*
X154059581Y-126369368D01*
X154088911Y-126333630D01*
X154172173Y-126232173D01*
X154273630Y-126148911D01*
X154309368Y-126119581D01*
X154327272Y-126110011D01*
X154465892Y-126035916D01*
X154522506Y-126018743D01*
X154635732Y-125984396D01*
X154707709Y-125977307D01*
X154768099Y-125971359D01*
X154856619Y-125971359D01*
X154917009Y-125977307D01*
X154917009Y-125977307D01*
G37*
G36*
X144726349Y-125791320D02*
X144726352Y-125791321D01*
X144726351Y-125791321D01*
X144867574Y-125849817D01*
X144961759Y-125912750D01*
X144994674Y-125934743D01*
X145102757Y-126042826D01*
X145102759Y-126042829D01*
X145187683Y-126169926D01*
X145213466Y-126232173D01*
X145246180Y-126311151D01*
X145276000Y-126461069D01*
X145276000Y-126613931D01*
X145246180Y-126763849D01*
X145246179Y-126763851D01*
X145187683Y-126905074D01*
X145187682Y-126905075D01*
X145102757Y-127032174D01*
X144994674Y-127140257D01*
X144994671Y-127140259D01*
X144867574Y-127225183D01*
X144758343Y-127270427D01*
X144726349Y-127283680D01*
X144576431Y-127313500D01*
X144423569Y-127313500D01*
X144273651Y-127283680D01*
X144241657Y-127270427D01*
X144132426Y-127225183D01*
X144005329Y-127140259D01*
X144005326Y-127140257D01*
X143897243Y-127032174D01*
X143812318Y-126905075D01*
X143812317Y-126905074D01*
X143753821Y-126763851D01*
X143753820Y-126763849D01*
X143724000Y-126613931D01*
X143724000Y-126461069D01*
X143753820Y-126311151D01*
X143786534Y-126232173D01*
X143812317Y-126169926D01*
X143897241Y-126042829D01*
X143897243Y-126042826D01*
X144005326Y-125934743D01*
X144038241Y-125912750D01*
X144132426Y-125849817D01*
X144273649Y-125791321D01*
X144273648Y-125791321D01*
X144273651Y-125791320D01*
X144423569Y-125761500D01*
X144576431Y-125761500D01*
X144726349Y-125791320D01*
X144726349Y-125791320D01*
G37*
G36*
X139726349Y-125791320D02*
X139726352Y-125791321D01*
X139726351Y-125791321D01*
X139867574Y-125849817D01*
X139961759Y-125912750D01*
X139994674Y-125934743D01*
X140102757Y-126042826D01*
X140102759Y-126042829D01*
X140187683Y-126169926D01*
X140213466Y-126232173D01*
X140246180Y-126311151D01*
X140276000Y-126461069D01*
X140276000Y-126613931D01*
X140246180Y-126763849D01*
X140246179Y-126763851D01*
X140187683Y-126905074D01*
X140187682Y-126905075D01*
X140102757Y-127032174D01*
X139994674Y-127140257D01*
X139994671Y-127140259D01*
X139867574Y-127225183D01*
X139758343Y-127270427D01*
X139726349Y-127283680D01*
X139576431Y-127313500D01*
X139423569Y-127313500D01*
X139273651Y-127283680D01*
X139241657Y-127270427D01*
X139132426Y-127225183D01*
X139005329Y-127140259D01*
X139005326Y-127140257D01*
X138897243Y-127032174D01*
X138812318Y-126905075D01*
X138812317Y-126905074D01*
X138753821Y-126763851D01*
X138753820Y-126763849D01*
X138724000Y-126613931D01*
X138724000Y-126461069D01*
X138753820Y-126311151D01*
X138786534Y-126232173D01*
X138812317Y-126169926D01*
X138897241Y-126042829D01*
X138897243Y-126042826D01*
X139005326Y-125934743D01*
X139038241Y-125912750D01*
X139132426Y-125849817D01*
X139273649Y-125791321D01*
X139273648Y-125791321D01*
X139273651Y-125791320D01*
X139423569Y-125761500D01*
X139576431Y-125761500D01*
X139726349Y-125791320D01*
X139726349Y-125791320D01*
G37*
G36*
X153120967Y-124181256D02*
X153192934Y-124188344D01*
X153306160Y-124222691D01*
X153362774Y-124239864D01*
X153473408Y-124299000D01*
X153519298Y-124323529D01*
X153551954Y-124350329D01*
X153656493Y-124436121D01*
X153738765Y-124536371D01*
X153769085Y-124573316D01*
X153769086Y-124573318D01*
X153852750Y-124729840D01*
X153852750Y-124729841D01*
X153904270Y-124899680D01*
X153921666Y-125076307D01*
X153904270Y-125252934D01*
X153870400Y-125364590D01*
X153852750Y-125422774D01*
X153789790Y-125540562D01*
X153769085Y-125579298D01*
X153739755Y-125615036D01*
X153656493Y-125716493D01*
X153565313Y-125791321D01*
X153519298Y-125829085D01*
X153519296Y-125829086D01*
X153362774Y-125912750D01*
X153306160Y-125929923D01*
X153192934Y-125964270D01*
X153126750Y-125970788D01*
X153060567Y-125977307D01*
X152972047Y-125977307D01*
X152905864Y-125970788D01*
X152839680Y-125964270D01*
X152726454Y-125929923D01*
X152669840Y-125912750D01*
X152513318Y-125829086D01*
X152513316Y-125829085D01*
X152467301Y-125791321D01*
X152376121Y-125716493D01*
X152292859Y-125615036D01*
X152263529Y-125579298D01*
X152242824Y-125540562D01*
X152179864Y-125422774D01*
X152162214Y-125364590D01*
X152128344Y-125252934D01*
X152110948Y-125076307D01*
X152128344Y-124899680D01*
X152179864Y-124729841D01*
X152179864Y-124729840D01*
X152263528Y-124573318D01*
X152263529Y-124573316D01*
X152293849Y-124536371D01*
X152376121Y-124436121D01*
X152480660Y-124350329D01*
X152513316Y-124323529D01*
X152559206Y-124299000D01*
X152669840Y-124239864D01*
X152726454Y-124222691D01*
X152839680Y-124188344D01*
X152911647Y-124181256D01*
X152972047Y-124175307D01*
X153060567Y-124175307D01*
X153120967Y-124181256D01*
X153120967Y-124181256D01*
G37*
G36*
X151324916Y-122385205D02*
X151396883Y-122392293D01*
X151510109Y-122426640D01*
X151566723Y-122443813D01*
X151705343Y-122517908D01*
X151723247Y-122527478D01*
X151758985Y-122556808D01*
X151860442Y-122640070D01*
X151943704Y-122741527D01*
X151973034Y-122777265D01*
X151973035Y-122777267D01*
X152056699Y-122933789D01*
X152056699Y-122933790D01*
X152108219Y-123103629D01*
X152125615Y-123280256D01*
X152108219Y-123456883D01*
X152073872Y-123570109D01*
X152056699Y-123626723D01*
X151982604Y-123765343D01*
X151973034Y-123783247D01*
X151943704Y-123818985D01*
X151860442Y-123920442D01*
X151758985Y-124003704D01*
X151723247Y-124033034D01*
X151723245Y-124033035D01*
X151566723Y-124116699D01*
X151510109Y-124133872D01*
X151396883Y-124168219D01*
X151330699Y-124174737D01*
X151264516Y-124181256D01*
X151175996Y-124181256D01*
X151109813Y-124174737D01*
X151043629Y-124168219D01*
X150930403Y-124133872D01*
X150873789Y-124116699D01*
X150717267Y-124033035D01*
X150717265Y-124033034D01*
X150681527Y-124003704D01*
X150580070Y-123920442D01*
X150496808Y-123818985D01*
X150467478Y-123783247D01*
X150457908Y-123765343D01*
X150383813Y-123626723D01*
X150366640Y-123570109D01*
X150332293Y-123456883D01*
X150314897Y-123280256D01*
X150332293Y-123103629D01*
X150383813Y-122933790D01*
X150383813Y-122933789D01*
X150467477Y-122777267D01*
X150467478Y-122777265D01*
X150496808Y-122741527D01*
X150580070Y-122640070D01*
X150681527Y-122556808D01*
X150717265Y-122527478D01*
X150735169Y-122517908D01*
X150873789Y-122443813D01*
X150930403Y-122426640D01*
X151043629Y-122392293D01*
X151115596Y-122385205D01*
X151175996Y-122379256D01*
X151264516Y-122379256D01*
X151324916Y-122385205D01*
X151324916Y-122385205D01*
G37*
G36*
X149528865Y-120589154D02*
X149600832Y-120596242D01*
X149714058Y-120630589D01*
X149770672Y-120647762D01*
X149909292Y-120721857D01*
X149927196Y-120731427D01*
X149947846Y-120748374D01*
X150064391Y-120844019D01*
X150147653Y-120945476D01*
X150176983Y-120981214D01*
X150176984Y-120981216D01*
X150260648Y-121137738D01*
X150260648Y-121137739D01*
X150312168Y-121307578D01*
X150329564Y-121484205D01*
X150312168Y-121660832D01*
X150295680Y-121715185D01*
X150260648Y-121830672D01*
X150199160Y-121945706D01*
X150176983Y-121987196D01*
X150147653Y-122022934D01*
X150064391Y-122124391D01*
X149962934Y-122207653D01*
X149927196Y-122236983D01*
X149927194Y-122236984D01*
X149770672Y-122320648D01*
X149714058Y-122337821D01*
X149600832Y-122372168D01*
X149534648Y-122378686D01*
X149468465Y-122385205D01*
X149379945Y-122385205D01*
X149313762Y-122378686D01*
X149247578Y-122372168D01*
X149134352Y-122337821D01*
X149077738Y-122320648D01*
X148921216Y-122236984D01*
X148921214Y-122236983D01*
X148885476Y-122207653D01*
X148784019Y-122124391D01*
X148700757Y-122022934D01*
X148671427Y-121987196D01*
X148649250Y-121945706D01*
X148587762Y-121830672D01*
X148552730Y-121715185D01*
X148536242Y-121660832D01*
X148518846Y-121484205D01*
X148536242Y-121307578D01*
X148587762Y-121137739D01*
X148587762Y-121137738D01*
X148671426Y-120981216D01*
X148671427Y-120981214D01*
X148700757Y-120945476D01*
X148784019Y-120844019D01*
X148900564Y-120748374D01*
X148921214Y-120731427D01*
X148939118Y-120721857D01*
X149077738Y-120647762D01*
X149134352Y-120630589D01*
X149247578Y-120596242D01*
X149319545Y-120589154D01*
X149379945Y-120583205D01*
X149468465Y-120583205D01*
X149528865Y-120589154D01*
X149528865Y-120589154D01*
G37*
G36*
X127676626Y-120037037D02*
X127789852Y-120071384D01*
X127846466Y-120088557D01*
X128002989Y-120172221D01*
X128140186Y-120284814D01*
X128223448Y-120386271D01*
X128252778Y-120422009D01*
X128252779Y-120422011D01*
X128336443Y-120578533D01*
X128337860Y-120583205D01*
X128387963Y-120748373D01*
X128401000Y-120880742D01*
X128401000Y-121119257D01*
X128387963Y-121251626D01*
X128353616Y-121364852D01*
X128336443Y-121421466D01*
X128336442Y-121421467D01*
X128252778Y-121577991D01*
X128223448Y-121613729D01*
X128140186Y-121715186D01*
X128045251Y-121793096D01*
X128002991Y-121827778D01*
X128002989Y-121827779D01*
X127846467Y-121911443D01*
X127805734Y-121923799D01*
X127676627Y-121962963D01*
X127500000Y-121980359D01*
X127323374Y-121962963D01*
X127194267Y-121923799D01*
X127153534Y-121911443D01*
X126997012Y-121827779D01*
X126997010Y-121827778D01*
X126917711Y-121762699D01*
X126859814Y-121715185D01*
X126791217Y-121631599D01*
X126747222Y-121577991D01*
X126697092Y-121484205D01*
X126663557Y-121421467D01*
X126629010Y-121307578D01*
X126612037Y-121251627D01*
X126599000Y-121119258D01*
X126599000Y-120880743D01*
X126612037Y-120748374D01*
X126646384Y-120635148D01*
X126663557Y-120578534D01*
X126747221Y-120422011D01*
X126859814Y-120284814D01*
X126961271Y-120201552D01*
X126997009Y-120172222D01*
X127014913Y-120162652D01*
X127153533Y-120088557D01*
X127210147Y-120071384D01*
X127323373Y-120037037D01*
X127500000Y-120019641D01*
X127676626Y-120037037D01*
X127676626Y-120037037D01*
G37*
G36*
X125758600Y-120027989D02*
X125791649Y-120038014D01*
X125822106Y-120054294D01*
X125848799Y-120076201D01*
X125870706Y-120102894D01*
X125886986Y-120133351D01*
X125897011Y-120166400D01*
X125901000Y-120206904D01*
X125901000Y-121793096D01*
X125897011Y-121833600D01*
X125886986Y-121866649D01*
X125870706Y-121897106D01*
X125848799Y-121923799D01*
X125822106Y-121945706D01*
X125791649Y-121961986D01*
X125758600Y-121972011D01*
X125718096Y-121976000D01*
X124281904Y-121976000D01*
X124241400Y-121972011D01*
X124208351Y-121961986D01*
X124177894Y-121945706D01*
X124151201Y-121923799D01*
X124129294Y-121897106D01*
X124113014Y-121866649D01*
X124102989Y-121833600D01*
X124099000Y-121793096D01*
X124099000Y-120206904D01*
X124102989Y-120166400D01*
X124113014Y-120133351D01*
X124129294Y-120102894D01*
X124151201Y-120076201D01*
X124177894Y-120054294D01*
X124208351Y-120038014D01*
X124241400Y-120027989D01*
X124281904Y-120024000D01*
X125718096Y-120024000D01*
X125758600Y-120027989D01*
X125758600Y-120027989D01*
G37*
G36*
X147732804Y-118793102D02*
X147804781Y-118800191D01*
X147918007Y-118834538D01*
X147974621Y-118851711D01*
X148113241Y-118925806D01*
X148131145Y-118935376D01*
X148166883Y-118964706D01*
X148268340Y-119047968D01*
X148351602Y-119149425D01*
X148380932Y-119185163D01*
X148380933Y-119185165D01*
X148464597Y-119341687D01*
X148464597Y-119341688D01*
X148516117Y-119511527D01*
X148533513Y-119688154D01*
X148516117Y-119864781D01*
X148481770Y-119978007D01*
X148464597Y-120034621D01*
X148435767Y-120088557D01*
X148380932Y-120191145D01*
X148351602Y-120226883D01*
X148268340Y-120328340D01*
X148166883Y-120411602D01*
X148131145Y-120440932D01*
X148131143Y-120440933D01*
X147974621Y-120524597D01*
X147918007Y-120541770D01*
X147804781Y-120576117D01*
X147738597Y-120582635D01*
X147672414Y-120589154D01*
X147583894Y-120589154D01*
X147517711Y-120582635D01*
X147451527Y-120576117D01*
X147338301Y-120541770D01*
X147281687Y-120524597D01*
X147125165Y-120440933D01*
X147125163Y-120440932D01*
X147089425Y-120411602D01*
X146987968Y-120328340D01*
X146904706Y-120226883D01*
X146875376Y-120191145D01*
X146820541Y-120088557D01*
X146791711Y-120034621D01*
X146774538Y-119978007D01*
X146740191Y-119864781D01*
X146722795Y-119688154D01*
X146740191Y-119511527D01*
X146791711Y-119341688D01*
X146791711Y-119341687D01*
X146875375Y-119185165D01*
X146875376Y-119185163D01*
X146904706Y-119149425D01*
X146987968Y-119047968D01*
X147089425Y-118964706D01*
X147125163Y-118935376D01*
X147143067Y-118925806D01*
X147281687Y-118851711D01*
X147338301Y-118834538D01*
X147451527Y-118800191D01*
X147523504Y-118793102D01*
X147583894Y-118787154D01*
X147672414Y-118787154D01*
X147732804Y-118793102D01*
X147732804Y-118793102D01*
G37*
G36*
X145936762Y-116997051D02*
X146008729Y-117004139D01*
X146121955Y-117038486D01*
X146178569Y-117055659D01*
X146317189Y-117129754D01*
X146335093Y-117139324D01*
X146370831Y-117168654D01*
X146472288Y-117251916D01*
X146555550Y-117353373D01*
X146584880Y-117389111D01*
X146584881Y-117389113D01*
X146668545Y-117545635D01*
X146668545Y-117545636D01*
X146720065Y-117715475D01*
X146737461Y-117892102D01*
X146720065Y-118068729D01*
X146685718Y-118181955D01*
X146668545Y-118238569D01*
X146594450Y-118377189D01*
X146584880Y-118395093D01*
X146555550Y-118430831D01*
X146472288Y-118532288D01*
X146370831Y-118615550D01*
X146335093Y-118644880D01*
X146335091Y-118644881D01*
X146178569Y-118728545D01*
X146121955Y-118745718D01*
X146008729Y-118780065D01*
X145942544Y-118786584D01*
X145876362Y-118793102D01*
X145787842Y-118793102D01*
X145721660Y-118786584D01*
X145655475Y-118780065D01*
X145542249Y-118745718D01*
X145485635Y-118728545D01*
X145329113Y-118644881D01*
X145329111Y-118644880D01*
X145293373Y-118615550D01*
X145191916Y-118532288D01*
X145108654Y-118430831D01*
X145079324Y-118395093D01*
X145069754Y-118377189D01*
X144995659Y-118238569D01*
X144978486Y-118181955D01*
X144944139Y-118068729D01*
X144926743Y-117892102D01*
X144944139Y-117715475D01*
X144995659Y-117545636D01*
X144995659Y-117545635D01*
X145079323Y-117389113D01*
X145079324Y-117389111D01*
X145108654Y-117353373D01*
X145191916Y-117251916D01*
X145293373Y-117168654D01*
X145329111Y-117139324D01*
X145347015Y-117129754D01*
X145485635Y-117055659D01*
X145542249Y-117038486D01*
X145655475Y-117004139D01*
X145727442Y-116997051D01*
X145787842Y-116991102D01*
X145876362Y-116991102D01*
X145936762Y-116997051D01*
X145936762Y-116997051D01*
G37*
G36*
X144146493Y-115201569D02*
X144212678Y-115208088D01*
X144325904Y-115242435D01*
X144382518Y-115259608D01*
X144521138Y-115333703D01*
X144539042Y-115343273D01*
X144574780Y-115372603D01*
X144676237Y-115455865D01*
X144759499Y-115557322D01*
X144788829Y-115593060D01*
X144788830Y-115593062D01*
X144872494Y-115749584D01*
X144872494Y-115749585D01*
X144924014Y-115919424D01*
X144941410Y-116096051D01*
X144924014Y-116272678D01*
X144889667Y-116385904D01*
X144872494Y-116442518D01*
X144798399Y-116581138D01*
X144788829Y-116599042D01*
X144759499Y-116634780D01*
X144676237Y-116736237D01*
X144574780Y-116819499D01*
X144539042Y-116848829D01*
X144539040Y-116848830D01*
X144382518Y-116932494D01*
X144325904Y-116949667D01*
X144212678Y-116984014D01*
X144146493Y-116990533D01*
X144080311Y-116997051D01*
X143991791Y-116997051D01*
X143925609Y-116990533D01*
X143859424Y-116984014D01*
X143746198Y-116949667D01*
X143689584Y-116932494D01*
X143533062Y-116848830D01*
X143533060Y-116848829D01*
X143497322Y-116819499D01*
X143395865Y-116736237D01*
X143312603Y-116634780D01*
X143283273Y-116599042D01*
X143273703Y-116581138D01*
X143199608Y-116442518D01*
X143182435Y-116385904D01*
X143148088Y-116272678D01*
X143130692Y-116096051D01*
X143148088Y-115919424D01*
X143199608Y-115749585D01*
X143199608Y-115749584D01*
X143283272Y-115593062D01*
X143283273Y-115593060D01*
X143312603Y-115557322D01*
X143395865Y-115455865D01*
X143497322Y-115372603D01*
X143533060Y-115343273D01*
X143550964Y-115333703D01*
X143689584Y-115259608D01*
X143746198Y-115242435D01*
X143859424Y-115208088D01*
X143925609Y-115201569D01*
X143991791Y-115195051D01*
X144080311Y-115195051D01*
X144146493Y-115201569D01*
X144146493Y-115201569D01*
G37*
G36*
X123065000Y-116029000D02*
X119963000Y-116029000D01*
X119963000Y-112927000D01*
X123065000Y-112927000D01*
X123065000Y-116029000D01*
X123065000Y-116029000D01*
G37*
G36*
X143514207Y-114300000D02*
X142240000Y-115574207D01*
X140965793Y-114300000D01*
X142240000Y-113025793D01*
X143514207Y-114300000D01*
X143514207Y-114300000D01*
G37*
G36*
X167617009Y-113277307D02*
X167688986Y-113284396D01*
X167802212Y-113318743D01*
X167858826Y-113335916D01*
X167997446Y-113410011D01*
X168015350Y-113419581D01*
X168051088Y-113448911D01*
X168152545Y-113532173D01*
X168235807Y-113633630D01*
X168265137Y-113669368D01*
X168265138Y-113669370D01*
X168348802Y-113825892D01*
X168348802Y-113825893D01*
X168400322Y-113995732D01*
X168417718Y-114172359D01*
X168400322Y-114348986D01*
X168365975Y-114462212D01*
X168348802Y-114518826D01*
X168274707Y-114657446D01*
X168265137Y-114675350D01*
X168235807Y-114711088D01*
X168152545Y-114812545D01*
X168051088Y-114895807D01*
X168015350Y-114925137D01*
X168015348Y-114925138D01*
X167858826Y-115008802D01*
X167802212Y-115025975D01*
X167688986Y-115060322D01*
X167622802Y-115066840D01*
X167556619Y-115073359D01*
X167468099Y-115073359D01*
X167401916Y-115066840D01*
X167335732Y-115060322D01*
X167222506Y-115025975D01*
X167165892Y-115008802D01*
X167009370Y-114925138D01*
X167009368Y-114925137D01*
X166973630Y-114895807D01*
X166872173Y-114812545D01*
X166788911Y-114711088D01*
X166759581Y-114675350D01*
X166750011Y-114657446D01*
X166675916Y-114518826D01*
X166658743Y-114462212D01*
X166624396Y-114348986D01*
X166607000Y-114172359D01*
X166624396Y-113995732D01*
X166675916Y-113825893D01*
X166675916Y-113825892D01*
X166759580Y-113669370D01*
X166759581Y-113669368D01*
X166788911Y-113633630D01*
X166872173Y-113532173D01*
X166973630Y-113448911D01*
X167009368Y-113419581D01*
X167027272Y-113410011D01*
X167165892Y-113335916D01*
X167222506Y-113318743D01*
X167335732Y-113284396D01*
X167407709Y-113277307D01*
X167468099Y-113271359D01*
X167556619Y-113271359D01*
X167617009Y-113277307D01*
X167617009Y-113277307D01*
G37*
G36*
X165820967Y-111481256D02*
X165892934Y-111488344D01*
X166006160Y-111522691D01*
X166062774Y-111539864D01*
X166201394Y-111613959D01*
X166219298Y-111623529D01*
X166255036Y-111652859D01*
X166356493Y-111736121D01*
X166439755Y-111837578D01*
X166469085Y-111873316D01*
X166469086Y-111873318D01*
X166552750Y-112029840D01*
X166552750Y-112029841D01*
X166604270Y-112199680D01*
X166621666Y-112376307D01*
X166604270Y-112552934D01*
X166569923Y-112666160D01*
X166552750Y-112722774D01*
X166478655Y-112861394D01*
X166469085Y-112879298D01*
X166439755Y-112915036D01*
X166356493Y-113016493D01*
X166255036Y-113099755D01*
X166219298Y-113129085D01*
X166219296Y-113129086D01*
X166062774Y-113212750D01*
X166006160Y-113229923D01*
X165892934Y-113264270D01*
X165826749Y-113270789D01*
X165760567Y-113277307D01*
X165672047Y-113277307D01*
X165605865Y-113270789D01*
X165539680Y-113264270D01*
X165426454Y-113229923D01*
X165369840Y-113212750D01*
X165213318Y-113129086D01*
X165213316Y-113129085D01*
X165177578Y-113099755D01*
X165076121Y-113016493D01*
X164992859Y-112915036D01*
X164963529Y-112879298D01*
X164953959Y-112861394D01*
X164879864Y-112722774D01*
X164862691Y-112666160D01*
X164828344Y-112552934D01*
X164810948Y-112376307D01*
X164828344Y-112199680D01*
X164879864Y-112029841D01*
X164879864Y-112029840D01*
X164963528Y-111873318D01*
X164963529Y-111873316D01*
X164992859Y-111837578D01*
X165076121Y-111736121D01*
X165177578Y-111652859D01*
X165213316Y-111623529D01*
X165231220Y-111613959D01*
X165369840Y-111539864D01*
X165426454Y-111522691D01*
X165539680Y-111488344D01*
X165611647Y-111481256D01*
X165672047Y-111475307D01*
X165760567Y-111475307D01*
X165820967Y-111481256D01*
X165820967Y-111481256D01*
G37*
G36*
X164024916Y-109685205D02*
X164096883Y-109692293D01*
X164210109Y-109726640D01*
X164266723Y-109743813D01*
X164405343Y-109817908D01*
X164423247Y-109827478D01*
X164458985Y-109856808D01*
X164560442Y-109940070D01*
X164643704Y-110041527D01*
X164673034Y-110077265D01*
X164673035Y-110077267D01*
X164756699Y-110233789D01*
X164756699Y-110233790D01*
X164808219Y-110403629D01*
X164825615Y-110580256D01*
X164808219Y-110756883D01*
X164773872Y-110870109D01*
X164756699Y-110926723D01*
X164682604Y-111065343D01*
X164673034Y-111083247D01*
X164643704Y-111118985D01*
X164560442Y-111220442D01*
X164458985Y-111303704D01*
X164423247Y-111333034D01*
X164423245Y-111333035D01*
X164266723Y-111416699D01*
X164210109Y-111433872D01*
X164096883Y-111468219D01*
X164030699Y-111474737D01*
X163964516Y-111481256D01*
X163875996Y-111481256D01*
X163809813Y-111474737D01*
X163743629Y-111468219D01*
X163630403Y-111433872D01*
X163573789Y-111416699D01*
X163417267Y-111333035D01*
X163417265Y-111333034D01*
X163381527Y-111303704D01*
X163280070Y-111220442D01*
X163196808Y-111118985D01*
X163167478Y-111083247D01*
X163157908Y-111065343D01*
X163083813Y-110926723D01*
X163066640Y-110870109D01*
X163032293Y-110756883D01*
X163014897Y-110580256D01*
X163032293Y-110403629D01*
X163083813Y-110233790D01*
X163083813Y-110233789D01*
X163167477Y-110077267D01*
X163167478Y-110077265D01*
X163196808Y-110041527D01*
X163280070Y-109940070D01*
X163381527Y-109856808D01*
X163417265Y-109827478D01*
X163435169Y-109817908D01*
X163573789Y-109743813D01*
X163630403Y-109726640D01*
X163743629Y-109692293D01*
X163815596Y-109685205D01*
X163875996Y-109679256D01*
X163964516Y-109679256D01*
X164024916Y-109685205D01*
X164024916Y-109685205D01*
G37*
G36*
X162228865Y-107889154D02*
X162300832Y-107896242D01*
X162414058Y-107930589D01*
X162470672Y-107947762D01*
X162609292Y-108021857D01*
X162627196Y-108031427D01*
X162662934Y-108060757D01*
X162764391Y-108144019D01*
X162847653Y-108245476D01*
X162876983Y-108281214D01*
X162876984Y-108281216D01*
X162960648Y-108437738D01*
X162960648Y-108437739D01*
X163012168Y-108607578D01*
X163029564Y-108784205D01*
X163012168Y-108960832D01*
X162977821Y-109074058D01*
X162960648Y-109130672D01*
X162886553Y-109269292D01*
X162876983Y-109287196D01*
X162847653Y-109322934D01*
X162764391Y-109424391D01*
X162662934Y-109507653D01*
X162627196Y-109536983D01*
X162627194Y-109536984D01*
X162470672Y-109620648D01*
X162414058Y-109637821D01*
X162300832Y-109672168D01*
X162234647Y-109678687D01*
X162168465Y-109685205D01*
X162079945Y-109685205D01*
X162013763Y-109678687D01*
X161947578Y-109672168D01*
X161834352Y-109637821D01*
X161777738Y-109620648D01*
X161621216Y-109536984D01*
X161621214Y-109536983D01*
X161585476Y-109507653D01*
X161484019Y-109424391D01*
X161400757Y-109322934D01*
X161371427Y-109287196D01*
X161361857Y-109269292D01*
X161287762Y-109130672D01*
X161270589Y-109074058D01*
X161236242Y-108960832D01*
X161218846Y-108784205D01*
X161236242Y-108607578D01*
X161287762Y-108437739D01*
X161287762Y-108437738D01*
X161371426Y-108281216D01*
X161371427Y-108281214D01*
X161400757Y-108245476D01*
X161484019Y-108144019D01*
X161585476Y-108060757D01*
X161621214Y-108031427D01*
X161639118Y-108021857D01*
X161777738Y-107947762D01*
X161834352Y-107930589D01*
X161947578Y-107896242D01*
X162019545Y-107889154D01*
X162079945Y-107883205D01*
X162168465Y-107883205D01*
X162228865Y-107889154D01*
X162228865Y-107889154D01*
G37*
G36*
X160432804Y-106093102D02*
X160504781Y-106100191D01*
X160618007Y-106134538D01*
X160674621Y-106151711D01*
X160813241Y-106225806D01*
X160831145Y-106235376D01*
X160866883Y-106264706D01*
X160968340Y-106347968D01*
X161051602Y-106449425D01*
X161080932Y-106485163D01*
X161080933Y-106485165D01*
X161164597Y-106641687D01*
X161164597Y-106641688D01*
X161216117Y-106811527D01*
X161233513Y-106988154D01*
X161216117Y-107164781D01*
X161181770Y-107278007D01*
X161164597Y-107334621D01*
X161090502Y-107473241D01*
X161080932Y-107491145D01*
X161051602Y-107526883D01*
X160968340Y-107628340D01*
X160866883Y-107711602D01*
X160831145Y-107740932D01*
X160831143Y-107740933D01*
X160674621Y-107824597D01*
X160618007Y-107841770D01*
X160504781Y-107876117D01*
X160438596Y-107882636D01*
X160372414Y-107889154D01*
X160283894Y-107889154D01*
X160217712Y-107882636D01*
X160151527Y-107876117D01*
X160038301Y-107841770D01*
X159981687Y-107824597D01*
X159825165Y-107740933D01*
X159825163Y-107740932D01*
X159789425Y-107711602D01*
X159687968Y-107628340D01*
X159604706Y-107526883D01*
X159575376Y-107491145D01*
X159565806Y-107473241D01*
X159491711Y-107334621D01*
X159474538Y-107278007D01*
X159440191Y-107164781D01*
X159422795Y-106988154D01*
X159440191Y-106811527D01*
X159491711Y-106641688D01*
X159491711Y-106641687D01*
X159575375Y-106485165D01*
X159575376Y-106485163D01*
X159604706Y-106449425D01*
X159687968Y-106347968D01*
X159789425Y-106264706D01*
X159825163Y-106235376D01*
X159843067Y-106225806D01*
X159981687Y-106151711D01*
X160038301Y-106134538D01*
X160151527Y-106100191D01*
X160223504Y-106093102D01*
X160283894Y-106087154D01*
X160372414Y-106087154D01*
X160432804Y-106093102D01*
X160432804Y-106093102D01*
G37*
G36*
X158636762Y-104297051D02*
X158708729Y-104304139D01*
X158821955Y-104338486D01*
X158878569Y-104355659D01*
X159017189Y-104429754D01*
X159035093Y-104439324D01*
X159070831Y-104468654D01*
X159172288Y-104551916D01*
X159255550Y-104653373D01*
X159284880Y-104689111D01*
X159284881Y-104689113D01*
X159368545Y-104845635D01*
X159368545Y-104845636D01*
X159420065Y-105015475D01*
X159437461Y-105192102D01*
X159420065Y-105368729D01*
X159385718Y-105481955D01*
X159368545Y-105538569D01*
X159294450Y-105677189D01*
X159284880Y-105695093D01*
X159255550Y-105730831D01*
X159172288Y-105832288D01*
X159070831Y-105915550D01*
X159035093Y-105944880D01*
X159035091Y-105944881D01*
X158878569Y-106028545D01*
X158821955Y-106045718D01*
X158708729Y-106080065D01*
X158642544Y-106086584D01*
X158576362Y-106093102D01*
X158487842Y-106093102D01*
X158421660Y-106086584D01*
X158355475Y-106080065D01*
X158242249Y-106045718D01*
X158185635Y-106028545D01*
X158029113Y-105944881D01*
X158029111Y-105944880D01*
X157993373Y-105915550D01*
X157891916Y-105832288D01*
X157808654Y-105730831D01*
X157779324Y-105695093D01*
X157769754Y-105677189D01*
X157695659Y-105538569D01*
X157678486Y-105481955D01*
X157644139Y-105368729D01*
X157626743Y-105192102D01*
X157644139Y-105015475D01*
X157695659Y-104845636D01*
X157695659Y-104845635D01*
X157779323Y-104689113D01*
X157779324Y-104689111D01*
X157808654Y-104653373D01*
X157891916Y-104551916D01*
X157993373Y-104468654D01*
X158029111Y-104439324D01*
X158047015Y-104429754D01*
X158185635Y-104355659D01*
X158242249Y-104338486D01*
X158355475Y-104304139D01*
X158427442Y-104297051D01*
X158487842Y-104291102D01*
X158576362Y-104291102D01*
X158636762Y-104297051D01*
X158636762Y-104297051D01*
G37*
G36*
X156846493Y-102501569D02*
X156912678Y-102508088D01*
X157025904Y-102542435D01*
X157082518Y-102559608D01*
X157211875Y-102628752D01*
X157239042Y-102643273D01*
X157274780Y-102672603D01*
X157376237Y-102755865D01*
X157459499Y-102857322D01*
X157488829Y-102893060D01*
X157488830Y-102893062D01*
X157572494Y-103049584D01*
X157572494Y-103049585D01*
X157624014Y-103219424D01*
X157641410Y-103396051D01*
X157624014Y-103572678D01*
X157589667Y-103685904D01*
X157572494Y-103742518D01*
X157498399Y-103881138D01*
X157488829Y-103899042D01*
X157459499Y-103934780D01*
X157376237Y-104036237D01*
X157274780Y-104119499D01*
X157239042Y-104148829D01*
X157239040Y-104148830D01*
X157082518Y-104232494D01*
X157025904Y-104249667D01*
X156912678Y-104284014D01*
X156846494Y-104290532D01*
X156780311Y-104297051D01*
X156691791Y-104297051D01*
X156625608Y-104290532D01*
X156559424Y-104284014D01*
X156446198Y-104249667D01*
X156389584Y-104232494D01*
X156233062Y-104148830D01*
X156233060Y-104148829D01*
X156197322Y-104119499D01*
X156095865Y-104036237D01*
X156012603Y-103934780D01*
X155983273Y-103899042D01*
X155973703Y-103881138D01*
X155899608Y-103742518D01*
X155882435Y-103685904D01*
X155848088Y-103572678D01*
X155830692Y-103396051D01*
X155848088Y-103219424D01*
X155899608Y-103049585D01*
X155899608Y-103049584D01*
X155983272Y-102893062D01*
X155983273Y-102893060D01*
X156012603Y-102857322D01*
X156095865Y-102755865D01*
X156197322Y-102672603D01*
X156233060Y-102643273D01*
X156260227Y-102628752D01*
X156389584Y-102559608D01*
X156446198Y-102542435D01*
X156559424Y-102508088D01*
X156625609Y-102501569D01*
X156691791Y-102495051D01*
X156780311Y-102495051D01*
X156846493Y-102501569D01*
X156846493Y-102501569D01*
G37*
G36*
X156214207Y-101600000D02*
X154940000Y-102874207D01*
X153665793Y-101600000D01*
X154940000Y-100325793D01*
X156214207Y-101600000D01*
X156214207Y-101600000D01*
G37*
G36*
X171069941Y-96761248D02*
X171069943Y-96761249D01*
X171069944Y-96761249D01*
X171625190Y-96991239D01*
X171984573Y-97231371D01*
X172124902Y-97325136D01*
X172549864Y-97750098D01*
X172549866Y-97750101D01*
X172883761Y-98249810D01*
X173113751Y-98805056D01*
X173113752Y-98805059D01*
X173231000Y-99394501D01*
X173231000Y-99995499D01*
X173165300Y-100325794D01*
X173113751Y-100584944D01*
X172883761Y-101140190D01*
X172816021Y-101241570D01*
X172549864Y-101639902D01*
X172124902Y-102064864D01*
X172124899Y-102064866D01*
X171625190Y-102398761D01*
X171069944Y-102628751D01*
X171069943Y-102628751D01*
X171069941Y-102628752D01*
X170480499Y-102746000D01*
X169879501Y-102746000D01*
X169290059Y-102628752D01*
X169290057Y-102628751D01*
X169290056Y-102628751D01*
X168734810Y-102398761D01*
X168235101Y-102064866D01*
X168235098Y-102064864D01*
X167810136Y-101639902D01*
X167543979Y-101241570D01*
X167476239Y-101140190D01*
X167246249Y-100584944D01*
X167194701Y-100325794D01*
X167129000Y-99995499D01*
X167129000Y-99394501D01*
X167246248Y-98805059D01*
X167246249Y-98805056D01*
X167476239Y-98249810D01*
X167810134Y-97750101D01*
X167810136Y-97750098D01*
X168235098Y-97325136D01*
X168375427Y-97231371D01*
X168734810Y-96991239D01*
X169290056Y-96761249D01*
X169290057Y-96761249D01*
X169290059Y-96761248D01*
X169879501Y-96644000D01*
X170480499Y-96644000D01*
X171069941Y-96761248D01*
X171069941Y-96761248D01*
G37*
G36*
X129711767Y-95801899D02*
X129843891Y-95856627D01*
X129962799Y-95936079D01*
X130063921Y-96037201D01*
X130143373Y-96156109D01*
X130198101Y-96288233D01*
X130226000Y-96428494D01*
X130226000Y-96571506D01*
X130198101Y-96711767D01*
X130143373Y-96843891D01*
X130063921Y-96962799D01*
X129962799Y-97063921D01*
X129843891Y-97143373D01*
X129711767Y-97198101D01*
X129571506Y-97226000D01*
X129428494Y-97226000D01*
X129288233Y-97198101D01*
X129156109Y-97143373D01*
X129037201Y-97063921D01*
X128936079Y-96962799D01*
X128856627Y-96843891D01*
X128801899Y-96711767D01*
X128774000Y-96571506D01*
X128774000Y-96428494D01*
X128801899Y-96288233D01*
X128856627Y-96156109D01*
X128936079Y-96037201D01*
X129037201Y-95936079D01*
X129156109Y-95856627D01*
X129288233Y-95801899D01*
X129428494Y-95774000D01*
X129571506Y-95774000D01*
X129711767Y-95801899D01*
X129711767Y-95801899D01*
G37*
G36*
X115711767Y-95801899D02*
X115843891Y-95856627D01*
X115962799Y-95936079D01*
X116063921Y-96037201D01*
X116143373Y-96156109D01*
X116198101Y-96288233D01*
X116226000Y-96428494D01*
X116226000Y-96571506D01*
X116198101Y-96711767D01*
X116143373Y-96843891D01*
X116063921Y-96962799D01*
X115962799Y-97063921D01*
X115843891Y-97143373D01*
X115711767Y-97198101D01*
X115571506Y-97226000D01*
X115428494Y-97226000D01*
X115288233Y-97198101D01*
X115156109Y-97143373D01*
X115037201Y-97063921D01*
X114936079Y-96962799D01*
X114856627Y-96843891D01*
X114801899Y-96711767D01*
X114774000Y-96571506D01*
X114774000Y-96428494D01*
X114801899Y-96288233D01*
X114856627Y-96156109D01*
X114936079Y-96037201D01*
X115037201Y-95936079D01*
X115156109Y-95856627D01*
X115288233Y-95801899D01*
X115428494Y-95774000D01*
X115571506Y-95774000D01*
X115711767Y-95801899D01*
X115711767Y-95801899D01*
G37*
G36*
X117711767Y-95801899D02*
X117843891Y-95856627D01*
X117962799Y-95936079D01*
X118063921Y-96037201D01*
X118143373Y-96156109D01*
X118198101Y-96288233D01*
X118226000Y-96428494D01*
X118226000Y-96571506D01*
X118198101Y-96711767D01*
X118143373Y-96843891D01*
X118063921Y-96962799D01*
X117962799Y-97063921D01*
X117843891Y-97143373D01*
X117711767Y-97198101D01*
X117571506Y-97226000D01*
X117428494Y-97226000D01*
X117288233Y-97198101D01*
X117156109Y-97143373D01*
X117037201Y-97063921D01*
X116936079Y-96962799D01*
X116856627Y-96843891D01*
X116801899Y-96711767D01*
X116774000Y-96571506D01*
X116774000Y-96428494D01*
X116801899Y-96288233D01*
X116856627Y-96156109D01*
X116936079Y-96037201D01*
X117037201Y-95936079D01*
X117156109Y-95856627D01*
X117288233Y-95801899D01*
X117428494Y-95774000D01*
X117571506Y-95774000D01*
X117711767Y-95801899D01*
X117711767Y-95801899D01*
G37*
G36*
X119711767Y-95801899D02*
X119843891Y-95856627D01*
X119962799Y-95936079D01*
X120063921Y-96037201D01*
X120143373Y-96156109D01*
X120198101Y-96288233D01*
X120226000Y-96428494D01*
X120226000Y-96571506D01*
X120198101Y-96711767D01*
X120143373Y-96843891D01*
X120063921Y-96962799D01*
X119962799Y-97063921D01*
X119843891Y-97143373D01*
X119711767Y-97198101D01*
X119571506Y-97226000D01*
X119428494Y-97226000D01*
X119288233Y-97198101D01*
X119156109Y-97143373D01*
X119037201Y-97063921D01*
X118936079Y-96962799D01*
X118856627Y-96843891D01*
X118801899Y-96711767D01*
X118774000Y-96571506D01*
X118774000Y-96428494D01*
X118801899Y-96288233D01*
X118856627Y-96156109D01*
X118936079Y-96037201D01*
X119037201Y-95936079D01*
X119156109Y-95856627D01*
X119288233Y-95801899D01*
X119428494Y-95774000D01*
X119571506Y-95774000D01*
X119711767Y-95801899D01*
X119711767Y-95801899D01*
G37*
G36*
X125711767Y-95801899D02*
X125843891Y-95856627D01*
X125962799Y-95936079D01*
X126063921Y-96037201D01*
X126143373Y-96156109D01*
X126198101Y-96288233D01*
X126226000Y-96428494D01*
X126226000Y-96571506D01*
X126198101Y-96711767D01*
X126143373Y-96843891D01*
X126063921Y-96962799D01*
X125962799Y-97063921D01*
X125843891Y-97143373D01*
X125711767Y-97198101D01*
X125571506Y-97226000D01*
X125428494Y-97226000D01*
X125288233Y-97198101D01*
X125156109Y-97143373D01*
X125037201Y-97063921D01*
X124936079Y-96962799D01*
X124856627Y-96843891D01*
X124801899Y-96711767D01*
X124774000Y-96571506D01*
X124774000Y-96428494D01*
X124801899Y-96288233D01*
X124856627Y-96156109D01*
X124936079Y-96037201D01*
X125037201Y-95936079D01*
X125156109Y-95856627D01*
X125288233Y-95801899D01*
X125428494Y-95774000D01*
X125571506Y-95774000D01*
X125711767Y-95801899D01*
X125711767Y-95801899D01*
G37*
G36*
X127711767Y-95801899D02*
X127843891Y-95856627D01*
X127962799Y-95936079D01*
X128063921Y-96037201D01*
X128143373Y-96156109D01*
X128198101Y-96288233D01*
X128226000Y-96428494D01*
X128226000Y-96571506D01*
X128198101Y-96711767D01*
X128143373Y-96843891D01*
X128063921Y-96962799D01*
X127962799Y-97063921D01*
X127843891Y-97143373D01*
X127711767Y-97198101D01*
X127571506Y-97226000D01*
X127428494Y-97226000D01*
X127288233Y-97198101D01*
X127156109Y-97143373D01*
X127037201Y-97063921D01*
X126936079Y-96962799D01*
X126856627Y-96843891D01*
X126801899Y-96711767D01*
X126774000Y-96571506D01*
X126774000Y-96428494D01*
X126801899Y-96288233D01*
X126856627Y-96156109D01*
X126936079Y-96037201D01*
X127037201Y-95936079D01*
X127156109Y-95856627D01*
X127288233Y-95801899D01*
X127428494Y-95774000D01*
X127571506Y-95774000D01*
X127711767Y-95801899D01*
X127711767Y-95801899D01*
G37*
G36*
X121711767Y-95801899D02*
X121843891Y-95856627D01*
X121962799Y-95936079D01*
X122063921Y-96037201D01*
X122143373Y-96156109D01*
X122198101Y-96288233D01*
X122226000Y-96428494D01*
X122226000Y-96571506D01*
X122198101Y-96711767D01*
X122143373Y-96843891D01*
X122063921Y-96962799D01*
X121962799Y-97063921D01*
X121843891Y-97143373D01*
X121711767Y-97198101D01*
X121571506Y-97226000D01*
X121428494Y-97226000D01*
X121288233Y-97198101D01*
X121156109Y-97143373D01*
X121037201Y-97063921D01*
X120936079Y-96962799D01*
X120856627Y-96843891D01*
X120801899Y-96711767D01*
X120774000Y-96571506D01*
X120774000Y-96428494D01*
X120801899Y-96288233D01*
X120856627Y-96156109D01*
X120936079Y-96037201D01*
X121037201Y-95936079D01*
X121156109Y-95856627D01*
X121288233Y-95801899D01*
X121428494Y-95774000D01*
X121571506Y-95774000D01*
X121711767Y-95801899D01*
X121711767Y-95801899D01*
G37*
G36*
X123711767Y-95801899D02*
X123843891Y-95856627D01*
X123962799Y-95936079D01*
X124063921Y-96037201D01*
X124143373Y-96156109D01*
X124198101Y-96288233D01*
X124226000Y-96428494D01*
X124226000Y-96571506D01*
X124198101Y-96711767D01*
X124143373Y-96843891D01*
X124063921Y-96962799D01*
X123962799Y-97063921D01*
X123843891Y-97143373D01*
X123711767Y-97198101D01*
X123571506Y-97226000D01*
X123428494Y-97226000D01*
X123288233Y-97198101D01*
X123156109Y-97143373D01*
X123037201Y-97063921D01*
X122936079Y-96962799D01*
X122856627Y-96843891D01*
X122801899Y-96711767D01*
X122774000Y-96571506D01*
X122774000Y-96428494D01*
X122801899Y-96288233D01*
X122856627Y-96156109D01*
X122936079Y-96037201D01*
X123037201Y-95936079D01*
X123156109Y-95856627D01*
X123288233Y-95801899D01*
X123428494Y-95774000D01*
X123571506Y-95774000D01*
X123711767Y-95801899D01*
X123711767Y-95801899D01*
G37*
G36*
X144706821Y-94161313D02*
X144706824Y-94161314D01*
X144706825Y-94161314D01*
X144867239Y-94209975D01*
X144867241Y-94209976D01*
X144867244Y-94209977D01*
X145015078Y-94288995D01*
X145144659Y-94395341D01*
X145251005Y-94524922D01*
X145330023Y-94672756D01*
X145330024Y-94672759D01*
X145330025Y-94672761D01*
X145378686Y-94833175D01*
X145378687Y-94833179D01*
X145395117Y-95000000D01*
X145378687Y-95166821D01*
X145378686Y-95166824D01*
X145378686Y-95166825D01*
X145353993Y-95248228D01*
X145330023Y-95327244D01*
X145251005Y-95475078D01*
X145144659Y-95604659D01*
X145015078Y-95711005D01*
X144867244Y-95790023D01*
X144867241Y-95790024D01*
X144867239Y-95790025D01*
X144706825Y-95838686D01*
X144706824Y-95838686D01*
X144706821Y-95838687D01*
X144581804Y-95851000D01*
X144498196Y-95851000D01*
X144373179Y-95838687D01*
X144373176Y-95838686D01*
X144373175Y-95838686D01*
X144212761Y-95790025D01*
X144212759Y-95790024D01*
X144212756Y-95790023D01*
X144064922Y-95711005D01*
X143935341Y-95604659D01*
X143828995Y-95475078D01*
X143749977Y-95327244D01*
X143726008Y-95248228D01*
X143701314Y-95166825D01*
X143701314Y-95166824D01*
X143701313Y-95166821D01*
X143684883Y-95000000D01*
X143701313Y-94833179D01*
X143701314Y-94833175D01*
X143749975Y-94672761D01*
X143749976Y-94672759D01*
X143749977Y-94672756D01*
X143828995Y-94524922D01*
X143935341Y-94395341D01*
X144064922Y-94288995D01*
X144212756Y-94209977D01*
X144212759Y-94209976D01*
X144212761Y-94209975D01*
X144373175Y-94161314D01*
X144373176Y-94161314D01*
X144373179Y-94161313D01*
X144498196Y-94149000D01*
X144581804Y-94149000D01*
X144706821Y-94161313D01*
X144706821Y-94161313D01*
G37*
G36*
X148248228Y-94181703D02*
X148403100Y-94245853D01*
X148542481Y-94338985D01*
X148661015Y-94457519D01*
X148754147Y-94596900D01*
X148818297Y-94751772D01*
X148851000Y-94916184D01*
X148851000Y-95083816D01*
X148818297Y-95248228D01*
X148754147Y-95403100D01*
X148661015Y-95542481D01*
X148542481Y-95661015D01*
X148403100Y-95754147D01*
X148248228Y-95818297D01*
X148083816Y-95851000D01*
X147916184Y-95851000D01*
X147751772Y-95818297D01*
X147596900Y-95754147D01*
X147457519Y-95661015D01*
X147338985Y-95542481D01*
X147245853Y-95403100D01*
X147181703Y-95248228D01*
X147149000Y-95083816D01*
X147149000Y-94916184D01*
X147181703Y-94751772D01*
X147245853Y-94596900D01*
X147338985Y-94457519D01*
X147457519Y-94338985D01*
X147596900Y-94245853D01*
X147751772Y-94181703D01*
X147916184Y-94149000D01*
X148083816Y-94149000D01*
X148248228Y-94181703D01*
X148248228Y-94181703D01*
G37*
G36*
X150706821Y-94161313D02*
X150706824Y-94161314D01*
X150706825Y-94161314D01*
X150867239Y-94209975D01*
X150867241Y-94209976D01*
X150867244Y-94209977D01*
X151015078Y-94288995D01*
X151144659Y-94395341D01*
X151251005Y-94524922D01*
X151330023Y-94672756D01*
X151330024Y-94672759D01*
X151330025Y-94672761D01*
X151378686Y-94833175D01*
X151378687Y-94833179D01*
X151395117Y-95000000D01*
X151378687Y-95166821D01*
X151378686Y-95166824D01*
X151378686Y-95166825D01*
X151353993Y-95248228D01*
X151330023Y-95327244D01*
X151251005Y-95475078D01*
X151144659Y-95604659D01*
X151015078Y-95711005D01*
X150867244Y-95790023D01*
X150867241Y-95790024D01*
X150867239Y-95790025D01*
X150706825Y-95838686D01*
X150706824Y-95838686D01*
X150706821Y-95838687D01*
X150581804Y-95851000D01*
X150498196Y-95851000D01*
X150373179Y-95838687D01*
X150373176Y-95838686D01*
X150373175Y-95838686D01*
X150212761Y-95790025D01*
X150212759Y-95790024D01*
X150212756Y-95790023D01*
X150064922Y-95711005D01*
X149935341Y-95604659D01*
X149828995Y-95475078D01*
X149749977Y-95327244D01*
X149726008Y-95248228D01*
X149701314Y-95166825D01*
X149701314Y-95166824D01*
X149701313Y-95166821D01*
X149684883Y-95000000D01*
X149701313Y-94833179D01*
X149701314Y-94833175D01*
X149749975Y-94672761D01*
X149749976Y-94672759D01*
X149749977Y-94672756D01*
X149828995Y-94524922D01*
X149935341Y-94395341D01*
X150064922Y-94288995D01*
X150212756Y-94209977D01*
X150212759Y-94209976D01*
X150212761Y-94209975D01*
X150373175Y-94161314D01*
X150373176Y-94161314D01*
X150373179Y-94161313D01*
X150498196Y-94149000D01*
X150581804Y-94149000D01*
X150706821Y-94161313D01*
X150706821Y-94161313D01*
G37*
G36*
X142248228Y-94181703D02*
X142403100Y-94245853D01*
X142542481Y-94338985D01*
X142661015Y-94457519D01*
X142754147Y-94596900D01*
X142818297Y-94751772D01*
X142851000Y-94916184D01*
X142851000Y-95083816D01*
X142818297Y-95248228D01*
X142754147Y-95403100D01*
X142661015Y-95542481D01*
X142542481Y-95661015D01*
X142403100Y-95754147D01*
X142248228Y-95818297D01*
X142083816Y-95851000D01*
X141916184Y-95851000D01*
X141751772Y-95818297D01*
X141596900Y-95754147D01*
X141457519Y-95661015D01*
X141338985Y-95542481D01*
X141245853Y-95403100D01*
X141181703Y-95248228D01*
X141149000Y-95083816D01*
X141149000Y-94916184D01*
X141181703Y-94751772D01*
X141245853Y-94596900D01*
X141338985Y-94457519D01*
X141457519Y-94338985D01*
X141596900Y-94245853D01*
X141751772Y-94181703D01*
X141916184Y-94149000D01*
X142083816Y-94149000D01*
X142248228Y-94181703D01*
X142248228Y-94181703D01*
G37*
G36*
X155597396Y-90325546D02*
X155770466Y-90397234D01*
X155926230Y-90501312D01*
X156058688Y-90633770D01*
X156162766Y-90789534D01*
X156234454Y-90962604D01*
X156271000Y-91146333D01*
X156271000Y-91333667D01*
X156234454Y-91517396D01*
X156162766Y-91690466D01*
X156058688Y-91846230D01*
X155926230Y-91978688D01*
X155770466Y-92082766D01*
X155597396Y-92154454D01*
X155413667Y-92191000D01*
X155226333Y-92191000D01*
X155042604Y-92154454D01*
X154869534Y-92082766D01*
X154713770Y-91978688D01*
X154581312Y-91846230D01*
X154477234Y-91690466D01*
X154405546Y-91517396D01*
X154369000Y-91333667D01*
X154369000Y-91146333D01*
X154405546Y-90962604D01*
X154477234Y-90789534D01*
X154581312Y-90633770D01*
X154713770Y-90501312D01*
X154869534Y-90397234D01*
X155042604Y-90325546D01*
X155226333Y-90289000D01*
X155413667Y-90289000D01*
X155597396Y-90325546D01*
X155597396Y-90325546D01*
G37*
G36*
X153057396Y-90325546D02*
X153230466Y-90397234D01*
X153386230Y-90501312D01*
X153518688Y-90633770D01*
X153622766Y-90789534D01*
X153694454Y-90962604D01*
X153731000Y-91146333D01*
X153731000Y-91333667D01*
X153694454Y-91517396D01*
X153622766Y-91690466D01*
X153518688Y-91846230D01*
X153386230Y-91978688D01*
X153230466Y-92082766D01*
X153057396Y-92154454D01*
X152873667Y-92191000D01*
X152686333Y-92191000D01*
X152502604Y-92154454D01*
X152329534Y-92082766D01*
X152173770Y-91978688D01*
X152041312Y-91846230D01*
X151937234Y-91690466D01*
X151865546Y-91517396D01*
X151829000Y-91333667D01*
X151829000Y-91146333D01*
X151865546Y-90962604D01*
X151937234Y-90789534D01*
X152041312Y-90633770D01*
X152173770Y-90501312D01*
X152329534Y-90397234D01*
X152502604Y-90325546D01*
X152686333Y-90289000D01*
X152873667Y-90289000D01*
X153057396Y-90325546D01*
X153057396Y-90325546D01*
G37*
G36*
X150517396Y-90325546D02*
X150690466Y-90397234D01*
X150846230Y-90501312D01*
X150978688Y-90633770D01*
X151082766Y-90789534D01*
X151154454Y-90962604D01*
X151191000Y-91146333D01*
X151191000Y-91333667D01*
X151154454Y-91517396D01*
X151082766Y-91690466D01*
X150978688Y-91846230D01*
X150846230Y-91978688D01*
X150690466Y-92082766D01*
X150517396Y-92154454D01*
X150333667Y-92191000D01*
X150146333Y-92191000D01*
X149962604Y-92154454D01*
X149789534Y-92082766D01*
X149633770Y-91978688D01*
X149501312Y-91846230D01*
X149397234Y-91690466D01*
X149325546Y-91517396D01*
X149289000Y-91333667D01*
X149289000Y-91146333D01*
X149325546Y-90962604D01*
X149397234Y-90789534D01*
X149501312Y-90633770D01*
X149633770Y-90501312D01*
X149789534Y-90397234D01*
X149962604Y-90325546D01*
X150146333Y-90289000D01*
X150333667Y-90289000D01*
X150517396Y-90325546D01*
X150517396Y-90325546D01*
G37*
G36*
X147977396Y-90325546D02*
X148150466Y-90397234D01*
X148306230Y-90501312D01*
X148438688Y-90633770D01*
X148542766Y-90789534D01*
X148614454Y-90962604D01*
X148651000Y-91146333D01*
X148651000Y-91333667D01*
X148614454Y-91517396D01*
X148542766Y-91690466D01*
X148438688Y-91846230D01*
X148306230Y-91978688D01*
X148150466Y-92082766D01*
X147977396Y-92154454D01*
X147793667Y-92191000D01*
X147606333Y-92191000D01*
X147422604Y-92154454D01*
X147249534Y-92082766D01*
X147093770Y-91978688D01*
X146961312Y-91846230D01*
X146857234Y-91690466D01*
X146785546Y-91517396D01*
X146749000Y-91333667D01*
X146749000Y-91146333D01*
X146785546Y-90962604D01*
X146857234Y-90789534D01*
X146961312Y-90633770D01*
X147093770Y-90501312D01*
X147249534Y-90397234D01*
X147422604Y-90325546D01*
X147606333Y-90289000D01*
X147793667Y-90289000D01*
X147977396Y-90325546D01*
X147977396Y-90325546D01*
G37*
G36*
X137817396Y-90325546D02*
X137990466Y-90397234D01*
X138146230Y-90501312D01*
X138278688Y-90633770D01*
X138382766Y-90789534D01*
X138454454Y-90962604D01*
X138491000Y-91146333D01*
X138491000Y-91333667D01*
X138454454Y-91517396D01*
X138382766Y-91690466D01*
X138278688Y-91846230D01*
X138146230Y-91978688D01*
X137990466Y-92082766D01*
X137817396Y-92154454D01*
X137633667Y-92191000D01*
X137446333Y-92191000D01*
X137262604Y-92154454D01*
X137089534Y-92082766D01*
X136933770Y-91978688D01*
X136801312Y-91846230D01*
X136697234Y-91690466D01*
X136625546Y-91517396D01*
X136589000Y-91333667D01*
X136589000Y-91146333D01*
X136625546Y-90962604D01*
X136697234Y-90789534D01*
X136801312Y-90633770D01*
X136933770Y-90501312D01*
X137089534Y-90397234D01*
X137262604Y-90325546D01*
X137446333Y-90289000D01*
X137633667Y-90289000D01*
X137817396Y-90325546D01*
X137817396Y-90325546D01*
G37*
G36*
X145437396Y-90325546D02*
X145610466Y-90397234D01*
X145766230Y-90501312D01*
X145898688Y-90633770D01*
X146002766Y-90789534D01*
X146074454Y-90962604D01*
X146111000Y-91146333D01*
X146111000Y-91333667D01*
X146074454Y-91517396D01*
X146002766Y-91690466D01*
X145898688Y-91846230D01*
X145766230Y-91978688D01*
X145610466Y-92082766D01*
X145437396Y-92154454D01*
X145253667Y-92191000D01*
X145066333Y-92191000D01*
X144882604Y-92154454D01*
X144709534Y-92082766D01*
X144553770Y-91978688D01*
X144421312Y-91846230D01*
X144317234Y-91690466D01*
X144245546Y-91517396D01*
X144209000Y-91333667D01*
X144209000Y-91146333D01*
X144245546Y-90962604D01*
X144317234Y-90789534D01*
X144421312Y-90633770D01*
X144553770Y-90501312D01*
X144709534Y-90397234D01*
X144882604Y-90325546D01*
X145066333Y-90289000D01*
X145253667Y-90289000D01*
X145437396Y-90325546D01*
X145437396Y-90325546D01*
G37*
G36*
X140357396Y-90325546D02*
X140530466Y-90397234D01*
X140686230Y-90501312D01*
X140818688Y-90633770D01*
X140922766Y-90789534D01*
X140994454Y-90962604D01*
X141031000Y-91146333D01*
X141031000Y-91333667D01*
X140994454Y-91517396D01*
X140922766Y-91690466D01*
X140818688Y-91846230D01*
X140686230Y-91978688D01*
X140530466Y-92082766D01*
X140357396Y-92154454D01*
X140173667Y-92191000D01*
X139986333Y-92191000D01*
X139802604Y-92154454D01*
X139629534Y-92082766D01*
X139473770Y-91978688D01*
X139341312Y-91846230D01*
X139237234Y-91690466D01*
X139165546Y-91517396D01*
X139129000Y-91333667D01*
X139129000Y-91146333D01*
X139165546Y-90962604D01*
X139237234Y-90789534D01*
X139341312Y-90633770D01*
X139473770Y-90501312D01*
X139629534Y-90397234D01*
X139802604Y-90325546D01*
X139986333Y-90289000D01*
X140173667Y-90289000D01*
X140357396Y-90325546D01*
X140357396Y-90325546D01*
G37*
G36*
X135277396Y-90325546D02*
X135450466Y-90397234D01*
X135606230Y-90501312D01*
X135738688Y-90633770D01*
X135842766Y-90789534D01*
X135914454Y-90962604D01*
X135951000Y-91146333D01*
X135951000Y-91333667D01*
X135914454Y-91517396D01*
X135842766Y-91690466D01*
X135738688Y-91846230D01*
X135606230Y-91978688D01*
X135450466Y-92082766D01*
X135277396Y-92154454D01*
X135093667Y-92191000D01*
X134906333Y-92191000D01*
X134722604Y-92154454D01*
X134549534Y-92082766D01*
X134393770Y-91978688D01*
X134261312Y-91846230D01*
X134157234Y-91690466D01*
X134085546Y-91517396D01*
X134049000Y-91333667D01*
X134049000Y-91146333D01*
X134085546Y-90962604D01*
X134157234Y-90789534D01*
X134261312Y-90633770D01*
X134393770Y-90501312D01*
X134549534Y-90397234D01*
X134722604Y-90325546D01*
X134906333Y-90289000D01*
X135093667Y-90289000D01*
X135277396Y-90325546D01*
X135277396Y-90325546D01*
G37*
G36*
X130197396Y-90325546D02*
X130370466Y-90397234D01*
X130526230Y-90501312D01*
X130658688Y-90633770D01*
X130762766Y-90789534D01*
X130834454Y-90962604D01*
X130871000Y-91146333D01*
X130871000Y-91333667D01*
X130834454Y-91517396D01*
X130762766Y-91690466D01*
X130658688Y-91846230D01*
X130526230Y-91978688D01*
X130370466Y-92082766D01*
X130197396Y-92154454D01*
X130013667Y-92191000D01*
X129826333Y-92191000D01*
X129642604Y-92154454D01*
X129469534Y-92082766D01*
X129313770Y-91978688D01*
X129181312Y-91846230D01*
X129077234Y-91690466D01*
X129005546Y-91517396D01*
X128969000Y-91333667D01*
X128969000Y-91146333D01*
X129005546Y-90962604D01*
X129077234Y-90789534D01*
X129181312Y-90633770D01*
X129313770Y-90501312D01*
X129469534Y-90397234D01*
X129642604Y-90325546D01*
X129826333Y-90289000D01*
X130013667Y-90289000D01*
X130197396Y-90325546D01*
X130197396Y-90325546D01*
G37*
G36*
X132737396Y-90325546D02*
X132910466Y-90397234D01*
X133066230Y-90501312D01*
X133198688Y-90633770D01*
X133302766Y-90789534D01*
X133374454Y-90962604D01*
X133411000Y-91146333D01*
X133411000Y-91333667D01*
X133374454Y-91517396D01*
X133302766Y-91690466D01*
X133198688Y-91846230D01*
X133066230Y-91978688D01*
X132910466Y-92082766D01*
X132737396Y-92154454D01*
X132553667Y-92191000D01*
X132366333Y-92191000D01*
X132182604Y-92154454D01*
X132009534Y-92082766D01*
X131853770Y-91978688D01*
X131721312Y-91846230D01*
X131617234Y-91690466D01*
X131545546Y-91517396D01*
X131509000Y-91333667D01*
X131509000Y-91146333D01*
X131545546Y-90962604D01*
X131617234Y-90789534D01*
X131721312Y-90633770D01*
X131853770Y-90501312D01*
X132009534Y-90397234D01*
X132182604Y-90325546D01*
X132366333Y-90289000D01*
X132553667Y-90289000D01*
X132737396Y-90325546D01*
X132737396Y-90325546D01*
G37*
G36*
X127657396Y-90325546D02*
X127830466Y-90397234D01*
X127986230Y-90501312D01*
X128118688Y-90633770D01*
X128222766Y-90789534D01*
X128294454Y-90962604D01*
X128331000Y-91146333D01*
X128331000Y-91333667D01*
X128294454Y-91517396D01*
X128222766Y-91690466D01*
X128118688Y-91846230D01*
X127986230Y-91978688D01*
X127830466Y-92082766D01*
X127657396Y-92154454D01*
X127473667Y-92191000D01*
X127286333Y-92191000D01*
X127102604Y-92154454D01*
X126929534Y-92082766D01*
X126773770Y-91978688D01*
X126641312Y-91846230D01*
X126537234Y-91690466D01*
X126465546Y-91517396D01*
X126429000Y-91333667D01*
X126429000Y-91146333D01*
X126465546Y-90962604D01*
X126537234Y-90789534D01*
X126641312Y-90633770D01*
X126773770Y-90501312D01*
X126929534Y-90397234D01*
X127102604Y-90325546D01*
X127286333Y-90289000D01*
X127473667Y-90289000D01*
X127657396Y-90325546D01*
X127657396Y-90325546D01*
G37*
G36*
X142897396Y-90325546D02*
X143070466Y-90397234D01*
X143226230Y-90501312D01*
X143358688Y-90633770D01*
X143462766Y-90789534D01*
X143534454Y-90962604D01*
X143571000Y-91146333D01*
X143571000Y-91333667D01*
X143534454Y-91517396D01*
X143462766Y-91690466D01*
X143358688Y-91846230D01*
X143226230Y-91978688D01*
X143070466Y-92082766D01*
X142897396Y-92154454D01*
X142713667Y-92191000D01*
X142526333Y-92191000D01*
X142342604Y-92154454D01*
X142169534Y-92082766D01*
X142013770Y-91978688D01*
X141881312Y-91846230D01*
X141777234Y-91690466D01*
X141705546Y-91517396D01*
X141669000Y-91333667D01*
X141669000Y-91146333D01*
X141705546Y-90962604D01*
X141777234Y-90789534D01*
X141881312Y-90633770D01*
X142013770Y-90501312D01*
X142169534Y-90397234D01*
X142342604Y-90325546D01*
X142526333Y-90289000D01*
X142713667Y-90289000D01*
X142897396Y-90325546D01*
X142897396Y-90325546D01*
G37*
G36*
X165676626Y-90037037D02*
X165789852Y-90071384D01*
X165846466Y-90088557D01*
X166002989Y-90172221D01*
X166140186Y-90284814D01*
X166223448Y-90386271D01*
X166252778Y-90422009D01*
X166252779Y-90422011D01*
X166336443Y-90578533D01*
X166353199Y-90633770D01*
X166387963Y-90748373D01*
X166401000Y-90880742D01*
X166401000Y-91119257D01*
X166387963Y-91251626D01*
X166363077Y-91333665D01*
X166336443Y-91421466D01*
X166336442Y-91421467D01*
X166252778Y-91577991D01*
X166223448Y-91613729D01*
X166140186Y-91715186D01*
X166045251Y-91793096D01*
X166002991Y-91827778D01*
X166002989Y-91827779D01*
X165846467Y-91911443D01*
X165805734Y-91923799D01*
X165676627Y-91962963D01*
X165500000Y-91980359D01*
X165323374Y-91962963D01*
X165194267Y-91923799D01*
X165153534Y-91911443D01*
X164997012Y-91827779D01*
X164997010Y-91827778D01*
X164917711Y-91762699D01*
X164859814Y-91715185D01*
X164791217Y-91631599D01*
X164747222Y-91577991D01*
X164714833Y-91517396D01*
X164663557Y-91421467D01*
X164636923Y-91333665D01*
X164612037Y-91251627D01*
X164601667Y-91146335D01*
X164599000Y-91119260D01*
X164599000Y-90880741D01*
X164612037Y-90748376D01*
X164612037Y-90748374D01*
X164663557Y-90578535D01*
X164663557Y-90578534D01*
X164747221Y-90422011D01*
X164859814Y-90284814D01*
X164961271Y-90201552D01*
X164997009Y-90172222D01*
X165014913Y-90162652D01*
X165153533Y-90088557D01*
X165210147Y-90071384D01*
X165323373Y-90037037D01*
X165500000Y-90019641D01*
X165676626Y-90037037D01*
X165676626Y-90037037D01*
G37*
G36*
X168176626Y-90037037D02*
X168289852Y-90071384D01*
X168346466Y-90088557D01*
X168502989Y-90172221D01*
X168640186Y-90284814D01*
X168723448Y-90386271D01*
X168752778Y-90422009D01*
X168752779Y-90422011D01*
X168836443Y-90578533D01*
X168853199Y-90633770D01*
X168887963Y-90748373D01*
X168901000Y-90880742D01*
X168901000Y-91119257D01*
X168887963Y-91251626D01*
X168863077Y-91333665D01*
X168836443Y-91421466D01*
X168836442Y-91421467D01*
X168752778Y-91577991D01*
X168723448Y-91613729D01*
X168640186Y-91715186D01*
X168545251Y-91793096D01*
X168502991Y-91827778D01*
X168502989Y-91827779D01*
X168346467Y-91911443D01*
X168305734Y-91923799D01*
X168176627Y-91962963D01*
X168000000Y-91980359D01*
X167823374Y-91962963D01*
X167694267Y-91923799D01*
X167653534Y-91911443D01*
X167497012Y-91827779D01*
X167497010Y-91827778D01*
X167417711Y-91762699D01*
X167359814Y-91715185D01*
X167291217Y-91631599D01*
X167247222Y-91577991D01*
X167214833Y-91517396D01*
X167163557Y-91421467D01*
X167136923Y-91333665D01*
X167112037Y-91251627D01*
X167101667Y-91146335D01*
X167099000Y-91119260D01*
X167099000Y-90880741D01*
X167112037Y-90748376D01*
X167112037Y-90748374D01*
X167163557Y-90578535D01*
X167163557Y-90578534D01*
X167247221Y-90422011D01*
X167359814Y-90284814D01*
X167461271Y-90201552D01*
X167497009Y-90172222D01*
X167514913Y-90162652D01*
X167653533Y-90088557D01*
X167710147Y-90071384D01*
X167823373Y-90037037D01*
X168000000Y-90019641D01*
X168176626Y-90037037D01*
X168176626Y-90037037D01*
G37*
G36*
X163758600Y-90027989D02*
X163791649Y-90038014D01*
X163822106Y-90054294D01*
X163848799Y-90076201D01*
X163870706Y-90102894D01*
X163886986Y-90133351D01*
X163897011Y-90166400D01*
X163901000Y-90206904D01*
X163901000Y-91793096D01*
X163897011Y-91833600D01*
X163886986Y-91866649D01*
X163870706Y-91897106D01*
X163848799Y-91923799D01*
X163822106Y-91945706D01*
X163791649Y-91961986D01*
X163758600Y-91972011D01*
X163718096Y-91976000D01*
X162281904Y-91976000D01*
X162241400Y-91972011D01*
X162208351Y-91961986D01*
X162177894Y-91945706D01*
X162151201Y-91923799D01*
X162129294Y-91897106D01*
X162113014Y-91866649D01*
X162102989Y-91833600D01*
X162099000Y-91793096D01*
X162099000Y-90206904D01*
X162102989Y-90166400D01*
X162113014Y-90133351D01*
X162129294Y-90102894D01*
X162151201Y-90076201D01*
X162177894Y-90054294D01*
X162208351Y-90038014D01*
X162241400Y-90027989D01*
X162281904Y-90024000D01*
X163718096Y-90024000D01*
X163758600Y-90027989D01*
X163758600Y-90027989D01*
G37*
G36*
X117306565Y-88489389D02*
X117497834Y-88568615D01*
X117669976Y-88683637D01*
X117816363Y-88830024D01*
X117931385Y-89002166D01*
X118010611Y-89193435D01*
X118051000Y-89396484D01*
X118051000Y-89603516D01*
X118010611Y-89806565D01*
X117931385Y-89997834D01*
X117816363Y-90169976D01*
X117669976Y-90316363D01*
X117497834Y-90431385D01*
X117306565Y-90510611D01*
X117103516Y-90551000D01*
X116896484Y-90551000D01*
X116693435Y-90510611D01*
X116502166Y-90431385D01*
X116330024Y-90316363D01*
X116183637Y-90169976D01*
X116068615Y-89997834D01*
X115989389Y-89806565D01*
X115949000Y-89603516D01*
X115949000Y-89396484D01*
X115989389Y-89193435D01*
X116068615Y-89002166D01*
X116183637Y-88830024D01*
X116330024Y-88683637D01*
X116502166Y-88568615D01*
X116693435Y-88489389D01*
X116896484Y-88449000D01*
X117103516Y-88449000D01*
X117306565Y-88489389D01*
X117306565Y-88489389D01*
G37*
G36*
X123806565Y-88489389D02*
X123997834Y-88568615D01*
X124169976Y-88683637D01*
X124316363Y-88830024D01*
X124431385Y-89002166D01*
X124510611Y-89193435D01*
X124551000Y-89396484D01*
X124551000Y-89603516D01*
X124510611Y-89806565D01*
X124431385Y-89997834D01*
X124316363Y-90169976D01*
X124169976Y-90316363D01*
X123997834Y-90431385D01*
X123806565Y-90510611D01*
X123603516Y-90551000D01*
X123396484Y-90551000D01*
X123193435Y-90510611D01*
X123002166Y-90431385D01*
X122830024Y-90316363D01*
X122683637Y-90169976D01*
X122568615Y-89997834D01*
X122489389Y-89806565D01*
X122449000Y-89603516D01*
X122449000Y-89396484D01*
X122489389Y-89193435D01*
X122568615Y-89002166D01*
X122683637Y-88830024D01*
X122830024Y-88683637D01*
X123002166Y-88568615D01*
X123193435Y-88489389D01*
X123396484Y-88449000D01*
X123603516Y-88449000D01*
X123806565Y-88489389D01*
X123806565Y-88489389D01*
G37*
G36*
X134007396Y-87785546D02*
X134180466Y-87857234D01*
X134336230Y-87961312D01*
X134468688Y-88093770D01*
X134572766Y-88249534D01*
X134644454Y-88422604D01*
X134681000Y-88606333D01*
X134681000Y-88793667D01*
X134644454Y-88977396D01*
X134572766Y-89150466D01*
X134468688Y-89306230D01*
X134336230Y-89438688D01*
X134180466Y-89542766D01*
X134007396Y-89614454D01*
X133823667Y-89651000D01*
X133636333Y-89651000D01*
X133452604Y-89614454D01*
X133279534Y-89542766D01*
X133123770Y-89438688D01*
X132991312Y-89306230D01*
X132887234Y-89150466D01*
X132815546Y-88977396D01*
X132779000Y-88793667D01*
X132779000Y-88606333D01*
X132815546Y-88422604D01*
X132887234Y-88249534D01*
X132991312Y-88093770D01*
X133123770Y-87961312D01*
X133279534Y-87857234D01*
X133452604Y-87785546D01*
X133636333Y-87749000D01*
X133823667Y-87749000D01*
X134007396Y-87785546D01*
X134007396Y-87785546D01*
G37*
G36*
X127657396Y-87785546D02*
X127830466Y-87857234D01*
X127986230Y-87961312D01*
X128118688Y-88093770D01*
X128222766Y-88249534D01*
X128294454Y-88422604D01*
X128331000Y-88606333D01*
X128331000Y-88793667D01*
X128294454Y-88977396D01*
X128222766Y-89150466D01*
X128118688Y-89306230D01*
X127986230Y-89438688D01*
X127830466Y-89542766D01*
X127657396Y-89614454D01*
X127473667Y-89651000D01*
X127286333Y-89651000D01*
X127102604Y-89614454D01*
X126929534Y-89542766D01*
X126773770Y-89438688D01*
X126641312Y-89306230D01*
X126537234Y-89150466D01*
X126465546Y-88977396D01*
X126429000Y-88793667D01*
X126429000Y-88606333D01*
X126465546Y-88422604D01*
X126537234Y-88249534D01*
X126641312Y-88093770D01*
X126773770Y-87961312D01*
X126929534Y-87857234D01*
X127102604Y-87785546D01*
X127286333Y-87749000D01*
X127473667Y-87749000D01*
X127657396Y-87785546D01*
X127657396Y-87785546D01*
G37*
G36*
X136547396Y-87785546D02*
X136720466Y-87857234D01*
X136876230Y-87961312D01*
X137008688Y-88093770D01*
X137112766Y-88249534D01*
X137184454Y-88422604D01*
X137221000Y-88606333D01*
X137221000Y-88793667D01*
X137184454Y-88977396D01*
X137112766Y-89150466D01*
X137008688Y-89306230D01*
X136876230Y-89438688D01*
X136720466Y-89542766D01*
X136547396Y-89614454D01*
X136363667Y-89651000D01*
X136176333Y-89651000D01*
X135992604Y-89614454D01*
X135819534Y-89542766D01*
X135663770Y-89438688D01*
X135531312Y-89306230D01*
X135427234Y-89150466D01*
X135355546Y-88977396D01*
X135319000Y-88793667D01*
X135319000Y-88606333D01*
X135355546Y-88422604D01*
X135427234Y-88249534D01*
X135531312Y-88093770D01*
X135663770Y-87961312D01*
X135819534Y-87857234D01*
X135992604Y-87785546D01*
X136176333Y-87749000D01*
X136363667Y-87749000D01*
X136547396Y-87785546D01*
X136547396Y-87785546D01*
G37*
G36*
X146707396Y-87785546D02*
X146880466Y-87857234D01*
X147036230Y-87961312D01*
X147168688Y-88093770D01*
X147272766Y-88249534D01*
X147344454Y-88422604D01*
X147381000Y-88606333D01*
X147381000Y-88793667D01*
X147344454Y-88977396D01*
X147272766Y-89150466D01*
X147168688Y-89306230D01*
X147036230Y-89438688D01*
X146880466Y-89542766D01*
X146707396Y-89614454D01*
X146523667Y-89651000D01*
X146336333Y-89651000D01*
X146152604Y-89614454D01*
X145979534Y-89542766D01*
X145823770Y-89438688D01*
X145691312Y-89306230D01*
X145587234Y-89150466D01*
X145515546Y-88977396D01*
X145479000Y-88793667D01*
X145479000Y-88606333D01*
X145515546Y-88422604D01*
X145587234Y-88249534D01*
X145691312Y-88093770D01*
X145823770Y-87961312D01*
X145979534Y-87857234D01*
X146152604Y-87785546D01*
X146336333Y-87749000D01*
X146523667Y-87749000D01*
X146707396Y-87785546D01*
X146707396Y-87785546D01*
G37*
G36*
X144167396Y-87785546D02*
X144340466Y-87857234D01*
X144496230Y-87961312D01*
X144628688Y-88093770D01*
X144732766Y-88249534D01*
X144804454Y-88422604D01*
X144841000Y-88606333D01*
X144841000Y-88793667D01*
X144804454Y-88977396D01*
X144732766Y-89150466D01*
X144628688Y-89306230D01*
X144496230Y-89438688D01*
X144340466Y-89542766D01*
X144167396Y-89614454D01*
X143983667Y-89651000D01*
X143796333Y-89651000D01*
X143612604Y-89614454D01*
X143439534Y-89542766D01*
X143283770Y-89438688D01*
X143151312Y-89306230D01*
X143047234Y-89150466D01*
X142975546Y-88977396D01*
X142939000Y-88793667D01*
X142939000Y-88606333D01*
X142975546Y-88422604D01*
X143047234Y-88249534D01*
X143151312Y-88093770D01*
X143283770Y-87961312D01*
X143439534Y-87857234D01*
X143612604Y-87785546D01*
X143796333Y-87749000D01*
X143983667Y-87749000D01*
X144167396Y-87785546D01*
X144167396Y-87785546D01*
G37*
G36*
X127657396Y-85245546D02*
X127830466Y-85317234D01*
X127986230Y-85421312D01*
X128118688Y-85553770D01*
X128222766Y-85709534D01*
X128294454Y-85882604D01*
X128331000Y-86066333D01*
X128331000Y-86253667D01*
X128294454Y-86437396D01*
X128222766Y-86610466D01*
X128118688Y-86766230D01*
X127986230Y-86898688D01*
X127830466Y-87002766D01*
X127657396Y-87074454D01*
X127473667Y-87111000D01*
X127286333Y-87111000D01*
X127102604Y-87074454D01*
X126929534Y-87002766D01*
X126773770Y-86898688D01*
X126641312Y-86766230D01*
X126537234Y-86610466D01*
X126465546Y-86437396D01*
X126429000Y-86253667D01*
X126429000Y-86066333D01*
X126465546Y-85882604D01*
X126537234Y-85709534D01*
X126641312Y-85553770D01*
X126773770Y-85421312D01*
X126929534Y-85317234D01*
X127102604Y-85245546D01*
X127286333Y-85209000D01*
X127473667Y-85209000D01*
X127657396Y-85245546D01*
X127657396Y-85245546D01*
G37*
G36*
X123806565Y-83989389D02*
X123997834Y-84068615D01*
X124169976Y-84183637D01*
X124316363Y-84330024D01*
X124431385Y-84502166D01*
X124510611Y-84693435D01*
X124551000Y-84896484D01*
X124551000Y-85103516D01*
X124510611Y-85306565D01*
X124431385Y-85497834D01*
X124316363Y-85669976D01*
X124169976Y-85816363D01*
X123997834Y-85931385D01*
X123806565Y-86010611D01*
X123603516Y-86051000D01*
X123396484Y-86051000D01*
X123193435Y-86010611D01*
X123002166Y-85931385D01*
X122830024Y-85816363D01*
X122683637Y-85669976D01*
X122568615Y-85497834D01*
X122489389Y-85306565D01*
X122449000Y-85103516D01*
X122449000Y-84896484D01*
X122489389Y-84693435D01*
X122568615Y-84502166D01*
X122683637Y-84330024D01*
X122830024Y-84183637D01*
X123002166Y-84068615D01*
X123193435Y-83989389D01*
X123396484Y-83949000D01*
X123603516Y-83949000D01*
X123806565Y-83989389D01*
X123806565Y-83989389D01*
G37*
G36*
X117306565Y-83989389D02*
X117497834Y-84068615D01*
X117669976Y-84183637D01*
X117816363Y-84330024D01*
X117931385Y-84502166D01*
X118010611Y-84693435D01*
X118051000Y-84896484D01*
X118051000Y-85103516D01*
X118010611Y-85306565D01*
X117931385Y-85497834D01*
X117816363Y-85669976D01*
X117669976Y-85816363D01*
X117497834Y-85931385D01*
X117306565Y-86010611D01*
X117103516Y-86051000D01*
X116896484Y-86051000D01*
X116693435Y-86010611D01*
X116502166Y-85931385D01*
X116330024Y-85816363D01*
X116183637Y-85669976D01*
X116068615Y-85497834D01*
X115989389Y-85306565D01*
X115949000Y-85103516D01*
X115949000Y-84896484D01*
X115989389Y-84693435D01*
X116068615Y-84502166D01*
X116183637Y-84330024D01*
X116330024Y-84183637D01*
X116502166Y-84068615D01*
X116693435Y-83989389D01*
X116896484Y-83949000D01*
X117103516Y-83949000D01*
X117306565Y-83989389D01*
X117306565Y-83989389D01*
G37*
G36*
X163651000Y-82720104D02*
X163653402Y-82744490D01*
X163660515Y-82767939D01*
X163672066Y-82789550D01*
X163687612Y-82808492D01*
X163706554Y-82824038D01*
X163728165Y-82835589D01*
X163751614Y-82842702D01*
X163776000Y-82845104D01*
X163800386Y-82842702D01*
X163823835Y-82835589D01*
X163845446Y-82824038D01*
X163864388Y-82808492D01*
X163879934Y-82789550D01*
X163891485Y-82767939D01*
X163923089Y-82691639D01*
X163994338Y-82585008D01*
X164085008Y-82494338D01*
X164191639Y-82423089D01*
X164310110Y-82374017D01*
X164435881Y-82349000D01*
X164564119Y-82349000D01*
X164689890Y-82374017D01*
X164808361Y-82423089D01*
X164914992Y-82494338D01*
X165005662Y-82585008D01*
X165076911Y-82691639D01*
X165125983Y-82810110D01*
X165151000Y-82935881D01*
X165151000Y-83064119D01*
X165125983Y-83189890D01*
X165076911Y-83308361D01*
X165005662Y-83414992D01*
X164914992Y-83505662D01*
X164808361Y-83576911D01*
X164689890Y-83625983D01*
X164564119Y-83651000D01*
X164435881Y-83651000D01*
X164310110Y-83625983D01*
X164191639Y-83576911D01*
X164085008Y-83505662D01*
X163994338Y-83414992D01*
X163923089Y-83308361D01*
X163891485Y-83232061D01*
X163879934Y-83210450D01*
X163864389Y-83191508D01*
X163845447Y-83175963D01*
X163823836Y-83164411D01*
X163800387Y-83157298D01*
X163776001Y-83154896D01*
X163751614Y-83157298D01*
X163728165Y-83164411D01*
X163706554Y-83175962D01*
X163687612Y-83191507D01*
X163672067Y-83210449D01*
X163660515Y-83232060D01*
X163653402Y-83255509D01*
X163651000Y-83279896D01*
X163651000Y-83651000D01*
X162349000Y-83651000D01*
X162349000Y-82349000D01*
X163651000Y-82349000D01*
X163651000Y-82720104D01*
X163651000Y-82720104D01*
G37*
G36*
X122809941Y-76441248D02*
X122809943Y-76441249D01*
X122809944Y-76441249D01*
X123365190Y-76671239D01*
X123621898Y-76842766D01*
X123864902Y-77005136D01*
X124289864Y-77430098D01*
X124289866Y-77430101D01*
X124623761Y-77929810D01*
X124853751Y-78485056D01*
X124853752Y-78485059D01*
X124971000Y-79074501D01*
X124971000Y-79675499D01*
X124944511Y-79808668D01*
X124853751Y-80264944D01*
X124623761Y-80820190D01*
X124556021Y-80921570D01*
X124289864Y-81319902D01*
X123864902Y-81744864D01*
X123864899Y-81744866D01*
X123365190Y-82078761D01*
X122809944Y-82308751D01*
X122809943Y-82308751D01*
X122809941Y-82308752D01*
X122220499Y-82426000D01*
X121619501Y-82426000D01*
X121030059Y-82308752D01*
X121030057Y-82308751D01*
X121030056Y-82308751D01*
X120474810Y-82078761D01*
X119975101Y-81744866D01*
X119975098Y-81744864D01*
X119550136Y-81319902D01*
X119283979Y-80921570D01*
X119216239Y-80820190D01*
X118986249Y-80264944D01*
X118895490Y-79808668D01*
X118869000Y-79675499D01*
X118869000Y-79074501D01*
X118986248Y-78485059D01*
X118986249Y-78485056D01*
X119216239Y-77929810D01*
X119550134Y-77430101D01*
X119550136Y-77430098D01*
X119975098Y-77005136D01*
X120218102Y-76842766D01*
X120474810Y-76671239D01*
X121030056Y-76441249D01*
X121030057Y-76441249D01*
X121030059Y-76441248D01*
X121619501Y-76324000D01*
X122220499Y-76324000D01*
X122809941Y-76441248D01*
X122809941Y-76441248D01*
G37*
G36*
X153057396Y-75085546D02*
X153230466Y-75157234D01*
X153386230Y-75261312D01*
X153518688Y-75393770D01*
X153622766Y-75549534D01*
X153694454Y-75722604D01*
X153731000Y-75906333D01*
X153731000Y-76093667D01*
X153694454Y-76277396D01*
X153622766Y-76450466D01*
X153518688Y-76606230D01*
X153386230Y-76738688D01*
X153230466Y-76842766D01*
X153057396Y-76914454D01*
X152873667Y-76951000D01*
X152686333Y-76951000D01*
X152502604Y-76914454D01*
X152329534Y-76842766D01*
X152173770Y-76738688D01*
X152041312Y-76606230D01*
X151937234Y-76450466D01*
X151865546Y-76277396D01*
X151829000Y-76093667D01*
X151829000Y-75906333D01*
X151865546Y-75722604D01*
X151937234Y-75549534D01*
X152041312Y-75393770D01*
X152173770Y-75261312D01*
X152329534Y-75157234D01*
X152502604Y-75085546D01*
X152686333Y-75049000D01*
X152873667Y-75049000D01*
X153057396Y-75085546D01*
X153057396Y-75085546D01*
G37*
G36*
X135277396Y-75085546D02*
X135450466Y-75157234D01*
X135606230Y-75261312D01*
X135738688Y-75393770D01*
X135842766Y-75549534D01*
X135914454Y-75722604D01*
X135951000Y-75906333D01*
X135951000Y-76093667D01*
X135914454Y-76277396D01*
X135842766Y-76450466D01*
X135738688Y-76606230D01*
X135606230Y-76738688D01*
X135450466Y-76842766D01*
X135277396Y-76914454D01*
X135093667Y-76951000D01*
X134906333Y-76951000D01*
X134722604Y-76914454D01*
X134549534Y-76842766D01*
X134393770Y-76738688D01*
X134261312Y-76606230D01*
X134157234Y-76450466D01*
X134085546Y-76277396D01*
X134049000Y-76093667D01*
X134049000Y-75906333D01*
X134085546Y-75722604D01*
X134157234Y-75549534D01*
X134261312Y-75393770D01*
X134393770Y-75261312D01*
X134549534Y-75157234D01*
X134722604Y-75085546D01*
X134906333Y-75049000D01*
X135093667Y-75049000D01*
X135277396Y-75085546D01*
X135277396Y-75085546D01*
G37*
G36*
X130197396Y-75085546D02*
X130370466Y-75157234D01*
X130526230Y-75261312D01*
X130658688Y-75393770D01*
X130762766Y-75549534D01*
X130834454Y-75722604D01*
X130871000Y-75906333D01*
X130871000Y-76093667D01*
X130834454Y-76277396D01*
X130762766Y-76450466D01*
X130658688Y-76606230D01*
X130526230Y-76738688D01*
X130370466Y-76842766D01*
X130197396Y-76914454D01*
X130013667Y-76951000D01*
X129826333Y-76951000D01*
X129642604Y-76914454D01*
X129469534Y-76842766D01*
X129313770Y-76738688D01*
X129181312Y-76606230D01*
X129077234Y-76450466D01*
X129005546Y-76277396D01*
X128969000Y-76093667D01*
X128969000Y-75906333D01*
X129005546Y-75722604D01*
X129077234Y-75549534D01*
X129181312Y-75393770D01*
X129313770Y-75261312D01*
X129469534Y-75157234D01*
X129642604Y-75085546D01*
X129826333Y-75049000D01*
X130013667Y-75049000D01*
X130197396Y-75085546D01*
X130197396Y-75085546D01*
G37*
G36*
X132737396Y-75085546D02*
X132910466Y-75157234D01*
X133066230Y-75261312D01*
X133198688Y-75393770D01*
X133302766Y-75549534D01*
X133374454Y-75722604D01*
X133411000Y-75906333D01*
X133411000Y-76093667D01*
X133374454Y-76277396D01*
X133302766Y-76450466D01*
X133198688Y-76606230D01*
X133066230Y-76738688D01*
X132910466Y-76842766D01*
X132737396Y-76914454D01*
X132553667Y-76951000D01*
X132366333Y-76951000D01*
X132182604Y-76914454D01*
X132009534Y-76842766D01*
X131853770Y-76738688D01*
X131721312Y-76606230D01*
X131617234Y-76450466D01*
X131545546Y-76277396D01*
X131509000Y-76093667D01*
X131509000Y-75906333D01*
X131545546Y-75722604D01*
X131617234Y-75549534D01*
X131721312Y-75393770D01*
X131853770Y-75261312D01*
X132009534Y-75157234D01*
X132182604Y-75085546D01*
X132366333Y-75049000D01*
X132553667Y-75049000D01*
X132737396Y-75085546D01*
X132737396Y-75085546D01*
G37*
G36*
X155597396Y-75085546D02*
X155770466Y-75157234D01*
X155926230Y-75261312D01*
X156058688Y-75393770D01*
X156162766Y-75549534D01*
X156234454Y-75722604D01*
X156271000Y-75906333D01*
X156271000Y-76093667D01*
X156234454Y-76277396D01*
X156162766Y-76450466D01*
X156058688Y-76606230D01*
X155926230Y-76738688D01*
X155770466Y-76842766D01*
X155597396Y-76914454D01*
X155413667Y-76951000D01*
X155226333Y-76951000D01*
X155042604Y-76914454D01*
X154869534Y-76842766D01*
X154713770Y-76738688D01*
X154581312Y-76606230D01*
X154477234Y-76450466D01*
X154405546Y-76277396D01*
X154369000Y-76093667D01*
X154369000Y-75906333D01*
X154405546Y-75722604D01*
X154477234Y-75549534D01*
X154581312Y-75393770D01*
X154713770Y-75261312D01*
X154869534Y-75157234D01*
X155042604Y-75085546D01*
X155226333Y-75049000D01*
X155413667Y-75049000D01*
X155597396Y-75085546D01*
X155597396Y-75085546D01*
G37*
G36*
X150517396Y-75085546D02*
X150690466Y-75157234D01*
X150846230Y-75261312D01*
X150978688Y-75393770D01*
X151082766Y-75549534D01*
X151154454Y-75722604D01*
X151191000Y-75906333D01*
X151191000Y-76093667D01*
X151154454Y-76277396D01*
X151082766Y-76450466D01*
X150978688Y-76606230D01*
X150846230Y-76738688D01*
X150690466Y-76842766D01*
X150517396Y-76914454D01*
X150333667Y-76951000D01*
X150146333Y-76951000D01*
X149962604Y-76914454D01*
X149789534Y-76842766D01*
X149633770Y-76738688D01*
X149501312Y-76606230D01*
X149397234Y-76450466D01*
X149325546Y-76277396D01*
X149289000Y-76093667D01*
X149289000Y-75906333D01*
X149325546Y-75722604D01*
X149397234Y-75549534D01*
X149501312Y-75393770D01*
X149633770Y-75261312D01*
X149789534Y-75157234D01*
X149962604Y-75085546D01*
X150146333Y-75049000D01*
X150333667Y-75049000D01*
X150517396Y-75085546D01*
X150517396Y-75085546D01*
G37*
G36*
X147977396Y-75085546D02*
X148150466Y-75157234D01*
X148306230Y-75261312D01*
X148438688Y-75393770D01*
X148542766Y-75549534D01*
X148614454Y-75722604D01*
X148651000Y-75906333D01*
X148651000Y-76093667D01*
X148614454Y-76277396D01*
X148542766Y-76450466D01*
X148438688Y-76606230D01*
X148306230Y-76738688D01*
X148150466Y-76842766D01*
X147977396Y-76914454D01*
X147793667Y-76951000D01*
X147606333Y-76951000D01*
X147422604Y-76914454D01*
X147249534Y-76842766D01*
X147093770Y-76738688D01*
X146961312Y-76606230D01*
X146857234Y-76450466D01*
X146785546Y-76277396D01*
X146749000Y-76093667D01*
X146749000Y-75906333D01*
X146785546Y-75722604D01*
X146857234Y-75549534D01*
X146961312Y-75393770D01*
X147093770Y-75261312D01*
X147249534Y-75157234D01*
X147422604Y-75085546D01*
X147606333Y-75049000D01*
X147793667Y-75049000D01*
X147977396Y-75085546D01*
X147977396Y-75085546D01*
G37*
G36*
X145437396Y-75085546D02*
X145610466Y-75157234D01*
X145766230Y-75261312D01*
X145898688Y-75393770D01*
X146002766Y-75549534D01*
X146074454Y-75722604D01*
X146111000Y-75906333D01*
X146111000Y-76093667D01*
X146074454Y-76277396D01*
X146002766Y-76450466D01*
X145898688Y-76606230D01*
X145766230Y-76738688D01*
X145610466Y-76842766D01*
X145437396Y-76914454D01*
X145253667Y-76951000D01*
X145066333Y-76951000D01*
X144882604Y-76914454D01*
X144709534Y-76842766D01*
X144553770Y-76738688D01*
X144421312Y-76606230D01*
X144317234Y-76450466D01*
X144245546Y-76277396D01*
X144209000Y-76093667D01*
X144209000Y-75906333D01*
X144245546Y-75722604D01*
X144317234Y-75549534D01*
X144421312Y-75393770D01*
X144553770Y-75261312D01*
X144709534Y-75157234D01*
X144882604Y-75085546D01*
X145066333Y-75049000D01*
X145253667Y-75049000D01*
X145437396Y-75085546D01*
X145437396Y-75085546D01*
G37*
G36*
X142897396Y-75085546D02*
X143070466Y-75157234D01*
X143226230Y-75261312D01*
X143358688Y-75393770D01*
X143462766Y-75549534D01*
X143534454Y-75722604D01*
X143571000Y-75906333D01*
X143571000Y-76093667D01*
X143534454Y-76277396D01*
X143462766Y-76450466D01*
X143358688Y-76606230D01*
X143226230Y-76738688D01*
X143070466Y-76842766D01*
X142897396Y-76914454D01*
X142713667Y-76951000D01*
X142526333Y-76951000D01*
X142342604Y-76914454D01*
X142169534Y-76842766D01*
X142013770Y-76738688D01*
X141881312Y-76606230D01*
X141777234Y-76450466D01*
X141705546Y-76277396D01*
X141669000Y-76093667D01*
X141669000Y-75906333D01*
X141705546Y-75722604D01*
X141777234Y-75549534D01*
X141881312Y-75393770D01*
X142013770Y-75261312D01*
X142169534Y-75157234D01*
X142342604Y-75085546D01*
X142526333Y-75049000D01*
X142713667Y-75049000D01*
X142897396Y-75085546D01*
X142897396Y-75085546D01*
G37*
G36*
X140357396Y-75085546D02*
X140530466Y-75157234D01*
X140686230Y-75261312D01*
X140818688Y-75393770D01*
X140922766Y-75549534D01*
X140994454Y-75722604D01*
X141031000Y-75906333D01*
X141031000Y-76093667D01*
X140994454Y-76277396D01*
X140922766Y-76450466D01*
X140818688Y-76606230D01*
X140686230Y-76738688D01*
X140530466Y-76842766D01*
X140357396Y-76914454D01*
X140173667Y-76951000D01*
X139986333Y-76951000D01*
X139802604Y-76914454D01*
X139629534Y-76842766D01*
X139473770Y-76738688D01*
X139341312Y-76606230D01*
X139237234Y-76450466D01*
X139165546Y-76277396D01*
X139129000Y-76093667D01*
X139129000Y-75906333D01*
X139165546Y-75722604D01*
X139237234Y-75549534D01*
X139341312Y-75393770D01*
X139473770Y-75261312D01*
X139629534Y-75157234D01*
X139802604Y-75085546D01*
X139986333Y-75049000D01*
X140173667Y-75049000D01*
X140357396Y-75085546D01*
X140357396Y-75085546D01*
G37*
G36*
X137817396Y-75085546D02*
X137990466Y-75157234D01*
X138146230Y-75261312D01*
X138278688Y-75393770D01*
X138382766Y-75549534D01*
X138454454Y-75722604D01*
X138491000Y-75906333D01*
X138491000Y-76093667D01*
X138454454Y-76277396D01*
X138382766Y-76450466D01*
X138278688Y-76606230D01*
X138146230Y-76738688D01*
X137990466Y-76842766D01*
X137817396Y-76914454D01*
X137633667Y-76951000D01*
X137446333Y-76951000D01*
X137262604Y-76914454D01*
X137089534Y-76842766D01*
X136933770Y-76738688D01*
X136801312Y-76606230D01*
X136697234Y-76450466D01*
X136625546Y-76277396D01*
X136589000Y-76093667D01*
X136589000Y-75906333D01*
X136625546Y-75722604D01*
X136697234Y-75549534D01*
X136801312Y-75393770D01*
X136933770Y-75261312D01*
X137089534Y-75157234D01*
X137262604Y-75085546D01*
X137446333Y-75049000D01*
X137633667Y-75049000D01*
X137817396Y-75085546D01*
X137817396Y-75085546D01*
G37*
G36*
X127657396Y-75085546D02*
X127830466Y-75157234D01*
X127986230Y-75261312D01*
X128118688Y-75393770D01*
X128222766Y-75549534D01*
X128294454Y-75722604D01*
X128331000Y-75906333D01*
X128331000Y-76093667D01*
X128294454Y-76277396D01*
X128222766Y-76450466D01*
X128118688Y-76606230D01*
X127986230Y-76738688D01*
X127830466Y-76842766D01*
X127657396Y-76914454D01*
X127473667Y-76951000D01*
X127286333Y-76951000D01*
X127102604Y-76914454D01*
X126929534Y-76842766D01*
X126773770Y-76738688D01*
X126641312Y-76606230D01*
X126537234Y-76450466D01*
X126465546Y-76277396D01*
X126429000Y-76093667D01*
X126429000Y-75906333D01*
X126465546Y-75722604D01*
X126537234Y-75549534D01*
X126641312Y-75393770D01*
X126773770Y-75261312D01*
X126929534Y-75157234D01*
X127102604Y-75085546D01*
X127286333Y-75049000D01*
X127473667Y-75049000D01*
X127657396Y-75085546D01*
X127657396Y-75085546D01*
G37*
G36*
X140817396Y-70085546D02*
X140990466Y-70157234D01*
X141146230Y-70261312D01*
X141278688Y-70393770D01*
X141382766Y-70549534D01*
X141454454Y-70722604D01*
X141491000Y-70906333D01*
X141491000Y-71093667D01*
X141454454Y-71277396D01*
X141382766Y-71450466D01*
X141278688Y-71606230D01*
X141146230Y-71738688D01*
X140990466Y-71842766D01*
X140817396Y-71914454D01*
X140633667Y-71951000D01*
X140446333Y-71951000D01*
X140262604Y-71914454D01*
X140089534Y-71842766D01*
X139933770Y-71738688D01*
X139801312Y-71606230D01*
X139697234Y-71450466D01*
X139625546Y-71277396D01*
X139589000Y-71093667D01*
X139589000Y-70906333D01*
X139625546Y-70722604D01*
X139697234Y-70549534D01*
X139801312Y-70393770D01*
X139933770Y-70261312D01*
X140089534Y-70157234D01*
X140262604Y-70085546D01*
X140446333Y-70049000D01*
X140633667Y-70049000D01*
X140817396Y-70085546D01*
X140817396Y-70085546D01*
G37*
G36*
X138951000Y-71951000D02*
X137049000Y-71951000D01*
X137049000Y-70049000D01*
X138951000Y-70049000D01*
X138951000Y-71951000D01*
X138951000Y-71951000D01*
G37*
G36*
X146248228Y-70181703D02*
X146403100Y-70245853D01*
X146542481Y-70338985D01*
X146661015Y-70457519D01*
X146754147Y-70596900D01*
X146818297Y-70751772D01*
X146851000Y-70916184D01*
X146851000Y-71083816D01*
X146818297Y-71248228D01*
X146754147Y-71403100D01*
X146661015Y-71542481D01*
X146542481Y-71661015D01*
X146403100Y-71754147D01*
X146248228Y-71818297D01*
X146083816Y-71851000D01*
X145916184Y-71851000D01*
X145751772Y-71818297D01*
X145596900Y-71754147D01*
X145457519Y-71661015D01*
X145338985Y-71542481D01*
X145245853Y-71403100D01*
X145181703Y-71248228D01*
X145149000Y-71083816D01*
X145149000Y-70916184D01*
X145181703Y-70751772D01*
X145245853Y-70596900D01*
X145338985Y-70457519D01*
X145457519Y-70338985D01*
X145596900Y-70245853D01*
X145751772Y-70181703D01*
X145916184Y-70149000D01*
X146083816Y-70149000D01*
X146248228Y-70181703D01*
X146248228Y-70181703D01*
G37*
G36*
X143626821Y-70161313D02*
X143626824Y-70161314D01*
X143626825Y-70161314D01*
X143787239Y-70209975D01*
X143787241Y-70209976D01*
X143787244Y-70209977D01*
X143935078Y-70288995D01*
X144064659Y-70395341D01*
X144171005Y-70524922D01*
X144250023Y-70672756D01*
X144250024Y-70672759D01*
X144250025Y-70672761D01*
X144298686Y-70833175D01*
X144298687Y-70833179D01*
X144315117Y-71000000D01*
X144298687Y-71166821D01*
X144298686Y-71166824D01*
X144298686Y-71166825D01*
X144265145Y-71277396D01*
X144250023Y-71327244D01*
X144171005Y-71475078D01*
X144064659Y-71604659D01*
X143935078Y-71711005D01*
X143787244Y-71790023D01*
X143787241Y-71790024D01*
X143787239Y-71790025D01*
X143626825Y-71838686D01*
X143626824Y-71838686D01*
X143626821Y-71838687D01*
X143501804Y-71851000D01*
X143418196Y-71851000D01*
X143293179Y-71838687D01*
X143293176Y-71838686D01*
X143293175Y-71838686D01*
X143132761Y-71790025D01*
X143132759Y-71790024D01*
X143132756Y-71790023D01*
X142984922Y-71711005D01*
X142855341Y-71604659D01*
X142748995Y-71475078D01*
X142669977Y-71327244D01*
X142654856Y-71277396D01*
X142621314Y-71166825D01*
X142621314Y-71166824D01*
X142621313Y-71166821D01*
X142604883Y-71000000D01*
X142621313Y-70833179D01*
X142621314Y-70833175D01*
X142669975Y-70672761D01*
X142669976Y-70672759D01*
X142669977Y-70672756D01*
X142748995Y-70524922D01*
X142855341Y-70395341D01*
X142984922Y-70288995D01*
X143132756Y-70209977D01*
X143132759Y-70209976D01*
X143132761Y-70209975D01*
X143293175Y-70161314D01*
X143293176Y-70161314D01*
X143293179Y-70161313D01*
X143418196Y-70149000D01*
X143501804Y-70149000D01*
X143626821Y-70161313D01*
X143626821Y-70161313D01*
G37*
M02*
