%FSLAX45Y45*%
G04 Gerber Fmt 4.5, Leading zero omitted, Abs format (unit mm)*
G04 Created by KiCad (PCBNEW (5.0.2)-1) date 26.02.2020 09:59:28*
%MOMM*%
%LPD*%
G01*
G04 APERTURE LIST*
%ADD10C,0.150000*%
%ADD11C,0.200000*%
%ADD12C,0.300000*%
G04 APERTURE END LIST*
D10*
X17400000Y-10000000D02*
G75*
G03X17400000Y-10000000I-3224903J0D01*
G01*
D11*
D12*
X11229122Y-13698117D02*
X11229122Y-13398117D01*
X11300551Y-13398117D01*
X11343408Y-13412403D01*
X11371979Y-13440975D01*
X11386265Y-13469546D01*
X11400551Y-13526689D01*
X11400551Y-13569546D01*
X11386265Y-13626689D01*
X11371979Y-13655260D01*
X11343408Y-13683832D01*
X11300551Y-13698117D01*
X11229122Y-13698117D01*
X11529122Y-13698117D02*
X11529122Y-13498117D01*
X11529122Y-13555260D02*
X11543408Y-13526689D01*
X11557694Y-13512403D01*
X11586265Y-13498117D01*
X11614837Y-13498117D01*
X11714837Y-13698117D02*
X11714837Y-13498117D01*
X11714837Y-13398117D02*
X11700551Y-13412403D01*
X11714837Y-13426689D01*
X11729122Y-13412403D01*
X11714837Y-13398117D01*
X11714837Y-13426689D01*
X11900551Y-13698117D02*
X11871979Y-13683832D01*
X11857694Y-13655260D01*
X11857694Y-13398117D01*
X12057694Y-13698117D02*
X12029122Y-13683832D01*
X12014837Y-13655260D01*
X12014837Y-13398117D01*
X12400551Y-13698117D02*
X12400551Y-13398117D01*
X12500551Y-13612403D01*
X12600551Y-13398117D01*
X12600551Y-13698117D01*
X12871979Y-13698117D02*
X12871979Y-13540975D01*
X12857694Y-13512403D01*
X12829122Y-13498117D01*
X12771979Y-13498117D01*
X12743408Y-13512403D01*
X12871979Y-13683832D02*
X12843408Y-13698117D01*
X12771979Y-13698117D01*
X12743408Y-13683832D01*
X12729122Y-13655260D01*
X12729122Y-13626689D01*
X12743408Y-13598117D01*
X12771979Y-13583832D01*
X12843408Y-13583832D01*
X12871979Y-13569546D01*
X13014837Y-13498117D02*
X13014837Y-13798117D01*
X13014837Y-13512403D02*
X13043408Y-13498117D01*
X13100551Y-13498117D01*
X13129122Y-13512403D01*
X13143408Y-13526689D01*
X13157694Y-13555260D01*
X13157694Y-13640975D01*
X13143408Y-13669546D01*
X13129122Y-13683832D01*
X13100551Y-13698117D01*
X13043408Y-13698117D01*
X13014837Y-13683832D01*
X13286265Y-13669546D02*
X13300551Y-13683832D01*
X13286265Y-13698117D01*
X13271979Y-13683832D01*
X13286265Y-13669546D01*
X13286265Y-13698117D01*
X13286265Y-13512403D02*
X13300551Y-13526689D01*
X13286265Y-13540975D01*
X13271979Y-13526689D01*
X13286265Y-13512403D01*
X13286265Y-13540975D01*
M02*
