G04 #@! TF.GenerationSoftware,KiCad,Pcbnew,(5.0.2)-1*
G04 #@! TF.CreationDate,2020-02-26T09:59:23+01:00*
G04 #@! TF.ProjectId,HB-OU-MP3-LED_PCB,48422d4f-552d-44d5-9033-2d4c45445f50,V2.1.3*
G04 #@! TF.SameCoordinates,Original*
G04 #@! TF.FileFunction,Legend,Top*
G04 #@! TF.FilePolarity,Positive*
%FSLAX46Y46*%
G04 Gerber Fmt 4.6, Leading zero omitted, Abs format (unit mm)*
G04 Created by KiCad (PCBNEW (5.0.2)-1) date 26.02.2020 09:59:23*
%MOMM*%
%LPD*%
G01*
G04 APERTURE LIST*
%ADD10C,0.120000*%
%ADD11C,0.150000*%
G04 APERTURE END LIST*
D10*
G04 #@! TO.C,C1*
X165870000Y-83000000D02*
G75*
G03X165870000Y-83000000I-2120000J0D01*
G01*
X163750000Y-83840000D02*
X163750000Y-85080000D01*
X163750000Y-80920000D02*
X163750000Y-82160000D01*
X163790000Y-83840000D02*
X163790000Y-85080000D01*
X163790000Y-80920000D02*
X163790000Y-82160000D01*
X163830000Y-83840000D02*
X163830000Y-85079000D01*
X163830000Y-80921000D02*
X163830000Y-82160000D01*
X163870000Y-80923000D02*
X163870000Y-82160000D01*
X163870000Y-83840000D02*
X163870000Y-85077000D01*
X163910000Y-80926000D02*
X163910000Y-82160000D01*
X163910000Y-83840000D02*
X163910000Y-85074000D01*
X163950000Y-80929000D02*
X163950000Y-82160000D01*
X163950000Y-83840000D02*
X163950000Y-85071000D01*
X163990000Y-80933000D02*
X163990000Y-82160000D01*
X163990000Y-83840000D02*
X163990000Y-85067000D01*
X164030000Y-80938000D02*
X164030000Y-82160000D01*
X164030000Y-83840000D02*
X164030000Y-85062000D01*
X164070000Y-80944000D02*
X164070000Y-82160000D01*
X164070000Y-83840000D02*
X164070000Y-85056000D01*
X164110000Y-80950000D02*
X164110000Y-82160000D01*
X164110000Y-83840000D02*
X164110000Y-85050000D01*
X164150000Y-80958000D02*
X164150000Y-82160000D01*
X164150000Y-83840000D02*
X164150000Y-85042000D01*
X164190000Y-80966000D02*
X164190000Y-82160000D01*
X164190000Y-83840000D02*
X164190000Y-85034000D01*
X164230000Y-80975000D02*
X164230000Y-82160000D01*
X164230000Y-83840000D02*
X164230000Y-85025000D01*
X164270000Y-80984000D02*
X164270000Y-82160000D01*
X164270000Y-83840000D02*
X164270000Y-85016000D01*
X164310000Y-80995000D02*
X164310000Y-82160000D01*
X164310000Y-83840000D02*
X164310000Y-85005000D01*
X164350000Y-81006000D02*
X164350000Y-82160000D01*
X164350000Y-83840000D02*
X164350000Y-84994000D01*
X164390000Y-81018000D02*
X164390000Y-82160000D01*
X164390000Y-83840000D02*
X164390000Y-84982000D01*
X164430000Y-81032000D02*
X164430000Y-82160000D01*
X164430000Y-83840000D02*
X164430000Y-84968000D01*
X164471000Y-81046000D02*
X164471000Y-82160000D01*
X164471000Y-83840000D02*
X164471000Y-84954000D01*
X164511000Y-81060000D02*
X164511000Y-82160000D01*
X164511000Y-83840000D02*
X164511000Y-84940000D01*
X164551000Y-81076000D02*
X164551000Y-82160000D01*
X164551000Y-83840000D02*
X164551000Y-84924000D01*
X164591000Y-81093000D02*
X164591000Y-82160000D01*
X164591000Y-83840000D02*
X164591000Y-84907000D01*
X164631000Y-81111000D02*
X164631000Y-82160000D01*
X164631000Y-83840000D02*
X164631000Y-84889000D01*
X164671000Y-81130000D02*
X164671000Y-82160000D01*
X164671000Y-83840000D02*
X164671000Y-84870000D01*
X164711000Y-81149000D02*
X164711000Y-82160000D01*
X164711000Y-83840000D02*
X164711000Y-84851000D01*
X164751000Y-81170000D02*
X164751000Y-82160000D01*
X164751000Y-83840000D02*
X164751000Y-84830000D01*
X164791000Y-81192000D02*
X164791000Y-82160000D01*
X164791000Y-83840000D02*
X164791000Y-84808000D01*
X164831000Y-81215000D02*
X164831000Y-82160000D01*
X164831000Y-83840000D02*
X164831000Y-84785000D01*
X164871000Y-81240000D02*
X164871000Y-82160000D01*
X164871000Y-83840000D02*
X164871000Y-84760000D01*
X164911000Y-81265000D02*
X164911000Y-82160000D01*
X164911000Y-83840000D02*
X164911000Y-84735000D01*
X164951000Y-81292000D02*
X164951000Y-82160000D01*
X164951000Y-83840000D02*
X164951000Y-84708000D01*
X164991000Y-81320000D02*
X164991000Y-82160000D01*
X164991000Y-83840000D02*
X164991000Y-84680000D01*
X165031000Y-81350000D02*
X165031000Y-82160000D01*
X165031000Y-83840000D02*
X165031000Y-84650000D01*
X165071000Y-81381000D02*
X165071000Y-82160000D01*
X165071000Y-83840000D02*
X165071000Y-84619000D01*
X165111000Y-81413000D02*
X165111000Y-82160000D01*
X165111000Y-83840000D02*
X165111000Y-84587000D01*
X165151000Y-81448000D02*
X165151000Y-82160000D01*
X165151000Y-83840000D02*
X165151000Y-84552000D01*
X165191000Y-81484000D02*
X165191000Y-82160000D01*
X165191000Y-83840000D02*
X165191000Y-84516000D01*
X165231000Y-81522000D02*
X165231000Y-82160000D01*
X165231000Y-83840000D02*
X165231000Y-84478000D01*
X165271000Y-81562000D02*
X165271000Y-82160000D01*
X165271000Y-83840000D02*
X165271000Y-84438000D01*
X165311000Y-81604000D02*
X165311000Y-82160000D01*
X165311000Y-83840000D02*
X165311000Y-84396000D01*
X165351000Y-81649000D02*
X165351000Y-84351000D01*
X165391000Y-81696000D02*
X165391000Y-84304000D01*
X165431000Y-81746000D02*
X165431000Y-84254000D01*
X165471000Y-81800000D02*
X165471000Y-84200000D01*
X165511000Y-81858000D02*
X165511000Y-84142000D01*
X165551000Y-81920000D02*
X165551000Y-84080000D01*
X165591000Y-81987000D02*
X165591000Y-84013000D01*
X165631000Y-82060000D02*
X165631000Y-83940000D01*
X165671000Y-82141000D02*
X165671000Y-83859000D01*
X165711000Y-82232000D02*
X165711000Y-83768000D01*
X165751000Y-82336000D02*
X165751000Y-83664000D01*
X165791000Y-82463000D02*
X165791000Y-83537000D01*
X165831000Y-82630000D02*
X165831000Y-83370000D01*
X161480199Y-81805000D02*
X161880199Y-81805000D01*
X161680199Y-81605000D02*
X161680199Y-82005000D01*
G04 #@! TO.C,D1*
X140942335Y-69921392D02*
G75*
G03X137710000Y-69764484I-1672335J-1078608D01*
G01*
X140942335Y-72078608D02*
G75*
G02X137710000Y-72235516I-1672335J1078608D01*
G01*
X140311130Y-69920163D02*
G75*
G03X138229039Y-69920000I-1041130J-1079837D01*
G01*
X140311130Y-72079837D02*
G75*
G02X138229039Y-72080000I-1041130J1079837D01*
G01*
X137710000Y-69764000D02*
X137710000Y-69920000D01*
X137710000Y-72080000D02*
X137710000Y-72236000D01*
G04 #@! TO.C,J1*
X138100000Y-126237500D02*
X138550000Y-126237500D01*
X138100000Y-128087500D02*
X138100000Y-126237500D01*
X145900000Y-130637500D02*
X145900000Y-130387500D01*
X138100000Y-130637500D02*
X138100000Y-130387500D01*
X145900000Y-128087500D02*
X145900000Y-126237500D01*
X145900000Y-126237500D02*
X145450000Y-126237500D01*
X140300000Y-125687500D02*
X140750000Y-125687500D01*
X140300000Y-125687500D02*
X140300000Y-126137500D01*
G04 #@! TO.C,J2*
X154812359Y-128753263D02*
X156693263Y-126872359D01*
X142197574Y-116138478D02*
X154812359Y-128753263D01*
X144078478Y-114257574D02*
X156693263Y-126872359D01*
X142197574Y-116138478D02*
X144078478Y-114257574D01*
X141299548Y-115240452D02*
X140359096Y-114300000D01*
X140359096Y-114300000D02*
X141299548Y-113359548D01*
G04 #@! TO.C,J3*
X153059096Y-101600000D02*
X153999548Y-100659548D01*
X153999548Y-102540452D02*
X153059096Y-101600000D01*
X154897574Y-103438478D02*
X156778478Y-101557574D01*
X156778478Y-101557574D02*
X169393263Y-114172359D01*
X154897574Y-103438478D02*
X167512359Y-116053263D01*
X167512359Y-116053263D02*
X169393263Y-114172359D01*
G04 #@! TO.C,J4*
X160440000Y-87790000D02*
X160440000Y-92910000D01*
X160440000Y-92910000D02*
X169560000Y-92910000D01*
X169560000Y-92910000D02*
X170560000Y-91910000D01*
X170560000Y-91910000D02*
X170560000Y-87790000D01*
X170560000Y-87790000D02*
X160440000Y-87790000D01*
X160140000Y-90800000D02*
X160140000Y-93210000D01*
X160140000Y-93210000D02*
X162550000Y-93210000D01*
G04 #@! TO.C,J5*
X122440000Y-117790000D02*
X122440000Y-122910000D01*
X122440000Y-122910000D02*
X129060000Y-122910000D01*
X129060000Y-122910000D02*
X130060000Y-121910000D01*
X130060000Y-121910000D02*
X130060000Y-117790000D01*
X130060000Y-117790000D02*
X122440000Y-117790000D01*
X122140000Y-120800000D02*
X122140000Y-123210000D01*
X122140000Y-123210000D02*
X124550000Y-123210000D01*
G04 #@! TO.C,R1*
X147370000Y-71000000D02*
G75*
G03X147370000Y-71000000I-1370000J0D01*
G01*
X144630000Y-71000000D02*
X144560000Y-71000000D01*
G04 #@! TO.C,R2*
X149370000Y-95000000D02*
X149440000Y-95000000D01*
X149370000Y-95000000D02*
G75*
G03X149370000Y-95000000I-1370000J0D01*
G01*
G04 #@! TO.C,R3*
X143370000Y-95000000D02*
G75*
G03X143370000Y-95000000I-1370000J0D01*
G01*
X143370000Y-95000000D02*
X143440000Y-95000000D01*
G04 #@! TO.C,SW1*
X118000000Y-90500000D02*
X122500000Y-90500000D01*
X116750000Y-86500000D02*
X116750000Y-88000000D01*
X122500000Y-84000000D02*
X118000000Y-84000000D01*
X123750000Y-88000000D02*
X123750000Y-86500000D01*
D11*
G04 #@! TO.C,U1*
X158495000Y-89970000D02*
G75*
G03X158495000Y-89970000I-635000J0D01*
G01*
X158495000Y-87430000D02*
G75*
G03X158495000Y-87430000I-635000J0D01*
G01*
X158495000Y-84890000D02*
G75*
G03X158495000Y-84890000I-635000J0D01*
G01*
X158495000Y-82350000D02*
G75*
G03X158495000Y-82350000I-635000J0D01*
G01*
X158495000Y-79810000D02*
G75*
G03X158495000Y-79810000I-635000J0D01*
G01*
X158495000Y-77270000D02*
G75*
G03X158495000Y-77270000I-635000J0D01*
G01*
X128650000Y-81080000D02*
X128650000Y-86160000D01*
X128650000Y-86160000D02*
X131190000Y-86160000D01*
X131190000Y-86160000D02*
X131190000Y-81080000D01*
X131190000Y-81080000D02*
X128650000Y-81080000D01*
X141350000Y-88700000D02*
X146430000Y-83620000D01*
X146430000Y-83620000D02*
X141350000Y-78540000D01*
X141350000Y-78540000D02*
X136270000Y-83620000D01*
X136270000Y-83620000D02*
X141350000Y-88700000D01*
X126110000Y-92510000D02*
X159130000Y-92510000D01*
X159130000Y-92510000D02*
X159130000Y-74730000D01*
X159130000Y-74730000D02*
X126110000Y-74730000D01*
X126110000Y-74730000D02*
X126110000Y-92510000D01*
G04 #@! TO.C,U2*
X114000000Y-95500000D02*
X114500000Y-95500000D01*
X131000000Y-95500000D02*
X130500000Y-95500000D01*
X119500000Y-114500000D02*
G75*
G03X119500000Y-114500000I-500000J0D01*
G01*
X124500000Y-114500000D02*
G75*
G03X124500000Y-114500000I-500000J0D01*
G01*
X122000000Y-114500000D02*
G75*
G03X122000000Y-114500000I-500000J0D01*
G01*
X131000000Y-95500000D02*
X131000000Y-115500000D01*
X131000000Y-115500000D02*
X114000000Y-115500000D01*
X114000000Y-115500000D02*
X114000000Y-95500000D01*
D10*
G04 #@! TO.C,Antenne*
X119814000Y-116178000D02*
X119814000Y-112778000D01*
X123214000Y-116178000D02*
X119814000Y-116178000D01*
X123214000Y-112778000D02*
X123214000Y-116178000D01*
X119814000Y-112778000D02*
X123214000Y-112778000D01*
G04 #@! TO.C,C1*
D11*
X163583333Y-80107142D02*
X163535714Y-80154761D01*
X163392857Y-80202380D01*
X163297619Y-80202380D01*
X163154761Y-80154761D01*
X163059523Y-80059523D01*
X163011904Y-79964285D01*
X162964285Y-79773809D01*
X162964285Y-79630952D01*
X163011904Y-79440476D01*
X163059523Y-79345238D01*
X163154761Y-79250000D01*
X163297619Y-79202380D01*
X163392857Y-79202380D01*
X163535714Y-79250000D01*
X163583333Y-79297619D01*
X164535714Y-80202380D02*
X163964285Y-80202380D01*
X164250000Y-80202380D02*
X164250000Y-79202380D01*
X164154761Y-79345238D01*
X164059523Y-79440476D01*
X163964285Y-79488095D01*
X160773809Y-86702380D02*
X160202380Y-86702380D01*
X160488095Y-86702380D02*
X160488095Y-85702380D01*
X160392857Y-85845238D01*
X160297619Y-85940476D01*
X160202380Y-85988095D01*
X161392857Y-85702380D02*
X161488095Y-85702380D01*
X161583333Y-85750000D01*
X161630952Y-85797619D01*
X161678571Y-85892857D01*
X161726190Y-86083333D01*
X161726190Y-86321428D01*
X161678571Y-86511904D01*
X161630952Y-86607142D01*
X161583333Y-86654761D01*
X161488095Y-86702380D01*
X161392857Y-86702380D01*
X161297619Y-86654761D01*
X161250000Y-86607142D01*
X161202380Y-86511904D01*
X161154761Y-86321428D01*
X161154761Y-86083333D01*
X161202380Y-85892857D01*
X161250000Y-85797619D01*
X161297619Y-85750000D01*
X161392857Y-85702380D01*
X162583333Y-86035714D02*
X162583333Y-86702380D01*
X162154761Y-86035714D02*
X162154761Y-86559523D01*
X162202380Y-86654761D01*
X162297619Y-86702380D01*
X162440476Y-86702380D01*
X162535714Y-86654761D01*
X162583333Y-86607142D01*
X163392857Y-86178571D02*
X163059523Y-86178571D01*
X163059523Y-86702380D02*
X163059523Y-85702380D01*
X163535714Y-85702380D01*
X164630952Y-85654761D02*
X163773809Y-86940476D01*
X165488095Y-86702380D02*
X164916666Y-86702380D01*
X165202380Y-86702380D02*
X165202380Y-85702380D01*
X165107142Y-85845238D01*
X165011904Y-85940476D01*
X164916666Y-85988095D01*
X166392857Y-85702380D02*
X165916666Y-85702380D01*
X165869047Y-86178571D01*
X165916666Y-86130952D01*
X166011904Y-86083333D01*
X166250000Y-86083333D01*
X166345238Y-86130952D01*
X166392857Y-86178571D01*
X166440476Y-86273809D01*
X166440476Y-86511904D01*
X166392857Y-86607142D01*
X166345238Y-86654761D01*
X166250000Y-86702380D01*
X166011904Y-86702380D01*
X165916666Y-86654761D01*
X165869047Y-86607142D01*
X166726190Y-85702380D02*
X167059523Y-86702380D01*
X167392857Y-85702380D01*
G04 #@! TO.C,D1*
X135024904Y-71699380D02*
X135024904Y-70699380D01*
X135263000Y-70699380D01*
X135405857Y-70747000D01*
X135501095Y-70842238D01*
X135548714Y-70937476D01*
X135596333Y-71127952D01*
X135596333Y-71270809D01*
X135548714Y-71461285D01*
X135501095Y-71556523D01*
X135405857Y-71651761D01*
X135263000Y-71699380D01*
X135024904Y-71699380D01*
X136548714Y-71699380D02*
X135977285Y-71699380D01*
X136263000Y-71699380D02*
X136263000Y-70699380D01*
X136167761Y-70842238D01*
X136072523Y-70937476D01*
X135977285Y-70985095D01*
X138627142Y-74412380D02*
X138150952Y-74412380D01*
X138150952Y-73412380D01*
X138960476Y-73888571D02*
X139293809Y-73888571D01*
X139436666Y-74412380D02*
X138960476Y-74412380D01*
X138960476Y-73412380D01*
X139436666Y-73412380D01*
X139865238Y-74412380D02*
X139865238Y-73412380D01*
X140103333Y-73412380D01*
X140246190Y-73460000D01*
X140341428Y-73555238D01*
X140389047Y-73650476D01*
X140436666Y-73840952D01*
X140436666Y-73983809D01*
X140389047Y-74174285D01*
X140341428Y-74269523D01*
X140246190Y-74364761D01*
X140103333Y-74412380D01*
X139865238Y-74412380D01*
G04 #@! TO.C,J1*
X147367666Y-129500380D02*
X147367666Y-130214666D01*
X147320047Y-130357523D01*
X147224809Y-130452761D01*
X147081952Y-130500380D01*
X146986714Y-130500380D01*
X148367666Y-130500380D02*
X147796238Y-130500380D01*
X148081952Y-130500380D02*
X148081952Y-129500380D01*
X147986714Y-129643238D01*
X147891476Y-129738476D01*
X147796238Y-129786095D01*
X137589190Y-124039380D02*
X137589190Y-124848904D01*
X137636809Y-124944142D01*
X137684428Y-124991761D01*
X137779666Y-125039380D01*
X137970142Y-125039380D01*
X138065380Y-124991761D01*
X138113000Y-124944142D01*
X138160619Y-124848904D01*
X138160619Y-124039380D01*
X138589190Y-124991761D02*
X138732047Y-125039380D01*
X138970142Y-125039380D01*
X139065380Y-124991761D01*
X139113000Y-124944142D01*
X139160619Y-124848904D01*
X139160619Y-124753666D01*
X139113000Y-124658428D01*
X139065380Y-124610809D01*
X138970142Y-124563190D01*
X138779666Y-124515571D01*
X138684428Y-124467952D01*
X138636809Y-124420333D01*
X138589190Y-124325095D01*
X138589190Y-124229857D01*
X138636809Y-124134619D01*
X138684428Y-124087000D01*
X138779666Y-124039380D01*
X139017761Y-124039380D01*
X139160619Y-124087000D01*
X139922523Y-124515571D02*
X140065380Y-124563190D01*
X140113000Y-124610809D01*
X140160619Y-124706047D01*
X140160619Y-124848904D01*
X140113000Y-124944142D01*
X140065380Y-124991761D01*
X139970142Y-125039380D01*
X139589190Y-125039380D01*
X139589190Y-124039380D01*
X139922523Y-124039380D01*
X140017761Y-124087000D01*
X140065380Y-124134619D01*
X140113000Y-124229857D01*
X140113000Y-124325095D01*
X140065380Y-124420333D01*
X140017761Y-124467952D01*
X139922523Y-124515571D01*
X139589190Y-124515571D01*
X140351095Y-125134619D02*
X141113000Y-125134619D01*
X141684428Y-124515571D02*
X141827285Y-124563190D01*
X141874904Y-124610809D01*
X141922523Y-124706047D01*
X141922523Y-124848904D01*
X141874904Y-124944142D01*
X141827285Y-124991761D01*
X141732047Y-125039380D01*
X141351095Y-125039380D01*
X141351095Y-124039380D01*
X141684428Y-124039380D01*
X141779666Y-124087000D01*
X141827285Y-124134619D01*
X141874904Y-124229857D01*
X141874904Y-124325095D01*
X141827285Y-124420333D01*
X141779666Y-124467952D01*
X141684428Y-124515571D01*
X141351095Y-124515571D01*
X142113000Y-125134619D02*
X142874904Y-125134619D01*
X143113000Y-125039380D02*
X143113000Y-124039380D01*
X143446333Y-124753666D01*
X143779666Y-124039380D01*
X143779666Y-125039380D01*
X144255857Y-125039380D02*
X144255857Y-124372714D01*
X144255857Y-124039380D02*
X144208238Y-124087000D01*
X144255857Y-124134619D01*
X144303476Y-124087000D01*
X144255857Y-124039380D01*
X144255857Y-124134619D01*
X145160619Y-124991761D02*
X145065380Y-125039380D01*
X144874904Y-125039380D01*
X144779666Y-124991761D01*
X144732047Y-124944142D01*
X144684428Y-124848904D01*
X144684428Y-124563190D01*
X144732047Y-124467952D01*
X144779666Y-124420333D01*
X144874904Y-124372714D01*
X145065380Y-124372714D01*
X145160619Y-124420333D01*
X145589190Y-125039380D02*
X145589190Y-124372714D01*
X145589190Y-124563190D02*
X145636809Y-124467952D01*
X145684428Y-124420333D01*
X145779666Y-124372714D01*
X145874904Y-124372714D01*
X146351095Y-125039380D02*
X146255857Y-124991761D01*
X146208238Y-124944142D01*
X146160619Y-124848904D01*
X146160619Y-124563190D01*
X146208238Y-124467952D01*
X146255857Y-124420333D01*
X146351095Y-124372714D01*
X146493952Y-124372714D01*
X146589190Y-124420333D01*
X146636809Y-124467952D01*
X146684428Y-124563190D01*
X146684428Y-124848904D01*
X146636809Y-124944142D01*
X146589190Y-124991761D01*
X146493952Y-125039380D01*
X146351095Y-125039380D01*
G04 #@! TO.C,J2*
X139969513Y-112500918D02*
X140474589Y-113005994D01*
X140541933Y-113140681D01*
X140541933Y-113275368D01*
X140474589Y-113410055D01*
X140407246Y-113477398D01*
X140339902Y-112265215D02*
X140339902Y-112197872D01*
X140373574Y-112096857D01*
X140541933Y-111928498D01*
X140642948Y-111894826D01*
X140710292Y-111894826D01*
X140811307Y-111928498D01*
X140878650Y-111995841D01*
X140945994Y-112130528D01*
X140945994Y-112938650D01*
X141383727Y-112500918D01*
X146356298Y-114611061D02*
X147063405Y-113903954D01*
X147231763Y-114072313D01*
X147299107Y-114207000D01*
X147299107Y-114341687D01*
X147265435Y-114442702D01*
X147164420Y-114611061D01*
X147063405Y-114712076D01*
X146895046Y-114813092D01*
X146794031Y-114846763D01*
X146659344Y-114846763D01*
X146524657Y-114779420D01*
X146356298Y-114611061D01*
X147669496Y-115183481D02*
X147433794Y-114947779D01*
X147063405Y-115318168D02*
X147770511Y-114611061D01*
X148107229Y-114947779D01*
X147938870Y-115654885D02*
X148477618Y-116193633D01*
X148544962Y-116799725D02*
X149252068Y-116092618D01*
X148982694Y-116833397D01*
X149723473Y-116564023D01*
X149016366Y-117271129D01*
X149353084Y-117607847D02*
X149824488Y-117136442D01*
X150060190Y-116900740D02*
X149992847Y-116900740D01*
X149992847Y-116968084D01*
X150060190Y-116968084D01*
X150060190Y-116900740D01*
X149992847Y-116968084D01*
X150161206Y-117473160D02*
X149689801Y-117944564D01*
X150093862Y-117540503D02*
X150161206Y-117540503D01*
X150262221Y-117574175D01*
X150363236Y-117675190D01*
X150396908Y-117776206D01*
X150363236Y-117877221D01*
X149992847Y-118247610D01*
X150329564Y-118584328D02*
X150800969Y-118112923D01*
X151036671Y-117877221D02*
X150969328Y-117877221D01*
X150969328Y-117944564D01*
X151036671Y-117944564D01*
X151036671Y-117877221D01*
X150969328Y-117944564D01*
X151205030Y-119459793D02*
X151912137Y-118752687D01*
X152181511Y-119022061D01*
X152215183Y-119123076D01*
X152215183Y-119190419D01*
X152181511Y-119291435D01*
X152080496Y-119392450D01*
X151979480Y-119426122D01*
X151912137Y-119426122D01*
X151811122Y-119392450D01*
X151541748Y-119123076D01*
X152013152Y-120267915D02*
X151979480Y-120166900D01*
X152013152Y-120065885D01*
X152619244Y-119459793D01*
X152585572Y-120840335D02*
X152955961Y-120469946D01*
X152989633Y-120368931D01*
X152955961Y-120267915D01*
X152821274Y-120133228D01*
X152720259Y-120099557D01*
X152619244Y-120806663D02*
X152518228Y-120772992D01*
X152349870Y-120604633D01*
X152316198Y-120503618D01*
X152349870Y-120402602D01*
X152417213Y-120335259D01*
X152518228Y-120301587D01*
X152619244Y-120335259D01*
X152787602Y-120503618D01*
X152888618Y-120537289D01*
X153326350Y-120638305D02*
X153023305Y-121278068D01*
X153663068Y-120975022D02*
X153023305Y-121278068D01*
X152787602Y-121379083D01*
X152720259Y-121379083D01*
X152619244Y-121345411D01*
X154841579Y-121682129D02*
X154908923Y-121749472D01*
X154942594Y-121850488D01*
X154942594Y-121917831D01*
X154908923Y-122018846D01*
X154807907Y-122187205D01*
X154639549Y-122355564D01*
X154471190Y-122456579D01*
X154370175Y-122490251D01*
X154302831Y-122490251D01*
X154201816Y-122456579D01*
X154134472Y-122389236D01*
X154100801Y-122288220D01*
X154100801Y-122220877D01*
X154134472Y-122119862D01*
X154235488Y-121951503D01*
X154403846Y-121783144D01*
X154572205Y-121682129D01*
X154673220Y-121648457D01*
X154740564Y-121648457D01*
X154841579Y-121682129D01*
X155043610Y-123298373D02*
X154639549Y-122894312D01*
X154841579Y-123096342D02*
X155548686Y-122389236D01*
X155380327Y-122422907D01*
X155245640Y-122422907D01*
X155144625Y-122389236D01*
G04 #@! TO.C,J3*
X152669513Y-99800918D02*
X153174589Y-100305994D01*
X153241933Y-100440681D01*
X153241933Y-100575368D01*
X153174589Y-100710055D01*
X153107246Y-100777398D01*
X152938887Y-99531544D02*
X153376620Y-99093811D01*
X153410292Y-99598887D01*
X153511307Y-99497872D01*
X153612322Y-99464200D01*
X153679666Y-99464200D01*
X153780681Y-99497872D01*
X153949040Y-99666231D01*
X153982711Y-99767246D01*
X153982711Y-99834589D01*
X153949040Y-99935605D01*
X153747009Y-100137635D01*
X153645994Y-100171307D01*
X153578650Y-100171307D01*
X155627299Y-106864061D02*
X156334406Y-106156954D01*
X156502764Y-106325313D01*
X156570108Y-106460000D01*
X156570108Y-106594687D01*
X156536436Y-106695702D01*
X156435421Y-106864061D01*
X156334406Y-106965076D01*
X156166047Y-107066092D01*
X156065032Y-107099763D01*
X155930345Y-107099763D01*
X155795658Y-107032420D01*
X155627299Y-106864061D01*
X156940497Y-107436481D02*
X156704795Y-107200779D01*
X156334406Y-107571168D02*
X157041512Y-106864061D01*
X157378230Y-107200779D01*
X157209871Y-107907885D02*
X157748619Y-108446633D01*
X157815963Y-109052725D02*
X158523069Y-108345618D01*
X158253695Y-109086397D01*
X158994474Y-108817023D01*
X158287367Y-109524129D01*
X158624085Y-109860847D02*
X159095489Y-109389442D01*
X159331191Y-109153740D02*
X159263848Y-109153740D01*
X159263848Y-109221084D01*
X159331191Y-109221084D01*
X159331191Y-109153740D01*
X159263848Y-109221084D01*
X159432207Y-109726160D02*
X158960802Y-110197564D01*
X159364863Y-109793503D02*
X159432207Y-109793503D01*
X159533222Y-109827175D01*
X159634237Y-109928190D01*
X159667909Y-110029206D01*
X159634237Y-110130221D01*
X159263848Y-110500610D01*
X159600565Y-110837328D02*
X160071970Y-110365923D01*
X160307672Y-110130221D02*
X160240329Y-110130221D01*
X160240329Y-110197564D01*
X160307672Y-110197564D01*
X160307672Y-110130221D01*
X160240329Y-110197564D01*
X160476031Y-111712793D02*
X161183138Y-111005687D01*
X161452512Y-111275061D01*
X161486184Y-111376076D01*
X161486184Y-111443419D01*
X161452512Y-111544435D01*
X161351497Y-111645450D01*
X161250481Y-111679122D01*
X161183138Y-111679122D01*
X161082123Y-111645450D01*
X160812749Y-111376076D01*
X161284153Y-112520915D02*
X161250481Y-112419900D01*
X161284153Y-112318885D01*
X161890245Y-111712793D01*
X161856573Y-113093335D02*
X162226962Y-112722946D01*
X162260634Y-112621931D01*
X162226962Y-112520915D01*
X162092275Y-112386228D01*
X161991260Y-112352557D01*
X161890245Y-113059663D02*
X161789229Y-113025992D01*
X161620871Y-112857633D01*
X161587199Y-112756618D01*
X161620871Y-112655602D01*
X161688214Y-112588259D01*
X161789229Y-112554587D01*
X161890245Y-112588259D01*
X162058603Y-112756618D01*
X162159619Y-112790289D01*
X162597351Y-112891305D02*
X162294306Y-113531068D01*
X162934069Y-113228022D02*
X162294306Y-113531068D01*
X162058603Y-113632083D01*
X161991260Y-113632083D01*
X161890245Y-113598411D01*
X164112580Y-113935129D02*
X164179924Y-114002472D01*
X164213595Y-114103488D01*
X164213595Y-114170831D01*
X164179924Y-114271846D01*
X164078908Y-114440205D01*
X163910550Y-114608564D01*
X163742191Y-114709579D01*
X163641176Y-114743251D01*
X163573832Y-114743251D01*
X163472817Y-114709579D01*
X163405473Y-114642236D01*
X163371802Y-114541220D01*
X163371802Y-114473877D01*
X163405473Y-114372862D01*
X163506489Y-114204503D01*
X163674847Y-114036144D01*
X163843206Y-113935129D01*
X163944221Y-113901457D01*
X164011565Y-113901457D01*
X164112580Y-113935129D01*
X164550313Y-114507549D02*
X164617656Y-114507549D01*
X164718672Y-114541220D01*
X164887030Y-114709579D01*
X164920702Y-114810594D01*
X164920702Y-114877938D01*
X164887030Y-114978953D01*
X164819687Y-115046297D01*
X164685000Y-115113640D01*
X163876878Y-115113640D01*
X164314611Y-115551373D01*
G04 #@! TO.C,J4*
X171370666Y-91781380D02*
X171370666Y-92495666D01*
X171323047Y-92638523D01*
X171227809Y-92733761D01*
X171084952Y-92781380D01*
X170989714Y-92781380D01*
X172275428Y-92114714D02*
X172275428Y-92781380D01*
X172037333Y-91733761D02*
X171799238Y-92448047D01*
X172418285Y-92448047D01*
X161004809Y-94559380D02*
X160528619Y-94559380D01*
X160528619Y-93559380D01*
X161338142Y-94035571D02*
X161671476Y-94035571D01*
X161814333Y-94559380D02*
X161338142Y-94559380D01*
X161338142Y-93559380D01*
X161814333Y-93559380D01*
X162242904Y-94559380D02*
X162242904Y-93559380D01*
X162481000Y-93559380D01*
X162623857Y-93607000D01*
X162719095Y-93702238D01*
X162766714Y-93797476D01*
X162814333Y-93987952D01*
X162814333Y-94130809D01*
X162766714Y-94321285D01*
X162719095Y-94416523D01*
X162623857Y-94511761D01*
X162481000Y-94559380D01*
X162242904Y-94559380D01*
X163909571Y-93559380D02*
X164147666Y-94559380D01*
X164338142Y-93845095D01*
X164528619Y-94559380D01*
X164766714Y-93559380D01*
X165100047Y-94511761D02*
X165242904Y-94559380D01*
X165481000Y-94559380D01*
X165576238Y-94511761D01*
X165623857Y-94464142D01*
X165671476Y-94368904D01*
X165671476Y-94273666D01*
X165623857Y-94178428D01*
X165576238Y-94130809D01*
X165481000Y-94083190D01*
X165290523Y-94035571D01*
X165195285Y-93987952D01*
X165147666Y-93940333D01*
X165100047Y-93845095D01*
X165100047Y-93749857D01*
X165147666Y-93654619D01*
X165195285Y-93607000D01*
X165290523Y-93559380D01*
X165528619Y-93559380D01*
X165671476Y-93607000D01*
X166052428Y-93654619D02*
X166100047Y-93607000D01*
X166195285Y-93559380D01*
X166433380Y-93559380D01*
X166528619Y-93607000D01*
X166576238Y-93654619D01*
X166623857Y-93749857D01*
X166623857Y-93845095D01*
X166576238Y-93987952D01*
X166004809Y-94559380D01*
X166623857Y-94559380D01*
X167195285Y-93987952D02*
X167100047Y-93940333D01*
X167052428Y-93892714D01*
X167004809Y-93797476D01*
X167004809Y-93749857D01*
X167052428Y-93654619D01*
X167100047Y-93607000D01*
X167195285Y-93559380D01*
X167385761Y-93559380D01*
X167481000Y-93607000D01*
X167528619Y-93654619D01*
X167576238Y-93749857D01*
X167576238Y-93797476D01*
X167528619Y-93892714D01*
X167481000Y-93940333D01*
X167385761Y-93987952D01*
X167195285Y-93987952D01*
X167100047Y-94035571D01*
X167052428Y-94083190D01*
X167004809Y-94178428D01*
X167004809Y-94368904D01*
X167052428Y-94464142D01*
X167100047Y-94511761D01*
X167195285Y-94559380D01*
X167385761Y-94559380D01*
X167481000Y-94511761D01*
X167528619Y-94464142D01*
X167576238Y-94368904D01*
X167576238Y-94178428D01*
X167528619Y-94083190D01*
X167481000Y-94035571D01*
X167385761Y-93987952D01*
X168528619Y-94559380D02*
X167957190Y-94559380D01*
X168242904Y-94559380D02*
X168242904Y-93559380D01*
X168147666Y-93702238D01*
X168052428Y-93797476D01*
X167957190Y-93845095D01*
X168909571Y-93654619D02*
X168957190Y-93607000D01*
X169052428Y-93559380D01*
X169290523Y-93559380D01*
X169385761Y-93607000D01*
X169433380Y-93654619D01*
X169481000Y-93749857D01*
X169481000Y-93845095D01*
X169433380Y-93987952D01*
X168861952Y-94559380D01*
X169481000Y-94559380D01*
X170242904Y-94035571D02*
X170385761Y-94083190D01*
X170433380Y-94130809D01*
X170481000Y-94226047D01*
X170481000Y-94368904D01*
X170433380Y-94464142D01*
X170385761Y-94511761D01*
X170290523Y-94559380D01*
X169909571Y-94559380D01*
X169909571Y-93559380D01*
X170242904Y-93559380D01*
X170338142Y-93607000D01*
X170385761Y-93654619D01*
X170433380Y-93749857D01*
X170433380Y-93845095D01*
X170385761Y-93940333D01*
X170338142Y-93987952D01*
X170242904Y-94035571D01*
X169909571Y-94035571D01*
G04 #@! TO.C,J5*
X130857666Y-121880380D02*
X130857666Y-122594666D01*
X130810047Y-122737523D01*
X130714809Y-122832761D01*
X130571952Y-122880380D01*
X130476714Y-122880380D01*
X131810047Y-121880380D02*
X131333857Y-121880380D01*
X131286238Y-122356571D01*
X131333857Y-122308952D01*
X131429095Y-122261333D01*
X131667190Y-122261333D01*
X131762428Y-122308952D01*
X131810047Y-122356571D01*
X131857666Y-122451809D01*
X131857666Y-122689904D01*
X131810047Y-122785142D01*
X131762428Y-122832761D01*
X131667190Y-122880380D01*
X131429095Y-122880380D01*
X131333857Y-122832761D01*
X131286238Y-122785142D01*
X122154761Y-124452380D02*
X121678571Y-124452380D01*
X121678571Y-123452380D01*
X122916666Y-124452380D02*
X122916666Y-123928571D01*
X122869047Y-123833333D01*
X122773809Y-123785714D01*
X122583333Y-123785714D01*
X122488095Y-123833333D01*
X122916666Y-124404761D02*
X122821428Y-124452380D01*
X122583333Y-124452380D01*
X122488095Y-124404761D01*
X122440476Y-124309523D01*
X122440476Y-124214285D01*
X122488095Y-124119047D01*
X122583333Y-124071428D01*
X122821428Y-124071428D01*
X122916666Y-124023809D01*
X123821428Y-123785714D02*
X123821428Y-124452380D01*
X123392857Y-123785714D02*
X123392857Y-124309523D01*
X123440476Y-124404761D01*
X123535714Y-124452380D01*
X123678571Y-124452380D01*
X123773809Y-124404761D01*
X123821428Y-124357142D01*
X124154761Y-123785714D02*
X124535714Y-123785714D01*
X124297619Y-123452380D02*
X124297619Y-124309523D01*
X124345238Y-124404761D01*
X124440476Y-124452380D01*
X124535714Y-124452380D01*
X124821428Y-124404761D02*
X124916666Y-124452380D01*
X125107142Y-124452380D01*
X125202380Y-124404761D01*
X125250000Y-124309523D01*
X125250000Y-124261904D01*
X125202380Y-124166666D01*
X125107142Y-124119047D01*
X124964285Y-124119047D01*
X124869047Y-124071428D01*
X124821428Y-123976190D01*
X124821428Y-123928571D01*
X124869047Y-123833333D01*
X124964285Y-123785714D01*
X125107142Y-123785714D01*
X125202380Y-123833333D01*
X125678571Y-123785714D02*
X125678571Y-124785714D01*
X125678571Y-123833333D02*
X125773809Y-123785714D01*
X125964285Y-123785714D01*
X126059523Y-123833333D01*
X126107142Y-123880952D01*
X126154761Y-123976190D01*
X126154761Y-124261904D01*
X126107142Y-124357142D01*
X126059523Y-124404761D01*
X125964285Y-124452380D01*
X125773809Y-124452380D01*
X125678571Y-124404761D01*
X126583333Y-124452380D02*
X126583333Y-123785714D01*
X126583333Y-123976190D02*
X126630952Y-123880952D01*
X126678571Y-123833333D01*
X126773809Y-123785714D01*
X126869047Y-123785714D01*
X127583333Y-124404761D02*
X127488095Y-124452380D01*
X127297619Y-124452380D01*
X127202380Y-124404761D01*
X127154761Y-124309523D01*
X127154761Y-123928571D01*
X127202380Y-123833333D01*
X127297619Y-123785714D01*
X127488095Y-123785714D01*
X127583333Y-123833333D01*
X127630952Y-123928571D01*
X127630952Y-124023809D01*
X127154761Y-124119047D01*
X128488095Y-124404761D02*
X128392857Y-124452380D01*
X128202380Y-124452380D01*
X128107142Y-124404761D01*
X128059523Y-124357142D01*
X128011904Y-124261904D01*
X128011904Y-123976190D01*
X128059523Y-123880952D01*
X128107142Y-123833333D01*
X128202380Y-123785714D01*
X128392857Y-123785714D01*
X128488095Y-123833333D01*
X128916666Y-124452380D02*
X128916666Y-123452380D01*
X129345238Y-124452380D02*
X129345238Y-123928571D01*
X129297619Y-123833333D01*
X129202380Y-123785714D01*
X129059523Y-123785714D01*
X128964285Y-123833333D01*
X128916666Y-123880952D01*
X130202380Y-124404761D02*
X130107142Y-124452380D01*
X129916666Y-124452380D01*
X129821428Y-124404761D01*
X129773809Y-124309523D01*
X129773809Y-123928571D01*
X129821428Y-123833333D01*
X129916666Y-123785714D01*
X130107142Y-123785714D01*
X130202380Y-123833333D01*
X130250000Y-123928571D01*
X130250000Y-124023809D01*
X129773809Y-124119047D01*
X130678571Y-124452380D02*
X130678571Y-123785714D01*
X130678571Y-123976190D02*
X130726190Y-123880952D01*
X130773809Y-123833333D01*
X130869047Y-123785714D01*
X130964285Y-123785714D01*
G04 #@! TO.C,R1*
X148423333Y-71826380D02*
X148090000Y-71350190D01*
X147851904Y-71826380D02*
X147851904Y-70826380D01*
X148232857Y-70826380D01*
X148328095Y-70874000D01*
X148375714Y-70921619D01*
X148423333Y-71016857D01*
X148423333Y-71159714D01*
X148375714Y-71254952D01*
X148328095Y-71302571D01*
X148232857Y-71350190D01*
X147851904Y-71350190D01*
X149375714Y-71826380D02*
X148804285Y-71826380D01*
X149090000Y-71826380D02*
X149090000Y-70826380D01*
X148994761Y-70969238D01*
X148899523Y-71064476D01*
X148804285Y-71112095D01*
X143748285Y-72858380D02*
X144367333Y-72858380D01*
X144034000Y-73239333D01*
X144176857Y-73239333D01*
X144272095Y-73286952D01*
X144319714Y-73334571D01*
X144367333Y-73429809D01*
X144367333Y-73667904D01*
X144319714Y-73763142D01*
X144272095Y-73810761D01*
X144176857Y-73858380D01*
X143891142Y-73858380D01*
X143795904Y-73810761D01*
X143748285Y-73763142D01*
X144700666Y-72858380D02*
X145319714Y-72858380D01*
X144986380Y-73239333D01*
X145129238Y-73239333D01*
X145224476Y-73286952D01*
X145272095Y-73334571D01*
X145319714Y-73429809D01*
X145319714Y-73667904D01*
X145272095Y-73763142D01*
X145224476Y-73810761D01*
X145129238Y-73858380D01*
X144843523Y-73858380D01*
X144748285Y-73810761D01*
X144700666Y-73763142D01*
X145938761Y-72858380D02*
X146034000Y-72858380D01*
X146129238Y-72906000D01*
X146176857Y-72953619D01*
X146224476Y-73048857D01*
X146272095Y-73239333D01*
X146272095Y-73477428D01*
X146224476Y-73667904D01*
X146176857Y-73763142D01*
X146129238Y-73810761D01*
X146034000Y-73858380D01*
X145938761Y-73858380D01*
X145843523Y-73810761D01*
X145795904Y-73763142D01*
X145748285Y-73667904D01*
X145700666Y-73477428D01*
X145700666Y-73239333D01*
X145748285Y-73048857D01*
X145795904Y-72953619D01*
X145843523Y-72906000D01*
X145938761Y-72858380D01*
G04 #@! TO.C,R2*
X152487333Y-95575380D02*
X152154000Y-95099190D01*
X151915904Y-95575380D02*
X151915904Y-94575380D01*
X152296857Y-94575380D01*
X152392095Y-94623000D01*
X152439714Y-94670619D01*
X152487333Y-94765857D01*
X152487333Y-94908714D01*
X152439714Y-95003952D01*
X152392095Y-95051571D01*
X152296857Y-95099190D01*
X151915904Y-95099190D01*
X152868285Y-94670619D02*
X152915904Y-94623000D01*
X153011142Y-94575380D01*
X153249238Y-94575380D01*
X153344476Y-94623000D01*
X153392095Y-94670619D01*
X153439714Y-94765857D01*
X153439714Y-94861095D01*
X153392095Y-95003952D01*
X152820666Y-95575380D01*
X153439714Y-95575380D01*
X149055714Y-97822380D02*
X148484285Y-97822380D01*
X148770000Y-97822380D02*
X148770000Y-96822380D01*
X148674761Y-96965238D01*
X148579523Y-97060476D01*
X148484285Y-97108095D01*
X149484285Y-97822380D02*
X149484285Y-96822380D01*
X150055714Y-97822380D02*
X149627142Y-97250952D01*
X150055714Y-96822380D02*
X149484285Y-97393809D01*
G04 #@! TO.C,R3*
X139152333Y-95575380D02*
X138819000Y-95099190D01*
X138580904Y-95575380D02*
X138580904Y-94575380D01*
X138961857Y-94575380D01*
X139057095Y-94623000D01*
X139104714Y-94670619D01*
X139152333Y-94765857D01*
X139152333Y-94908714D01*
X139104714Y-95003952D01*
X139057095Y-95051571D01*
X138961857Y-95099190D01*
X138580904Y-95099190D01*
X139485666Y-94575380D02*
X140104714Y-94575380D01*
X139771380Y-94956333D01*
X139914238Y-94956333D01*
X140009476Y-95003952D01*
X140057095Y-95051571D01*
X140104714Y-95146809D01*
X140104714Y-95384904D01*
X140057095Y-95480142D01*
X140009476Y-95527761D01*
X139914238Y-95575380D01*
X139628523Y-95575380D01*
X139533285Y-95527761D01*
X139485666Y-95480142D01*
X143055714Y-97822380D02*
X142484285Y-97822380D01*
X142770000Y-97822380D02*
X142770000Y-96822380D01*
X142674761Y-96965238D01*
X142579523Y-97060476D01*
X142484285Y-97108095D01*
X143484285Y-97822380D02*
X143484285Y-96822380D01*
X144055714Y-97822380D02*
X143627142Y-97250952D01*
X144055714Y-96822380D02*
X143484285Y-97393809D01*
G04 #@! TO.C,SW1*
X118935666Y-87653761D02*
X119078523Y-87701380D01*
X119316619Y-87701380D01*
X119411857Y-87653761D01*
X119459476Y-87606142D01*
X119507095Y-87510904D01*
X119507095Y-87415666D01*
X119459476Y-87320428D01*
X119411857Y-87272809D01*
X119316619Y-87225190D01*
X119126142Y-87177571D01*
X119030904Y-87129952D01*
X118983285Y-87082333D01*
X118935666Y-86987095D01*
X118935666Y-86891857D01*
X118983285Y-86796619D01*
X119030904Y-86749000D01*
X119126142Y-86701380D01*
X119364238Y-86701380D01*
X119507095Y-86749000D01*
X119840428Y-86701380D02*
X120078523Y-87701380D01*
X120269000Y-86987095D01*
X120459476Y-87701380D01*
X120697571Y-86701380D01*
X121602333Y-87701380D02*
X121030904Y-87701380D01*
X121316619Y-87701380D02*
X121316619Y-86701380D01*
X121221380Y-86844238D01*
X121126142Y-86939476D01*
X121030904Y-86987095D01*
X118491238Y-92305142D02*
X118443619Y-92352761D01*
X118300761Y-92400380D01*
X118205523Y-92400380D01*
X118062666Y-92352761D01*
X117967428Y-92257523D01*
X117919809Y-92162285D01*
X117872190Y-91971809D01*
X117872190Y-91828952D01*
X117919809Y-91638476D01*
X117967428Y-91543238D01*
X118062666Y-91448000D01*
X118205523Y-91400380D01*
X118300761Y-91400380D01*
X118443619Y-91448000D01*
X118491238Y-91495619D01*
X119110285Y-91400380D02*
X119300761Y-91400380D01*
X119396000Y-91448000D01*
X119491238Y-91543238D01*
X119538857Y-91733714D01*
X119538857Y-92067047D01*
X119491238Y-92257523D01*
X119396000Y-92352761D01*
X119300761Y-92400380D01*
X119110285Y-92400380D01*
X119015047Y-92352761D01*
X118919809Y-92257523D01*
X118872190Y-92067047D01*
X118872190Y-91733714D01*
X118919809Y-91543238D01*
X119015047Y-91448000D01*
X119110285Y-91400380D01*
X119967428Y-92400380D02*
X119967428Y-91400380D01*
X120538857Y-92400380D01*
X120538857Y-91400380D01*
X121348380Y-91876571D02*
X121015047Y-91876571D01*
X121015047Y-92400380D02*
X121015047Y-91400380D01*
X121491238Y-91400380D01*
X121872190Y-92400380D02*
X121872190Y-91400380D01*
X122872190Y-91448000D02*
X122776952Y-91400380D01*
X122634095Y-91400380D01*
X122491238Y-91448000D01*
X122396000Y-91543238D01*
X122348380Y-91638476D01*
X122300761Y-91828952D01*
X122300761Y-91971809D01*
X122348380Y-92162285D01*
X122396000Y-92257523D01*
X122491238Y-92352761D01*
X122634095Y-92400380D01*
X122729333Y-92400380D01*
X122872190Y-92352761D01*
X122919809Y-92305142D01*
X122919809Y-91971809D01*
X122729333Y-91971809D01*
G04 #@! TO.C,U1*
X137262857Y-83786666D02*
X137739047Y-83786666D01*
X137167619Y-84072380D02*
X137500952Y-83072380D01*
X137834285Y-84072380D01*
X138167619Y-84072380D02*
X138167619Y-83405714D01*
X138167619Y-83596190D02*
X138215238Y-83500952D01*
X138262857Y-83453333D01*
X138358095Y-83405714D01*
X138453333Y-83405714D01*
X139215238Y-84072380D02*
X139215238Y-83072380D01*
X139215238Y-84024761D02*
X139120000Y-84072380D01*
X138929523Y-84072380D01*
X138834285Y-84024761D01*
X138786666Y-83977142D01*
X138739047Y-83881904D01*
X138739047Y-83596190D01*
X138786666Y-83500952D01*
X138834285Y-83453333D01*
X138929523Y-83405714D01*
X139120000Y-83405714D01*
X139215238Y-83453333D01*
X140120000Y-83405714D02*
X140120000Y-84072380D01*
X139691428Y-83405714D02*
X139691428Y-83929523D01*
X139739047Y-84024761D01*
X139834285Y-84072380D01*
X139977142Y-84072380D01*
X140072380Y-84024761D01*
X140120000Y-83977142D01*
X140596190Y-84072380D02*
X140596190Y-83405714D01*
X140596190Y-83072380D02*
X140548571Y-83120000D01*
X140596190Y-83167619D01*
X140643809Y-83120000D01*
X140596190Y-83072380D01*
X140596190Y-83167619D01*
X141072380Y-83405714D02*
X141072380Y-84072380D01*
X141072380Y-83500952D02*
X141120000Y-83453333D01*
X141215238Y-83405714D01*
X141358095Y-83405714D01*
X141453333Y-83453333D01*
X141500952Y-83548571D01*
X141500952Y-84072380D01*
X142120000Y-84072380D02*
X142024761Y-84024761D01*
X141977142Y-83977142D01*
X141929523Y-83881904D01*
X141929523Y-83596190D01*
X141977142Y-83500952D01*
X142024761Y-83453333D01*
X142120000Y-83405714D01*
X142262857Y-83405714D01*
X142358095Y-83453333D01*
X142405714Y-83500952D01*
X142453333Y-83596190D01*
X142453333Y-83881904D01*
X142405714Y-83977142D01*
X142358095Y-84024761D01*
X142262857Y-84072380D01*
X142120000Y-84072380D01*
X142881904Y-84072380D02*
X142881904Y-83072380D01*
X143262857Y-83072380D01*
X143358095Y-83120000D01*
X143405714Y-83167619D01*
X143453333Y-83262857D01*
X143453333Y-83405714D01*
X143405714Y-83500952D01*
X143358095Y-83548571D01*
X143262857Y-83596190D01*
X142881904Y-83596190D01*
X143881904Y-84072380D02*
X143881904Y-83405714D01*
X143881904Y-83596190D02*
X143929523Y-83500952D01*
X143977142Y-83453333D01*
X144072380Y-83405714D01*
X144167619Y-83405714D01*
X144643809Y-84072380D02*
X144548571Y-84024761D01*
X144500952Y-83977142D01*
X144453333Y-83881904D01*
X144453333Y-83596190D01*
X144500952Y-83500952D01*
X144548571Y-83453333D01*
X144643809Y-83405714D01*
X144786666Y-83405714D01*
X144881904Y-83453333D01*
X144929523Y-83500952D01*
X144977142Y-83596190D01*
X144977142Y-83881904D01*
X144929523Y-83977142D01*
X144881904Y-84024761D01*
X144786666Y-84072380D01*
X144643809Y-84072380D01*
X145405714Y-84072380D02*
X145405714Y-83072380D01*
X145739047Y-83786666D01*
X146072380Y-83072380D01*
X146072380Y-84072380D01*
X146548571Y-84072380D02*
X146548571Y-83405714D01*
X146548571Y-83072380D02*
X146500952Y-83120000D01*
X146548571Y-83167619D01*
X146596190Y-83120000D01*
X146548571Y-83072380D01*
X146548571Y-83167619D01*
X147024761Y-83405714D02*
X147024761Y-84072380D01*
X147024761Y-83500952D02*
X147072380Y-83453333D01*
X147167619Y-83405714D01*
X147310476Y-83405714D01*
X147405714Y-83453333D01*
X147453333Y-83548571D01*
X147453333Y-84072380D01*
X147929523Y-84072380D02*
X147929523Y-83405714D01*
X147929523Y-83072380D02*
X147881904Y-83120000D01*
X147929523Y-83167619D01*
X147977142Y-83120000D01*
X147929523Y-83072380D01*
X147929523Y-83167619D01*
X154520000Y-84561428D02*
X154720000Y-85161428D01*
X154920000Y-84561428D01*
X155462857Y-85104285D02*
X155434285Y-85132857D01*
X155348571Y-85161428D01*
X155291428Y-85161428D01*
X155205714Y-85132857D01*
X155148571Y-85075714D01*
X155120000Y-85018571D01*
X155091428Y-84904285D01*
X155091428Y-84818571D01*
X155120000Y-84704285D01*
X155148571Y-84647142D01*
X155205714Y-84590000D01*
X155291428Y-84561428D01*
X155348571Y-84561428D01*
X155434285Y-84590000D01*
X155462857Y-84618571D01*
X156062857Y-85104285D02*
X156034285Y-85132857D01*
X155948571Y-85161428D01*
X155891428Y-85161428D01*
X155805714Y-85132857D01*
X155748571Y-85075714D01*
X155720000Y-85018571D01*
X155691428Y-84904285D01*
X155691428Y-84818571D01*
X155720000Y-84704285D01*
X155748571Y-84647142D01*
X155805714Y-84590000D01*
X155891428Y-84561428D01*
X155948571Y-84561428D01*
X156034285Y-84590000D01*
X156062857Y-84618571D01*
X155077142Y-82621428D02*
X154877142Y-82335714D01*
X154734285Y-82621428D02*
X154734285Y-82021428D01*
X154962857Y-82021428D01*
X155020000Y-82050000D01*
X155048571Y-82078571D01*
X155077142Y-82135714D01*
X155077142Y-82221428D01*
X155048571Y-82278571D01*
X155020000Y-82307142D01*
X154962857Y-82335714D01*
X154734285Y-82335714D01*
X155277142Y-82021428D02*
X155677142Y-82621428D01*
X155677142Y-82021428D02*
X155277142Y-82621428D01*
X155905714Y-82621428D02*
X155905714Y-82021428D01*
X154562857Y-79481428D02*
X154905714Y-79481428D01*
X154734285Y-80081428D02*
X154734285Y-79481428D01*
X155048571Y-79481428D02*
X155448571Y-80081428D01*
X155448571Y-79481428D02*
X155048571Y-80081428D01*
X155677142Y-80081428D02*
X155677142Y-79481428D01*
X155820000Y-79481428D01*
X155905714Y-79510000D01*
X155962857Y-79567142D01*
X155991428Y-79624285D01*
X156020000Y-79738571D01*
X156020000Y-79824285D01*
X155991428Y-79938571D01*
X155962857Y-79995714D01*
X155905714Y-80052857D01*
X155820000Y-80081428D01*
X155677142Y-80081428D01*
X154634285Y-78176428D02*
X154634285Y-77576428D01*
X154777142Y-77576428D01*
X154862857Y-77605000D01*
X154920000Y-77662142D01*
X154948571Y-77719285D01*
X154977142Y-77833571D01*
X154977142Y-77919285D01*
X154948571Y-78033571D01*
X154920000Y-78090714D01*
X154862857Y-78147857D01*
X154777142Y-78176428D01*
X154634285Y-78176428D01*
X155148571Y-77576428D02*
X155491428Y-77576428D01*
X155320000Y-78176428D02*
X155320000Y-77576428D01*
X156034285Y-78176428D02*
X155834285Y-77890714D01*
X155691428Y-78176428D02*
X155691428Y-77576428D01*
X155920000Y-77576428D01*
X155977142Y-77605000D01*
X156005714Y-77633571D01*
X156034285Y-77690714D01*
X156034285Y-77776428D01*
X156005714Y-77833571D01*
X155977142Y-77862142D01*
X155920000Y-77890714D01*
X155691428Y-77890714D01*
X154862857Y-89035000D02*
X154805714Y-89006428D01*
X154720000Y-89006428D01*
X154634285Y-89035000D01*
X154577142Y-89092142D01*
X154548571Y-89149285D01*
X154520000Y-89263571D01*
X154520000Y-89349285D01*
X154548571Y-89463571D01*
X154577142Y-89520714D01*
X154634285Y-89577857D01*
X154720000Y-89606428D01*
X154777142Y-89606428D01*
X154862857Y-89577857D01*
X154891428Y-89549285D01*
X154891428Y-89349285D01*
X154777142Y-89349285D01*
X155148571Y-89606428D02*
X155148571Y-89006428D01*
X155491428Y-89606428D01*
X155491428Y-89006428D01*
X155777142Y-89606428D02*
X155777142Y-89006428D01*
X155920000Y-89006428D01*
X156005714Y-89035000D01*
X156062857Y-89092142D01*
X156091428Y-89149285D01*
X156120000Y-89263571D01*
X156120000Y-89349285D01*
X156091428Y-89463571D01*
X156062857Y-89520714D01*
X156005714Y-89577857D01*
X155920000Y-89606428D01*
X155777142Y-89606428D01*
X154862857Y-87130000D02*
X154805714Y-87101428D01*
X154720000Y-87101428D01*
X154634285Y-87130000D01*
X154577142Y-87187142D01*
X154548571Y-87244285D01*
X154520000Y-87358571D01*
X154520000Y-87444285D01*
X154548571Y-87558571D01*
X154577142Y-87615714D01*
X154634285Y-87672857D01*
X154720000Y-87701428D01*
X154777142Y-87701428D01*
X154862857Y-87672857D01*
X154891428Y-87644285D01*
X154891428Y-87444285D01*
X154777142Y-87444285D01*
X155148571Y-87701428D02*
X155148571Y-87101428D01*
X155491428Y-87701428D01*
X155491428Y-87101428D01*
X155777142Y-87701428D02*
X155777142Y-87101428D01*
X155920000Y-87101428D01*
X156005714Y-87130000D01*
X156062857Y-87187142D01*
X156091428Y-87244285D01*
X156120000Y-87358571D01*
X156120000Y-87444285D01*
X156091428Y-87558571D01*
X156062857Y-87615714D01*
X156005714Y-87672857D01*
X155920000Y-87701428D01*
X155777142Y-87701428D01*
G04 #@! TO.C,U2*
X128452380Y-101261904D02*
X129261904Y-101261904D01*
X129357142Y-101214285D01*
X129404761Y-101166666D01*
X129452380Y-101071428D01*
X129452380Y-100880952D01*
X129404761Y-100785714D01*
X129357142Y-100738095D01*
X129261904Y-100690476D01*
X128452380Y-100690476D01*
X128547619Y-100261904D02*
X128500000Y-100214285D01*
X128452380Y-100119047D01*
X128452380Y-99880952D01*
X128500000Y-99785714D01*
X128547619Y-99738095D01*
X128642857Y-99690476D01*
X128738095Y-99690476D01*
X128880952Y-99738095D01*
X129452380Y-100309523D01*
X129452380Y-99690476D01*
X116357142Y-111595238D02*
X116404761Y-111642857D01*
X116452380Y-111785714D01*
X116452380Y-111880952D01*
X116404761Y-112023809D01*
X116309523Y-112119047D01*
X116214285Y-112166666D01*
X116023809Y-112214285D01*
X115880952Y-112214285D01*
X115690476Y-112166666D01*
X115595238Y-112119047D01*
X115500000Y-112023809D01*
X115452380Y-111880952D01*
X115452380Y-111785714D01*
X115500000Y-111642857D01*
X115547619Y-111595238D01*
X116357142Y-110595238D02*
X116404761Y-110642857D01*
X116452380Y-110785714D01*
X116452380Y-110880952D01*
X116404761Y-111023809D01*
X116309523Y-111119047D01*
X116214285Y-111166666D01*
X116023809Y-111214285D01*
X115880952Y-111214285D01*
X115690476Y-111166666D01*
X115595238Y-111119047D01*
X115500000Y-111023809D01*
X115452380Y-110880952D01*
X115452380Y-110785714D01*
X115500000Y-110642857D01*
X115547619Y-110595238D01*
X116452380Y-109642857D02*
X116452380Y-110214285D01*
X116452380Y-109928571D02*
X115452380Y-109928571D01*
X115595238Y-110023809D01*
X115690476Y-110119047D01*
X115738095Y-110214285D01*
X116452380Y-108690476D02*
X116452380Y-109261904D01*
X116452380Y-108976190D02*
X115452380Y-108976190D01*
X115595238Y-109071428D01*
X115690476Y-109166666D01*
X115738095Y-109261904D01*
X115452380Y-108071428D02*
X115452380Y-107976190D01*
X115500000Y-107880952D01*
X115547619Y-107833333D01*
X115642857Y-107785714D01*
X115833333Y-107738095D01*
X116071428Y-107738095D01*
X116261904Y-107785714D01*
X116357142Y-107833333D01*
X116404761Y-107880952D01*
X116452380Y-107976190D01*
X116452380Y-108071428D01*
X116404761Y-108166666D01*
X116357142Y-108214285D01*
X116261904Y-108261904D01*
X116071428Y-108309523D01*
X115833333Y-108309523D01*
X115642857Y-108261904D01*
X115547619Y-108214285D01*
X115500000Y-108166666D01*
X115452380Y-108071428D01*
X116452380Y-106785714D02*
X116452380Y-107357142D01*
X116452380Y-107071428D02*
X115452380Y-107071428D01*
X115595238Y-107166666D01*
X115690476Y-107261904D01*
X115738095Y-107357142D01*
G04 #@! TO.C,Antenne*
X118775904Y-112246666D02*
X119252095Y-112246666D01*
X118680666Y-112532380D02*
X119014000Y-111532380D01*
X119347333Y-112532380D01*
X119680666Y-111865714D02*
X119680666Y-112532380D01*
X119680666Y-111960952D02*
X119728285Y-111913333D01*
X119823523Y-111865714D01*
X119966380Y-111865714D01*
X120061619Y-111913333D01*
X120109238Y-112008571D01*
X120109238Y-112532380D01*
X120442571Y-111865714D02*
X120823523Y-111865714D01*
X120585428Y-111532380D02*
X120585428Y-112389523D01*
X120633047Y-112484761D01*
X120728285Y-112532380D01*
X120823523Y-112532380D01*
X121537809Y-112484761D02*
X121442571Y-112532380D01*
X121252095Y-112532380D01*
X121156857Y-112484761D01*
X121109238Y-112389523D01*
X121109238Y-112008571D01*
X121156857Y-111913333D01*
X121252095Y-111865714D01*
X121442571Y-111865714D01*
X121537809Y-111913333D01*
X121585428Y-112008571D01*
X121585428Y-112103809D01*
X121109238Y-112199047D01*
X122014000Y-111865714D02*
X122014000Y-112532380D01*
X122014000Y-111960952D02*
X122061619Y-111913333D01*
X122156857Y-111865714D01*
X122299714Y-111865714D01*
X122394952Y-111913333D01*
X122442571Y-112008571D01*
X122442571Y-112532380D01*
X122918761Y-111865714D02*
X122918761Y-112532380D01*
X122918761Y-111960952D02*
X122966380Y-111913333D01*
X123061619Y-111865714D01*
X123204476Y-111865714D01*
X123299714Y-111913333D01*
X123347333Y-112008571D01*
X123347333Y-112532380D01*
X124204476Y-112484761D02*
X124109238Y-112532380D01*
X123918761Y-112532380D01*
X123823523Y-112484761D01*
X123775904Y-112389523D01*
X123775904Y-112008571D01*
X123823523Y-111913333D01*
X123918761Y-111865714D01*
X124109238Y-111865714D01*
X124204476Y-111913333D01*
X124252095Y-112008571D01*
X124252095Y-112103809D01*
X123775904Y-112199047D01*
G04 #@! TO.C,*
D10*
G04 #@! TD*
M02*
