G04 #@! TF.GenerationSoftware,KiCad,Pcbnew,(5.0.2)-1*
G04 #@! TF.CreationDate,2020-02-26T09:59:23+01:00*
G04 #@! TF.ProjectId,HB-OU-MP3-LED_PCB,48422d4f-552d-44d5-9033-2d4c45445f50,V2.1.3*
G04 #@! TF.SameCoordinates,Original*
G04 #@! TF.FileFunction,Legend,Bot*
G04 #@! TF.FilePolarity,Positive*
%FSLAX46Y46*%
G04 Gerber Fmt 4.6, Leading zero omitted, Abs format (unit mm)*
G04 Created by KiCad (PCBNEW (5.0.2)-1) date 26.02.2020 09:59:23*
%MOMM*%
%LPD*%
G01*
G04 APERTURE LIST*
%ADD10C,0.300000*%
%ADD11C,0.150000*%
%ADD12C,0.010000*%
%ADD13C,0.120000*%
G04 APERTURE END LIST*
D10*
X165519483Y-117838128D02*
X166580144Y-116777468D01*
X166075067Y-117282544D02*
X165468976Y-116676453D01*
X164913392Y-117232037D02*
X165974052Y-116171377D01*
X164610346Y-115817823D02*
X164408316Y-115716808D01*
X164307300Y-115716808D01*
X164155777Y-115767316D01*
X164004255Y-115918838D01*
X163953747Y-116070361D01*
X163953747Y-116171377D01*
X164004255Y-116322900D01*
X164408316Y-116726961D01*
X165468976Y-115666300D01*
X165115422Y-115312747D01*
X164963900Y-115262239D01*
X164862884Y-115262239D01*
X164711361Y-115312747D01*
X164610346Y-115413762D01*
X164559838Y-115565285D01*
X164559838Y-115666300D01*
X164610346Y-115817823D01*
X164963900Y-116171377D01*
X163751716Y-115262239D02*
X162943594Y-114454117D01*
X162893087Y-113090411D02*
X162691056Y-112888381D01*
X162539533Y-112837873D01*
X162337503Y-112837873D01*
X162084965Y-112989396D01*
X161731411Y-113342950D01*
X161579888Y-113595488D01*
X161579888Y-113797518D01*
X161630396Y-113949041D01*
X161832427Y-114151072D01*
X161983950Y-114201579D01*
X162185980Y-114201579D01*
X162438518Y-114050056D01*
X162792072Y-113696503D01*
X162943594Y-113443965D01*
X162943594Y-113241934D01*
X162893087Y-113090411D01*
X161983950Y-112181274D02*
X161125320Y-113039904D01*
X160973797Y-113090411D01*
X160872782Y-113090411D01*
X160721259Y-113039904D01*
X160519228Y-112837873D01*
X160468721Y-112686350D01*
X160468721Y-112585335D01*
X160519228Y-112433812D01*
X161377858Y-111575183D01*
X160216183Y-111726705D02*
X159408061Y-110918583D01*
X158498923Y-110817568D02*
X159559583Y-109756908D01*
X158448416Y-110160969D01*
X158852477Y-109049801D01*
X157791816Y-110110461D01*
X157286740Y-109605385D02*
X158347400Y-108544725D01*
X157943339Y-108140664D01*
X157791816Y-108090156D01*
X157690801Y-108090156D01*
X157539278Y-108140664D01*
X157387755Y-108292187D01*
X157337248Y-108443710D01*
X157337248Y-108544725D01*
X157387755Y-108696248D01*
X157791816Y-109100309D01*
X157387755Y-107585080D02*
X156731156Y-106928481D01*
X156680649Y-107686095D01*
X156529126Y-107534572D01*
X156377603Y-107484065D01*
X156276588Y-107484065D01*
X156125065Y-107534572D01*
X155872527Y-107787111D01*
X155822019Y-107938633D01*
X155822019Y-108039649D01*
X155872527Y-108191172D01*
X156175572Y-108494217D01*
X156327095Y-108544725D01*
X156428111Y-108544725D01*
X155619988Y-107130511D02*
X154811866Y-106322389D01*
X153397653Y-105716298D02*
X153902729Y-106221374D01*
X154963389Y-105160714D01*
X153599683Y-104807161D02*
X153246130Y-104453607D01*
X152539023Y-104857668D02*
X153044099Y-105362744D01*
X154104760Y-104302084D01*
X153599683Y-103797008D01*
X152084455Y-104403099D02*
X153145115Y-103342439D01*
X152892577Y-103089901D01*
X152690546Y-102988886D01*
X152488516Y-102988886D01*
X152336993Y-103039394D01*
X152084455Y-103190916D01*
X151932932Y-103342439D01*
X151781409Y-103594977D01*
X151730901Y-103746500D01*
X151730901Y-103948531D01*
X151831916Y-104150561D01*
X152084455Y-104403099D01*
D11*
G04 #@! TO.C,U1*
X158495000Y-89970000D02*
G75*
G03X158495000Y-89970000I-635000J0D01*
G01*
X158495000Y-87430000D02*
G75*
G03X158495000Y-87430000I-635000J0D01*
G01*
X158495000Y-84890000D02*
G75*
G03X158495000Y-84890000I-635000J0D01*
G01*
X158495000Y-82350000D02*
G75*
G03X158495000Y-82350000I-635000J0D01*
G01*
X158495000Y-79810000D02*
G75*
G03X158495000Y-79810000I-635000J0D01*
G01*
X158495000Y-77270000D02*
G75*
G03X158495000Y-77270000I-635000J0D01*
G01*
D12*
G04 #@! TO.C,G\002A\002A\002A*
G36*
X148778354Y-112751272D02*
X148676666Y-112677070D01*
X148629391Y-112649663D01*
X148477552Y-112590050D01*
X148317993Y-112564215D01*
X148154902Y-112571657D01*
X147992465Y-112611877D01*
X147834870Y-112684376D01*
X147725077Y-112757558D01*
X147580006Y-112887587D01*
X147465500Y-113031739D01*
X147383137Y-113187416D01*
X147334503Y-113352020D01*
X147325507Y-113413405D01*
X147324061Y-113589757D01*
X147357175Y-113759051D01*
X147423304Y-113917840D01*
X147520902Y-114062678D01*
X147648423Y-114190117D01*
X147687602Y-114220960D01*
X147824010Y-114301283D01*
X147971720Y-114349163D01*
X148125352Y-114364386D01*
X148279530Y-114346734D01*
X148428873Y-114295989D01*
X148506793Y-114254023D01*
X148590070Y-114202597D01*
X148287536Y-113900062D01*
X148217144Y-113942135D01*
X148138443Y-113971422D01*
X148048398Y-113978177D01*
X147963094Y-113962074D01*
X147931645Y-113947911D01*
X147894216Y-113921160D01*
X147844788Y-113878673D01*
X147808772Y-113844220D01*
X147742135Y-113757230D01*
X147709159Y-113662085D01*
X147708891Y-113554765D01*
X147723411Y-113485117D01*
X147767509Y-113373803D01*
X147835267Y-113265528D01*
X147920936Y-113165235D01*
X148018767Y-113077863D01*
X148123010Y-113008355D01*
X148227917Y-112961650D01*
X148327736Y-112942689D01*
X148354199Y-112943037D01*
X148456827Y-112966988D01*
X148552359Y-113021586D01*
X148633911Y-113101190D01*
X148694598Y-113200165D01*
X148707583Y-113232449D01*
X148719738Y-113306199D01*
X148712408Y-113388582D01*
X148687997Y-113462380D01*
X148671872Y-113488469D01*
X148645872Y-113511009D01*
X148615861Y-113504294D01*
X148601883Y-113495454D01*
X148584492Y-113484909D01*
X148572683Y-113484791D01*
X148565399Y-113500209D01*
X148561590Y-113536272D01*
X148560198Y-113598091D01*
X148560170Y-113690774D01*
X148560189Y-113697510D01*
X148560847Y-113928553D01*
X148791920Y-113929241D01*
X149022995Y-113929929D01*
X148987295Y-113881401D01*
X148967329Y-113847128D01*
X148966730Y-113814756D01*
X148986089Y-113769859D01*
X148992367Y-113758183D01*
X149065362Y-113595175D01*
X149102794Y-113438065D01*
X149104708Y-113285773D01*
X149071149Y-113137220D01*
X149022802Y-113027748D01*
X148961504Y-112936301D01*
X148876660Y-112840913D01*
X148778354Y-112751272D01*
X148778354Y-112751272D01*
G37*
X148778354Y-112751272D02*
X148676666Y-112677070D01*
X148629391Y-112649663D01*
X148477552Y-112590050D01*
X148317993Y-112564215D01*
X148154902Y-112571657D01*
X147992465Y-112611877D01*
X147834870Y-112684376D01*
X147725077Y-112757558D01*
X147580006Y-112887587D01*
X147465500Y-113031739D01*
X147383137Y-113187416D01*
X147334503Y-113352020D01*
X147325507Y-113413405D01*
X147324061Y-113589757D01*
X147357175Y-113759051D01*
X147423304Y-113917840D01*
X147520902Y-114062678D01*
X147648423Y-114190117D01*
X147687602Y-114220960D01*
X147824010Y-114301283D01*
X147971720Y-114349163D01*
X148125352Y-114364386D01*
X148279530Y-114346734D01*
X148428873Y-114295989D01*
X148506793Y-114254023D01*
X148590070Y-114202597D01*
X148287536Y-113900062D01*
X148217144Y-113942135D01*
X148138443Y-113971422D01*
X148048398Y-113978177D01*
X147963094Y-113962074D01*
X147931645Y-113947911D01*
X147894216Y-113921160D01*
X147844788Y-113878673D01*
X147808772Y-113844220D01*
X147742135Y-113757230D01*
X147709159Y-113662085D01*
X147708891Y-113554765D01*
X147723411Y-113485117D01*
X147767509Y-113373803D01*
X147835267Y-113265528D01*
X147920936Y-113165235D01*
X148018767Y-113077863D01*
X148123010Y-113008355D01*
X148227917Y-112961650D01*
X148327736Y-112942689D01*
X148354199Y-112943037D01*
X148456827Y-112966988D01*
X148552359Y-113021586D01*
X148633911Y-113101190D01*
X148694598Y-113200165D01*
X148707583Y-113232449D01*
X148719738Y-113306199D01*
X148712408Y-113388582D01*
X148687997Y-113462380D01*
X148671872Y-113488469D01*
X148645872Y-113511009D01*
X148615861Y-113504294D01*
X148601883Y-113495454D01*
X148584492Y-113484909D01*
X148572683Y-113484791D01*
X148565399Y-113500209D01*
X148561590Y-113536272D01*
X148560198Y-113598091D01*
X148560170Y-113690774D01*
X148560189Y-113697510D01*
X148560847Y-113928553D01*
X148791920Y-113929241D01*
X149022995Y-113929929D01*
X148987295Y-113881401D01*
X148967329Y-113847128D01*
X148966730Y-113814756D01*
X148986089Y-113769859D01*
X148992367Y-113758183D01*
X149065362Y-113595175D01*
X149102794Y-113438065D01*
X149104708Y-113285773D01*
X149071149Y-113137220D01*
X149022802Y-113027748D01*
X148961504Y-112936301D01*
X148876660Y-112840913D01*
X148778354Y-112751272D01*
G36*
X154154208Y-117827152D02*
X154078146Y-117793240D01*
X154032463Y-117787683D01*
X153956155Y-117804101D01*
X153886124Y-117847877D01*
X153829575Y-117910798D01*
X153793714Y-117984646D01*
X153785751Y-118061209D01*
X153786640Y-118067901D01*
X153811539Y-118135352D01*
X153859876Y-118202708D01*
X153921354Y-118256504D01*
X153938792Y-118266914D01*
X154008600Y-118290261D01*
X154076514Y-118282111D01*
X154147203Y-118241217D01*
X154194932Y-118198408D01*
X154240898Y-118149871D01*
X154265831Y-118113555D01*
X154275956Y-118077727D01*
X154277577Y-118042650D01*
X154261383Y-117959615D01*
X154217774Y-117885197D01*
X154154208Y-117827152D01*
X154154208Y-117827152D01*
G37*
X154154208Y-117827152D02*
X154078146Y-117793240D01*
X154032463Y-117787683D01*
X153956155Y-117804101D01*
X153886124Y-117847877D01*
X153829575Y-117910798D01*
X153793714Y-117984646D01*
X153785751Y-118061209D01*
X153786640Y-118067901D01*
X153811539Y-118135352D01*
X153859876Y-118202708D01*
X153921354Y-118256504D01*
X153938792Y-118266914D01*
X154008600Y-118290261D01*
X154076514Y-118282111D01*
X154147203Y-118241217D01*
X154194932Y-118198408D01*
X154240898Y-118149871D01*
X154265831Y-118113555D01*
X154275956Y-118077727D01*
X154277577Y-118042650D01*
X154261383Y-117959615D01*
X154217774Y-117885197D01*
X154154208Y-117827152D01*
G36*
X153696289Y-118180342D02*
X153623160Y-118108920D01*
X153568375Y-118057505D01*
X153528480Y-118023075D01*
X153500023Y-118002606D01*
X153479548Y-117993072D01*
X153467381Y-117991280D01*
X153449961Y-117994767D01*
X153427009Y-118007321D01*
X153394908Y-118032076D01*
X153350039Y-118072169D01*
X153288784Y-118130735D01*
X153207524Y-118210910D01*
X153164985Y-118253357D01*
X152902908Y-118515434D01*
X153044026Y-118656552D01*
X152453895Y-119246683D01*
X152825934Y-119618722D01*
X153416065Y-119028591D01*
X153557183Y-119169709D01*
X153818188Y-118908704D01*
X153907003Y-118819522D01*
X153973136Y-118751900D01*
X154019825Y-118702008D01*
X154050312Y-118666020D01*
X154067839Y-118640105D01*
X154075645Y-118620436D01*
X154076973Y-118603182D01*
X154076964Y-118603007D01*
X154073352Y-118585317D01*
X154062121Y-118563448D01*
X154040168Y-118533834D01*
X154004388Y-118492910D01*
X153951674Y-118437109D01*
X153878926Y-118362867D01*
X153791218Y-118274797D01*
X153696289Y-118180342D01*
X153696289Y-118180342D01*
G37*
X153696289Y-118180342D02*
X153623160Y-118108920D01*
X153568375Y-118057505D01*
X153528480Y-118023075D01*
X153500023Y-118002606D01*
X153479548Y-117993072D01*
X153467381Y-117991280D01*
X153449961Y-117994767D01*
X153427009Y-118007321D01*
X153394908Y-118032076D01*
X153350039Y-118072169D01*
X153288784Y-118130735D01*
X153207524Y-118210910D01*
X153164985Y-118253357D01*
X152902908Y-118515434D01*
X153044026Y-118656552D01*
X152453895Y-119246683D01*
X152825934Y-119618722D01*
X153416065Y-119028591D01*
X153557183Y-119169709D01*
X153818188Y-118908704D01*
X153907003Y-118819522D01*
X153973136Y-118751900D01*
X154019825Y-118702008D01*
X154050312Y-118666020D01*
X154067839Y-118640105D01*
X154075645Y-118620436D01*
X154076973Y-118603182D01*
X154076964Y-118603007D01*
X154073352Y-118585317D01*
X154062121Y-118563448D01*
X154040168Y-118533834D01*
X154004388Y-118492910D01*
X153951674Y-118437109D01*
X153878926Y-118362867D01*
X153791218Y-118274797D01*
X153696289Y-118180342D01*
G36*
X155986250Y-120472947D02*
X155900593Y-120407866D01*
X155816533Y-120362347D01*
X155781462Y-120350388D01*
X155716138Y-120338561D01*
X155649116Y-120334693D01*
X155590440Y-120338346D01*
X155550156Y-120349078D01*
X155538152Y-120361054D01*
X155541378Y-120386064D01*
X155553782Y-120434288D01*
X155570227Y-120487645D01*
X155606318Y-120597216D01*
X155661331Y-120589464D01*
X155717017Y-120590401D01*
X155777038Y-120603243D01*
X155780259Y-120604351D01*
X155845674Y-120645146D01*
X155889693Y-120708035D01*
X155906675Y-120782654D01*
X155901804Y-120827687D01*
X155865129Y-120915188D01*
X155803891Y-120995358D01*
X155726338Y-121061178D01*
X155640720Y-121105625D01*
X155556417Y-121121682D01*
X155506476Y-121117140D01*
X155466352Y-121098670D01*
X155420838Y-121059000D01*
X155416674Y-121054858D01*
X155376391Y-121010524D01*
X155357159Y-120972460D01*
X155352097Y-120923773D01*
X155352506Y-120897286D01*
X155355162Y-120806538D01*
X155260967Y-120772433D01*
X155205859Y-120754194D01*
X155164287Y-120743550D01*
X155149831Y-120742330D01*
X155134228Y-120763022D01*
X155125166Y-120809773D01*
X155122867Y-120872914D01*
X155127548Y-120942773D01*
X155139429Y-121009679D01*
X155143434Y-121024418D01*
X155189294Y-121126937D01*
X155261194Y-121225792D01*
X155349687Y-121309752D01*
X155423496Y-121357341D01*
X155539586Y-121396769D01*
X155663655Y-121401543D01*
X155781327Y-121375416D01*
X155840883Y-121352478D01*
X155889119Y-121325844D01*
X155937528Y-121287742D01*
X155997608Y-121230404D01*
X156001317Y-121226700D01*
X156058743Y-121167123D01*
X156096628Y-121120183D01*
X156122542Y-121074405D01*
X156144057Y-121018309D01*
X156149289Y-121002404D01*
X156173098Y-120879019D01*
X156166669Y-120757422D01*
X156130721Y-120646935D01*
X156120287Y-120627399D01*
X156062987Y-120548990D01*
X155986250Y-120472947D01*
X155986250Y-120472947D01*
G37*
X155986250Y-120472947D02*
X155900593Y-120407866D01*
X155816533Y-120362347D01*
X155781462Y-120350388D01*
X155716138Y-120338561D01*
X155649116Y-120334693D01*
X155590440Y-120338346D01*
X155550156Y-120349078D01*
X155538152Y-120361054D01*
X155541378Y-120386064D01*
X155553782Y-120434288D01*
X155570227Y-120487645D01*
X155606318Y-120597216D01*
X155661331Y-120589464D01*
X155717017Y-120590401D01*
X155777038Y-120603243D01*
X155780259Y-120604351D01*
X155845674Y-120645146D01*
X155889693Y-120708035D01*
X155906675Y-120782654D01*
X155901804Y-120827687D01*
X155865129Y-120915188D01*
X155803891Y-120995358D01*
X155726338Y-121061178D01*
X155640720Y-121105625D01*
X155556417Y-121121682D01*
X155506476Y-121117140D01*
X155466352Y-121098670D01*
X155420838Y-121059000D01*
X155416674Y-121054858D01*
X155376391Y-121010524D01*
X155357159Y-120972460D01*
X155352097Y-120923773D01*
X155352506Y-120897286D01*
X155355162Y-120806538D01*
X155260967Y-120772433D01*
X155205859Y-120754194D01*
X155164287Y-120743550D01*
X155149831Y-120742330D01*
X155134228Y-120763022D01*
X155125166Y-120809773D01*
X155122867Y-120872914D01*
X155127548Y-120942773D01*
X155139429Y-121009679D01*
X155143434Y-121024418D01*
X155189294Y-121126937D01*
X155261194Y-121225792D01*
X155349687Y-121309752D01*
X155423496Y-121357341D01*
X155539586Y-121396769D01*
X155663655Y-121401543D01*
X155781327Y-121375416D01*
X155840883Y-121352478D01*
X155889119Y-121325844D01*
X155937528Y-121287742D01*
X155997608Y-121230404D01*
X156001317Y-121226700D01*
X156058743Y-121167123D01*
X156096628Y-121120183D01*
X156122542Y-121074405D01*
X156144057Y-121018309D01*
X156149289Y-121002404D01*
X156173098Y-120879019D01*
X156166669Y-120757422D01*
X156130721Y-120646935D01*
X156120287Y-120627399D01*
X156062987Y-120548990D01*
X155986250Y-120472947D01*
G36*
X156632163Y-121126435D02*
X156558548Y-121077710D01*
X156550615Y-121073743D01*
X156499304Y-121056470D01*
X156433212Y-121043784D01*
X156363433Y-121036598D01*
X156301059Y-121035817D01*
X156257185Y-121042352D01*
X156245534Y-121048764D01*
X156243575Y-121071761D01*
X156251163Y-121119018D01*
X156266552Y-121179928D01*
X156300782Y-121297574D01*
X156366146Y-121286581D01*
X156447273Y-121289945D01*
X156518917Y-121324600D01*
X156572206Y-121385552D01*
X156583550Y-121408859D01*
X156601057Y-121480172D01*
X156590928Y-121549292D01*
X156551277Y-121623250D01*
X156512777Y-121672584D01*
X156430318Y-121754177D01*
X156349414Y-121801846D01*
X156266364Y-121817570D01*
X156243424Y-121816624D01*
X156171922Y-121795511D01*
X156111138Y-121750641D01*
X156067647Y-121690429D01*
X156048022Y-121623292D01*
X156053070Y-121572959D01*
X156059166Y-121536473D01*
X156047477Y-121510209D01*
X156012372Y-121489072D01*
X155948217Y-121467971D01*
X155931913Y-121463446D01*
X155831566Y-121436054D01*
X155824348Y-121549387D01*
X155827288Y-121669705D01*
X155855614Y-121772114D01*
X155913186Y-121867486D01*
X155954728Y-121916568D01*
X156005934Y-121968829D01*
X156055154Y-122013285D01*
X156089233Y-122038643D01*
X156202821Y-122085083D01*
X156326060Y-122100372D01*
X156449219Y-122084034D01*
X156517501Y-122059551D01*
X156625135Y-121993908D01*
X156724198Y-121902868D01*
X156803921Y-121797258D01*
X156833234Y-121742216D01*
X156862359Y-121645692D01*
X156871320Y-121537785D01*
X156860258Y-121432421D01*
X156829315Y-121343525D01*
X156829165Y-121343247D01*
X156779216Y-121270565D01*
X156709634Y-121194507D01*
X156632163Y-121126435D01*
X156632163Y-121126435D01*
G37*
X156632163Y-121126435D02*
X156558548Y-121077710D01*
X156550615Y-121073743D01*
X156499304Y-121056470D01*
X156433212Y-121043784D01*
X156363433Y-121036598D01*
X156301059Y-121035817D01*
X156257185Y-121042352D01*
X156245534Y-121048764D01*
X156243575Y-121071761D01*
X156251163Y-121119018D01*
X156266552Y-121179928D01*
X156300782Y-121297574D01*
X156366146Y-121286581D01*
X156447273Y-121289945D01*
X156518917Y-121324600D01*
X156572206Y-121385552D01*
X156583550Y-121408859D01*
X156601057Y-121480172D01*
X156590928Y-121549292D01*
X156551277Y-121623250D01*
X156512777Y-121672584D01*
X156430318Y-121754177D01*
X156349414Y-121801846D01*
X156266364Y-121817570D01*
X156243424Y-121816624D01*
X156171922Y-121795511D01*
X156111138Y-121750641D01*
X156067647Y-121690429D01*
X156048022Y-121623292D01*
X156053070Y-121572959D01*
X156059166Y-121536473D01*
X156047477Y-121510209D01*
X156012372Y-121489072D01*
X155948217Y-121467971D01*
X155931913Y-121463446D01*
X155831566Y-121436054D01*
X155824348Y-121549387D01*
X155827288Y-121669705D01*
X155855614Y-121772114D01*
X155913186Y-121867486D01*
X155954728Y-121916568D01*
X156005934Y-121968829D01*
X156055154Y-122013285D01*
X156089233Y-122038643D01*
X156202821Y-122085083D01*
X156326060Y-122100372D01*
X156449219Y-122084034D01*
X156517501Y-122059551D01*
X156625135Y-121993908D01*
X156724198Y-121902868D01*
X156803921Y-121797258D01*
X156833234Y-121742216D01*
X156862359Y-121645692D01*
X156871320Y-121537785D01*
X156860258Y-121432421D01*
X156829315Y-121343525D01*
X156829165Y-121343247D01*
X156779216Y-121270565D01*
X156709634Y-121194507D01*
X156632163Y-121126435D01*
G36*
X149322588Y-112151630D02*
X149121351Y-112006177D01*
X149000270Y-111936829D01*
X148784185Y-111843739D01*
X148554659Y-111782864D01*
X148315943Y-111754734D01*
X148072286Y-111759884D01*
X147853940Y-111793057D01*
X147634428Y-111858365D01*
X147425429Y-111955856D01*
X147230280Y-112082145D01*
X147052321Y-112233845D01*
X146894891Y-112407568D01*
X146761329Y-112599929D01*
X146654974Y-112807542D01*
X146579167Y-113027020D01*
X146560794Y-113104456D01*
X146531054Y-113330504D01*
X146533202Y-113564217D01*
X146566011Y-113798433D01*
X146628255Y-114025984D01*
X146718704Y-114239706D01*
X146771610Y-114334997D01*
X146868344Y-114475325D01*
X146985888Y-114614288D01*
X147114836Y-114742041D01*
X147245785Y-114848742D01*
X147293584Y-114881380D01*
X147505472Y-115000210D01*
X147720848Y-115085212D01*
X147945202Y-115137912D01*
X148184021Y-115159838D01*
X148294942Y-115160133D01*
X148541585Y-115137544D01*
X148775364Y-115081060D01*
X148995719Y-114990922D01*
X149202089Y-114867370D01*
X149393911Y-114710647D01*
X149436197Y-114669649D01*
X149445709Y-114658956D01*
X149226210Y-114439457D01*
X149125514Y-114535197D01*
X149028090Y-114612876D01*
X149002193Y-114630374D01*
X148814611Y-114730294D01*
X148613812Y-114799193D01*
X148404629Y-114837278D01*
X148191894Y-114844761D01*
X147980437Y-114821851D01*
X147775092Y-114768759D01*
X147580690Y-114685692D01*
X147402062Y-114572863D01*
X147385495Y-114560142D01*
X147267650Y-114454752D01*
X147153828Y-114328966D01*
X147056985Y-114197520D01*
X147033744Y-114160136D01*
X146947155Y-113981126D01*
X146886113Y-113783729D01*
X146851811Y-113576465D01*
X146845447Y-113367849D01*
X146868218Y-113166399D01*
X146884213Y-113095592D01*
X146950730Y-112907438D01*
X147048846Y-112725525D01*
X147173868Y-112555961D01*
X147321111Y-112404855D01*
X147485886Y-112278315D01*
X147534870Y-112247915D01*
X147716460Y-112161039D01*
X147914725Y-112102157D01*
X148122408Y-112071984D01*
X148332253Y-112071239D01*
X148537001Y-112100640D01*
X148663858Y-112136237D01*
X148798182Y-112186092D01*
X148908724Y-112237937D01*
X149006441Y-112298636D01*
X149102295Y-112375049D01*
X149207247Y-112474037D01*
X149213618Y-112480389D01*
X149333410Y-112610394D01*
X149425993Y-112736373D01*
X149497580Y-112868428D01*
X149554386Y-113016658D01*
X149565454Y-113052237D01*
X149610035Y-113261462D01*
X149622509Y-113479176D01*
X149603550Y-113698309D01*
X149553831Y-113911789D01*
X149474028Y-114112547D01*
X149462157Y-114136036D01*
X149403107Y-114230660D01*
X149321598Y-114334873D01*
X149226210Y-114439457D01*
X149445709Y-114658956D01*
X149599093Y-114486527D01*
X149727961Y-114295501D01*
X149824877Y-114092271D01*
X149891920Y-113872541D01*
X149929296Y-113649477D01*
X149939036Y-113403442D01*
X149914142Y-113163489D01*
X149856110Y-112932379D01*
X149766441Y-112712877D01*
X149646632Y-112507742D01*
X149498182Y-112319740D01*
X149322588Y-112151630D01*
X149322588Y-112151630D01*
G37*
X149322588Y-112151630D02*
X149121351Y-112006177D01*
X149000270Y-111936829D01*
X148784185Y-111843739D01*
X148554659Y-111782864D01*
X148315943Y-111754734D01*
X148072286Y-111759884D01*
X147853940Y-111793057D01*
X147634428Y-111858365D01*
X147425429Y-111955856D01*
X147230280Y-112082145D01*
X147052321Y-112233845D01*
X146894891Y-112407568D01*
X146761329Y-112599929D01*
X146654974Y-112807542D01*
X146579167Y-113027020D01*
X146560794Y-113104456D01*
X146531054Y-113330504D01*
X146533202Y-113564217D01*
X146566011Y-113798433D01*
X146628255Y-114025984D01*
X146718704Y-114239706D01*
X146771610Y-114334997D01*
X146868344Y-114475325D01*
X146985888Y-114614288D01*
X147114836Y-114742041D01*
X147245785Y-114848742D01*
X147293584Y-114881380D01*
X147505472Y-115000210D01*
X147720848Y-115085212D01*
X147945202Y-115137912D01*
X148184021Y-115159838D01*
X148294942Y-115160133D01*
X148541585Y-115137544D01*
X148775364Y-115081060D01*
X148995719Y-114990922D01*
X149202089Y-114867370D01*
X149393911Y-114710647D01*
X149436197Y-114669649D01*
X149445709Y-114658956D01*
X149226210Y-114439457D01*
X149125514Y-114535197D01*
X149028090Y-114612876D01*
X149002193Y-114630374D01*
X148814611Y-114730294D01*
X148613812Y-114799193D01*
X148404629Y-114837278D01*
X148191894Y-114844761D01*
X147980437Y-114821851D01*
X147775092Y-114768759D01*
X147580690Y-114685692D01*
X147402062Y-114572863D01*
X147385495Y-114560142D01*
X147267650Y-114454752D01*
X147153828Y-114328966D01*
X147056985Y-114197520D01*
X147033744Y-114160136D01*
X146947155Y-113981126D01*
X146886113Y-113783729D01*
X146851811Y-113576465D01*
X146845447Y-113367849D01*
X146868218Y-113166399D01*
X146884213Y-113095592D01*
X146950730Y-112907438D01*
X147048846Y-112725525D01*
X147173868Y-112555961D01*
X147321111Y-112404855D01*
X147485886Y-112278315D01*
X147534870Y-112247915D01*
X147716460Y-112161039D01*
X147914725Y-112102157D01*
X148122408Y-112071984D01*
X148332253Y-112071239D01*
X148537001Y-112100640D01*
X148663858Y-112136237D01*
X148798182Y-112186092D01*
X148908724Y-112237937D01*
X149006441Y-112298636D01*
X149102295Y-112375049D01*
X149207247Y-112474037D01*
X149213618Y-112480389D01*
X149333410Y-112610394D01*
X149425993Y-112736373D01*
X149497580Y-112868428D01*
X149554386Y-113016658D01*
X149565454Y-113052237D01*
X149610035Y-113261462D01*
X149622509Y-113479176D01*
X149603550Y-113698309D01*
X149553831Y-113911789D01*
X149474028Y-114112547D01*
X149462157Y-114136036D01*
X149403107Y-114230660D01*
X149321598Y-114334873D01*
X149226210Y-114439457D01*
X149445709Y-114658956D01*
X149599093Y-114486527D01*
X149727961Y-114295501D01*
X149824877Y-114092271D01*
X149891920Y-113872541D01*
X149929296Y-113649477D01*
X149939036Y-113403442D01*
X149914142Y-113163489D01*
X149856110Y-112932379D01*
X149766441Y-112712877D01*
X149646632Y-112507742D01*
X149498182Y-112319740D01*
X149322588Y-112151630D01*
G36*
X151915098Y-114744115D02*
X151722357Y-114603855D01*
X151515060Y-114491149D01*
X151297578Y-114409387D01*
X151180883Y-114380011D01*
X150933381Y-114346122D01*
X150688152Y-114347572D01*
X150448068Y-114383885D01*
X150215997Y-114454588D01*
X149994810Y-114559205D01*
X149954733Y-114582587D01*
X149835169Y-114665486D01*
X149708953Y-114771871D01*
X149585136Y-114892696D01*
X149472769Y-115018918D01*
X149380902Y-115141494D01*
X149355669Y-115181190D01*
X149249664Y-115386479D01*
X149176952Y-115596802D01*
X149136068Y-115817763D01*
X149125548Y-116054965D01*
X149125667Y-116061425D01*
X149140565Y-116281662D01*
X149177484Y-116481360D01*
X149238708Y-116670426D01*
X149295545Y-116798295D01*
X149414774Y-117003296D01*
X149561385Y-117191952D01*
X149729733Y-117357646D01*
X149856994Y-117456086D01*
X150057764Y-117573956D01*
X150274743Y-117662481D01*
X150502968Y-117721317D01*
X150737477Y-117750125D01*
X150973307Y-117748560D01*
X151205495Y-117716283D01*
X151429077Y-117652951D01*
X151604732Y-117576468D01*
X151710021Y-117518874D01*
X151800868Y-117460126D01*
X151886083Y-117393277D01*
X151974475Y-117311377D01*
X152031971Y-117251865D01*
X151816107Y-117036001D01*
X151685348Y-117154674D01*
X151555750Y-117246235D01*
X151416180Y-117317711D01*
X151300184Y-117361723D01*
X151076959Y-117418964D01*
X150855264Y-117440004D01*
X150634117Y-117424843D01*
X150412537Y-117373481D01*
X150372831Y-117360494D01*
X150257655Y-117317817D01*
X150161102Y-117272919D01*
X150074684Y-117220082D01*
X149989913Y-117153590D01*
X149898298Y-117067727D01*
X149822709Y-116990043D01*
X149743785Y-116905124D01*
X149685768Y-116837789D01*
X149643066Y-116780833D01*
X149610087Y-116727055D01*
X149593089Y-116694232D01*
X149522284Y-116531710D01*
X149475106Y-116376426D01*
X149448433Y-116214924D01*
X149439146Y-116033747D01*
X149439117Y-116030024D01*
X149441313Y-115917050D01*
X149449004Y-115820089D01*
X149461365Y-115744128D01*
X149477571Y-115694158D01*
X149496798Y-115675165D01*
X149497850Y-115675118D01*
X149520907Y-115681365D01*
X149570716Y-115698381D01*
X149640513Y-115723585D01*
X149723531Y-115754397D01*
X149813005Y-115788238D01*
X149902170Y-115822527D01*
X149984260Y-115854682D01*
X150052511Y-115882127D01*
X150100156Y-115902280D01*
X150120399Y-115912530D01*
X150119436Y-115933127D01*
X150105160Y-115971453D01*
X150102932Y-115976167D01*
X150070566Y-116083247D01*
X150068503Y-116201928D01*
X150096022Y-116324989D01*
X150149142Y-116439769D01*
X150194248Y-116515872D01*
X150106824Y-116606300D01*
X150019400Y-116696727D01*
X150157515Y-116834843D01*
X150347815Y-116659492D01*
X150431793Y-116726399D01*
X150513916Y-116778613D01*
X150616016Y-116824673D01*
X150721785Y-116858132D01*
X150798988Y-116871573D01*
X150856455Y-116876522D01*
X150856455Y-116705940D01*
X150856454Y-116535358D01*
X150799310Y-116533574D01*
X150712932Y-116518547D01*
X150623815Y-116482380D01*
X150539895Y-116430728D01*
X150469108Y-116369245D01*
X150419394Y-116303585D01*
X150399650Y-116248835D01*
X150398857Y-116207641D01*
X150414668Y-116172125D01*
X150453221Y-116128611D01*
X150453940Y-116127891D01*
X150494030Y-116090779D01*
X150524142Y-116076179D01*
X150558596Y-116079650D01*
X150584131Y-116087503D01*
X150637387Y-116106173D01*
X150715205Y-116134859D01*
X150813438Y-116171927D01*
X150927941Y-116215741D01*
X151054566Y-116264666D01*
X151189169Y-116317069D01*
X151327605Y-116371313D01*
X151465727Y-116425764D01*
X151599387Y-116478787D01*
X151724443Y-116528747D01*
X151836746Y-116574010D01*
X151932151Y-116612940D01*
X152006513Y-116643902D01*
X152055685Y-116665262D01*
X152075522Y-116675385D01*
X152075728Y-116675698D01*
X152068273Y-116705053D01*
X152040972Y-116754624D01*
X151998522Y-116817895D01*
X151945615Y-116888354D01*
X151886948Y-116959485D01*
X151827212Y-117024772D01*
X151816107Y-117036001D01*
X152031971Y-117251865D01*
X152074853Y-117207477D01*
X152081382Y-117200464D01*
X152229468Y-117024052D01*
X152344696Y-116846680D01*
X152430082Y-116661901D01*
X152452226Y-116586780D01*
X152192081Y-116326635D01*
X152169266Y-116327479D01*
X152123134Y-116316256D01*
X152063639Y-116295392D01*
X152063155Y-116295201D01*
X151998717Y-116269879D01*
X151912570Y-116236331D01*
X151816893Y-116199288D01*
X151739913Y-116169639D01*
X151531305Y-116089521D01*
X151556240Y-116012648D01*
X151572383Y-115904271D01*
X151553606Y-115786847D01*
X151500006Y-115660830D01*
X151468366Y-115607380D01*
X151455274Y-115583539D01*
X151454664Y-115563052D01*
X151470432Y-115537592D01*
X151506474Y-115498837D01*
X151530456Y-115474731D01*
X151620014Y-115385173D01*
X151478896Y-115244055D01*
X151300453Y-115422497D01*
X151244459Y-115382274D01*
X151172472Y-115337376D01*
X151089252Y-115295679D01*
X151007666Y-115262898D01*
X150940583Y-115244746D01*
X150932123Y-115243588D01*
X150868442Y-115236561D01*
X150870320Y-115544059D01*
X150960597Y-115575298D01*
X151050554Y-115616415D01*
X151127423Y-115670415D01*
X151186873Y-115731954D01*
X151224576Y-115795689D01*
X151236199Y-115856277D01*
X151223393Y-115899594D01*
X151197074Y-115931060D01*
X151175550Y-115941934D01*
X151153930Y-115935596D01*
X151102776Y-115917659D01*
X151026287Y-115889739D01*
X150928665Y-115853445D01*
X150814105Y-115810391D01*
X150686810Y-115762187D01*
X150550978Y-115710448D01*
X150410807Y-115656784D01*
X150270498Y-115602807D01*
X150134249Y-115550129D01*
X150006261Y-115500363D01*
X149890731Y-115455120D01*
X149791859Y-115416013D01*
X149713845Y-115384654D01*
X149660888Y-115362654D01*
X149637187Y-115351625D01*
X149636506Y-115351114D01*
X149634410Y-115327401D01*
X149649352Y-115293950D01*
X149748381Y-115163552D01*
X149872920Y-115035454D01*
X150012827Y-114918674D01*
X150157953Y-114822227D01*
X150214628Y-114791644D01*
X150389870Y-114722414D01*
X150583038Y-114678826D01*
X150786162Y-114661104D01*
X150991271Y-114669472D01*
X151190393Y-114704158D01*
X151360800Y-114759243D01*
X151550076Y-114855576D01*
X151722837Y-114981566D01*
X151875472Y-115132959D01*
X152004369Y-115305498D01*
X152105919Y-115494928D01*
X152176508Y-115696993D01*
X152184687Y-115730201D01*
X152196252Y-115797328D01*
X152204963Y-115881903D01*
X152210726Y-115976267D01*
X152213444Y-116072756D01*
X152213023Y-116163709D01*
X152209367Y-116241465D01*
X152202383Y-116298362D01*
X152192081Y-116326635D01*
X152452226Y-116586780D01*
X152488634Y-116463271D01*
X152521937Y-116257824D01*
X152531846Y-116040456D01*
X152516052Y-115820721D01*
X152476037Y-115607542D01*
X152413282Y-115409840D01*
X152362258Y-115296311D01*
X152239419Y-115093734D01*
X152088909Y-114908539D01*
X151915098Y-114744115D01*
X151915098Y-114744115D01*
G37*
X151915098Y-114744115D02*
X151722357Y-114603855D01*
X151515060Y-114491149D01*
X151297578Y-114409387D01*
X151180883Y-114380011D01*
X150933381Y-114346122D01*
X150688152Y-114347572D01*
X150448068Y-114383885D01*
X150215997Y-114454588D01*
X149994810Y-114559205D01*
X149954733Y-114582587D01*
X149835169Y-114665486D01*
X149708953Y-114771871D01*
X149585136Y-114892696D01*
X149472769Y-115018918D01*
X149380902Y-115141494D01*
X149355669Y-115181190D01*
X149249664Y-115386479D01*
X149176952Y-115596802D01*
X149136068Y-115817763D01*
X149125548Y-116054965D01*
X149125667Y-116061425D01*
X149140565Y-116281662D01*
X149177484Y-116481360D01*
X149238708Y-116670426D01*
X149295545Y-116798295D01*
X149414774Y-117003296D01*
X149561385Y-117191952D01*
X149729733Y-117357646D01*
X149856994Y-117456086D01*
X150057764Y-117573956D01*
X150274743Y-117662481D01*
X150502968Y-117721317D01*
X150737477Y-117750125D01*
X150973307Y-117748560D01*
X151205495Y-117716283D01*
X151429077Y-117652951D01*
X151604732Y-117576468D01*
X151710021Y-117518874D01*
X151800868Y-117460126D01*
X151886083Y-117393277D01*
X151974475Y-117311377D01*
X152031971Y-117251865D01*
X151816107Y-117036001D01*
X151685348Y-117154674D01*
X151555750Y-117246235D01*
X151416180Y-117317711D01*
X151300184Y-117361723D01*
X151076959Y-117418964D01*
X150855264Y-117440004D01*
X150634117Y-117424843D01*
X150412537Y-117373481D01*
X150372831Y-117360494D01*
X150257655Y-117317817D01*
X150161102Y-117272919D01*
X150074684Y-117220082D01*
X149989913Y-117153590D01*
X149898298Y-117067727D01*
X149822709Y-116990043D01*
X149743785Y-116905124D01*
X149685768Y-116837789D01*
X149643066Y-116780833D01*
X149610087Y-116727055D01*
X149593089Y-116694232D01*
X149522284Y-116531710D01*
X149475106Y-116376426D01*
X149448433Y-116214924D01*
X149439146Y-116033747D01*
X149439117Y-116030024D01*
X149441313Y-115917050D01*
X149449004Y-115820089D01*
X149461365Y-115744128D01*
X149477571Y-115694158D01*
X149496798Y-115675165D01*
X149497850Y-115675118D01*
X149520907Y-115681365D01*
X149570716Y-115698381D01*
X149640513Y-115723585D01*
X149723531Y-115754397D01*
X149813005Y-115788238D01*
X149902170Y-115822527D01*
X149984260Y-115854682D01*
X150052511Y-115882127D01*
X150100156Y-115902280D01*
X150120399Y-115912530D01*
X150119436Y-115933127D01*
X150105160Y-115971453D01*
X150102932Y-115976167D01*
X150070566Y-116083247D01*
X150068503Y-116201928D01*
X150096022Y-116324989D01*
X150149142Y-116439769D01*
X150194248Y-116515872D01*
X150106824Y-116606300D01*
X150019400Y-116696727D01*
X150157515Y-116834843D01*
X150347815Y-116659492D01*
X150431793Y-116726399D01*
X150513916Y-116778613D01*
X150616016Y-116824673D01*
X150721785Y-116858132D01*
X150798988Y-116871573D01*
X150856455Y-116876522D01*
X150856455Y-116705940D01*
X150856454Y-116535358D01*
X150799310Y-116533574D01*
X150712932Y-116518547D01*
X150623815Y-116482380D01*
X150539895Y-116430728D01*
X150469108Y-116369245D01*
X150419394Y-116303585D01*
X150399650Y-116248835D01*
X150398857Y-116207641D01*
X150414668Y-116172125D01*
X150453221Y-116128611D01*
X150453940Y-116127891D01*
X150494030Y-116090779D01*
X150524142Y-116076179D01*
X150558596Y-116079650D01*
X150584131Y-116087503D01*
X150637387Y-116106173D01*
X150715205Y-116134859D01*
X150813438Y-116171927D01*
X150927941Y-116215741D01*
X151054566Y-116264666D01*
X151189169Y-116317069D01*
X151327605Y-116371313D01*
X151465727Y-116425764D01*
X151599387Y-116478787D01*
X151724443Y-116528747D01*
X151836746Y-116574010D01*
X151932151Y-116612940D01*
X152006513Y-116643902D01*
X152055685Y-116665262D01*
X152075522Y-116675385D01*
X152075728Y-116675698D01*
X152068273Y-116705053D01*
X152040972Y-116754624D01*
X151998522Y-116817895D01*
X151945615Y-116888354D01*
X151886948Y-116959485D01*
X151827212Y-117024772D01*
X151816107Y-117036001D01*
X152031971Y-117251865D01*
X152074853Y-117207477D01*
X152081382Y-117200464D01*
X152229468Y-117024052D01*
X152344696Y-116846680D01*
X152430082Y-116661901D01*
X152452226Y-116586780D01*
X152192081Y-116326635D01*
X152169266Y-116327479D01*
X152123134Y-116316256D01*
X152063639Y-116295392D01*
X152063155Y-116295201D01*
X151998717Y-116269879D01*
X151912570Y-116236331D01*
X151816893Y-116199288D01*
X151739913Y-116169639D01*
X151531305Y-116089521D01*
X151556240Y-116012648D01*
X151572383Y-115904271D01*
X151553606Y-115786847D01*
X151500006Y-115660830D01*
X151468366Y-115607380D01*
X151455274Y-115583539D01*
X151454664Y-115563052D01*
X151470432Y-115537592D01*
X151506474Y-115498837D01*
X151530456Y-115474731D01*
X151620014Y-115385173D01*
X151478896Y-115244055D01*
X151300453Y-115422497D01*
X151244459Y-115382274D01*
X151172472Y-115337376D01*
X151089252Y-115295679D01*
X151007666Y-115262898D01*
X150940583Y-115244746D01*
X150932123Y-115243588D01*
X150868442Y-115236561D01*
X150870320Y-115544059D01*
X150960597Y-115575298D01*
X151050554Y-115616415D01*
X151127423Y-115670415D01*
X151186873Y-115731954D01*
X151224576Y-115795689D01*
X151236199Y-115856277D01*
X151223393Y-115899594D01*
X151197074Y-115931060D01*
X151175550Y-115941934D01*
X151153930Y-115935596D01*
X151102776Y-115917659D01*
X151026287Y-115889739D01*
X150928665Y-115853445D01*
X150814105Y-115810391D01*
X150686810Y-115762187D01*
X150550978Y-115710448D01*
X150410807Y-115656784D01*
X150270498Y-115602807D01*
X150134249Y-115550129D01*
X150006261Y-115500363D01*
X149890731Y-115455120D01*
X149791859Y-115416013D01*
X149713845Y-115384654D01*
X149660888Y-115362654D01*
X149637187Y-115351625D01*
X149636506Y-115351114D01*
X149634410Y-115327401D01*
X149649352Y-115293950D01*
X149748381Y-115163552D01*
X149872920Y-115035454D01*
X150012827Y-114918674D01*
X150157953Y-114822227D01*
X150214628Y-114791644D01*
X150389870Y-114722414D01*
X150583038Y-114678826D01*
X150786162Y-114661104D01*
X150991271Y-114669472D01*
X151190393Y-114704158D01*
X151360800Y-114759243D01*
X151550076Y-114855576D01*
X151722837Y-114981566D01*
X151875472Y-115132959D01*
X152004369Y-115305498D01*
X152105919Y-115494928D01*
X152176508Y-115696993D01*
X152184687Y-115730201D01*
X152196252Y-115797328D01*
X152204963Y-115881903D01*
X152210726Y-115976267D01*
X152213444Y-116072756D01*
X152213023Y-116163709D01*
X152209367Y-116241465D01*
X152202383Y-116298362D01*
X152192081Y-116326635D01*
X152452226Y-116586780D01*
X152488634Y-116463271D01*
X152521937Y-116257824D01*
X152531846Y-116040456D01*
X152516052Y-115820721D01*
X152476037Y-115607542D01*
X152413282Y-115409840D01*
X152362258Y-115296311D01*
X152239419Y-115093734D01*
X152088909Y-114908539D01*
X151915098Y-114744115D01*
G36*
X154488223Y-117319633D02*
X154296188Y-117182065D01*
X154089542Y-117072904D01*
X153889059Y-117000534D01*
X153646607Y-116950109D01*
X153402856Y-116934538D01*
X153161446Y-116953352D01*
X152926012Y-117006075D01*
X152700196Y-117092237D01*
X152545177Y-117174972D01*
X152428136Y-117256332D01*
X152303920Y-117360992D01*
X152181514Y-117479978D01*
X152069898Y-117604318D01*
X151978053Y-117725037D01*
X151948215Y-117771373D01*
X151840778Y-117979723D01*
X151767302Y-118194435D01*
X151726557Y-118420135D01*
X151716913Y-118640860D01*
X151737220Y-118896924D01*
X151790932Y-119139604D01*
X151878654Y-119371032D01*
X151975237Y-119552009D01*
X152033835Y-119636041D01*
X152113151Y-119732375D01*
X152204575Y-119831947D01*
X152299492Y-119925695D01*
X152389294Y-120004558D01*
X152445175Y-120046513D01*
X152650735Y-120168266D01*
X152861371Y-120256910D01*
X153082181Y-120313930D01*
X153318260Y-120340807D01*
X153464245Y-120343169D01*
X153706429Y-120324772D01*
X153930701Y-120276689D01*
X154141778Y-120197596D01*
X154314302Y-120105023D01*
X154405341Y-120041118D01*
X154508045Y-119955950D01*
X154613859Y-119857825D01*
X154618798Y-119852769D01*
X154400652Y-119634624D01*
X154285394Y-119740050D01*
X154170941Y-119824682D01*
X154149112Y-119838185D01*
X153954999Y-119933251D01*
X153746248Y-119997213D01*
X153528880Y-120028798D01*
X153308915Y-120026734D01*
X153273963Y-120023206D01*
X153135884Y-120003542D01*
X153019576Y-119976847D01*
X152910645Y-119939020D01*
X152798117Y-119887667D01*
X152618359Y-119779007D01*
X152453284Y-119641009D01*
X152309281Y-119479661D01*
X152216634Y-119343027D01*
X152129500Y-119162618D01*
X152069196Y-118964938D01*
X152036461Y-118757568D01*
X152032028Y-118548092D01*
X152056634Y-118344094D01*
X152103244Y-118174141D01*
X152153360Y-118048259D01*
X152208949Y-117940655D01*
X152276790Y-117840928D01*
X152363659Y-117738677D01*
X152435901Y-117663559D01*
X152540843Y-117563380D01*
X152636132Y-117486126D01*
X152732791Y-117424901D01*
X152841838Y-117372806D01*
X152974293Y-117322945D01*
X152987179Y-117318523D01*
X153071013Y-117291785D01*
X153144087Y-117274018D01*
X153218215Y-117263540D01*
X153305212Y-117258664D01*
X153413853Y-117257698D01*
X153543720Y-117260750D01*
X153649124Y-117269964D01*
X153741582Y-117286759D01*
X153816217Y-117307310D01*
X154026252Y-117391387D01*
X154218279Y-117505414D01*
X154389218Y-117646737D01*
X154535997Y-117812702D01*
X154655536Y-118000655D01*
X154682649Y-118054631D01*
X154753180Y-118243204D01*
X154794683Y-118446634D01*
X154807245Y-118658125D01*
X154790953Y-118870879D01*
X154745892Y-119078096D01*
X154672151Y-119272979D01*
X154666980Y-119283794D01*
X154599873Y-119397474D01*
X154508287Y-119517424D01*
X154400652Y-119634624D01*
X154618798Y-119852769D01*
X154714225Y-119755052D01*
X154800589Y-119655937D01*
X154860687Y-119574560D01*
X154973830Y-119367919D01*
X155056304Y-119145868D01*
X155107563Y-118913233D01*
X155127054Y-118674841D01*
X155114229Y-118435519D01*
X155068538Y-118200095D01*
X155031005Y-118079108D01*
X154937038Y-117865343D01*
X154812611Y-117665015D01*
X154661685Y-117481864D01*
X154488223Y-117319633D01*
X154488223Y-117319633D01*
G37*
X154488223Y-117319633D02*
X154296188Y-117182065D01*
X154089542Y-117072904D01*
X153889059Y-117000534D01*
X153646607Y-116950109D01*
X153402856Y-116934538D01*
X153161446Y-116953352D01*
X152926012Y-117006075D01*
X152700196Y-117092237D01*
X152545177Y-117174972D01*
X152428136Y-117256332D01*
X152303920Y-117360992D01*
X152181514Y-117479978D01*
X152069898Y-117604318D01*
X151978053Y-117725037D01*
X151948215Y-117771373D01*
X151840778Y-117979723D01*
X151767302Y-118194435D01*
X151726557Y-118420135D01*
X151716913Y-118640860D01*
X151737220Y-118896924D01*
X151790932Y-119139604D01*
X151878654Y-119371032D01*
X151975237Y-119552009D01*
X152033835Y-119636041D01*
X152113151Y-119732375D01*
X152204575Y-119831947D01*
X152299492Y-119925695D01*
X152389294Y-120004558D01*
X152445175Y-120046513D01*
X152650735Y-120168266D01*
X152861371Y-120256910D01*
X153082181Y-120313930D01*
X153318260Y-120340807D01*
X153464245Y-120343169D01*
X153706429Y-120324772D01*
X153930701Y-120276689D01*
X154141778Y-120197596D01*
X154314302Y-120105023D01*
X154405341Y-120041118D01*
X154508045Y-119955950D01*
X154613859Y-119857825D01*
X154618798Y-119852769D01*
X154400652Y-119634624D01*
X154285394Y-119740050D01*
X154170941Y-119824682D01*
X154149112Y-119838185D01*
X153954999Y-119933251D01*
X153746248Y-119997213D01*
X153528880Y-120028798D01*
X153308915Y-120026734D01*
X153273963Y-120023206D01*
X153135884Y-120003542D01*
X153019576Y-119976847D01*
X152910645Y-119939020D01*
X152798117Y-119887667D01*
X152618359Y-119779007D01*
X152453284Y-119641009D01*
X152309281Y-119479661D01*
X152216634Y-119343027D01*
X152129500Y-119162618D01*
X152069196Y-118964938D01*
X152036461Y-118757568D01*
X152032028Y-118548092D01*
X152056634Y-118344094D01*
X152103244Y-118174141D01*
X152153360Y-118048259D01*
X152208949Y-117940655D01*
X152276790Y-117840928D01*
X152363659Y-117738677D01*
X152435901Y-117663559D01*
X152540843Y-117563380D01*
X152636132Y-117486126D01*
X152732791Y-117424901D01*
X152841838Y-117372806D01*
X152974293Y-117322945D01*
X152987179Y-117318523D01*
X153071013Y-117291785D01*
X153144087Y-117274018D01*
X153218215Y-117263540D01*
X153305212Y-117258664D01*
X153413853Y-117257698D01*
X153543720Y-117260750D01*
X153649124Y-117269964D01*
X153741582Y-117286759D01*
X153816217Y-117307310D01*
X154026252Y-117391387D01*
X154218279Y-117505414D01*
X154389218Y-117646737D01*
X154535997Y-117812702D01*
X154655536Y-118000655D01*
X154682649Y-118054631D01*
X154753180Y-118243204D01*
X154794683Y-118446634D01*
X154807245Y-118658125D01*
X154790953Y-118870879D01*
X154745892Y-119078096D01*
X154672151Y-119272979D01*
X154666980Y-119283794D01*
X154599873Y-119397474D01*
X154508287Y-119517424D01*
X154400652Y-119634624D01*
X154618798Y-119852769D01*
X154714225Y-119755052D01*
X154800589Y-119655937D01*
X154860687Y-119574560D01*
X154973830Y-119367919D01*
X155056304Y-119145868D01*
X155107563Y-118913233D01*
X155127054Y-118674841D01*
X155114229Y-118435519D01*
X155068538Y-118200095D01*
X155031005Y-118079108D01*
X154937038Y-117865343D01*
X154812611Y-117665015D01*
X154661685Y-117481864D01*
X154488223Y-117319633D01*
G36*
X157007526Y-119853887D02*
X156838228Y-119742785D01*
X156802178Y-119723367D01*
X156580912Y-119628340D01*
X156348977Y-119565059D01*
X156111354Y-119533816D01*
X155873023Y-119534901D01*
X155638963Y-119568607D01*
X155414155Y-119635222D01*
X155398435Y-119641306D01*
X155188222Y-119742170D01*
X154992716Y-119871815D01*
X154815289Y-120026278D01*
X154659320Y-120201595D01*
X154528184Y-120393805D01*
X154425257Y-120598943D01*
X154353915Y-120813047D01*
X154337566Y-120886604D01*
X154309053Y-121123962D01*
X154313982Y-121361599D01*
X154350737Y-121595591D01*
X154417699Y-121822016D01*
X154513256Y-122036952D01*
X154635787Y-122236475D01*
X154783681Y-122416662D01*
X154955318Y-122573591D01*
X155065009Y-122652340D01*
X155288290Y-122777517D01*
X155520157Y-122867478D01*
X155759869Y-122922069D01*
X156006678Y-122941132D01*
X156259840Y-122924511D01*
X156319228Y-122915568D01*
X156548044Y-122859505D01*
X156766233Y-122770726D01*
X156970160Y-122652120D01*
X157156195Y-122506579D01*
X157237203Y-122423071D01*
X157020779Y-122206647D01*
X156865372Y-122345319D01*
X156688661Y-122458891D01*
X156492788Y-122544913D01*
X156279899Y-122600938D01*
X156184297Y-122615122D01*
X155969817Y-122622247D01*
X155753088Y-122596201D01*
X155541981Y-122538657D01*
X155344371Y-122451289D01*
X155302518Y-122427660D01*
X155181792Y-122343852D01*
X155059489Y-122236722D01*
X154946060Y-122116736D01*
X154851958Y-121994363D01*
X154821163Y-121945545D01*
X154749561Y-121800586D01*
X154689621Y-121635114D01*
X154646132Y-121464245D01*
X154625972Y-121329297D01*
X154623646Y-121114368D01*
X154655611Y-120905116D01*
X154719949Y-120704873D01*
X154814744Y-120516974D01*
X154938075Y-120344749D01*
X155088027Y-120191532D01*
X155262679Y-120060654D01*
X155400811Y-119983029D01*
X155575573Y-119911826D01*
X155758474Y-119867894D01*
X155957999Y-119849428D01*
X156032163Y-119848639D01*
X156252451Y-119866285D01*
X156458326Y-119916325D01*
X156652350Y-119999744D01*
X156837082Y-120117529D01*
X156934805Y-120196580D01*
X157091379Y-120356073D01*
X157217518Y-120534292D01*
X157312054Y-120728680D01*
X157373822Y-120936679D01*
X157401653Y-121155733D01*
X157403210Y-121222517D01*
X157386484Y-121449948D01*
X157337734Y-121664526D01*
X157259103Y-121863802D01*
X157152738Y-122045325D01*
X157020779Y-122206647D01*
X157237203Y-122423071D01*
X157320706Y-122336988D01*
X157460061Y-122146239D01*
X157570626Y-121937221D01*
X157581678Y-121911310D01*
X157660109Y-121677830D01*
X157705198Y-121437772D01*
X157717040Y-121195500D01*
X157695731Y-120955378D01*
X157641367Y-120721770D01*
X157554046Y-120499039D01*
X157550411Y-120491527D01*
X157449664Y-120318356D01*
X157320658Y-120149284D01*
X157170808Y-119991925D01*
X157007526Y-119853887D01*
X157007526Y-119853887D01*
G37*
X157007526Y-119853887D02*
X156838228Y-119742785D01*
X156802178Y-119723367D01*
X156580912Y-119628340D01*
X156348977Y-119565059D01*
X156111354Y-119533816D01*
X155873023Y-119534901D01*
X155638963Y-119568607D01*
X155414155Y-119635222D01*
X155398435Y-119641306D01*
X155188222Y-119742170D01*
X154992716Y-119871815D01*
X154815289Y-120026278D01*
X154659320Y-120201595D01*
X154528184Y-120393805D01*
X154425257Y-120598943D01*
X154353915Y-120813047D01*
X154337566Y-120886604D01*
X154309053Y-121123962D01*
X154313982Y-121361599D01*
X154350737Y-121595591D01*
X154417699Y-121822016D01*
X154513256Y-122036952D01*
X154635787Y-122236475D01*
X154783681Y-122416662D01*
X154955318Y-122573591D01*
X155065009Y-122652340D01*
X155288290Y-122777517D01*
X155520157Y-122867478D01*
X155759869Y-122922069D01*
X156006678Y-122941132D01*
X156259840Y-122924511D01*
X156319228Y-122915568D01*
X156548044Y-122859505D01*
X156766233Y-122770726D01*
X156970160Y-122652120D01*
X157156195Y-122506579D01*
X157237203Y-122423071D01*
X157020779Y-122206647D01*
X156865372Y-122345319D01*
X156688661Y-122458891D01*
X156492788Y-122544913D01*
X156279899Y-122600938D01*
X156184297Y-122615122D01*
X155969817Y-122622247D01*
X155753088Y-122596201D01*
X155541981Y-122538657D01*
X155344371Y-122451289D01*
X155302518Y-122427660D01*
X155181792Y-122343852D01*
X155059489Y-122236722D01*
X154946060Y-122116736D01*
X154851958Y-121994363D01*
X154821163Y-121945545D01*
X154749561Y-121800586D01*
X154689621Y-121635114D01*
X154646132Y-121464245D01*
X154625972Y-121329297D01*
X154623646Y-121114368D01*
X154655611Y-120905116D01*
X154719949Y-120704873D01*
X154814744Y-120516974D01*
X154938075Y-120344749D01*
X155088027Y-120191532D01*
X155262679Y-120060654D01*
X155400811Y-119983029D01*
X155575573Y-119911826D01*
X155758474Y-119867894D01*
X155957999Y-119849428D01*
X156032163Y-119848639D01*
X156252451Y-119866285D01*
X156458326Y-119916325D01*
X156652350Y-119999744D01*
X156837082Y-120117529D01*
X156934805Y-120196580D01*
X157091379Y-120356073D01*
X157217518Y-120534292D01*
X157312054Y-120728680D01*
X157373822Y-120936679D01*
X157401653Y-121155733D01*
X157403210Y-121222517D01*
X157386484Y-121449948D01*
X157337734Y-121664526D01*
X157259103Y-121863802D01*
X157152738Y-122045325D01*
X157020779Y-122206647D01*
X157237203Y-122423071D01*
X157320706Y-122336988D01*
X157460061Y-122146239D01*
X157570626Y-121937221D01*
X157581678Y-121911310D01*
X157660109Y-121677830D01*
X157705198Y-121437772D01*
X157717040Y-121195500D01*
X157695731Y-120955378D01*
X157641367Y-120721770D01*
X157554046Y-120499039D01*
X157550411Y-120491527D01*
X157449664Y-120318356D01*
X157320658Y-120149284D01*
X157170808Y-119991925D01*
X157007526Y-119853887D01*
G04 #@! TO.C,U1*
D11*
X155777142Y-89035000D02*
X155834285Y-89006428D01*
X155920000Y-89006428D01*
X156005714Y-89035000D01*
X156062857Y-89092142D01*
X156091428Y-89149285D01*
X156120000Y-89263571D01*
X156120000Y-89349285D01*
X156091428Y-89463571D01*
X156062857Y-89520714D01*
X156005714Y-89577857D01*
X155920000Y-89606428D01*
X155862857Y-89606428D01*
X155777142Y-89577857D01*
X155748571Y-89549285D01*
X155748571Y-89349285D01*
X155862857Y-89349285D01*
X155491428Y-89606428D02*
X155491428Y-89006428D01*
X155148571Y-89606428D01*
X155148571Y-89006428D01*
X154862857Y-89606428D02*
X154862857Y-89006428D01*
X154720000Y-89006428D01*
X154634285Y-89035000D01*
X154577142Y-89092142D01*
X154548571Y-89149285D01*
X154520000Y-89263571D01*
X154520000Y-89349285D01*
X154548571Y-89463571D01*
X154577142Y-89520714D01*
X154634285Y-89577857D01*
X154720000Y-89606428D01*
X154862857Y-89606428D01*
X155777142Y-87130000D02*
X155834285Y-87101428D01*
X155920000Y-87101428D01*
X156005714Y-87130000D01*
X156062857Y-87187142D01*
X156091428Y-87244285D01*
X156120000Y-87358571D01*
X156120000Y-87444285D01*
X156091428Y-87558571D01*
X156062857Y-87615714D01*
X156005714Y-87672857D01*
X155920000Y-87701428D01*
X155862857Y-87701428D01*
X155777142Y-87672857D01*
X155748571Y-87644285D01*
X155748571Y-87444285D01*
X155862857Y-87444285D01*
X155491428Y-87701428D02*
X155491428Y-87101428D01*
X155148571Y-87701428D01*
X155148571Y-87101428D01*
X154862857Y-87701428D02*
X154862857Y-87101428D01*
X154720000Y-87101428D01*
X154634285Y-87130000D01*
X154577142Y-87187142D01*
X154548571Y-87244285D01*
X154520000Y-87358571D01*
X154520000Y-87444285D01*
X154548571Y-87558571D01*
X154577142Y-87615714D01*
X154634285Y-87672857D01*
X154720000Y-87701428D01*
X154862857Y-87701428D01*
X156120000Y-84561428D02*
X155920000Y-85161428D01*
X155720000Y-84561428D01*
X155177142Y-85104285D02*
X155205714Y-85132857D01*
X155291428Y-85161428D01*
X155348571Y-85161428D01*
X155434285Y-85132857D01*
X155491428Y-85075714D01*
X155520000Y-85018571D01*
X155548571Y-84904285D01*
X155548571Y-84818571D01*
X155520000Y-84704285D01*
X155491428Y-84647142D01*
X155434285Y-84590000D01*
X155348571Y-84561428D01*
X155291428Y-84561428D01*
X155205714Y-84590000D01*
X155177142Y-84618571D01*
X154577142Y-85104285D02*
X154605714Y-85132857D01*
X154691428Y-85161428D01*
X154748571Y-85161428D01*
X154834285Y-85132857D01*
X154891428Y-85075714D01*
X154920000Y-85018571D01*
X154948571Y-84904285D01*
X154948571Y-84818571D01*
X154920000Y-84704285D01*
X154891428Y-84647142D01*
X154834285Y-84590000D01*
X154748571Y-84561428D01*
X154691428Y-84561428D01*
X154605714Y-84590000D01*
X154577142Y-84618571D01*
X155562857Y-82621428D02*
X155762857Y-82335714D01*
X155905714Y-82621428D02*
X155905714Y-82021428D01*
X155677142Y-82021428D01*
X155620000Y-82050000D01*
X155591428Y-82078571D01*
X155562857Y-82135714D01*
X155562857Y-82221428D01*
X155591428Y-82278571D01*
X155620000Y-82307142D01*
X155677142Y-82335714D01*
X155905714Y-82335714D01*
X155362857Y-82021428D02*
X154962857Y-82621428D01*
X154962857Y-82021428D02*
X155362857Y-82621428D01*
X154734285Y-82621428D02*
X154734285Y-82021428D01*
X156077142Y-79481428D02*
X155734285Y-79481428D01*
X155905714Y-80081428D02*
X155905714Y-79481428D01*
X155591428Y-79481428D02*
X155191428Y-80081428D01*
X155191428Y-79481428D02*
X155591428Y-80081428D01*
X154962857Y-80081428D02*
X154962857Y-79481428D01*
X154820000Y-79481428D01*
X154734285Y-79510000D01*
X154677142Y-79567142D01*
X154648571Y-79624285D01*
X154620000Y-79738571D01*
X154620000Y-79824285D01*
X154648571Y-79938571D01*
X154677142Y-79995714D01*
X154734285Y-80052857D01*
X154820000Y-80081428D01*
X154962857Y-80081428D01*
X156005714Y-78176428D02*
X156005714Y-77576428D01*
X155862857Y-77576428D01*
X155777142Y-77605000D01*
X155720000Y-77662142D01*
X155691428Y-77719285D01*
X155662857Y-77833571D01*
X155662857Y-77919285D01*
X155691428Y-78033571D01*
X155720000Y-78090714D01*
X155777142Y-78147857D01*
X155862857Y-78176428D01*
X156005714Y-78176428D01*
X155491428Y-77576428D02*
X155148571Y-77576428D01*
X155320000Y-78176428D02*
X155320000Y-77576428D01*
X154605714Y-78176428D02*
X154805714Y-77890714D01*
X154948571Y-78176428D02*
X154948571Y-77576428D01*
X154720000Y-77576428D01*
X154662857Y-77605000D01*
X154634285Y-77633571D01*
X154605714Y-77690714D01*
X154605714Y-77776428D01*
X154634285Y-77833571D01*
X154662857Y-77862142D01*
X154720000Y-77890714D01*
X154948571Y-77890714D01*
G04 #@! TO.C,*
D13*
X162447026Y-116665021D02*
X161633853Y-117124640D01*
X162093473Y-116311468D01*
X161108574Y-116538752D02*
X161128777Y-116619564D01*
X161229792Y-116720579D01*
X161310605Y-116740782D01*
X161396468Y-116705427D01*
X161638904Y-116462991D01*
X161674260Y-116377128D01*
X161654057Y-116296315D01*
X161553041Y-116195300D01*
X161472229Y-116175097D01*
X161386366Y-116210452D01*
X161325757Y-116271062D01*
X161517686Y-116584209D01*
X160825731Y-116316518D02*
X161249996Y-115892254D01*
X161128777Y-116013473D02*
X161164133Y-115927610D01*
X161169183Y-115872051D01*
X161148980Y-115791239D01*
X161098473Y-115740731D01*
X160552990Y-115983168D02*
X160472178Y-115962965D01*
X160371163Y-115861950D01*
X160350960Y-115781138D01*
X160386315Y-115695275D01*
X160416620Y-115664970D01*
X160502483Y-115629615D01*
X160583295Y-115649818D01*
X160659056Y-115725579D01*
X160739868Y-115745782D01*
X160825731Y-115710427D01*
X160856036Y-115680122D01*
X160891391Y-115594259D01*
X160871188Y-115513447D01*
X160795427Y-115437686D01*
X160714615Y-115417483D01*
X160068117Y-115558904D02*
X160492381Y-115134640D01*
X160704513Y-114922508D02*
X160699462Y-114978066D01*
X160643904Y-114983117D01*
X160648955Y-114927559D01*
X160704513Y-114922508D01*
X160643904Y-114983117D01*
X159739817Y-115230604D02*
X159820630Y-115250807D01*
X159876188Y-115245757D01*
X159962051Y-115210401D01*
X160143878Y-115028574D01*
X160179234Y-114942711D01*
X160184285Y-114887153D01*
X160164082Y-114806340D01*
X160088320Y-114730579D01*
X160007508Y-114710376D01*
X159951950Y-114715427D01*
X159866087Y-114750782D01*
X159684259Y-114932609D01*
X159648904Y-115018472D01*
X159643853Y-115074031D01*
X159664056Y-115154843D01*
X159739817Y-115230604D01*
X159760021Y-114402279D02*
X159335756Y-114826543D01*
X159699411Y-114462888D02*
X159704462Y-114407330D01*
X159684259Y-114326518D01*
X159608498Y-114250756D01*
X159527685Y-114230553D01*
X159441822Y-114265909D01*
X159108472Y-114599259D01*
X159052914Y-113392127D02*
X159057965Y-113336568D01*
X159037761Y-113255756D01*
X158911492Y-113129487D01*
X158830680Y-113109284D01*
X158775122Y-113114335D01*
X158689259Y-113149690D01*
X158628650Y-113210299D01*
X158562990Y-113326467D01*
X158502381Y-113993168D01*
X158174081Y-113664868D01*
X158007406Y-113376975D02*
X157951847Y-113382025D01*
X157946797Y-113437584D01*
X158002355Y-113432533D01*
X158007406Y-113376975D01*
X157946797Y-113437584D01*
X157416467Y-112907254D02*
X157719512Y-113210299D01*
X157567990Y-113058776D02*
X158204386Y-112422380D01*
X158163980Y-112563802D01*
X158153878Y-112674918D01*
X158174081Y-112755731D01*
X157249791Y-112619360D02*
X157194233Y-112624411D01*
X157189182Y-112679969D01*
X157244741Y-112674918D01*
X157249791Y-112619360D01*
X157189182Y-112679969D01*
X157623548Y-111841543D02*
X157295248Y-111513243D01*
X157229588Y-111932456D01*
X157153827Y-111856695D01*
X157073015Y-111836492D01*
X157017456Y-111841543D01*
X156931593Y-111876898D01*
X156780071Y-112028421D01*
X156744715Y-112114284D01*
X156739664Y-112169842D01*
X156759867Y-112250654D01*
X156911390Y-112402177D01*
X156992203Y-112422380D01*
X157047761Y-112417330D01*
X156269943Y-111275857D02*
X155865882Y-110871796D01*
X155502228Y-109720222D02*
X155451720Y-109669715D01*
X155370908Y-109649512D01*
X155315349Y-109654562D01*
X155229486Y-109689918D01*
X155083014Y-109785882D01*
X154931491Y-109937405D01*
X154835527Y-110083877D01*
X154800172Y-110169740D01*
X154795121Y-110225299D01*
X154815324Y-110306111D01*
X154865831Y-110356618D01*
X154946644Y-110376821D01*
X155002202Y-110371771D01*
X155088065Y-110336415D01*
X155234537Y-110240451D01*
X155386060Y-110088928D01*
X155482024Y-109942456D01*
X155517380Y-109856593D01*
X155522431Y-109801034D01*
X155502228Y-109720222D01*
X155062811Y-109402024D02*
X155067862Y-109346466D01*
X155047659Y-109265654D01*
X154921390Y-109139385D01*
X154840578Y-109119182D01*
X154785019Y-109124232D01*
X154699156Y-109159588D01*
X154638547Y-109220197D01*
X154572887Y-109336364D01*
X154512278Y-110003065D01*
X154183978Y-109674765D01*
X154244588Y-108401973D02*
X153880933Y-109674765D01*
X154002151Y-108341364D02*
X154007202Y-108285806D01*
X153986999Y-108204993D01*
X153860730Y-108078724D01*
X153779917Y-108058521D01*
X153724359Y-108063572D01*
X153638496Y-108098927D01*
X153577887Y-108159537D01*
X153512227Y-108275704D01*
X153451618Y-108942405D01*
X153123318Y-108614105D01*
X153431415Y-107649410D02*
X153380907Y-107598902D01*
X153300095Y-107578699D01*
X153244537Y-107583750D01*
X153158674Y-107619105D01*
X153012202Y-107715069D01*
X152860679Y-107866592D01*
X152764714Y-108013064D01*
X152729359Y-108098927D01*
X152724308Y-108154486D01*
X152744511Y-108235298D01*
X152795019Y-108285806D01*
X152875831Y-108306009D01*
X152931389Y-108300958D01*
X153017252Y-108265603D01*
X153163724Y-108169638D01*
X153315247Y-108018115D01*
X153411212Y-107871643D01*
X153446567Y-107785780D01*
X153451618Y-107730222D01*
X153431415Y-107649410D01*
X152991998Y-107331212D02*
X152997049Y-107275653D01*
X152976846Y-107194841D01*
X152850577Y-107068572D01*
X152769765Y-107048369D01*
X152714207Y-107053420D01*
X152628344Y-107088775D01*
X152567734Y-107149384D01*
X152502074Y-107265552D01*
X152441465Y-107932252D01*
X152113166Y-107603953D01*
X152421262Y-106639257D02*
X152370755Y-106588749D01*
X152289942Y-106568546D01*
X152234384Y-106573597D01*
X152148521Y-106608952D01*
X152002049Y-106704917D01*
X151850526Y-106856440D01*
X151754562Y-107002912D01*
X151719206Y-107088775D01*
X151714156Y-107144333D01*
X151734359Y-107225146D01*
X151784866Y-107275653D01*
X151865678Y-107295856D01*
X151921237Y-107290805D01*
X152007100Y-107255450D01*
X152153572Y-107159486D01*
X152305095Y-107007963D01*
X152401059Y-106861491D01*
X152436415Y-106775628D01*
X152441465Y-106720069D01*
X152421262Y-106639257D01*
D11*
X160654736Y-117461777D02*
X160735549Y-117481980D01*
X160836564Y-117582995D01*
X160856767Y-117663807D01*
X160846665Y-117774924D01*
X160811310Y-117860787D01*
X160690092Y-117982006D01*
X160604229Y-118017361D01*
X160493112Y-118027462D01*
X160412300Y-118007259D01*
X160311285Y-117906244D01*
X160291082Y-117825432D01*
X160998188Y-117320356D02*
X161094153Y-117476929D01*
X161129508Y-117694112D01*
X161053747Y-117921396D01*
X160927478Y-118098173D01*
X160750701Y-118224442D01*
X160523417Y-118300204D01*
X160306234Y-118264848D01*
X160149660Y-118168884D01*
X160053696Y-118012310D01*
X160018340Y-117795127D01*
X160094102Y-117567843D01*
X160220371Y-117391066D01*
X160397148Y-117264797D01*
X160624432Y-117189036D01*
X160841615Y-117224391D01*
X160998188Y-117320356D01*
X159341538Y-117057716D02*
X159235472Y-117012259D01*
X159109203Y-116885990D01*
X159089000Y-116805178D01*
X159094051Y-116749619D01*
X159129406Y-116663756D01*
X159190015Y-116603147D01*
X159275878Y-116567792D01*
X159331437Y-116562741D01*
X159412249Y-116582944D01*
X159543569Y-116653655D01*
X159624381Y-116673858D01*
X159679939Y-116668807D01*
X159765802Y-116633452D01*
X159826411Y-116572843D01*
X159861767Y-116486980D01*
X159866817Y-116431421D01*
X159846614Y-116350609D01*
X159720345Y-116224340D01*
X159614279Y-116178883D01*
X158780903Y-116557690D02*
X159205168Y-116133426D01*
X159417300Y-115921294D02*
X159412249Y-115976853D01*
X159356690Y-115981903D01*
X159361741Y-115926345D01*
X159417300Y-115921294D01*
X159356690Y-115981903D01*
X158452604Y-116229391D02*
X158533416Y-116249594D01*
X158619279Y-116214239D01*
X159164761Y-115668756D01*
X158725345Y-115653604D02*
X158174812Y-115951599D01*
X158472807Y-115401066D01*
X157846512Y-115623299D02*
X158270776Y-115199035D01*
X158482908Y-114986903D02*
X158477858Y-115042462D01*
X158422299Y-115047512D01*
X158427350Y-114991954D01*
X158482908Y-114986903D01*
X158422299Y-115047512D01*
X157518213Y-115295000D02*
X157599025Y-115315203D01*
X157654583Y-115310152D01*
X157740446Y-115274797D01*
X157922274Y-115092969D01*
X157957629Y-115007106D01*
X157962680Y-114951548D01*
X157942477Y-114870736D01*
X157866715Y-114794974D01*
X157785903Y-114774771D01*
X157730345Y-114779822D01*
X157644482Y-114815177D01*
X157462654Y-114997005D01*
X157427299Y-115082868D01*
X157422248Y-115138426D01*
X157442451Y-115219238D01*
X157518213Y-115295000D01*
X156765649Y-114481827D02*
X156659583Y-114436370D01*
X156533314Y-114310101D01*
X156513111Y-114229289D01*
X156518162Y-114173730D01*
X156553517Y-114087867D01*
X156614126Y-114027258D01*
X156699989Y-113991903D01*
X156755548Y-113986852D01*
X156836360Y-114007055D01*
X156967680Y-114077766D01*
X157048492Y-114097969D01*
X157104050Y-114092918D01*
X157189913Y-114057563D01*
X157250522Y-113996954D01*
X157285878Y-113911091D01*
X157290928Y-113855532D01*
X157270725Y-113774720D01*
X157144456Y-113648451D01*
X157038390Y-113602994D01*
X156705040Y-113633299D02*
X156503009Y-113431268D01*
X156841411Y-113345405D02*
X156295928Y-113890888D01*
X156210065Y-113926243D01*
X156129253Y-113906040D01*
X156078745Y-113855532D01*
X155730243Y-113446421D02*
X155750446Y-113527233D01*
X155851461Y-113628248D01*
X155932273Y-113648451D01*
X156018136Y-113613096D01*
X156260573Y-113370659D01*
X156295928Y-113284796D01*
X156275725Y-113203984D01*
X156174710Y-113102969D01*
X156093898Y-113082766D01*
X156008035Y-113118121D01*
X155947426Y-113178730D01*
X156139355Y-113491877D01*
X155447400Y-113224187D02*
X155871664Y-112799923D01*
X155750446Y-112921141D02*
X155785801Y-112835278D01*
X155790852Y-112779720D01*
X155770649Y-112698908D01*
X155720141Y-112648400D01*
X155543365Y-112471623D02*
X155119101Y-112895887D01*
X155482755Y-112532233D02*
X155487806Y-112476674D01*
X155467603Y-112395862D01*
X155391842Y-112320101D01*
X155311029Y-112299897D01*
X155225167Y-112335253D01*
X154891816Y-112668603D01*
X154639278Y-112416065D02*
X155063542Y-111991801D01*
X155275674Y-111779669D02*
X155270623Y-111835227D01*
X155215065Y-111840278D01*
X155220116Y-111784720D01*
X155275674Y-111779669D01*
X155215065Y-111840278D01*
X154886765Y-111815024D02*
X154684735Y-111612994D01*
X155023136Y-111527131D02*
X154477654Y-112072613D01*
X154391791Y-112107968D01*
X154310978Y-112087765D01*
X154260471Y-112037258D01*
X154558466Y-111486725D02*
X154280674Y-111208933D01*
X154134202Y-111910989D01*
X153856410Y-111633197D01*
X153654379Y-111431166D02*
X154290775Y-110794770D01*
X153846308Y-111138222D02*
X153452349Y-111229136D01*
X153876613Y-110804872D02*
X153836207Y-111249339D01*
X153053339Y-110769516D02*
X153073542Y-110850329D01*
X153174557Y-110951344D01*
X153255369Y-110971547D01*
X153341232Y-110936192D01*
X153583669Y-110693755D01*
X153619024Y-110607892D01*
X153598821Y-110527080D01*
X153497806Y-110426064D01*
X153416993Y-110405861D01*
X153331131Y-110441217D01*
X153270521Y-110501826D01*
X153462450Y-110814973D01*
G04 #@! TD*
M02*
