G04 #@! TF.GenerationSoftware,KiCad,Pcbnew,(5.0.2)-1*
G04 #@! TF.CreationDate,2019-03-05T23:40:05+01:00*
G04 #@! TF.ProjectId,HB-OU-MP3-LED_PCB,48422d4f-552d-44d5-9033-2d4c45445f50,rev?*
G04 #@! TF.SameCoordinates,Original*
G04 #@! TF.FileFunction,Copper,L1,Top*
G04 #@! TF.FilePolarity,Positive*
%FSLAX46Y46*%
G04 Gerber Fmt 4.6, Leading zero omitted, Abs format (unit mm)*
G04 Created by KiCad (PCBNEW (5.0.2)-1) date 05.03.2019 23:40:05*
%MOMM*%
%LPD*%
G01*
G04 APERTURE LIST*
G04 #@! TA.AperFunction,ComponentPad*
%ADD10C,6.000000*%
G04 #@! TD*
G04 #@! TA.AperFunction,ComponentPad*
%ADD11C,0.800000*%
G04 #@! TD*
G04 #@! TA.AperFunction,ComponentPad*
%ADD12R,1.200000X1.200000*%
G04 #@! TD*
G04 #@! TA.AperFunction,ComponentPad*
%ADD13C,1.200000*%
G04 #@! TD*
G04 #@! TA.AperFunction,ComponentPad*
%ADD14R,1.800000X1.800000*%
G04 #@! TD*
G04 #@! TA.AperFunction,ComponentPad*
%ADD15C,1.800000*%
G04 #@! TD*
G04 #@! TA.AperFunction,SMDPad,CuDef*
%ADD16R,1.500000X1.900000*%
G04 #@! TD*
G04 #@! TA.AperFunction,ComponentPad*
%ADD17C,1.450000*%
G04 #@! TD*
G04 #@! TA.AperFunction,SMDPad,CuDef*
%ADD18R,0.400000X1.350000*%
G04 #@! TD*
G04 #@! TA.AperFunction,ComponentPad*
%ADD19O,1.200000X1.900000*%
G04 #@! TD*
G04 #@! TA.AperFunction,SMDPad,CuDef*
%ADD20R,1.200000X1.900000*%
G04 #@! TD*
G04 #@! TA.AperFunction,ComponentPad*
%ADD21C,1.700000*%
G04 #@! TD*
G04 #@! TA.AperFunction,Conductor*
%ADD22C,0.100000*%
G04 #@! TD*
G04 #@! TA.AperFunction,Conductor*
%ADD23C,1.700000*%
G04 #@! TD*
G04 #@! TA.AperFunction,ComponentPad*
%ADD24O,1.700000X1.850000*%
G04 #@! TD*
G04 #@! TA.AperFunction,ComponentPad*
%ADD25C,1.600000*%
G04 #@! TD*
G04 #@! TA.AperFunction,ComponentPad*
%ADD26O,1.600000X1.600000*%
G04 #@! TD*
G04 #@! TA.AperFunction,ComponentPad*
%ADD27C,2.000000*%
G04 #@! TD*
G04 #@! TA.AperFunction,ComponentPad*
%ADD28C,1.350000*%
G04 #@! TD*
G04 #@! TA.AperFunction,ConnectorPad*
%ADD29R,1.350000X1.800000*%
G04 #@! TD*
G04 #@! TA.AperFunction,ComponentPad*
%ADD30R,3.000000X3.000000*%
G04 #@! TD*
G04 #@! TA.AperFunction,Conductor*
%ADD31C,0.250000*%
G04 #@! TD*
G04 #@! TA.AperFunction,Conductor*
%ADD32C,0.254000*%
G04 #@! TD*
G04 APERTURE END LIST*
D10*
G04 #@! TO.P,REF02,1*
G04 #@! TO.N,N/C*
X132715000Y-127000000D03*
D11*
X134965000Y-127000000D03*
X134305990Y-128590990D03*
X132715000Y-129250000D03*
X131124010Y-128590990D03*
X130465000Y-127000000D03*
X131124010Y-125409010D03*
X132715000Y-124750000D03*
X134305990Y-125409010D03*
G04 #@! TD*
D10*
G04 #@! TO.P,REF03,1*
G04 #@! TO.N,N/C*
X170180000Y-99695000D03*
D11*
X172430000Y-99695000D03*
X171770990Y-101285990D03*
X170180000Y-101945000D03*
X168589010Y-101285990D03*
X167930000Y-99695000D03*
X168589010Y-98104010D03*
X170180000Y-97445000D03*
X171770990Y-98104010D03*
G04 #@! TD*
D12*
G04 #@! TO.P,C1,1*
G04 #@! TO.N,+3V3*
X163000000Y-83000000D03*
D13*
G04 #@! TO.P,C1,2*
G04 #@! TO.N,GND*
X164500000Y-83000000D03*
G04 #@! TD*
D14*
G04 #@! TO.P,D1,1*
G04 #@! TO.N,GND*
X138000000Y-71000000D03*
D15*
G04 #@! TO.P,D1,2*
G04 #@! TO.N,Net-(D1-Pad2)*
X140540000Y-71000000D03*
G04 #@! TD*
D16*
G04 #@! TO.P,J1,6*
G04 #@! TO.N,GND*
X143000000Y-129237500D03*
D17*
X139500000Y-126537500D03*
D18*
G04 #@! TO.P,J1,2*
G04 #@! TO.N,Net-(J1-Pad2)*
X141350000Y-126537500D03*
G04 #@! TO.P,J1,1*
G04 #@! TO.N,+5V*
X140700000Y-126537500D03*
G04 #@! TO.P,J1,5*
G04 #@! TO.N,GND*
X143300000Y-126537500D03*
G04 #@! TO.P,J1,4*
G04 #@! TO.N,Net-(J1-Pad4)*
X142650000Y-126537500D03*
G04 #@! TO.P,J1,3*
G04 #@! TO.N,Net-(J1-Pad3)*
X142000000Y-126537500D03*
D17*
G04 #@! TO.P,J1,6*
G04 #@! TO.N,GND*
X144500000Y-126537500D03*
D16*
X141000000Y-129237500D03*
D19*
X138500000Y-129237500D03*
X145500000Y-129237500D03*
D20*
X144900000Y-129237500D03*
X139100000Y-129237500D03*
G04 #@! TD*
D21*
G04 #@! TO.P,J2,1*
G04 #@! TO.N,+5V*
X142240000Y-114300000D03*
D22*
G04 #@! TD*
G04 #@! TO.N,+5V*
G04 #@! TO.C,J2*
G36*
X142240000Y-115502082D02*
X141037918Y-114300000D01*
X142240000Y-113097918D01*
X143442082Y-114300000D01*
X142240000Y-115502082D01*
X142240000Y-115502082D01*
G37*
D21*
G04 #@! TO.P,J2,2*
G04 #@! TO.N,/RX*
X144036051Y-116096051D03*
D23*
G04 #@! TD*
G04 #@! TO.N,/RX*
G04 #@! TO.C,J2*
X144036051Y-116096051D02*
X144036051Y-116096051D01*
D21*
G04 #@! TO.P,J2,3*
G04 #@! TO.N,/TX*
X145832102Y-117892102D03*
D23*
G04 #@! TD*
G04 #@! TO.N,/TX*
G04 #@! TO.C,J2*
X145832102Y-117892102D02*
X145832102Y-117892102D01*
D21*
G04 #@! TO.P,J2,4*
G04 #@! TO.N,Net-(J2-Pad4)*
X147628154Y-119688154D03*
D23*
G04 #@! TD*
G04 #@! TO.N,Net-(J2-Pad4)*
G04 #@! TO.C,J2*
X147628154Y-119688154D02*
X147628154Y-119688154D01*
D21*
G04 #@! TO.P,J2,5*
G04 #@! TO.N,Net-(J2-Pad5)*
X149424205Y-121484205D03*
D23*
G04 #@! TD*
G04 #@! TO.N,Net-(J2-Pad5)*
G04 #@! TO.C,J2*
X149424205Y-121484205D02*
X149424205Y-121484205D01*
D21*
G04 #@! TO.P,J2,6*
G04 #@! TO.N,/SPK1*
X151220256Y-123280256D03*
D23*
G04 #@! TD*
G04 #@! TO.N,/SPK1*
G04 #@! TO.C,J2*
X151220256Y-123280256D02*
X151220256Y-123280256D01*
D21*
G04 #@! TO.P,J2,7*
G04 #@! TO.N,GND*
X153016307Y-125076307D03*
D23*
G04 #@! TD*
G04 #@! TO.N,GND*
G04 #@! TO.C,J2*
X153016307Y-125076307D02*
X153016307Y-125076307D01*
D21*
G04 #@! TO.P,J2,8*
G04 #@! TO.N,/SPK2*
X154812359Y-126872359D03*
D23*
G04 #@! TD*
G04 #@! TO.N,/SPK2*
G04 #@! TO.C,J2*
X154812359Y-126872359D02*
X154812359Y-126872359D01*
D21*
G04 #@! TO.P,J3,8*
G04 #@! TO.N,Net-(J3-Pad8)*
X167512359Y-114172359D03*
D23*
G04 #@! TD*
G04 #@! TO.N,Net-(J3-Pad8)*
G04 #@! TO.C,J3*
X167512359Y-114172359D02*
X167512359Y-114172359D01*
D21*
G04 #@! TO.P,J3,7*
G04 #@! TO.N,GND*
X165716307Y-112376307D03*
D23*
G04 #@! TD*
G04 #@! TO.N,GND*
G04 #@! TO.C,J3*
X165716307Y-112376307D02*
X165716307Y-112376307D01*
D21*
G04 #@! TO.P,J3,6*
G04 #@! TO.N,Net-(J3-Pad6)*
X163920256Y-110580256D03*
D23*
G04 #@! TD*
G04 #@! TO.N,Net-(J3-Pad6)*
G04 #@! TO.C,J3*
X163920256Y-110580256D02*
X163920256Y-110580256D01*
D21*
G04 #@! TO.P,J3,5*
G04 #@! TO.N,Net-(J3-Pad5)*
X162124205Y-108784205D03*
D23*
G04 #@! TD*
G04 #@! TO.N,Net-(J3-Pad5)*
G04 #@! TO.C,J3*
X162124205Y-108784205D02*
X162124205Y-108784205D01*
D21*
G04 #@! TO.P,J3,4*
G04 #@! TO.N,Net-(J3-Pad4)*
X160328154Y-106988154D03*
D23*
G04 #@! TD*
G04 #@! TO.N,Net-(J3-Pad4)*
G04 #@! TO.C,J3*
X160328154Y-106988154D02*
X160328154Y-106988154D01*
D21*
G04 #@! TO.P,J3,3*
G04 #@! TO.N,Net-(J3-Pad3)*
X158532102Y-105192102D03*
D23*
G04 #@! TD*
G04 #@! TO.N,Net-(J3-Pad3)*
G04 #@! TO.C,J3*
X158532102Y-105192102D02*
X158532102Y-105192102D01*
D21*
G04 #@! TO.P,J3,2*
G04 #@! TO.N,Net-(J3-Pad2)*
X156736051Y-103396051D03*
D23*
G04 #@! TD*
G04 #@! TO.N,Net-(J3-Pad2)*
G04 #@! TO.C,J3*
X156736051Y-103396051D02*
X156736051Y-103396051D01*
D21*
G04 #@! TO.P,J3,1*
G04 #@! TO.N,/BUSY*
X154940000Y-101600000D03*
D22*
G04 #@! TD*
G04 #@! TO.N,/BUSY*
G04 #@! TO.C,J3*
G36*
X154940000Y-102802082D02*
X153737918Y-101600000D01*
X154940000Y-100397918D01*
X156142082Y-101600000D01*
X154940000Y-102802082D01*
X154940000Y-102802082D01*
G37*
G04 #@! TO.N,+5V*
G04 #@! TO.C,J4*
G36*
X163624504Y-90076204D02*
X163648773Y-90079804D01*
X163672571Y-90085765D01*
X163695671Y-90094030D01*
X163717849Y-90104520D01*
X163738893Y-90117133D01*
X163758598Y-90131747D01*
X163776777Y-90148223D01*
X163793253Y-90166402D01*
X163807867Y-90186107D01*
X163820480Y-90207151D01*
X163830970Y-90229329D01*
X163839235Y-90252429D01*
X163845196Y-90276227D01*
X163848796Y-90300496D01*
X163850000Y-90325000D01*
X163850000Y-91675000D01*
X163848796Y-91699504D01*
X163845196Y-91723773D01*
X163839235Y-91747571D01*
X163830970Y-91770671D01*
X163820480Y-91792849D01*
X163807867Y-91813893D01*
X163793253Y-91833598D01*
X163776777Y-91851777D01*
X163758598Y-91868253D01*
X163738893Y-91882867D01*
X163717849Y-91895480D01*
X163695671Y-91905970D01*
X163672571Y-91914235D01*
X163648773Y-91920196D01*
X163624504Y-91923796D01*
X163600000Y-91925000D01*
X162400000Y-91925000D01*
X162375496Y-91923796D01*
X162351227Y-91920196D01*
X162327429Y-91914235D01*
X162304329Y-91905970D01*
X162282151Y-91895480D01*
X162261107Y-91882867D01*
X162241402Y-91868253D01*
X162223223Y-91851777D01*
X162206747Y-91833598D01*
X162192133Y-91813893D01*
X162179520Y-91792849D01*
X162169030Y-91770671D01*
X162160765Y-91747571D01*
X162154804Y-91723773D01*
X162151204Y-91699504D01*
X162150000Y-91675000D01*
X162150000Y-90325000D01*
X162151204Y-90300496D01*
X162154804Y-90276227D01*
X162160765Y-90252429D01*
X162169030Y-90229329D01*
X162179520Y-90207151D01*
X162192133Y-90186107D01*
X162206747Y-90166402D01*
X162223223Y-90148223D01*
X162241402Y-90131747D01*
X162261107Y-90117133D01*
X162282151Y-90104520D01*
X162304329Y-90094030D01*
X162327429Y-90085765D01*
X162351227Y-90079804D01*
X162375496Y-90076204D01*
X162400000Y-90075000D01*
X163600000Y-90075000D01*
X163624504Y-90076204D01*
X163624504Y-90076204D01*
G37*
D21*
G04 #@! TD*
G04 #@! TO.P,J4,1*
G04 #@! TO.N,+5V*
X163000000Y-91000000D03*
D24*
G04 #@! TO.P,J4,2*
G04 #@! TO.N,GND*
X165500000Y-91000000D03*
G04 #@! TO.P,J4,3*
G04 #@! TO.N,/D_in*
X168000000Y-91000000D03*
G04 #@! TD*
D22*
G04 #@! TO.N,/SPK1*
G04 #@! TO.C,J5*
G36*
X125624504Y-120076204D02*
X125648773Y-120079804D01*
X125672571Y-120085765D01*
X125695671Y-120094030D01*
X125717849Y-120104520D01*
X125738893Y-120117133D01*
X125758598Y-120131747D01*
X125776777Y-120148223D01*
X125793253Y-120166402D01*
X125807867Y-120186107D01*
X125820480Y-120207151D01*
X125830970Y-120229329D01*
X125839235Y-120252429D01*
X125845196Y-120276227D01*
X125848796Y-120300496D01*
X125850000Y-120325000D01*
X125850000Y-121675000D01*
X125848796Y-121699504D01*
X125845196Y-121723773D01*
X125839235Y-121747571D01*
X125830970Y-121770671D01*
X125820480Y-121792849D01*
X125807867Y-121813893D01*
X125793253Y-121833598D01*
X125776777Y-121851777D01*
X125758598Y-121868253D01*
X125738893Y-121882867D01*
X125717849Y-121895480D01*
X125695671Y-121905970D01*
X125672571Y-121914235D01*
X125648773Y-121920196D01*
X125624504Y-121923796D01*
X125600000Y-121925000D01*
X124400000Y-121925000D01*
X124375496Y-121923796D01*
X124351227Y-121920196D01*
X124327429Y-121914235D01*
X124304329Y-121905970D01*
X124282151Y-121895480D01*
X124261107Y-121882867D01*
X124241402Y-121868253D01*
X124223223Y-121851777D01*
X124206747Y-121833598D01*
X124192133Y-121813893D01*
X124179520Y-121792849D01*
X124169030Y-121770671D01*
X124160765Y-121747571D01*
X124154804Y-121723773D01*
X124151204Y-121699504D01*
X124150000Y-121675000D01*
X124150000Y-120325000D01*
X124151204Y-120300496D01*
X124154804Y-120276227D01*
X124160765Y-120252429D01*
X124169030Y-120229329D01*
X124179520Y-120207151D01*
X124192133Y-120186107D01*
X124206747Y-120166402D01*
X124223223Y-120148223D01*
X124241402Y-120131747D01*
X124261107Y-120117133D01*
X124282151Y-120104520D01*
X124304329Y-120094030D01*
X124327429Y-120085765D01*
X124351227Y-120079804D01*
X124375496Y-120076204D01*
X124400000Y-120075000D01*
X125600000Y-120075000D01*
X125624504Y-120076204D01*
X125624504Y-120076204D01*
G37*
D21*
G04 #@! TD*
G04 #@! TO.P,J5,1*
G04 #@! TO.N,/SPK1*
X125000000Y-121000000D03*
D24*
G04 #@! TO.P,J5,2*
G04 #@! TO.N,/SPK2*
X127500000Y-121000000D03*
G04 #@! TD*
D25*
G04 #@! TO.P,R1,1*
G04 #@! TO.N,Net-(R1-Pad1)*
X146000000Y-71000000D03*
D26*
G04 #@! TO.P,R1,2*
G04 #@! TO.N,Net-(D1-Pad2)*
X143460000Y-71000000D03*
G04 #@! TD*
G04 #@! TO.P,R2,2*
G04 #@! TO.N,/TX*
X150540000Y-95000000D03*
D25*
G04 #@! TO.P,R2,1*
G04 #@! TO.N,Net-(R2-Pad1)*
X148000000Y-95000000D03*
G04 #@! TD*
G04 #@! TO.P,R3,1*
G04 #@! TO.N,Net-(R3-Pad1)*
X142000000Y-95000000D03*
D26*
G04 #@! TO.P,R3,2*
G04 #@! TO.N,/RX*
X144540000Y-95000000D03*
G04 #@! TD*
D27*
G04 #@! TO.P,SW1,2*
G04 #@! TO.N,GND*
X117000000Y-89500000D03*
G04 #@! TO.P,SW1,1*
G04 #@! TO.N,Net-(SW1-Pad1)*
X117000000Y-85000000D03*
G04 #@! TO.P,SW1,2*
G04 #@! TO.N,GND*
X123500000Y-89500000D03*
G04 #@! TO.P,SW1,1*
G04 #@! TO.N,Net-(SW1-Pad1)*
X123500000Y-85000000D03*
G04 #@! TD*
D15*
G04 #@! TO.P,U1,28*
G04 #@! TO.N,Net-(U1-Pad28)*
X136270000Y-88700000D03*
G04 #@! TO.P,U1,27*
G04 #@! TO.N,Net-(U1-Pad27)*
X133730000Y-88700000D03*
X127380000Y-86160000D03*
G04 #@! TO.P,U1,28*
G04 #@! TO.N,Net-(U1-Pad28)*
X127380000Y-88700000D03*
G04 #@! TO.P,U1,1*
G04 #@! TO.N,/SS*
X127380000Y-91240000D03*
G04 #@! TO.P,U1,2*
G04 #@! TO.N,/MOSI*
X129920000Y-91240000D03*
G04 #@! TO.P,U1,3*
G04 #@! TO.N,/MISO*
X132460000Y-91240000D03*
G04 #@! TO.P,U1,4*
G04 #@! TO.N,/SCK*
X135000000Y-91240000D03*
G04 #@! TO.P,U1,5*
G04 #@! TO.N,Net-(U1-Pad5)*
X137540000Y-91240000D03*
G04 #@! TO.P,U1,6*
G04 #@! TO.N,Net-(U1-Pad6)*
X140080000Y-91240000D03*
G04 #@! TO.P,U1,7*
G04 #@! TO.N,Net-(U1-Pad7)*
X142620000Y-91240000D03*
G04 #@! TO.P,U1,8*
G04 #@! TO.N,Net-(U1-Pad8)*
X145160000Y-91240000D03*
G04 #@! TO.P,U1,9*
G04 #@! TO.N,+3V3*
X147700000Y-91240000D03*
G04 #@! TO.P,U1,10*
G04 #@! TO.N,Net-(U1-Pad10)*
X150240000Y-91240000D03*
G04 #@! TO.P,U1,11*
G04 #@! TO.N,GND*
X152780000Y-91240000D03*
G04 #@! TO.P,U1,12*
G04 #@! TO.N,+5V*
X155320000Y-91240000D03*
G04 #@! TO.P,U1,13*
G04 #@! TO.N,N/C*
X155320000Y-76000000D03*
G04 #@! TO.P,U1,14*
X152780000Y-76000000D03*
G04 #@! TO.P,U1,15*
X150240000Y-76000000D03*
G04 #@! TO.P,U1,16*
G04 #@! TO.N,GND*
X147700000Y-76000000D03*
G04 #@! TO.P,U1,17*
G04 #@! TO.N,/D2*
X145160000Y-76000000D03*
G04 #@! TO.P,U1,18*
G04 #@! TO.N,Net-(U1-Pad18)*
X142620000Y-76000000D03*
G04 #@! TO.P,U1,19*
G04 #@! TO.N,Net-(R1-Pad1)*
X140080000Y-76000000D03*
G04 #@! TO.P,U1,20*
G04 #@! TO.N,/BUSY*
X137540000Y-76000000D03*
G04 #@! TO.P,U1,21*
G04 #@! TO.N,Net-(SW1-Pad1)*
X135000000Y-76000000D03*
G04 #@! TO.P,U1,22*
G04 #@! TO.N,/D_in*
X132460000Y-76000000D03*
G04 #@! TO.P,U1,23*
G04 #@! TO.N,Net-(R2-Pad1)*
X129920000Y-76000000D03*
G04 #@! TO.P,U1,24*
G04 #@! TO.N,Net-(R3-Pad1)*
X127380000Y-76000000D03*
G04 #@! TO.P,U1,25*
G04 #@! TO.N,Net-(U1-Pad25)*
X143890000Y-88700000D03*
G04 #@! TO.P,U1,26*
G04 #@! TO.N,Net-(U1-Pad26)*
X146430000Y-88700000D03*
G04 #@! TD*
D28*
G04 #@! TO.P,U2,8*
G04 #@! TO.N,/SS*
X115500000Y-96500000D03*
D29*
X115500000Y-95500000D03*
D28*
G04 #@! TO.P,U2,1*
G04 #@! TO.N,+3V3*
X129500000Y-96500000D03*
G04 #@! TO.P,U2,2*
G04 #@! TO.N,GND*
X127500000Y-96500000D03*
G04 #@! TO.P,U2,3*
G04 #@! TO.N,/MOSI*
X125500000Y-96500000D03*
G04 #@! TO.P,U2,4*
G04 #@! TO.N,/SCK*
X123500000Y-96500000D03*
G04 #@! TO.P,U2,5*
G04 #@! TO.N,/MISO*
X121500000Y-96500000D03*
G04 #@! TO.P,U2,6*
G04 #@! TO.N,Net-(U2-Pad6)*
X119500000Y-96500000D03*
G04 #@! TO.P,U2,7*
G04 #@! TO.N,/D2*
X117500000Y-96500000D03*
D29*
G04 #@! TO.P,U2,1*
G04 #@! TO.N,+3V3*
X129500000Y-95500000D03*
G04 #@! TO.P,U2,2*
G04 #@! TO.N,GND*
X127500000Y-95500000D03*
G04 #@! TO.P,U2,3*
G04 #@! TO.N,/MOSI*
X125500000Y-95500000D03*
G04 #@! TO.P,U2,4*
G04 #@! TO.N,/SCK*
X123500000Y-95500000D03*
G04 #@! TO.P,U2,5*
G04 #@! TO.N,/MISO*
X121500000Y-95500000D03*
G04 #@! TO.P,U2,6*
G04 #@! TO.N,Net-(U2-Pad6)*
X119500000Y-95500000D03*
G04 #@! TO.P,U2,7*
G04 #@! TO.N,/D2*
X117500000Y-95500000D03*
G04 #@! TD*
D30*
G04 #@! TO.P,Antenne,1*
G04 #@! TO.N,N/C*
X121514000Y-114478000D03*
G04 #@! TD*
D11*
G04 #@! TO.P,REF01,1*
G04 #@! TO.N,N/C*
X123510990Y-77784010D03*
X121920000Y-77125000D03*
X120329010Y-77784010D03*
X119670000Y-79375000D03*
X120329010Y-80965990D03*
X121920000Y-81625000D03*
X123510990Y-80965990D03*
X124170000Y-79375000D03*
D10*
X121920000Y-79375000D03*
G04 #@! TD*
D31*
G04 #@! TO.N,+3V3*
X129500000Y-95500000D02*
X129500000Y-96500000D01*
G04 #@! TO.N,GND*
X153016300Y-125076300D02*
X153847400Y-124245200D01*
X164983100Y-111643000D02*
X160968500Y-115657600D01*
X160968500Y-115657600D02*
X160968500Y-116285200D01*
X160968500Y-116285200D02*
X158946900Y-118306800D01*
X158946900Y-118306800D02*
X158946900Y-118944000D01*
X158946900Y-118944000D02*
X153847300Y-124043600D01*
X153847300Y-124043600D02*
X153847300Y-124245200D01*
X153847300Y-124245200D02*
X153847400Y-124245200D01*
X165500000Y-91000000D02*
X165500000Y-110930500D01*
X165500000Y-110930500D02*
X165192600Y-111237900D01*
X165192600Y-111237900D02*
X165192600Y-111433500D01*
X165192600Y-111433500D02*
X164983100Y-111643000D01*
X165716300Y-112376300D02*
X164983100Y-111643000D01*
X164500000Y-83000000D02*
X165500000Y-84000000D01*
X165500000Y-84000000D02*
X165500000Y-91000000D01*
X141000000Y-129237500D02*
X142075300Y-129237500D01*
X143000000Y-128599800D02*
X142713000Y-128599800D01*
X142713000Y-128599800D02*
X142075300Y-129237500D01*
X143000000Y-128599800D02*
X143000000Y-127962200D01*
X143000000Y-129237500D02*
X143000000Y-128599800D01*
X152780000Y-82041800D02*
X152780000Y-91240000D01*
X147700000Y-76000000D02*
X152780000Y-81080000D01*
X152780000Y-81080000D02*
X152780000Y-82041800D01*
X152780000Y-82041800D02*
X163725700Y-82041800D01*
X163725700Y-82041800D02*
X164500000Y-82816100D01*
X164500000Y-82816100D02*
X164500000Y-83000000D01*
X140462400Y-129237500D02*
X141000000Y-129237500D01*
X140462400Y-129237500D02*
X139924700Y-129237500D01*
X139100000Y-128599800D02*
X139287000Y-128599800D01*
X139287000Y-128599800D02*
X139924700Y-129237500D01*
X139100000Y-128599800D02*
X139100000Y-127962200D01*
X139100000Y-129237500D02*
X139100000Y-128599800D01*
X143300000Y-127537800D02*
X143300000Y-127662200D01*
X143300000Y-127662200D02*
X143000000Y-127962200D01*
X144343800Y-127406000D02*
X144212000Y-127537800D01*
X144212000Y-127537800D02*
X143300000Y-127537800D01*
X145500000Y-129237500D02*
X144900000Y-129237500D01*
X153016300Y-125076300D02*
X148855100Y-129237500D01*
X148855100Y-129237500D02*
X145500000Y-129237500D01*
X144343800Y-127406000D02*
X144900000Y-127962200D01*
X144500000Y-126537500D02*
X144500000Y-127249800D01*
X144500000Y-127249800D02*
X144343800Y-127406000D01*
X143300000Y-126537500D02*
X143300000Y-127537800D01*
X139500000Y-126537500D02*
X139500000Y-127562200D01*
X139500000Y-127562200D02*
X139100000Y-127962200D01*
X144900000Y-129237500D02*
X144900000Y-127962200D01*
X139100000Y-129237500D02*
X138500000Y-129237500D01*
X127500000Y-95500000D02*
X127500000Y-93500000D01*
X127500000Y-93500000D02*
X123500000Y-89500000D01*
X127500000Y-96500000D02*
X127500000Y-95500000D01*
G04 #@! TO.N,+5V*
X142240000Y-114300000D02*
X140700000Y-115840000D01*
X140700000Y-115840000D02*
X140700000Y-126537500D01*
G04 #@! TO.N,/RX*
X144036100Y-116096100D02*
X144867200Y-115265000D01*
X144540000Y-95000000D02*
X144540000Y-114937900D01*
X144540000Y-114937900D02*
X144867200Y-115265000D01*
G04 #@! TO.N,/TX*
X150540000Y-95000000D02*
X150540000Y-113184200D01*
X150540000Y-113184200D02*
X145832100Y-117892100D01*
G04 #@! TO.N,/BUSY*
X154940000Y-101600000D02*
X154109000Y-100768900D01*
X137540000Y-76000000D02*
X148985000Y-87445000D01*
X148985000Y-87445000D02*
X148985000Y-91721300D01*
X148985000Y-91721300D02*
X154109000Y-96845300D01*
X154109000Y-96845300D02*
X154109000Y-100768900D01*
G04 #@! TO.N,Net-(R1-Pad1)*
X140080000Y-76000000D02*
X145080000Y-71000000D01*
X145080000Y-71000000D02*
X146000000Y-71000000D01*
G04 #@! TO.N,Net-(R2-Pad1)*
X129920000Y-76000000D02*
X129920000Y-76516100D01*
X129920000Y-76516100D02*
X143890000Y-90486100D01*
X143890000Y-90486100D02*
X143890000Y-91770900D01*
X143890000Y-91770900D02*
X147119100Y-95000000D01*
X147119100Y-95000000D02*
X148000000Y-95000000D01*
G04 #@! TO.N,Net-(R3-Pad1)*
X127380000Y-76000000D02*
X138810000Y-87430000D01*
X138810000Y-87430000D02*
X138810000Y-91810000D01*
X138810000Y-91810000D02*
X142000000Y-95000000D01*
G04 #@! TO.N,/SS*
X115500000Y-95500000D02*
X115500000Y-94274700D01*
X115500000Y-94274700D02*
X121604000Y-88170700D01*
X121604000Y-88170700D02*
X124310700Y-88170700D01*
X124310700Y-88170700D02*
X127380000Y-91240000D01*
X115500000Y-96500000D02*
X115500000Y-95500000D01*
G04 #@! TO.N,/MOSI*
X129920000Y-91240000D02*
X130519100Y-91839100D01*
X130519100Y-91839100D02*
X130519100Y-96926700D01*
X130519100Y-96926700D02*
X129943000Y-97502800D01*
X129943000Y-97502800D02*
X126502800Y-97502800D01*
X126502800Y-97502800D02*
X125500000Y-96500000D01*
X125500000Y-96500000D02*
X125500000Y-95500000D01*
G04 #@! TO.N,/MISO*
X121500000Y-95500000D02*
X121500000Y-96500000D01*
G04 #@! TO.N,/SCK*
X123500000Y-95500000D02*
X123500000Y-96500000D01*
G04 #@! TO.N,/D2*
X117500000Y-95500000D02*
X117500000Y-96500000D01*
G04 #@! TO.N,Net-(U2-Pad6)*
X119500000Y-95500000D02*
X119500000Y-96500000D01*
G04 #@! TD*
D32*
G04 #@! TO.N,GND*
G36*
X145047696Y-68633743D02*
X147227665Y-68940118D01*
X149380952Y-69397813D01*
X151497067Y-70004599D01*
X153565699Y-70757520D01*
X155576771Y-71652907D01*
X157520486Y-72686398D01*
X159387372Y-73852958D01*
X161168336Y-75146904D01*
X162854701Y-76561932D01*
X164438250Y-78091148D01*
X165911269Y-79727102D01*
X167266582Y-81461823D01*
X168497585Y-83286860D01*
X169598282Y-85193322D01*
X170563309Y-87171920D01*
X171387965Y-89213016D01*
X172068232Y-91306665D01*
X172600798Y-93442667D01*
X172983065Y-95610615D01*
X173188223Y-97562557D01*
X172239062Y-96613396D01*
X170903046Y-96060000D01*
X169456954Y-96060000D01*
X168120938Y-96613396D01*
X167098396Y-97635938D01*
X166545000Y-98971954D01*
X166545000Y-100418046D01*
X167098396Y-101754062D01*
X168120938Y-102776604D01*
X169456954Y-103330000D01*
X170903046Y-103330000D01*
X172239062Y-102776604D01*
X173227559Y-101788107D01*
X173213174Y-102200052D01*
X172983065Y-104389385D01*
X172600798Y-106557333D01*
X172068232Y-108693335D01*
X171387965Y-110786984D01*
X170563309Y-112828080D01*
X169598282Y-114806678D01*
X168497585Y-116713140D01*
X167266582Y-118538177D01*
X165911269Y-120272898D01*
X164438250Y-121908852D01*
X162854701Y-123438068D01*
X161168336Y-124853096D01*
X159387372Y-126147042D01*
X157520486Y-127313602D01*
X155576771Y-128347093D01*
X153565699Y-129242480D01*
X151497067Y-129995401D01*
X149380952Y-130602187D01*
X147227665Y-131059882D01*
X145047696Y-131366257D01*
X142851666Y-131519818D01*
X140650274Y-131519818D01*
X138454244Y-131366257D01*
X136274275Y-131059882D01*
X134120988Y-130602187D01*
X133764233Y-130499889D01*
X134774062Y-130081604D01*
X135491166Y-129364500D01*
X137265000Y-129364500D01*
X137265000Y-129714500D01*
X137407610Y-130177447D01*
X137716526Y-130550580D01*
X138144719Y-130777092D01*
X138182391Y-130780962D01*
X138217672Y-130757875D01*
X138373691Y-130822500D01*
X138814250Y-130822500D01*
X138864574Y-130772176D01*
X139227000Y-130580454D01*
X139227000Y-130663750D01*
X139385750Y-130822500D01*
X139826309Y-130822500D01*
X139975000Y-130760910D01*
X140123691Y-130822500D01*
X140714250Y-130822500D01*
X140873000Y-130663750D01*
X140873000Y-129364500D01*
X141127000Y-129364500D01*
X141127000Y-130663750D01*
X141285750Y-130822500D01*
X141876309Y-130822500D01*
X142000000Y-130771265D01*
X142123691Y-130822500D01*
X142714250Y-130822500D01*
X142873000Y-130663750D01*
X142873000Y-129364500D01*
X143127000Y-129364500D01*
X143127000Y-130663750D01*
X143285750Y-130822500D01*
X143876309Y-130822500D01*
X144025000Y-130760910D01*
X144173691Y-130822500D01*
X144614250Y-130822500D01*
X144773000Y-130663750D01*
X144773000Y-130580454D01*
X145135426Y-130772176D01*
X145185750Y-130822500D01*
X145626309Y-130822500D01*
X145782328Y-130757875D01*
X145817609Y-130780962D01*
X145855281Y-130777092D01*
X146283474Y-130550580D01*
X146592390Y-130177447D01*
X146735000Y-129714500D01*
X146735000Y-129364500D01*
X143127000Y-129364500D01*
X142873000Y-129364500D01*
X141127000Y-129364500D01*
X140873000Y-129364500D01*
X137265000Y-129364500D01*
X135491166Y-129364500D01*
X135796604Y-129059062D01*
X136350000Y-127723046D01*
X136350000Y-126338646D01*
X138127688Y-126338646D01*
X138156051Y-126878944D01*
X138308247Y-127246378D01*
X138546602Y-127311293D01*
X139320395Y-126537500D01*
X138546602Y-125763707D01*
X138308247Y-125828622D01*
X138127688Y-126338646D01*
X136350000Y-126338646D01*
X136350000Y-126276954D01*
X135796604Y-124940938D01*
X134774062Y-123918396D01*
X133438046Y-123365000D01*
X131991954Y-123365000D01*
X130655938Y-123918396D01*
X129633396Y-124940938D01*
X129080000Y-126276954D01*
X129080000Y-127723046D01*
X129633396Y-129059062D01*
X129720969Y-129146635D01*
X127925169Y-128347093D01*
X125981454Y-127313602D01*
X124114568Y-126147042D01*
X122333604Y-124853096D01*
X120647239Y-123438068D01*
X119063690Y-121908852D01*
X117637584Y-120325000D01*
X123502560Y-120325000D01*
X123502560Y-121675000D01*
X123570874Y-122018435D01*
X123765414Y-122309586D01*
X124056565Y-122504126D01*
X124400000Y-122572440D01*
X125600000Y-122572440D01*
X125943435Y-122504126D01*
X126234586Y-122309586D01*
X126386758Y-122081844D01*
X126429375Y-122145625D01*
X126920583Y-122473839D01*
X127500000Y-122589092D01*
X128079418Y-122473839D01*
X128570625Y-122145625D01*
X128898839Y-121654417D01*
X128985000Y-121221255D01*
X128985000Y-120778744D01*
X128898839Y-120345582D01*
X128570625Y-119854375D01*
X128079417Y-119526161D01*
X127500000Y-119410908D01*
X126920582Y-119526161D01*
X126429375Y-119854375D01*
X126386758Y-119918156D01*
X126234586Y-119690414D01*
X125943435Y-119495874D01*
X125600000Y-119427560D01*
X124400000Y-119427560D01*
X124056565Y-119495874D01*
X123765414Y-119690414D01*
X123570874Y-119981565D01*
X123502560Y-120325000D01*
X117637584Y-120325000D01*
X117590671Y-120272898D01*
X116235358Y-118538177D01*
X115004355Y-116713140D01*
X113903658Y-114806678D01*
X113011752Y-112978000D01*
X119366560Y-112978000D01*
X119366560Y-115978000D01*
X119415843Y-116225765D01*
X119556191Y-116435809D01*
X119766235Y-116576157D01*
X120014000Y-116625440D01*
X123014000Y-116625440D01*
X123261765Y-116576157D01*
X123471809Y-116435809D01*
X123612157Y-116225765D01*
X123661440Y-115978000D01*
X123661440Y-112978000D01*
X123612157Y-112730235D01*
X123471809Y-112520191D01*
X123261765Y-112379843D01*
X123014000Y-112330560D01*
X120014000Y-112330560D01*
X119766235Y-112379843D01*
X119556191Y-112520191D01*
X119415843Y-112730235D01*
X119366560Y-112978000D01*
X113011752Y-112978000D01*
X112938631Y-112828080D01*
X112113975Y-110786984D01*
X111433708Y-108693335D01*
X110901142Y-106557333D01*
X110518875Y-104389385D01*
X110288766Y-102200052D01*
X110211939Y-100000000D01*
X110288766Y-97799948D01*
X110518875Y-95610615D01*
X110697073Y-94600000D01*
X114177560Y-94600000D01*
X114177560Y-96400000D01*
X114190000Y-96462541D01*
X114190000Y-96760575D01*
X114389436Y-97242055D01*
X114757945Y-97610564D01*
X115239425Y-97810000D01*
X115760575Y-97810000D01*
X116242055Y-97610564D01*
X116500000Y-97352619D01*
X116757945Y-97610564D01*
X117239425Y-97810000D01*
X117760575Y-97810000D01*
X118242055Y-97610564D01*
X118500000Y-97352619D01*
X118757945Y-97610564D01*
X119239425Y-97810000D01*
X119760575Y-97810000D01*
X120242055Y-97610564D01*
X120500000Y-97352619D01*
X120757945Y-97610564D01*
X121239425Y-97810000D01*
X121760575Y-97810000D01*
X122242055Y-97610564D01*
X122500000Y-97352619D01*
X122757945Y-97610564D01*
X123239425Y-97810000D01*
X123760575Y-97810000D01*
X124242055Y-97610564D01*
X124500000Y-97352619D01*
X124757945Y-97610564D01*
X125239425Y-97810000D01*
X125735198Y-97810000D01*
X125912473Y-97987275D01*
X125954871Y-98050729D01*
X126018324Y-98093127D01*
X126018326Y-98093129D01*
X126143702Y-98176902D01*
X126206263Y-98218704D01*
X126427948Y-98262800D01*
X126427952Y-98262800D01*
X126502799Y-98277688D01*
X126577646Y-98262800D01*
X129868153Y-98262800D01*
X129943000Y-98277688D01*
X130017847Y-98262800D01*
X130017852Y-98262800D01*
X130239537Y-98218704D01*
X130490929Y-98050729D01*
X130533330Y-97987271D01*
X131003575Y-97517028D01*
X131067029Y-97474629D01*
X131109427Y-97411176D01*
X131109429Y-97411174D01*
X131224387Y-97239126D01*
X131235004Y-97223237D01*
X131279100Y-97001552D01*
X131279100Y-97001548D01*
X131293988Y-96926701D01*
X131279100Y-96851854D01*
X131279100Y-92229917D01*
X131590493Y-92541310D01*
X132154670Y-92775000D01*
X132765330Y-92775000D01*
X133329507Y-92541310D01*
X133730000Y-92140817D01*
X134130493Y-92541310D01*
X134694670Y-92775000D01*
X135305330Y-92775000D01*
X135869507Y-92541310D01*
X136270000Y-92140817D01*
X136670493Y-92541310D01*
X137234670Y-92775000D01*
X137845330Y-92775000D01*
X138409507Y-92541310D01*
X138438008Y-92512809D01*
X140586897Y-94661698D01*
X140565000Y-94714561D01*
X140565000Y-95285439D01*
X140783466Y-95812862D01*
X141187138Y-96216534D01*
X141714561Y-96435000D01*
X142285439Y-96435000D01*
X142812862Y-96216534D01*
X143216534Y-95812862D01*
X143270394Y-95682832D01*
X143505423Y-96034577D01*
X143780000Y-96218044D01*
X143780001Y-113722301D01*
X142697809Y-112640109D01*
X142487765Y-112499761D01*
X142240000Y-112450478D01*
X141992235Y-112499761D01*
X141782191Y-112640109D01*
X140580109Y-113842191D01*
X140439761Y-114052235D01*
X140390478Y-114300000D01*
X140439761Y-114547765D01*
X140580109Y-114757809D01*
X140643749Y-114821449D01*
X140215530Y-115249669D01*
X140152071Y-115292071D01*
X139984096Y-115543464D01*
X139940000Y-115765149D01*
X139940000Y-115765153D01*
X139925112Y-115840000D01*
X139940000Y-115914847D01*
X139940001Y-125250559D01*
X139698854Y-125165188D01*
X139158556Y-125193551D01*
X138791122Y-125345747D01*
X138726207Y-125584102D01*
X139500000Y-126357895D01*
X139514143Y-126343753D01*
X139693748Y-126523358D01*
X139679605Y-126537500D01*
X139693748Y-126551643D01*
X139514143Y-126731248D01*
X139500000Y-126717105D01*
X138726207Y-127490898D01*
X138770219Y-127652500D01*
X138372998Y-127652500D01*
X138372998Y-127652787D01*
X138217672Y-127717125D01*
X138182391Y-127694038D01*
X138144719Y-127697908D01*
X137716526Y-127924420D01*
X137407610Y-128297553D01*
X137265000Y-128760500D01*
X137265000Y-129110500D01*
X140873000Y-129110500D01*
X140873000Y-129090500D01*
X141127000Y-129090500D01*
X141127000Y-129110500D01*
X142873000Y-129110500D01*
X142873000Y-129090500D01*
X143127000Y-129090500D01*
X143127000Y-129110500D01*
X146735000Y-129110500D01*
X146735000Y-128760500D01*
X146592390Y-128297553D01*
X146283474Y-127924420D01*
X145855281Y-127697908D01*
X145817609Y-127694038D01*
X145782328Y-127717125D01*
X145627002Y-127652787D01*
X145627002Y-127652500D01*
X145229781Y-127652500D01*
X145273793Y-127490898D01*
X144500000Y-126717105D01*
X144485858Y-126731248D01*
X144306253Y-126551643D01*
X144320395Y-126537500D01*
X144679605Y-126537500D01*
X145453398Y-127311293D01*
X145691753Y-127246378D01*
X145872312Y-126736354D01*
X145843949Y-126196056D01*
X145803996Y-126099600D01*
X152172619Y-126099600D01*
X152249389Y-126347944D01*
X152659415Y-126517793D01*
X153238215Y-126544643D01*
X153373139Y-126495950D01*
X153298267Y-126872359D01*
X153413520Y-127451777D01*
X153741734Y-127942984D01*
X154232941Y-128271198D01*
X154666103Y-128357359D01*
X154958615Y-128357359D01*
X155391777Y-128271198D01*
X155882984Y-127942984D01*
X156211198Y-127451777D01*
X156326451Y-126872359D01*
X156211198Y-126292941D01*
X155882984Y-125801734D01*
X155391777Y-125473520D01*
X154958615Y-125387359D01*
X154666103Y-125387359D01*
X154435950Y-125433139D01*
X154484643Y-125298215D01*
X154457793Y-124719415D01*
X154287944Y-124309389D01*
X154039600Y-124232619D01*
X153195912Y-125076307D01*
X153210055Y-125090450D01*
X153030450Y-125270055D01*
X153016307Y-125255912D01*
X152172619Y-126099600D01*
X145803996Y-126099600D01*
X145691753Y-125828622D01*
X145453398Y-125763707D01*
X144679605Y-126537500D01*
X144320395Y-126537500D01*
X144306253Y-126523358D01*
X144485858Y-126343753D01*
X144500000Y-126357895D01*
X145273793Y-125584102D01*
X145208878Y-125345747D01*
X144698854Y-125165188D01*
X144158556Y-125193551D01*
X143851452Y-125320757D01*
X143626309Y-125227500D01*
X143558750Y-125227500D01*
X143400000Y-125386250D01*
X143400000Y-125542664D01*
X143307809Y-125404691D01*
X143097765Y-125264343D01*
X143073208Y-125259458D01*
X143041250Y-125227500D01*
X142973691Y-125227500D01*
X142953853Y-125235717D01*
X142850000Y-125215060D01*
X142450000Y-125215060D01*
X142325000Y-125239924D01*
X142200000Y-125215060D01*
X141800000Y-125215060D01*
X141675000Y-125239924D01*
X141550000Y-125215060D01*
X141460000Y-125215060D01*
X141460000Y-116154801D01*
X141718551Y-115896251D01*
X141782191Y-115959891D01*
X141992235Y-116100239D01*
X142240000Y-116149522D01*
X142487765Y-116100239D01*
X142526240Y-116074531D01*
X142521959Y-116096051D01*
X142637212Y-116675469D01*
X142965426Y-117166676D01*
X143456633Y-117494890D01*
X143889795Y-117581051D01*
X144182307Y-117581051D01*
X144388021Y-117540132D01*
X144318010Y-117892102D01*
X144433263Y-118471520D01*
X144761477Y-118962727D01*
X145252684Y-119290941D01*
X145685846Y-119377102D01*
X145978358Y-119377102D01*
X146184073Y-119336183D01*
X146114062Y-119688154D01*
X146229315Y-120267572D01*
X146557529Y-120758779D01*
X147048736Y-121086993D01*
X147481898Y-121173154D01*
X147774410Y-121173154D01*
X147980124Y-121132235D01*
X147910113Y-121484205D01*
X148025366Y-122063623D01*
X148353580Y-122554830D01*
X148844787Y-122883044D01*
X149277949Y-122969205D01*
X149570461Y-122969205D01*
X149776175Y-122928286D01*
X149706164Y-123280256D01*
X149821417Y-123859674D01*
X150149631Y-124350881D01*
X150640838Y-124679095D01*
X151074000Y-124765256D01*
X151366512Y-124765256D01*
X151596663Y-124719476D01*
X151547971Y-124854399D01*
X151574821Y-125433199D01*
X151744670Y-125843225D01*
X151993014Y-125919995D01*
X152836702Y-125076307D01*
X152822560Y-125062165D01*
X153002165Y-124882560D01*
X153016307Y-124896702D01*
X153859995Y-124053014D01*
X153783225Y-123804670D01*
X153373199Y-123634821D01*
X152794399Y-123607971D01*
X152659476Y-123656663D01*
X152734348Y-123280256D01*
X152619095Y-122700838D01*
X152290881Y-122209631D01*
X151799674Y-121881417D01*
X151366512Y-121795256D01*
X151074000Y-121795256D01*
X150868286Y-121836175D01*
X150938297Y-121484205D01*
X150823044Y-120904787D01*
X150494830Y-120413580D01*
X150003623Y-120085366D01*
X149570461Y-119999205D01*
X149277949Y-119999205D01*
X149072235Y-120040124D01*
X149142246Y-119688154D01*
X149026993Y-119108736D01*
X148698779Y-118617529D01*
X148207572Y-118289315D01*
X147774410Y-118203154D01*
X147481898Y-118203154D01*
X147276183Y-118244073D01*
X147346194Y-117892102D01*
X147273311Y-117525691D01*
X151024473Y-113774529D01*
X151087929Y-113732129D01*
X151255904Y-113480737D01*
X151272043Y-113399600D01*
X164872619Y-113399600D01*
X164949389Y-113647944D01*
X165359415Y-113817793D01*
X165938215Y-113844643D01*
X166073139Y-113795950D01*
X165998267Y-114172359D01*
X166113520Y-114751777D01*
X166441734Y-115242984D01*
X166932941Y-115571198D01*
X167366103Y-115657359D01*
X167658615Y-115657359D01*
X168091777Y-115571198D01*
X168582984Y-115242984D01*
X168911198Y-114751777D01*
X169026451Y-114172359D01*
X168911198Y-113592941D01*
X168582984Y-113101734D01*
X168091777Y-112773520D01*
X167658615Y-112687359D01*
X167366103Y-112687359D01*
X167135950Y-112733139D01*
X167184643Y-112598215D01*
X167157793Y-112019415D01*
X166987944Y-111609389D01*
X166739600Y-111532619D01*
X165895912Y-112376307D01*
X165910055Y-112390450D01*
X165730450Y-112570055D01*
X165716307Y-112555912D01*
X164872619Y-113399600D01*
X151272043Y-113399600D01*
X151300000Y-113259052D01*
X151300000Y-113259048D01*
X151314888Y-113184201D01*
X151300000Y-113109354D01*
X151300000Y-96218043D01*
X151574577Y-96034577D01*
X151834489Y-95645591D01*
X153349000Y-97160103D01*
X153349001Y-100694025D01*
X153334112Y-100768854D01*
X153349001Y-100843730D01*
X153349001Y-100843752D01*
X153362179Y-100910000D01*
X153387079Y-101035221D01*
X153280109Y-101142191D01*
X153139761Y-101352235D01*
X153090478Y-101600000D01*
X153139761Y-101847765D01*
X153280109Y-102057809D01*
X154482191Y-103259891D01*
X154692235Y-103400239D01*
X154940000Y-103449522D01*
X155187765Y-103400239D01*
X155226240Y-103374531D01*
X155221959Y-103396051D01*
X155337212Y-103975469D01*
X155665426Y-104466676D01*
X156156633Y-104794890D01*
X156589795Y-104881051D01*
X156882307Y-104881051D01*
X157088021Y-104840132D01*
X157018010Y-105192102D01*
X157133263Y-105771520D01*
X157461477Y-106262727D01*
X157952684Y-106590941D01*
X158385846Y-106677102D01*
X158678358Y-106677102D01*
X158884073Y-106636183D01*
X158814062Y-106988154D01*
X158929315Y-107567572D01*
X159257529Y-108058779D01*
X159748736Y-108386993D01*
X160181898Y-108473154D01*
X160474410Y-108473154D01*
X160680124Y-108432235D01*
X160610113Y-108784205D01*
X160725366Y-109363623D01*
X161053580Y-109854830D01*
X161544787Y-110183044D01*
X161977949Y-110269205D01*
X162270461Y-110269205D01*
X162476175Y-110228286D01*
X162406164Y-110580256D01*
X162521417Y-111159674D01*
X162849631Y-111650881D01*
X163340838Y-111979095D01*
X163774000Y-112065256D01*
X164066512Y-112065256D01*
X164296663Y-112019476D01*
X164247971Y-112154399D01*
X164274821Y-112733199D01*
X164444670Y-113143225D01*
X164693014Y-113219995D01*
X165536702Y-112376307D01*
X165522560Y-112362165D01*
X165702165Y-112182560D01*
X165716307Y-112196702D01*
X166559995Y-111353014D01*
X166483225Y-111104670D01*
X166073199Y-110934821D01*
X165494399Y-110907971D01*
X165359476Y-110956663D01*
X165434348Y-110580256D01*
X165319095Y-110000838D01*
X164990881Y-109509631D01*
X164499674Y-109181417D01*
X164066512Y-109095256D01*
X163774000Y-109095256D01*
X163568286Y-109136175D01*
X163638297Y-108784205D01*
X163523044Y-108204787D01*
X163194830Y-107713580D01*
X162703623Y-107385366D01*
X162270461Y-107299205D01*
X161977949Y-107299205D01*
X161772235Y-107340124D01*
X161842246Y-106988154D01*
X161726993Y-106408736D01*
X161398779Y-105917529D01*
X160907572Y-105589315D01*
X160474410Y-105503154D01*
X160181898Y-105503154D01*
X159976183Y-105544073D01*
X160046194Y-105192102D01*
X159930941Y-104612684D01*
X159602727Y-104121477D01*
X159111520Y-103793263D01*
X158678358Y-103707102D01*
X158385846Y-103707102D01*
X158180132Y-103748021D01*
X158250143Y-103396051D01*
X158134890Y-102816633D01*
X157806676Y-102325426D01*
X157315469Y-101997212D01*
X156882307Y-101911051D01*
X156697952Y-101911051D01*
X156740239Y-101847765D01*
X156789522Y-101600000D01*
X156740239Y-101352235D01*
X156599891Y-101142191D01*
X155397809Y-99940109D01*
X155187765Y-99799761D01*
X154940000Y-99750478D01*
X154869000Y-99764601D01*
X154869000Y-96920146D01*
X154883888Y-96845299D01*
X154869000Y-96770452D01*
X154869000Y-96770448D01*
X154824904Y-96548763D01*
X154748890Y-96435000D01*
X154699329Y-96360826D01*
X154699327Y-96360824D01*
X154656929Y-96297371D01*
X154593476Y-96254973D01*
X150947088Y-92608586D01*
X151109507Y-92541310D01*
X151330658Y-92320159D01*
X151879446Y-92320159D01*
X151965852Y-92576643D01*
X152539336Y-92786458D01*
X153149460Y-92760839D01*
X153594148Y-92576643D01*
X153680554Y-92320159D01*
X152780000Y-91419605D01*
X151879446Y-92320159D01*
X151330658Y-92320159D01*
X151541310Y-92109507D01*
X151549438Y-92089885D01*
X151699841Y-92140554D01*
X152600395Y-91240000D01*
X152959605Y-91240000D01*
X153860159Y-92140554D01*
X154010562Y-92089885D01*
X154018690Y-92109507D01*
X154450493Y-92541310D01*
X155014670Y-92775000D01*
X155625330Y-92775000D01*
X156189507Y-92541310D01*
X156621310Y-92109507D01*
X156855000Y-91545330D01*
X156855000Y-90934670D01*
X156621310Y-90370493D01*
X156575817Y-90325000D01*
X161502560Y-90325000D01*
X161502560Y-91675000D01*
X161570874Y-92018435D01*
X161765414Y-92309586D01*
X162056565Y-92504126D01*
X162400000Y-92572440D01*
X163600000Y-92572440D01*
X163943435Y-92504126D01*
X164234586Y-92309586D01*
X164411844Y-92044300D01*
X164670514Y-92305159D01*
X165143110Y-92516476D01*
X165373000Y-92395155D01*
X165373000Y-91127000D01*
X165353000Y-91127000D01*
X165353000Y-90873000D01*
X165373000Y-90873000D01*
X165373000Y-89604845D01*
X165627000Y-89604845D01*
X165627000Y-90873000D01*
X165647000Y-90873000D01*
X165647000Y-91127000D01*
X165627000Y-91127000D01*
X165627000Y-92395155D01*
X165856890Y-92516476D01*
X166329486Y-92305159D01*
X166737107Y-91894088D01*
X166746298Y-91871631D01*
X166929375Y-92145625D01*
X167420583Y-92473839D01*
X168000000Y-92589092D01*
X168579418Y-92473839D01*
X169070625Y-92145625D01*
X169398839Y-91654417D01*
X169485000Y-91221255D01*
X169485000Y-90778744D01*
X169398839Y-90345582D01*
X169070625Y-89854375D01*
X168579417Y-89526161D01*
X168000000Y-89410908D01*
X167420582Y-89526161D01*
X166929375Y-89854375D01*
X166746298Y-90128369D01*
X166737107Y-90105912D01*
X166329486Y-89694841D01*
X165856890Y-89483524D01*
X165627000Y-89604845D01*
X165373000Y-89604845D01*
X165143110Y-89483524D01*
X164670514Y-89694841D01*
X164411844Y-89955700D01*
X164234586Y-89690414D01*
X163943435Y-89495874D01*
X163600000Y-89427560D01*
X162400000Y-89427560D01*
X162056565Y-89495874D01*
X161765414Y-89690414D01*
X161570874Y-89981565D01*
X161502560Y-90325000D01*
X156575817Y-90325000D01*
X156189507Y-89938690D01*
X155625330Y-89705000D01*
X155014670Y-89705000D01*
X154450493Y-89938690D01*
X154018690Y-90370493D01*
X154010562Y-90390115D01*
X153860159Y-90339446D01*
X152959605Y-91240000D01*
X152600395Y-91240000D01*
X151699841Y-90339446D01*
X151549438Y-90390115D01*
X151541310Y-90370493D01*
X151330658Y-90159841D01*
X151879446Y-90159841D01*
X152780000Y-91060395D01*
X153680554Y-90159841D01*
X153594148Y-89903357D01*
X153020664Y-89693542D01*
X152410540Y-89719161D01*
X151965852Y-89903357D01*
X151879446Y-90159841D01*
X151330658Y-90159841D01*
X151109507Y-89938690D01*
X150545330Y-89705000D01*
X149934670Y-89705000D01*
X149745000Y-89783564D01*
X149745000Y-87519846D01*
X149759888Y-87444999D01*
X149745000Y-87370152D01*
X149745000Y-87370148D01*
X149700904Y-87148463D01*
X149532929Y-86897071D01*
X149469473Y-86854671D01*
X145014802Y-82400000D01*
X161752560Y-82400000D01*
X161752560Y-83600000D01*
X161801843Y-83847765D01*
X161942191Y-84057809D01*
X162152235Y-84198157D01*
X162400000Y-84247440D01*
X163600000Y-84247440D01*
X163847765Y-84198157D01*
X163962802Y-84121291D01*
X164331036Y-84247807D01*
X164821413Y-84217482D01*
X165133617Y-84088164D01*
X165183130Y-83862735D01*
X164500000Y-83179605D01*
X164485858Y-83193748D01*
X164306253Y-83014143D01*
X164320395Y-83000000D01*
X164679605Y-83000000D01*
X165362735Y-83683130D01*
X165588164Y-83633617D01*
X165747807Y-83168964D01*
X165717482Y-82678587D01*
X165588164Y-82366383D01*
X165362735Y-82316870D01*
X164679605Y-83000000D01*
X164320395Y-83000000D01*
X164306253Y-82985858D01*
X164485858Y-82806253D01*
X164500000Y-82820395D01*
X165183130Y-82137265D01*
X165133617Y-81911836D01*
X164668964Y-81752193D01*
X164178587Y-81782518D01*
X163956510Y-81874505D01*
X163847765Y-81801843D01*
X163600000Y-81752560D01*
X162400000Y-81752560D01*
X162152235Y-81801843D01*
X161942191Y-81942191D01*
X161801843Y-82152235D01*
X161752560Y-82400000D01*
X145014802Y-82400000D01*
X140149801Y-77535000D01*
X140385330Y-77535000D01*
X140949507Y-77301310D01*
X141350000Y-76900817D01*
X141750493Y-77301310D01*
X142314670Y-77535000D01*
X142925330Y-77535000D01*
X143489507Y-77301310D01*
X143890000Y-76900817D01*
X144290493Y-77301310D01*
X144854670Y-77535000D01*
X145465330Y-77535000D01*
X146029507Y-77301310D01*
X146250658Y-77080159D01*
X146799446Y-77080159D01*
X146885852Y-77336643D01*
X147459336Y-77546458D01*
X148069460Y-77520839D01*
X148514148Y-77336643D01*
X148600554Y-77080159D01*
X147700000Y-76179605D01*
X146799446Y-77080159D01*
X146250658Y-77080159D01*
X146461310Y-76869507D01*
X146469438Y-76849885D01*
X146619841Y-76900554D01*
X147520395Y-76000000D01*
X147879605Y-76000000D01*
X148780159Y-76900554D01*
X148930562Y-76849885D01*
X148938690Y-76869507D01*
X149370493Y-77301310D01*
X149934670Y-77535000D01*
X150545330Y-77535000D01*
X151109507Y-77301310D01*
X151510000Y-76900817D01*
X151910493Y-77301310D01*
X152474670Y-77535000D01*
X153085330Y-77535000D01*
X153649507Y-77301310D01*
X154050000Y-76900817D01*
X154450493Y-77301310D01*
X155014670Y-77535000D01*
X155625330Y-77535000D01*
X156189507Y-77301310D01*
X156621310Y-76869507D01*
X156855000Y-76305330D01*
X156855000Y-75694670D01*
X156621310Y-75130493D01*
X156189507Y-74698690D01*
X155625330Y-74465000D01*
X155014670Y-74465000D01*
X154450493Y-74698690D01*
X154050000Y-75099183D01*
X153649507Y-74698690D01*
X153085330Y-74465000D01*
X152474670Y-74465000D01*
X151910493Y-74698690D01*
X151510000Y-75099183D01*
X151109507Y-74698690D01*
X150545330Y-74465000D01*
X149934670Y-74465000D01*
X149370493Y-74698690D01*
X148938690Y-75130493D01*
X148930562Y-75150115D01*
X148780159Y-75099446D01*
X147879605Y-76000000D01*
X147520395Y-76000000D01*
X146619841Y-75099446D01*
X146469438Y-75150115D01*
X146461310Y-75130493D01*
X146250658Y-74919841D01*
X146799446Y-74919841D01*
X147700000Y-75820395D01*
X148600554Y-74919841D01*
X148514148Y-74663357D01*
X147940664Y-74453542D01*
X147330540Y-74479161D01*
X146885852Y-74663357D01*
X146799446Y-74919841D01*
X146250658Y-74919841D01*
X146029507Y-74698690D01*
X145465330Y-74465000D01*
X144854670Y-74465000D01*
X144290493Y-74698690D01*
X143890000Y-75099183D01*
X143489507Y-74698690D01*
X142925330Y-74465000D01*
X142689801Y-74465000D01*
X145062703Y-72092099D01*
X145187138Y-72216534D01*
X145714561Y-72435000D01*
X146285439Y-72435000D01*
X146812862Y-72216534D01*
X147216534Y-71812862D01*
X147435000Y-71285439D01*
X147435000Y-70714561D01*
X147216534Y-70187138D01*
X146812862Y-69783466D01*
X146285439Y-69565000D01*
X145714561Y-69565000D01*
X145187138Y-69783466D01*
X144783466Y-70187138D01*
X144729606Y-70317168D01*
X144494577Y-69965423D01*
X144019909Y-69648260D01*
X143601333Y-69565000D01*
X143318667Y-69565000D01*
X142900091Y-69648260D01*
X142425423Y-69965423D01*
X142108260Y-70440091D01*
X142063259Y-70666325D01*
X141841310Y-70130493D01*
X141409507Y-69698690D01*
X140845330Y-69465000D01*
X140234670Y-69465000D01*
X139670493Y-69698690D01*
X139494139Y-69875044D01*
X139438327Y-69740301D01*
X139259698Y-69561673D01*
X139026309Y-69465000D01*
X138285750Y-69465000D01*
X138127000Y-69623750D01*
X138127000Y-70873000D01*
X138147000Y-70873000D01*
X138147000Y-71127000D01*
X138127000Y-71127000D01*
X138127000Y-72376250D01*
X138285750Y-72535000D01*
X139026309Y-72535000D01*
X139259698Y-72438327D01*
X139438327Y-72259699D01*
X139494139Y-72124956D01*
X139670493Y-72301310D01*
X140234670Y-72535000D01*
X140845330Y-72535000D01*
X141409507Y-72301310D01*
X141841310Y-71869507D01*
X142063259Y-71333675D01*
X142108260Y-71559909D01*
X142425423Y-72034577D01*
X142752246Y-72252953D01*
X140494839Y-74510360D01*
X140385330Y-74465000D01*
X139774670Y-74465000D01*
X139210493Y-74698690D01*
X138810000Y-75099183D01*
X138409507Y-74698690D01*
X137845330Y-74465000D01*
X137234670Y-74465000D01*
X136670493Y-74698690D01*
X136270000Y-75099183D01*
X135869507Y-74698690D01*
X135305330Y-74465000D01*
X134694670Y-74465000D01*
X134130493Y-74698690D01*
X133730000Y-75099183D01*
X133329507Y-74698690D01*
X132765330Y-74465000D01*
X132154670Y-74465000D01*
X131590493Y-74698690D01*
X131190000Y-75099183D01*
X130789507Y-74698690D01*
X130225330Y-74465000D01*
X129614670Y-74465000D01*
X129050493Y-74698690D01*
X128650000Y-75099183D01*
X128249507Y-74698690D01*
X127685330Y-74465000D01*
X127074670Y-74465000D01*
X126510493Y-74698690D01*
X126078690Y-75130493D01*
X125845000Y-75694670D01*
X125845000Y-76305330D01*
X126078690Y-76869507D01*
X126510493Y-77301310D01*
X127074670Y-77535000D01*
X127685330Y-77535000D01*
X127794839Y-77489640D01*
X138050000Y-87744802D01*
X138050001Y-89789777D01*
X137845330Y-89705000D01*
X137435817Y-89705000D01*
X137571310Y-89569507D01*
X137805000Y-89005330D01*
X137805000Y-88394670D01*
X137571310Y-87830493D01*
X137139507Y-87398690D01*
X136575330Y-87165000D01*
X135964670Y-87165000D01*
X135400493Y-87398690D01*
X135000000Y-87799183D01*
X134599507Y-87398690D01*
X134035330Y-87165000D01*
X133424670Y-87165000D01*
X132860493Y-87398690D01*
X132428690Y-87830493D01*
X132195000Y-88394670D01*
X132195000Y-89005330D01*
X132428690Y-89569507D01*
X132564183Y-89705000D01*
X132154670Y-89705000D01*
X131590493Y-89938690D01*
X131190000Y-90339183D01*
X130789507Y-89938690D01*
X130225330Y-89705000D01*
X129614670Y-89705000D01*
X129050493Y-89938690D01*
X128650000Y-90339183D01*
X128280817Y-89970000D01*
X128681310Y-89569507D01*
X128915000Y-89005330D01*
X128915000Y-88394670D01*
X128681310Y-87830493D01*
X128280817Y-87430000D01*
X128681310Y-87029507D01*
X128915000Y-86465330D01*
X128915000Y-85854670D01*
X128681310Y-85290493D01*
X128249507Y-84858690D01*
X127685330Y-84625000D01*
X127074670Y-84625000D01*
X126510493Y-84858690D01*
X126078690Y-85290493D01*
X125845000Y-85854670D01*
X125845000Y-86465330D01*
X126078690Y-87029507D01*
X126479183Y-87430000D01*
X126078690Y-87830493D01*
X125845000Y-88394670D01*
X125845000Y-88630199D01*
X124901031Y-87686230D01*
X124858629Y-87622771D01*
X124607237Y-87454796D01*
X124385552Y-87410700D01*
X124385547Y-87410700D01*
X124310700Y-87395812D01*
X124235853Y-87410700D01*
X121678848Y-87410700D01*
X121604000Y-87395812D01*
X121529152Y-87410700D01*
X121529148Y-87410700D01*
X121307463Y-87454796D01*
X121056071Y-87622771D01*
X121013671Y-87686227D01*
X118474806Y-90225092D01*
X118645908Y-89764539D01*
X118621856Y-89114540D01*
X118419387Y-88625736D01*
X118152532Y-88527073D01*
X117179605Y-89500000D01*
X117193748Y-89514143D01*
X117014143Y-89693748D01*
X117000000Y-89679605D01*
X116027073Y-90652532D01*
X116125736Y-90919387D01*
X116735461Y-91145908D01*
X117385460Y-91121856D01*
X117714219Y-90985680D01*
X115015528Y-93684371D01*
X114952072Y-93726771D01*
X114909672Y-93790227D01*
X114909671Y-93790228D01*
X114797557Y-93958019D01*
X114577235Y-94001843D01*
X114367191Y-94142191D01*
X114226843Y-94352235D01*
X114177560Y-94600000D01*
X110697073Y-94600000D01*
X110901142Y-93442667D01*
X111433708Y-91306665D01*
X112106682Y-89235461D01*
X115354092Y-89235461D01*
X115378144Y-89885460D01*
X115580613Y-90374264D01*
X115847468Y-90472927D01*
X116820395Y-89500000D01*
X115847468Y-88527073D01*
X115580613Y-88625736D01*
X115354092Y-89235461D01*
X112106682Y-89235461D01*
X112113975Y-89213016D01*
X112463678Y-88347468D01*
X116027073Y-88347468D01*
X117000000Y-89320395D01*
X117972927Y-88347468D01*
X117874264Y-88080613D01*
X117264539Y-87854092D01*
X116614540Y-87878144D01*
X116125736Y-88080613D01*
X116027073Y-88347468D01*
X112463678Y-88347468D01*
X112938631Y-87171920D01*
X113903658Y-85193322D01*
X114203039Y-84674778D01*
X115365000Y-84674778D01*
X115365000Y-85325222D01*
X115613914Y-85926153D01*
X116073847Y-86386086D01*
X116674778Y-86635000D01*
X117325222Y-86635000D01*
X117926153Y-86386086D01*
X118386086Y-85926153D01*
X118635000Y-85325222D01*
X118635000Y-84674778D01*
X121865000Y-84674778D01*
X121865000Y-85325222D01*
X122113914Y-85926153D01*
X122573847Y-86386086D01*
X123174778Y-86635000D01*
X123825222Y-86635000D01*
X124426153Y-86386086D01*
X124886086Y-85926153D01*
X125135000Y-85325222D01*
X125135000Y-84674778D01*
X124886086Y-84073847D01*
X124426153Y-83613914D01*
X123825222Y-83365000D01*
X123174778Y-83365000D01*
X122573847Y-83613914D01*
X122113914Y-84073847D01*
X121865000Y-84674778D01*
X118635000Y-84674778D01*
X118386086Y-84073847D01*
X117926153Y-83613914D01*
X117325222Y-83365000D01*
X116674778Y-83365000D01*
X116073847Y-83613914D01*
X115613914Y-84073847D01*
X115365000Y-84674778D01*
X114203039Y-84674778D01*
X115004355Y-83286860D01*
X116235358Y-81461823D01*
X117590671Y-79727102D01*
X118285000Y-78955971D01*
X118285000Y-80098046D01*
X118838396Y-81434062D01*
X119860938Y-82456604D01*
X121196954Y-83010000D01*
X122643046Y-83010000D01*
X123979062Y-82456604D01*
X125001604Y-81434062D01*
X125555000Y-80098046D01*
X125555000Y-78651954D01*
X125001604Y-77315938D01*
X123979062Y-76293396D01*
X122643046Y-75740000D01*
X121626780Y-75740000D01*
X122333604Y-75146904D01*
X124114568Y-73852958D01*
X125981455Y-72686398D01*
X127925169Y-71652907D01*
X128749817Y-71285750D01*
X136465000Y-71285750D01*
X136465000Y-72026310D01*
X136561673Y-72259699D01*
X136740302Y-72438327D01*
X136973691Y-72535000D01*
X137714250Y-72535000D01*
X137873000Y-72376250D01*
X137873000Y-71127000D01*
X136623750Y-71127000D01*
X136465000Y-71285750D01*
X128749817Y-71285750D01*
X129936241Y-70757520D01*
X132004873Y-70004599D01*
X132112665Y-69973690D01*
X136465000Y-69973690D01*
X136465000Y-70714250D01*
X136623750Y-70873000D01*
X137873000Y-70873000D01*
X137873000Y-69623750D01*
X137714250Y-69465000D01*
X136973691Y-69465000D01*
X136740302Y-69561673D01*
X136561673Y-69740301D01*
X136465000Y-69973690D01*
X132112665Y-69973690D01*
X134120988Y-69397813D01*
X136274275Y-68940118D01*
X138454244Y-68633743D01*
X140650274Y-68480182D01*
X142851666Y-68480182D01*
X145047696Y-68633743D01*
X145047696Y-68633743D01*
G37*
X145047696Y-68633743D02*
X147227665Y-68940118D01*
X149380952Y-69397813D01*
X151497067Y-70004599D01*
X153565699Y-70757520D01*
X155576771Y-71652907D01*
X157520486Y-72686398D01*
X159387372Y-73852958D01*
X161168336Y-75146904D01*
X162854701Y-76561932D01*
X164438250Y-78091148D01*
X165911269Y-79727102D01*
X167266582Y-81461823D01*
X168497585Y-83286860D01*
X169598282Y-85193322D01*
X170563309Y-87171920D01*
X171387965Y-89213016D01*
X172068232Y-91306665D01*
X172600798Y-93442667D01*
X172983065Y-95610615D01*
X173188223Y-97562557D01*
X172239062Y-96613396D01*
X170903046Y-96060000D01*
X169456954Y-96060000D01*
X168120938Y-96613396D01*
X167098396Y-97635938D01*
X166545000Y-98971954D01*
X166545000Y-100418046D01*
X167098396Y-101754062D01*
X168120938Y-102776604D01*
X169456954Y-103330000D01*
X170903046Y-103330000D01*
X172239062Y-102776604D01*
X173227559Y-101788107D01*
X173213174Y-102200052D01*
X172983065Y-104389385D01*
X172600798Y-106557333D01*
X172068232Y-108693335D01*
X171387965Y-110786984D01*
X170563309Y-112828080D01*
X169598282Y-114806678D01*
X168497585Y-116713140D01*
X167266582Y-118538177D01*
X165911269Y-120272898D01*
X164438250Y-121908852D01*
X162854701Y-123438068D01*
X161168336Y-124853096D01*
X159387372Y-126147042D01*
X157520486Y-127313602D01*
X155576771Y-128347093D01*
X153565699Y-129242480D01*
X151497067Y-129995401D01*
X149380952Y-130602187D01*
X147227665Y-131059882D01*
X145047696Y-131366257D01*
X142851666Y-131519818D01*
X140650274Y-131519818D01*
X138454244Y-131366257D01*
X136274275Y-131059882D01*
X134120988Y-130602187D01*
X133764233Y-130499889D01*
X134774062Y-130081604D01*
X135491166Y-129364500D01*
X137265000Y-129364500D01*
X137265000Y-129714500D01*
X137407610Y-130177447D01*
X137716526Y-130550580D01*
X138144719Y-130777092D01*
X138182391Y-130780962D01*
X138217672Y-130757875D01*
X138373691Y-130822500D01*
X138814250Y-130822500D01*
X138864574Y-130772176D01*
X139227000Y-130580454D01*
X139227000Y-130663750D01*
X139385750Y-130822500D01*
X139826309Y-130822500D01*
X139975000Y-130760910D01*
X140123691Y-130822500D01*
X140714250Y-130822500D01*
X140873000Y-130663750D01*
X140873000Y-129364500D01*
X141127000Y-129364500D01*
X141127000Y-130663750D01*
X141285750Y-130822500D01*
X141876309Y-130822500D01*
X142000000Y-130771265D01*
X142123691Y-130822500D01*
X142714250Y-130822500D01*
X142873000Y-130663750D01*
X142873000Y-129364500D01*
X143127000Y-129364500D01*
X143127000Y-130663750D01*
X143285750Y-130822500D01*
X143876309Y-130822500D01*
X144025000Y-130760910D01*
X144173691Y-130822500D01*
X144614250Y-130822500D01*
X144773000Y-130663750D01*
X144773000Y-130580454D01*
X145135426Y-130772176D01*
X145185750Y-130822500D01*
X145626309Y-130822500D01*
X145782328Y-130757875D01*
X145817609Y-130780962D01*
X145855281Y-130777092D01*
X146283474Y-130550580D01*
X146592390Y-130177447D01*
X146735000Y-129714500D01*
X146735000Y-129364500D01*
X143127000Y-129364500D01*
X142873000Y-129364500D01*
X141127000Y-129364500D01*
X140873000Y-129364500D01*
X137265000Y-129364500D01*
X135491166Y-129364500D01*
X135796604Y-129059062D01*
X136350000Y-127723046D01*
X136350000Y-126338646D01*
X138127688Y-126338646D01*
X138156051Y-126878944D01*
X138308247Y-127246378D01*
X138546602Y-127311293D01*
X139320395Y-126537500D01*
X138546602Y-125763707D01*
X138308247Y-125828622D01*
X138127688Y-126338646D01*
X136350000Y-126338646D01*
X136350000Y-126276954D01*
X135796604Y-124940938D01*
X134774062Y-123918396D01*
X133438046Y-123365000D01*
X131991954Y-123365000D01*
X130655938Y-123918396D01*
X129633396Y-124940938D01*
X129080000Y-126276954D01*
X129080000Y-127723046D01*
X129633396Y-129059062D01*
X129720969Y-129146635D01*
X127925169Y-128347093D01*
X125981454Y-127313602D01*
X124114568Y-126147042D01*
X122333604Y-124853096D01*
X120647239Y-123438068D01*
X119063690Y-121908852D01*
X117637584Y-120325000D01*
X123502560Y-120325000D01*
X123502560Y-121675000D01*
X123570874Y-122018435D01*
X123765414Y-122309586D01*
X124056565Y-122504126D01*
X124400000Y-122572440D01*
X125600000Y-122572440D01*
X125943435Y-122504126D01*
X126234586Y-122309586D01*
X126386758Y-122081844D01*
X126429375Y-122145625D01*
X126920583Y-122473839D01*
X127500000Y-122589092D01*
X128079418Y-122473839D01*
X128570625Y-122145625D01*
X128898839Y-121654417D01*
X128985000Y-121221255D01*
X128985000Y-120778744D01*
X128898839Y-120345582D01*
X128570625Y-119854375D01*
X128079417Y-119526161D01*
X127500000Y-119410908D01*
X126920582Y-119526161D01*
X126429375Y-119854375D01*
X126386758Y-119918156D01*
X126234586Y-119690414D01*
X125943435Y-119495874D01*
X125600000Y-119427560D01*
X124400000Y-119427560D01*
X124056565Y-119495874D01*
X123765414Y-119690414D01*
X123570874Y-119981565D01*
X123502560Y-120325000D01*
X117637584Y-120325000D01*
X117590671Y-120272898D01*
X116235358Y-118538177D01*
X115004355Y-116713140D01*
X113903658Y-114806678D01*
X113011752Y-112978000D01*
X119366560Y-112978000D01*
X119366560Y-115978000D01*
X119415843Y-116225765D01*
X119556191Y-116435809D01*
X119766235Y-116576157D01*
X120014000Y-116625440D01*
X123014000Y-116625440D01*
X123261765Y-116576157D01*
X123471809Y-116435809D01*
X123612157Y-116225765D01*
X123661440Y-115978000D01*
X123661440Y-112978000D01*
X123612157Y-112730235D01*
X123471809Y-112520191D01*
X123261765Y-112379843D01*
X123014000Y-112330560D01*
X120014000Y-112330560D01*
X119766235Y-112379843D01*
X119556191Y-112520191D01*
X119415843Y-112730235D01*
X119366560Y-112978000D01*
X113011752Y-112978000D01*
X112938631Y-112828080D01*
X112113975Y-110786984D01*
X111433708Y-108693335D01*
X110901142Y-106557333D01*
X110518875Y-104389385D01*
X110288766Y-102200052D01*
X110211939Y-100000000D01*
X110288766Y-97799948D01*
X110518875Y-95610615D01*
X110697073Y-94600000D01*
X114177560Y-94600000D01*
X114177560Y-96400000D01*
X114190000Y-96462541D01*
X114190000Y-96760575D01*
X114389436Y-97242055D01*
X114757945Y-97610564D01*
X115239425Y-97810000D01*
X115760575Y-97810000D01*
X116242055Y-97610564D01*
X116500000Y-97352619D01*
X116757945Y-97610564D01*
X117239425Y-97810000D01*
X117760575Y-97810000D01*
X118242055Y-97610564D01*
X118500000Y-97352619D01*
X118757945Y-97610564D01*
X119239425Y-97810000D01*
X119760575Y-97810000D01*
X120242055Y-97610564D01*
X120500000Y-97352619D01*
X120757945Y-97610564D01*
X121239425Y-97810000D01*
X121760575Y-97810000D01*
X122242055Y-97610564D01*
X122500000Y-97352619D01*
X122757945Y-97610564D01*
X123239425Y-97810000D01*
X123760575Y-97810000D01*
X124242055Y-97610564D01*
X124500000Y-97352619D01*
X124757945Y-97610564D01*
X125239425Y-97810000D01*
X125735198Y-97810000D01*
X125912473Y-97987275D01*
X125954871Y-98050729D01*
X126018324Y-98093127D01*
X126018326Y-98093129D01*
X126143702Y-98176902D01*
X126206263Y-98218704D01*
X126427948Y-98262800D01*
X126427952Y-98262800D01*
X126502799Y-98277688D01*
X126577646Y-98262800D01*
X129868153Y-98262800D01*
X129943000Y-98277688D01*
X130017847Y-98262800D01*
X130017852Y-98262800D01*
X130239537Y-98218704D01*
X130490929Y-98050729D01*
X130533330Y-97987271D01*
X131003575Y-97517028D01*
X131067029Y-97474629D01*
X131109427Y-97411176D01*
X131109429Y-97411174D01*
X131224387Y-97239126D01*
X131235004Y-97223237D01*
X131279100Y-97001552D01*
X131279100Y-97001548D01*
X131293988Y-96926701D01*
X131279100Y-96851854D01*
X131279100Y-92229917D01*
X131590493Y-92541310D01*
X132154670Y-92775000D01*
X132765330Y-92775000D01*
X133329507Y-92541310D01*
X133730000Y-92140817D01*
X134130493Y-92541310D01*
X134694670Y-92775000D01*
X135305330Y-92775000D01*
X135869507Y-92541310D01*
X136270000Y-92140817D01*
X136670493Y-92541310D01*
X137234670Y-92775000D01*
X137845330Y-92775000D01*
X138409507Y-92541310D01*
X138438008Y-92512809D01*
X140586897Y-94661698D01*
X140565000Y-94714561D01*
X140565000Y-95285439D01*
X140783466Y-95812862D01*
X141187138Y-96216534D01*
X141714561Y-96435000D01*
X142285439Y-96435000D01*
X142812862Y-96216534D01*
X143216534Y-95812862D01*
X143270394Y-95682832D01*
X143505423Y-96034577D01*
X143780000Y-96218044D01*
X143780001Y-113722301D01*
X142697809Y-112640109D01*
X142487765Y-112499761D01*
X142240000Y-112450478D01*
X141992235Y-112499761D01*
X141782191Y-112640109D01*
X140580109Y-113842191D01*
X140439761Y-114052235D01*
X140390478Y-114300000D01*
X140439761Y-114547765D01*
X140580109Y-114757809D01*
X140643749Y-114821449D01*
X140215530Y-115249669D01*
X140152071Y-115292071D01*
X139984096Y-115543464D01*
X139940000Y-115765149D01*
X139940000Y-115765153D01*
X139925112Y-115840000D01*
X139940000Y-115914847D01*
X139940001Y-125250559D01*
X139698854Y-125165188D01*
X139158556Y-125193551D01*
X138791122Y-125345747D01*
X138726207Y-125584102D01*
X139500000Y-126357895D01*
X139514143Y-126343753D01*
X139693748Y-126523358D01*
X139679605Y-126537500D01*
X139693748Y-126551643D01*
X139514143Y-126731248D01*
X139500000Y-126717105D01*
X138726207Y-127490898D01*
X138770219Y-127652500D01*
X138372998Y-127652500D01*
X138372998Y-127652787D01*
X138217672Y-127717125D01*
X138182391Y-127694038D01*
X138144719Y-127697908D01*
X137716526Y-127924420D01*
X137407610Y-128297553D01*
X137265000Y-128760500D01*
X137265000Y-129110500D01*
X140873000Y-129110500D01*
X140873000Y-129090500D01*
X141127000Y-129090500D01*
X141127000Y-129110500D01*
X142873000Y-129110500D01*
X142873000Y-129090500D01*
X143127000Y-129090500D01*
X143127000Y-129110500D01*
X146735000Y-129110500D01*
X146735000Y-128760500D01*
X146592390Y-128297553D01*
X146283474Y-127924420D01*
X145855281Y-127697908D01*
X145817609Y-127694038D01*
X145782328Y-127717125D01*
X145627002Y-127652787D01*
X145627002Y-127652500D01*
X145229781Y-127652500D01*
X145273793Y-127490898D01*
X144500000Y-126717105D01*
X144485858Y-126731248D01*
X144306253Y-126551643D01*
X144320395Y-126537500D01*
X144679605Y-126537500D01*
X145453398Y-127311293D01*
X145691753Y-127246378D01*
X145872312Y-126736354D01*
X145843949Y-126196056D01*
X145803996Y-126099600D01*
X152172619Y-126099600D01*
X152249389Y-126347944D01*
X152659415Y-126517793D01*
X153238215Y-126544643D01*
X153373139Y-126495950D01*
X153298267Y-126872359D01*
X153413520Y-127451777D01*
X153741734Y-127942984D01*
X154232941Y-128271198D01*
X154666103Y-128357359D01*
X154958615Y-128357359D01*
X155391777Y-128271198D01*
X155882984Y-127942984D01*
X156211198Y-127451777D01*
X156326451Y-126872359D01*
X156211198Y-126292941D01*
X155882984Y-125801734D01*
X155391777Y-125473520D01*
X154958615Y-125387359D01*
X154666103Y-125387359D01*
X154435950Y-125433139D01*
X154484643Y-125298215D01*
X154457793Y-124719415D01*
X154287944Y-124309389D01*
X154039600Y-124232619D01*
X153195912Y-125076307D01*
X153210055Y-125090450D01*
X153030450Y-125270055D01*
X153016307Y-125255912D01*
X152172619Y-126099600D01*
X145803996Y-126099600D01*
X145691753Y-125828622D01*
X145453398Y-125763707D01*
X144679605Y-126537500D01*
X144320395Y-126537500D01*
X144306253Y-126523358D01*
X144485858Y-126343753D01*
X144500000Y-126357895D01*
X145273793Y-125584102D01*
X145208878Y-125345747D01*
X144698854Y-125165188D01*
X144158556Y-125193551D01*
X143851452Y-125320757D01*
X143626309Y-125227500D01*
X143558750Y-125227500D01*
X143400000Y-125386250D01*
X143400000Y-125542664D01*
X143307809Y-125404691D01*
X143097765Y-125264343D01*
X143073208Y-125259458D01*
X143041250Y-125227500D01*
X142973691Y-125227500D01*
X142953853Y-125235717D01*
X142850000Y-125215060D01*
X142450000Y-125215060D01*
X142325000Y-125239924D01*
X142200000Y-125215060D01*
X141800000Y-125215060D01*
X141675000Y-125239924D01*
X141550000Y-125215060D01*
X141460000Y-125215060D01*
X141460000Y-116154801D01*
X141718551Y-115896251D01*
X141782191Y-115959891D01*
X141992235Y-116100239D01*
X142240000Y-116149522D01*
X142487765Y-116100239D01*
X142526240Y-116074531D01*
X142521959Y-116096051D01*
X142637212Y-116675469D01*
X142965426Y-117166676D01*
X143456633Y-117494890D01*
X143889795Y-117581051D01*
X144182307Y-117581051D01*
X144388021Y-117540132D01*
X144318010Y-117892102D01*
X144433263Y-118471520D01*
X144761477Y-118962727D01*
X145252684Y-119290941D01*
X145685846Y-119377102D01*
X145978358Y-119377102D01*
X146184073Y-119336183D01*
X146114062Y-119688154D01*
X146229315Y-120267572D01*
X146557529Y-120758779D01*
X147048736Y-121086993D01*
X147481898Y-121173154D01*
X147774410Y-121173154D01*
X147980124Y-121132235D01*
X147910113Y-121484205D01*
X148025366Y-122063623D01*
X148353580Y-122554830D01*
X148844787Y-122883044D01*
X149277949Y-122969205D01*
X149570461Y-122969205D01*
X149776175Y-122928286D01*
X149706164Y-123280256D01*
X149821417Y-123859674D01*
X150149631Y-124350881D01*
X150640838Y-124679095D01*
X151074000Y-124765256D01*
X151366512Y-124765256D01*
X151596663Y-124719476D01*
X151547971Y-124854399D01*
X151574821Y-125433199D01*
X151744670Y-125843225D01*
X151993014Y-125919995D01*
X152836702Y-125076307D01*
X152822560Y-125062165D01*
X153002165Y-124882560D01*
X153016307Y-124896702D01*
X153859995Y-124053014D01*
X153783225Y-123804670D01*
X153373199Y-123634821D01*
X152794399Y-123607971D01*
X152659476Y-123656663D01*
X152734348Y-123280256D01*
X152619095Y-122700838D01*
X152290881Y-122209631D01*
X151799674Y-121881417D01*
X151366512Y-121795256D01*
X151074000Y-121795256D01*
X150868286Y-121836175D01*
X150938297Y-121484205D01*
X150823044Y-120904787D01*
X150494830Y-120413580D01*
X150003623Y-120085366D01*
X149570461Y-119999205D01*
X149277949Y-119999205D01*
X149072235Y-120040124D01*
X149142246Y-119688154D01*
X149026993Y-119108736D01*
X148698779Y-118617529D01*
X148207572Y-118289315D01*
X147774410Y-118203154D01*
X147481898Y-118203154D01*
X147276183Y-118244073D01*
X147346194Y-117892102D01*
X147273311Y-117525691D01*
X151024473Y-113774529D01*
X151087929Y-113732129D01*
X151255904Y-113480737D01*
X151272043Y-113399600D01*
X164872619Y-113399600D01*
X164949389Y-113647944D01*
X165359415Y-113817793D01*
X165938215Y-113844643D01*
X166073139Y-113795950D01*
X165998267Y-114172359D01*
X166113520Y-114751777D01*
X166441734Y-115242984D01*
X166932941Y-115571198D01*
X167366103Y-115657359D01*
X167658615Y-115657359D01*
X168091777Y-115571198D01*
X168582984Y-115242984D01*
X168911198Y-114751777D01*
X169026451Y-114172359D01*
X168911198Y-113592941D01*
X168582984Y-113101734D01*
X168091777Y-112773520D01*
X167658615Y-112687359D01*
X167366103Y-112687359D01*
X167135950Y-112733139D01*
X167184643Y-112598215D01*
X167157793Y-112019415D01*
X166987944Y-111609389D01*
X166739600Y-111532619D01*
X165895912Y-112376307D01*
X165910055Y-112390450D01*
X165730450Y-112570055D01*
X165716307Y-112555912D01*
X164872619Y-113399600D01*
X151272043Y-113399600D01*
X151300000Y-113259052D01*
X151300000Y-113259048D01*
X151314888Y-113184201D01*
X151300000Y-113109354D01*
X151300000Y-96218043D01*
X151574577Y-96034577D01*
X151834489Y-95645591D01*
X153349000Y-97160103D01*
X153349001Y-100694025D01*
X153334112Y-100768854D01*
X153349001Y-100843730D01*
X153349001Y-100843752D01*
X153362179Y-100910000D01*
X153387079Y-101035221D01*
X153280109Y-101142191D01*
X153139761Y-101352235D01*
X153090478Y-101600000D01*
X153139761Y-101847765D01*
X153280109Y-102057809D01*
X154482191Y-103259891D01*
X154692235Y-103400239D01*
X154940000Y-103449522D01*
X155187765Y-103400239D01*
X155226240Y-103374531D01*
X155221959Y-103396051D01*
X155337212Y-103975469D01*
X155665426Y-104466676D01*
X156156633Y-104794890D01*
X156589795Y-104881051D01*
X156882307Y-104881051D01*
X157088021Y-104840132D01*
X157018010Y-105192102D01*
X157133263Y-105771520D01*
X157461477Y-106262727D01*
X157952684Y-106590941D01*
X158385846Y-106677102D01*
X158678358Y-106677102D01*
X158884073Y-106636183D01*
X158814062Y-106988154D01*
X158929315Y-107567572D01*
X159257529Y-108058779D01*
X159748736Y-108386993D01*
X160181898Y-108473154D01*
X160474410Y-108473154D01*
X160680124Y-108432235D01*
X160610113Y-108784205D01*
X160725366Y-109363623D01*
X161053580Y-109854830D01*
X161544787Y-110183044D01*
X161977949Y-110269205D01*
X162270461Y-110269205D01*
X162476175Y-110228286D01*
X162406164Y-110580256D01*
X162521417Y-111159674D01*
X162849631Y-111650881D01*
X163340838Y-111979095D01*
X163774000Y-112065256D01*
X164066512Y-112065256D01*
X164296663Y-112019476D01*
X164247971Y-112154399D01*
X164274821Y-112733199D01*
X164444670Y-113143225D01*
X164693014Y-113219995D01*
X165536702Y-112376307D01*
X165522560Y-112362165D01*
X165702165Y-112182560D01*
X165716307Y-112196702D01*
X166559995Y-111353014D01*
X166483225Y-111104670D01*
X166073199Y-110934821D01*
X165494399Y-110907971D01*
X165359476Y-110956663D01*
X165434348Y-110580256D01*
X165319095Y-110000838D01*
X164990881Y-109509631D01*
X164499674Y-109181417D01*
X164066512Y-109095256D01*
X163774000Y-109095256D01*
X163568286Y-109136175D01*
X163638297Y-108784205D01*
X163523044Y-108204787D01*
X163194830Y-107713580D01*
X162703623Y-107385366D01*
X162270461Y-107299205D01*
X161977949Y-107299205D01*
X161772235Y-107340124D01*
X161842246Y-106988154D01*
X161726993Y-106408736D01*
X161398779Y-105917529D01*
X160907572Y-105589315D01*
X160474410Y-105503154D01*
X160181898Y-105503154D01*
X159976183Y-105544073D01*
X160046194Y-105192102D01*
X159930941Y-104612684D01*
X159602727Y-104121477D01*
X159111520Y-103793263D01*
X158678358Y-103707102D01*
X158385846Y-103707102D01*
X158180132Y-103748021D01*
X158250143Y-103396051D01*
X158134890Y-102816633D01*
X157806676Y-102325426D01*
X157315469Y-101997212D01*
X156882307Y-101911051D01*
X156697952Y-101911051D01*
X156740239Y-101847765D01*
X156789522Y-101600000D01*
X156740239Y-101352235D01*
X156599891Y-101142191D01*
X155397809Y-99940109D01*
X155187765Y-99799761D01*
X154940000Y-99750478D01*
X154869000Y-99764601D01*
X154869000Y-96920146D01*
X154883888Y-96845299D01*
X154869000Y-96770452D01*
X154869000Y-96770448D01*
X154824904Y-96548763D01*
X154748890Y-96435000D01*
X154699329Y-96360826D01*
X154699327Y-96360824D01*
X154656929Y-96297371D01*
X154593476Y-96254973D01*
X150947088Y-92608586D01*
X151109507Y-92541310D01*
X151330658Y-92320159D01*
X151879446Y-92320159D01*
X151965852Y-92576643D01*
X152539336Y-92786458D01*
X153149460Y-92760839D01*
X153594148Y-92576643D01*
X153680554Y-92320159D01*
X152780000Y-91419605D01*
X151879446Y-92320159D01*
X151330658Y-92320159D01*
X151541310Y-92109507D01*
X151549438Y-92089885D01*
X151699841Y-92140554D01*
X152600395Y-91240000D01*
X152959605Y-91240000D01*
X153860159Y-92140554D01*
X154010562Y-92089885D01*
X154018690Y-92109507D01*
X154450493Y-92541310D01*
X155014670Y-92775000D01*
X155625330Y-92775000D01*
X156189507Y-92541310D01*
X156621310Y-92109507D01*
X156855000Y-91545330D01*
X156855000Y-90934670D01*
X156621310Y-90370493D01*
X156575817Y-90325000D01*
X161502560Y-90325000D01*
X161502560Y-91675000D01*
X161570874Y-92018435D01*
X161765414Y-92309586D01*
X162056565Y-92504126D01*
X162400000Y-92572440D01*
X163600000Y-92572440D01*
X163943435Y-92504126D01*
X164234586Y-92309586D01*
X164411844Y-92044300D01*
X164670514Y-92305159D01*
X165143110Y-92516476D01*
X165373000Y-92395155D01*
X165373000Y-91127000D01*
X165353000Y-91127000D01*
X165353000Y-90873000D01*
X165373000Y-90873000D01*
X165373000Y-89604845D01*
X165627000Y-89604845D01*
X165627000Y-90873000D01*
X165647000Y-90873000D01*
X165647000Y-91127000D01*
X165627000Y-91127000D01*
X165627000Y-92395155D01*
X165856890Y-92516476D01*
X166329486Y-92305159D01*
X166737107Y-91894088D01*
X166746298Y-91871631D01*
X166929375Y-92145625D01*
X167420583Y-92473839D01*
X168000000Y-92589092D01*
X168579418Y-92473839D01*
X169070625Y-92145625D01*
X169398839Y-91654417D01*
X169485000Y-91221255D01*
X169485000Y-90778744D01*
X169398839Y-90345582D01*
X169070625Y-89854375D01*
X168579417Y-89526161D01*
X168000000Y-89410908D01*
X167420582Y-89526161D01*
X166929375Y-89854375D01*
X166746298Y-90128369D01*
X166737107Y-90105912D01*
X166329486Y-89694841D01*
X165856890Y-89483524D01*
X165627000Y-89604845D01*
X165373000Y-89604845D01*
X165143110Y-89483524D01*
X164670514Y-89694841D01*
X164411844Y-89955700D01*
X164234586Y-89690414D01*
X163943435Y-89495874D01*
X163600000Y-89427560D01*
X162400000Y-89427560D01*
X162056565Y-89495874D01*
X161765414Y-89690414D01*
X161570874Y-89981565D01*
X161502560Y-90325000D01*
X156575817Y-90325000D01*
X156189507Y-89938690D01*
X155625330Y-89705000D01*
X155014670Y-89705000D01*
X154450493Y-89938690D01*
X154018690Y-90370493D01*
X154010562Y-90390115D01*
X153860159Y-90339446D01*
X152959605Y-91240000D01*
X152600395Y-91240000D01*
X151699841Y-90339446D01*
X151549438Y-90390115D01*
X151541310Y-90370493D01*
X151330658Y-90159841D01*
X151879446Y-90159841D01*
X152780000Y-91060395D01*
X153680554Y-90159841D01*
X153594148Y-89903357D01*
X153020664Y-89693542D01*
X152410540Y-89719161D01*
X151965852Y-89903357D01*
X151879446Y-90159841D01*
X151330658Y-90159841D01*
X151109507Y-89938690D01*
X150545330Y-89705000D01*
X149934670Y-89705000D01*
X149745000Y-89783564D01*
X149745000Y-87519846D01*
X149759888Y-87444999D01*
X149745000Y-87370152D01*
X149745000Y-87370148D01*
X149700904Y-87148463D01*
X149532929Y-86897071D01*
X149469473Y-86854671D01*
X145014802Y-82400000D01*
X161752560Y-82400000D01*
X161752560Y-83600000D01*
X161801843Y-83847765D01*
X161942191Y-84057809D01*
X162152235Y-84198157D01*
X162400000Y-84247440D01*
X163600000Y-84247440D01*
X163847765Y-84198157D01*
X163962802Y-84121291D01*
X164331036Y-84247807D01*
X164821413Y-84217482D01*
X165133617Y-84088164D01*
X165183130Y-83862735D01*
X164500000Y-83179605D01*
X164485858Y-83193748D01*
X164306253Y-83014143D01*
X164320395Y-83000000D01*
X164679605Y-83000000D01*
X165362735Y-83683130D01*
X165588164Y-83633617D01*
X165747807Y-83168964D01*
X165717482Y-82678587D01*
X165588164Y-82366383D01*
X165362735Y-82316870D01*
X164679605Y-83000000D01*
X164320395Y-83000000D01*
X164306253Y-82985858D01*
X164485858Y-82806253D01*
X164500000Y-82820395D01*
X165183130Y-82137265D01*
X165133617Y-81911836D01*
X164668964Y-81752193D01*
X164178587Y-81782518D01*
X163956510Y-81874505D01*
X163847765Y-81801843D01*
X163600000Y-81752560D01*
X162400000Y-81752560D01*
X162152235Y-81801843D01*
X161942191Y-81942191D01*
X161801843Y-82152235D01*
X161752560Y-82400000D01*
X145014802Y-82400000D01*
X140149801Y-77535000D01*
X140385330Y-77535000D01*
X140949507Y-77301310D01*
X141350000Y-76900817D01*
X141750493Y-77301310D01*
X142314670Y-77535000D01*
X142925330Y-77535000D01*
X143489507Y-77301310D01*
X143890000Y-76900817D01*
X144290493Y-77301310D01*
X144854670Y-77535000D01*
X145465330Y-77535000D01*
X146029507Y-77301310D01*
X146250658Y-77080159D01*
X146799446Y-77080159D01*
X146885852Y-77336643D01*
X147459336Y-77546458D01*
X148069460Y-77520839D01*
X148514148Y-77336643D01*
X148600554Y-77080159D01*
X147700000Y-76179605D01*
X146799446Y-77080159D01*
X146250658Y-77080159D01*
X146461310Y-76869507D01*
X146469438Y-76849885D01*
X146619841Y-76900554D01*
X147520395Y-76000000D01*
X147879605Y-76000000D01*
X148780159Y-76900554D01*
X148930562Y-76849885D01*
X148938690Y-76869507D01*
X149370493Y-77301310D01*
X149934670Y-77535000D01*
X150545330Y-77535000D01*
X151109507Y-77301310D01*
X151510000Y-76900817D01*
X151910493Y-77301310D01*
X152474670Y-77535000D01*
X153085330Y-77535000D01*
X153649507Y-77301310D01*
X154050000Y-76900817D01*
X154450493Y-77301310D01*
X155014670Y-77535000D01*
X155625330Y-77535000D01*
X156189507Y-77301310D01*
X156621310Y-76869507D01*
X156855000Y-76305330D01*
X156855000Y-75694670D01*
X156621310Y-75130493D01*
X156189507Y-74698690D01*
X155625330Y-74465000D01*
X155014670Y-74465000D01*
X154450493Y-74698690D01*
X154050000Y-75099183D01*
X153649507Y-74698690D01*
X153085330Y-74465000D01*
X152474670Y-74465000D01*
X151910493Y-74698690D01*
X151510000Y-75099183D01*
X151109507Y-74698690D01*
X150545330Y-74465000D01*
X149934670Y-74465000D01*
X149370493Y-74698690D01*
X148938690Y-75130493D01*
X148930562Y-75150115D01*
X148780159Y-75099446D01*
X147879605Y-76000000D01*
X147520395Y-76000000D01*
X146619841Y-75099446D01*
X146469438Y-75150115D01*
X146461310Y-75130493D01*
X146250658Y-74919841D01*
X146799446Y-74919841D01*
X147700000Y-75820395D01*
X148600554Y-74919841D01*
X148514148Y-74663357D01*
X147940664Y-74453542D01*
X147330540Y-74479161D01*
X146885852Y-74663357D01*
X146799446Y-74919841D01*
X146250658Y-74919841D01*
X146029507Y-74698690D01*
X145465330Y-74465000D01*
X144854670Y-74465000D01*
X144290493Y-74698690D01*
X143890000Y-75099183D01*
X143489507Y-74698690D01*
X142925330Y-74465000D01*
X142689801Y-74465000D01*
X145062703Y-72092099D01*
X145187138Y-72216534D01*
X145714561Y-72435000D01*
X146285439Y-72435000D01*
X146812862Y-72216534D01*
X147216534Y-71812862D01*
X147435000Y-71285439D01*
X147435000Y-70714561D01*
X147216534Y-70187138D01*
X146812862Y-69783466D01*
X146285439Y-69565000D01*
X145714561Y-69565000D01*
X145187138Y-69783466D01*
X144783466Y-70187138D01*
X144729606Y-70317168D01*
X144494577Y-69965423D01*
X144019909Y-69648260D01*
X143601333Y-69565000D01*
X143318667Y-69565000D01*
X142900091Y-69648260D01*
X142425423Y-69965423D01*
X142108260Y-70440091D01*
X142063259Y-70666325D01*
X141841310Y-70130493D01*
X141409507Y-69698690D01*
X140845330Y-69465000D01*
X140234670Y-69465000D01*
X139670493Y-69698690D01*
X139494139Y-69875044D01*
X139438327Y-69740301D01*
X139259698Y-69561673D01*
X139026309Y-69465000D01*
X138285750Y-69465000D01*
X138127000Y-69623750D01*
X138127000Y-70873000D01*
X138147000Y-70873000D01*
X138147000Y-71127000D01*
X138127000Y-71127000D01*
X138127000Y-72376250D01*
X138285750Y-72535000D01*
X139026309Y-72535000D01*
X139259698Y-72438327D01*
X139438327Y-72259699D01*
X139494139Y-72124956D01*
X139670493Y-72301310D01*
X140234670Y-72535000D01*
X140845330Y-72535000D01*
X141409507Y-72301310D01*
X141841310Y-71869507D01*
X142063259Y-71333675D01*
X142108260Y-71559909D01*
X142425423Y-72034577D01*
X142752246Y-72252953D01*
X140494839Y-74510360D01*
X140385330Y-74465000D01*
X139774670Y-74465000D01*
X139210493Y-74698690D01*
X138810000Y-75099183D01*
X138409507Y-74698690D01*
X137845330Y-74465000D01*
X137234670Y-74465000D01*
X136670493Y-74698690D01*
X136270000Y-75099183D01*
X135869507Y-74698690D01*
X135305330Y-74465000D01*
X134694670Y-74465000D01*
X134130493Y-74698690D01*
X133730000Y-75099183D01*
X133329507Y-74698690D01*
X132765330Y-74465000D01*
X132154670Y-74465000D01*
X131590493Y-74698690D01*
X131190000Y-75099183D01*
X130789507Y-74698690D01*
X130225330Y-74465000D01*
X129614670Y-74465000D01*
X129050493Y-74698690D01*
X128650000Y-75099183D01*
X128249507Y-74698690D01*
X127685330Y-74465000D01*
X127074670Y-74465000D01*
X126510493Y-74698690D01*
X126078690Y-75130493D01*
X125845000Y-75694670D01*
X125845000Y-76305330D01*
X126078690Y-76869507D01*
X126510493Y-77301310D01*
X127074670Y-77535000D01*
X127685330Y-77535000D01*
X127794839Y-77489640D01*
X138050000Y-87744802D01*
X138050001Y-89789777D01*
X137845330Y-89705000D01*
X137435817Y-89705000D01*
X137571310Y-89569507D01*
X137805000Y-89005330D01*
X137805000Y-88394670D01*
X137571310Y-87830493D01*
X137139507Y-87398690D01*
X136575330Y-87165000D01*
X135964670Y-87165000D01*
X135400493Y-87398690D01*
X135000000Y-87799183D01*
X134599507Y-87398690D01*
X134035330Y-87165000D01*
X133424670Y-87165000D01*
X132860493Y-87398690D01*
X132428690Y-87830493D01*
X132195000Y-88394670D01*
X132195000Y-89005330D01*
X132428690Y-89569507D01*
X132564183Y-89705000D01*
X132154670Y-89705000D01*
X131590493Y-89938690D01*
X131190000Y-90339183D01*
X130789507Y-89938690D01*
X130225330Y-89705000D01*
X129614670Y-89705000D01*
X129050493Y-89938690D01*
X128650000Y-90339183D01*
X128280817Y-89970000D01*
X128681310Y-89569507D01*
X128915000Y-89005330D01*
X128915000Y-88394670D01*
X128681310Y-87830493D01*
X128280817Y-87430000D01*
X128681310Y-87029507D01*
X128915000Y-86465330D01*
X128915000Y-85854670D01*
X128681310Y-85290493D01*
X128249507Y-84858690D01*
X127685330Y-84625000D01*
X127074670Y-84625000D01*
X126510493Y-84858690D01*
X126078690Y-85290493D01*
X125845000Y-85854670D01*
X125845000Y-86465330D01*
X126078690Y-87029507D01*
X126479183Y-87430000D01*
X126078690Y-87830493D01*
X125845000Y-88394670D01*
X125845000Y-88630199D01*
X124901031Y-87686230D01*
X124858629Y-87622771D01*
X124607237Y-87454796D01*
X124385552Y-87410700D01*
X124385547Y-87410700D01*
X124310700Y-87395812D01*
X124235853Y-87410700D01*
X121678848Y-87410700D01*
X121604000Y-87395812D01*
X121529152Y-87410700D01*
X121529148Y-87410700D01*
X121307463Y-87454796D01*
X121056071Y-87622771D01*
X121013671Y-87686227D01*
X118474806Y-90225092D01*
X118645908Y-89764539D01*
X118621856Y-89114540D01*
X118419387Y-88625736D01*
X118152532Y-88527073D01*
X117179605Y-89500000D01*
X117193748Y-89514143D01*
X117014143Y-89693748D01*
X117000000Y-89679605D01*
X116027073Y-90652532D01*
X116125736Y-90919387D01*
X116735461Y-91145908D01*
X117385460Y-91121856D01*
X117714219Y-90985680D01*
X115015528Y-93684371D01*
X114952072Y-93726771D01*
X114909672Y-93790227D01*
X114909671Y-93790228D01*
X114797557Y-93958019D01*
X114577235Y-94001843D01*
X114367191Y-94142191D01*
X114226843Y-94352235D01*
X114177560Y-94600000D01*
X110697073Y-94600000D01*
X110901142Y-93442667D01*
X111433708Y-91306665D01*
X112106682Y-89235461D01*
X115354092Y-89235461D01*
X115378144Y-89885460D01*
X115580613Y-90374264D01*
X115847468Y-90472927D01*
X116820395Y-89500000D01*
X115847468Y-88527073D01*
X115580613Y-88625736D01*
X115354092Y-89235461D01*
X112106682Y-89235461D01*
X112113975Y-89213016D01*
X112463678Y-88347468D01*
X116027073Y-88347468D01*
X117000000Y-89320395D01*
X117972927Y-88347468D01*
X117874264Y-88080613D01*
X117264539Y-87854092D01*
X116614540Y-87878144D01*
X116125736Y-88080613D01*
X116027073Y-88347468D01*
X112463678Y-88347468D01*
X112938631Y-87171920D01*
X113903658Y-85193322D01*
X114203039Y-84674778D01*
X115365000Y-84674778D01*
X115365000Y-85325222D01*
X115613914Y-85926153D01*
X116073847Y-86386086D01*
X116674778Y-86635000D01*
X117325222Y-86635000D01*
X117926153Y-86386086D01*
X118386086Y-85926153D01*
X118635000Y-85325222D01*
X118635000Y-84674778D01*
X121865000Y-84674778D01*
X121865000Y-85325222D01*
X122113914Y-85926153D01*
X122573847Y-86386086D01*
X123174778Y-86635000D01*
X123825222Y-86635000D01*
X124426153Y-86386086D01*
X124886086Y-85926153D01*
X125135000Y-85325222D01*
X125135000Y-84674778D01*
X124886086Y-84073847D01*
X124426153Y-83613914D01*
X123825222Y-83365000D01*
X123174778Y-83365000D01*
X122573847Y-83613914D01*
X122113914Y-84073847D01*
X121865000Y-84674778D01*
X118635000Y-84674778D01*
X118386086Y-84073847D01*
X117926153Y-83613914D01*
X117325222Y-83365000D01*
X116674778Y-83365000D01*
X116073847Y-83613914D01*
X115613914Y-84073847D01*
X115365000Y-84674778D01*
X114203039Y-84674778D01*
X115004355Y-83286860D01*
X116235358Y-81461823D01*
X117590671Y-79727102D01*
X118285000Y-78955971D01*
X118285000Y-80098046D01*
X118838396Y-81434062D01*
X119860938Y-82456604D01*
X121196954Y-83010000D01*
X122643046Y-83010000D01*
X123979062Y-82456604D01*
X125001604Y-81434062D01*
X125555000Y-80098046D01*
X125555000Y-78651954D01*
X125001604Y-77315938D01*
X123979062Y-76293396D01*
X122643046Y-75740000D01*
X121626780Y-75740000D01*
X122333604Y-75146904D01*
X124114568Y-73852958D01*
X125981455Y-72686398D01*
X127925169Y-71652907D01*
X128749817Y-71285750D01*
X136465000Y-71285750D01*
X136465000Y-72026310D01*
X136561673Y-72259699D01*
X136740302Y-72438327D01*
X136973691Y-72535000D01*
X137714250Y-72535000D01*
X137873000Y-72376250D01*
X137873000Y-71127000D01*
X136623750Y-71127000D01*
X136465000Y-71285750D01*
X128749817Y-71285750D01*
X129936241Y-70757520D01*
X132004873Y-70004599D01*
X132112665Y-69973690D01*
X136465000Y-69973690D01*
X136465000Y-70714250D01*
X136623750Y-70873000D01*
X137873000Y-70873000D01*
X137873000Y-69623750D01*
X137714250Y-69465000D01*
X136973691Y-69465000D01*
X136740302Y-69561673D01*
X136561673Y-69740301D01*
X136465000Y-69973690D01*
X132112665Y-69973690D01*
X134120988Y-69397813D01*
X136274275Y-68940118D01*
X138454244Y-68633743D01*
X140650274Y-68480182D01*
X142851666Y-68480182D01*
X145047696Y-68633743D01*
G36*
X143172998Y-127765252D02*
X143127002Y-127811248D01*
X143127002Y-127791121D01*
X143172998Y-127760388D01*
X143172998Y-127765252D01*
X143172998Y-127765252D01*
G37*
X143172998Y-127765252D02*
X143127002Y-127811248D01*
X143127002Y-127791121D01*
X143172998Y-127760388D01*
X143172998Y-127765252D01*
G36*
X121854092Y-89235461D02*
X121878144Y-89885460D01*
X122080613Y-90374264D01*
X122347468Y-90472927D01*
X123320395Y-89500000D01*
X123306253Y-89485858D01*
X123485858Y-89306253D01*
X123500000Y-89320395D01*
X123514143Y-89306253D01*
X123693748Y-89485858D01*
X123679605Y-89500000D01*
X124652532Y-90472927D01*
X124919387Y-90374264D01*
X125060264Y-89995066D01*
X125890360Y-90825162D01*
X125845000Y-90934670D01*
X125845000Y-91545330D01*
X126078690Y-92109507D01*
X126510493Y-92541310D01*
X127074670Y-92775000D01*
X127685330Y-92775000D01*
X128249507Y-92541310D01*
X128650000Y-92140817D01*
X129050493Y-92541310D01*
X129614670Y-92775000D01*
X129759100Y-92775000D01*
X129759100Y-93952560D01*
X128825000Y-93952560D01*
X128577235Y-94001843D01*
X128505682Y-94049654D01*
X128301310Y-93965000D01*
X127785750Y-93965000D01*
X127627000Y-94123750D01*
X127627000Y-95180833D01*
X127373000Y-95195061D01*
X127373000Y-94123750D01*
X127214250Y-93965000D01*
X126698690Y-93965000D01*
X126494318Y-94049654D01*
X126422765Y-94001843D01*
X126175000Y-93952560D01*
X124825000Y-93952560D01*
X124577235Y-94001843D01*
X124500000Y-94053450D01*
X124422765Y-94001843D01*
X124175000Y-93952560D01*
X122825000Y-93952560D01*
X122577235Y-94001843D01*
X122500000Y-94053450D01*
X122422765Y-94001843D01*
X122175000Y-93952560D01*
X120825000Y-93952560D01*
X120577235Y-94001843D01*
X120500000Y-94053450D01*
X120422765Y-94001843D01*
X120175000Y-93952560D01*
X118825000Y-93952560D01*
X118577235Y-94001843D01*
X118500000Y-94053450D01*
X118422765Y-94001843D01*
X118175000Y-93952560D01*
X116896941Y-93952560D01*
X120196969Y-90652532D01*
X122527073Y-90652532D01*
X122625736Y-90919387D01*
X123235461Y-91145908D01*
X123885460Y-91121856D01*
X124374264Y-90919387D01*
X124472927Y-90652532D01*
X123500000Y-89679605D01*
X122527073Y-90652532D01*
X120196969Y-90652532D01*
X121918802Y-88930700D01*
X121967315Y-88930700D01*
X121854092Y-89235461D01*
X121854092Y-89235461D01*
G37*
X121854092Y-89235461D02*
X121878144Y-89885460D01*
X122080613Y-90374264D01*
X122347468Y-90472927D01*
X123320395Y-89500000D01*
X123306253Y-89485858D01*
X123485858Y-89306253D01*
X123500000Y-89320395D01*
X123514143Y-89306253D01*
X123693748Y-89485858D01*
X123679605Y-89500000D01*
X124652532Y-90472927D01*
X124919387Y-90374264D01*
X125060264Y-89995066D01*
X125890360Y-90825162D01*
X125845000Y-90934670D01*
X125845000Y-91545330D01*
X126078690Y-92109507D01*
X126510493Y-92541310D01*
X127074670Y-92775000D01*
X127685330Y-92775000D01*
X128249507Y-92541310D01*
X128650000Y-92140817D01*
X129050493Y-92541310D01*
X129614670Y-92775000D01*
X129759100Y-92775000D01*
X129759100Y-93952560D01*
X128825000Y-93952560D01*
X128577235Y-94001843D01*
X128505682Y-94049654D01*
X128301310Y-93965000D01*
X127785750Y-93965000D01*
X127627000Y-94123750D01*
X127627000Y-95180833D01*
X127373000Y-95195061D01*
X127373000Y-94123750D01*
X127214250Y-93965000D01*
X126698690Y-93965000D01*
X126494318Y-94049654D01*
X126422765Y-94001843D01*
X126175000Y-93952560D01*
X124825000Y-93952560D01*
X124577235Y-94001843D01*
X124500000Y-94053450D01*
X124422765Y-94001843D01*
X124175000Y-93952560D01*
X122825000Y-93952560D01*
X122577235Y-94001843D01*
X122500000Y-94053450D01*
X122422765Y-94001843D01*
X122175000Y-93952560D01*
X120825000Y-93952560D01*
X120577235Y-94001843D01*
X120500000Y-94053450D01*
X120422765Y-94001843D01*
X120175000Y-93952560D01*
X118825000Y-93952560D01*
X118577235Y-94001843D01*
X118500000Y-94053450D01*
X118422765Y-94001843D01*
X118175000Y-93952560D01*
X116896941Y-93952560D01*
X120196969Y-90652532D01*
X122527073Y-90652532D01*
X122625736Y-90919387D01*
X123235461Y-91145908D01*
X123885460Y-91121856D01*
X124374264Y-90919387D01*
X124472927Y-90652532D01*
X123500000Y-89679605D01*
X122527073Y-90652532D01*
X120196969Y-90652532D01*
X121918802Y-88930700D01*
X121967315Y-88930700D01*
X121854092Y-89235461D01*
G04 #@! TD*
M02*
