%FSLAX45Y45*%
G04 Gerber Fmt 4.5, Leading zero omitted, Abs format (unit mm)*
G04 Created by KiCad (PCBNEW (5.0.2)-1) date 26.02.2020 09:59:28*
%MOMM*%
%LPD*%
G01*
G04 APERTURE LIST*
%ADD10C,0.150000*%
%ADD11C,0.200000*%
%ADD12C,0.300000*%
G04 APERTURE END LIST*
D10*
X17400000Y-10000000D02*
G75*
G03X17400000Y-10000000I-3224903J0D01*
G01*
D11*
X12392000Y-7912500D02*
X12442000Y-7962500D01*
X12442000Y-7912500D02*
X12392000Y-7962500D01*
X13021500Y-12675000D02*
X13071500Y-12725000D01*
X13071500Y-12675000D02*
X13021500Y-12725000D01*
X13087401Y-12515901D02*
X13137401Y-12565901D01*
X13137401Y-12515901D02*
X13087401Y-12565901D01*
X13087401Y-12834099D02*
X13137401Y-12884099D01*
X13137401Y-12834099D02*
X13087401Y-12884099D01*
X13246500Y-12450000D02*
X13296500Y-12500000D01*
X13296500Y-12450000D02*
X13246500Y-12500000D01*
X13246500Y-12900000D02*
X13296500Y-12950000D01*
X13296500Y-12900000D02*
X13246500Y-12950000D01*
X13405599Y-12515901D02*
X13455599Y-12565901D01*
X13455599Y-12515901D02*
X13405599Y-12565901D01*
X13405599Y-12834099D02*
X13455599Y-12884099D01*
X13455599Y-12834099D02*
X13405599Y-12884099D01*
X13471500Y-12675000D02*
X13521500Y-12725000D01*
X13521500Y-12675000D02*
X13471500Y-12725000D01*
X16768000Y-9944500D02*
X16818000Y-9994500D01*
X16818000Y-9944500D02*
X16768000Y-9994500D01*
X16833901Y-9785401D02*
X16883901Y-9835401D01*
X16883901Y-9785401D02*
X16833901Y-9835401D01*
X16833901Y-10103599D02*
X16883901Y-10153599D01*
X16883901Y-10103599D02*
X16833901Y-10153599D01*
X16993000Y-9719500D02*
X17043000Y-9769500D01*
X17043000Y-9719500D02*
X16993000Y-9769500D01*
X16993000Y-10169500D02*
X17043000Y-10219500D01*
X17043000Y-10169500D02*
X16993000Y-10219500D01*
X17152099Y-9785401D02*
X17202099Y-9835401D01*
X17202099Y-9785401D02*
X17152099Y-9835401D01*
X17152099Y-10103599D02*
X17202099Y-10153599D01*
X17202099Y-10103599D02*
X17152099Y-10153599D01*
X17218000Y-9944500D02*
X17268000Y-9994500D01*
X17268000Y-9944500D02*
X17218000Y-9994500D01*
X11942000Y-7912500D02*
X11992000Y-7962500D01*
X11992000Y-7912500D02*
X11942000Y-7962500D01*
X12007901Y-7753401D02*
X12057901Y-7803401D01*
X12057901Y-7753401D02*
X12007901Y-7803401D01*
X12007901Y-8071599D02*
X12057901Y-8121599D01*
X12057901Y-8071599D02*
X12007901Y-8121599D01*
X12167000Y-7687500D02*
X12217000Y-7737500D01*
X12217000Y-7687500D02*
X12167000Y-7737500D01*
X12167000Y-8137500D02*
X12217000Y-8187500D01*
X12217000Y-8137500D02*
X12167000Y-8187500D01*
X12326099Y-7753401D02*
X12376099Y-7803401D01*
X12376099Y-7753401D02*
X12326099Y-7803401D01*
X12326099Y-8071599D02*
X12376099Y-8121599D01*
X12376099Y-8071599D02*
X12326099Y-8121599D01*
X16330000Y-8300000D02*
G75*
G03X16330000Y-8300000I-30000J0D01*
G01*
X16480000Y-8300000D02*
G75*
G03X16480000Y-8300000I-30000J0D01*
G01*
X13880000Y-12923750D02*
G75*
G03X13880000Y-12923750I-30000J0D01*
G01*
X13870000Y-12958750D02*
X13870000Y-12888750D01*
X13830000Y-12958750D02*
X13830000Y-12888750D01*
X13870000Y-12888750D02*
G75*
G03X13830000Y-12888750I-20000J0D01*
G01*
X13830000Y-12958750D02*
G75*
G03X13870000Y-12958750I20000J0D01*
G01*
X14580000Y-12923750D02*
G75*
G03X14580000Y-12923750I-30000J0D01*
G01*
X14530000Y-12888750D02*
X14530000Y-12958750D01*
X14570000Y-12888750D02*
X14570000Y-12958750D01*
X14530000Y-12958750D02*
G75*
G03X14570000Y-12958750I20000J0D01*
G01*
X14570000Y-12888750D02*
G75*
G03X14530000Y-12888750I-20000J0D01*
G01*
X11550000Y-9610000D02*
X11550000Y-9690000D01*
X11510000Y-9650000D02*
X11590000Y-9650000D01*
X11750000Y-9610000D02*
X11750000Y-9690000D01*
X11710000Y-9650000D02*
X11790000Y-9650000D01*
X11950000Y-9610000D02*
X11950000Y-9690000D01*
X11910000Y-9650000D02*
X11990000Y-9650000D01*
X12150000Y-9610000D02*
X12150000Y-9690000D01*
X12110000Y-9650000D02*
X12190000Y-9650000D01*
X12350000Y-9610000D02*
X12350000Y-9690000D01*
X12310000Y-9650000D02*
X12390000Y-9650000D01*
X12550000Y-9610000D02*
X12550000Y-9690000D01*
X12510000Y-9650000D02*
X12590000Y-9650000D01*
X12750000Y-9610000D02*
X12750000Y-9690000D01*
X12710000Y-9650000D02*
X12790000Y-9650000D01*
X12950000Y-9610000D02*
X12950000Y-9690000D01*
X12910000Y-9650000D02*
X12990000Y-9650000D01*
X14200000Y-9460000D02*
X14200000Y-9540000D01*
X14160000Y-9500000D02*
X14240000Y-9500000D01*
X14454000Y-9460000D02*
X14454000Y-9540000D01*
X14414000Y-9500000D02*
X14494000Y-9500000D01*
X14346000Y-7060000D02*
X14346000Y-7140000D01*
X14306000Y-7100000D02*
X14386000Y-7100000D01*
X14600000Y-7060000D02*
X14600000Y-7140000D01*
X14560000Y-7100000D02*
X14640000Y-7100000D01*
X14800000Y-9460000D02*
X14800000Y-9540000D01*
X14760000Y-9500000D02*
X14840000Y-9500000D01*
X15054000Y-9460000D02*
X15054000Y-9540000D01*
X15014000Y-9500000D02*
X15094000Y-9500000D01*
X13980052Y-12683802D02*
X13980052Y-12623698D01*
X13919948Y-12623698D01*
X13919948Y-12683802D01*
X13980052Y-12683802D01*
X14480052Y-12683802D02*
X14480052Y-12623698D01*
X14419948Y-12623698D01*
X14419948Y-12683802D01*
X14480052Y-12683802D01*
X16330052Y-9130052D02*
X16330052Y-9069948D01*
X16269948Y-9069948D01*
X16269948Y-9130052D01*
X16330052Y-9130052D01*
X16580052Y-9130052D02*
X16580052Y-9069948D01*
X16519948Y-9069948D01*
X16519948Y-9130052D01*
X16580052Y-9130052D01*
X16830052Y-9130052D02*
X16830052Y-9069948D01*
X16769948Y-9069948D01*
X16769948Y-9130052D01*
X16830052Y-9130052D01*
X12530052Y-12130052D02*
X12530052Y-12069948D01*
X12469948Y-12069948D01*
X12469948Y-12130052D01*
X12530052Y-12130052D01*
X12780052Y-12130052D02*
X12780052Y-12069948D01*
X12719948Y-12069948D01*
X12719948Y-12130052D01*
X12780052Y-12130052D01*
X13800000Y-7145000D02*
X13845000Y-7100000D01*
X13800000Y-7055000D01*
X13755000Y-7100000D01*
X13800000Y-7145000D01*
X14054000Y-7145000D02*
X14099000Y-7100000D01*
X14054000Y-7055000D01*
X14009000Y-7100000D01*
X14054000Y-7145000D01*
X14174000Y-11380000D02*
X14274000Y-11480000D01*
X14274000Y-11380000D02*
X14174000Y-11480000D01*
X14274000Y-11430000D02*
G75*
G03X14274000Y-11430000I-50000J0D01*
G01*
X14353605Y-11559605D02*
X14453605Y-11659605D01*
X14453605Y-11559605D02*
X14353605Y-11659605D01*
X14453605Y-11609605D02*
G75*
G03X14453605Y-11609605I-50000J0D01*
G01*
X14533210Y-11739210D02*
X14633210Y-11839210D01*
X14633210Y-11739210D02*
X14533210Y-11839210D01*
X14633210Y-11789210D02*
G75*
G03X14633210Y-11789210I-50000J0D01*
G01*
X14712815Y-11918815D02*
X14812815Y-12018815D01*
X14812815Y-11918815D02*
X14712815Y-12018815D01*
X14812815Y-11968815D02*
G75*
G03X14812815Y-11968815I-50000J0D01*
G01*
X14892420Y-12098420D02*
X14992420Y-12198420D01*
X14992420Y-12098420D02*
X14892420Y-12198420D01*
X14992420Y-12148420D02*
G75*
G03X14992420Y-12148420I-50000J0D01*
G01*
X15072026Y-12278026D02*
X15172026Y-12378026D01*
X15172026Y-12278026D02*
X15072026Y-12378026D01*
X15172026Y-12328026D02*
G75*
G03X15172026Y-12328026I-50000J0D01*
G01*
X15251631Y-12457631D02*
X15351631Y-12557631D01*
X15351631Y-12457631D02*
X15251631Y-12557631D01*
X15351631Y-12507631D02*
G75*
G03X15351631Y-12507631I-50000J0D01*
G01*
X15431236Y-12637236D02*
X15531236Y-12737236D01*
X15531236Y-12637236D02*
X15431236Y-12737236D01*
X15531236Y-12687236D02*
G75*
G03X15531236Y-12687236I-50000J0D01*
G01*
X15444000Y-10110000D02*
X15544000Y-10210000D01*
X15544000Y-10110000D02*
X15444000Y-10210000D01*
X15544000Y-10160000D02*
G75*
G03X15544000Y-10160000I-50000J0D01*
G01*
X15623605Y-10289605D02*
X15723605Y-10389605D01*
X15723605Y-10289605D02*
X15623605Y-10389605D01*
X15723605Y-10339605D02*
G75*
G03X15723605Y-10339605I-50000J0D01*
G01*
X15803210Y-10469210D02*
X15903210Y-10569210D01*
X15903210Y-10469210D02*
X15803210Y-10569210D01*
X15903210Y-10519210D02*
G75*
G03X15903210Y-10519210I-50000J0D01*
G01*
X15982815Y-10648815D02*
X16082815Y-10748815D01*
X16082815Y-10648815D02*
X15982815Y-10748815D01*
X16082815Y-10698815D02*
G75*
G03X16082815Y-10698815I-50000J0D01*
G01*
X16162420Y-10828421D02*
X16262420Y-10928421D01*
X16262420Y-10828421D02*
X16162420Y-10928421D01*
X16262420Y-10878421D02*
G75*
G03X16262420Y-10878421I-50000J0D01*
G01*
X16342026Y-11008026D02*
X16442026Y-11108026D01*
X16442026Y-11008026D02*
X16342026Y-11108026D01*
X16442026Y-11058026D02*
G75*
G03X16442026Y-11058026I-50000J0D01*
G01*
X16521631Y-11187631D02*
X16621631Y-11287631D01*
X16621631Y-11187631D02*
X16521631Y-11287631D01*
X16621631Y-11237631D02*
G75*
G03X16621631Y-11237631I-50000J0D01*
G01*
X16701236Y-11367236D02*
X16801236Y-11467236D01*
X16801236Y-11367236D02*
X16701236Y-11467236D01*
X16801236Y-11417236D02*
G75*
G03X16801236Y-11417236I-50000J0D01*
G01*
X12688000Y-7550000D02*
X12788000Y-7650000D01*
X12788000Y-7550000D02*
X12688000Y-7650000D01*
X12788000Y-7600000D02*
G75*
G03X12788000Y-7600000I-50000J0D01*
G01*
X12688000Y-8566000D02*
X12788000Y-8666000D01*
X12788000Y-8566000D02*
X12688000Y-8666000D01*
X12788000Y-8616000D02*
G75*
G03X12788000Y-8616000I-50000J0D01*
G01*
X12688000Y-8820000D02*
X12788000Y-8920000D01*
X12788000Y-8820000D02*
X12688000Y-8920000D01*
X12788000Y-8870000D02*
G75*
G03X12788000Y-8870000I-50000J0D01*
G01*
X12688000Y-9074000D02*
X12788000Y-9174000D01*
X12788000Y-9074000D02*
X12688000Y-9174000D01*
X12788000Y-9124000D02*
G75*
G03X12788000Y-9124000I-50000J0D01*
G01*
X12942000Y-7550000D02*
X13042000Y-7650000D01*
X13042000Y-7550000D02*
X12942000Y-7650000D01*
X13042000Y-7600000D02*
G75*
G03X13042000Y-7600000I-50000J0D01*
G01*
X12942000Y-9074000D02*
X13042000Y-9174000D01*
X13042000Y-9074000D02*
X12942000Y-9174000D01*
X13042000Y-9124000D02*
G75*
G03X13042000Y-9124000I-50000J0D01*
G01*
X13196000Y-7550000D02*
X13296000Y-7650000D01*
X13296000Y-7550000D02*
X13196000Y-7650000D01*
X13296000Y-7600000D02*
G75*
G03X13296000Y-7600000I-50000J0D01*
G01*
X13196000Y-9074000D02*
X13296000Y-9174000D01*
X13296000Y-9074000D02*
X13196000Y-9174000D01*
X13296000Y-9124000D02*
G75*
G03X13296000Y-9124000I-50000J0D01*
G01*
X13323000Y-8820000D02*
X13423000Y-8920000D01*
X13423000Y-8820000D02*
X13323000Y-8920000D01*
X13423000Y-8870000D02*
G75*
G03X13423000Y-8870000I-50000J0D01*
G01*
X13450000Y-7550000D02*
X13550000Y-7650000D01*
X13550000Y-7550000D02*
X13450000Y-7650000D01*
X13550000Y-7600000D02*
G75*
G03X13550000Y-7600000I-50000J0D01*
G01*
X13450000Y-9074000D02*
X13550000Y-9174000D01*
X13550000Y-9074000D02*
X13450000Y-9174000D01*
X13550000Y-9124000D02*
G75*
G03X13550000Y-9124000I-50000J0D01*
G01*
X13577000Y-8820000D02*
X13677000Y-8920000D01*
X13677000Y-8820000D02*
X13577000Y-8920000D01*
X13677000Y-8870000D02*
G75*
G03X13677000Y-8870000I-50000J0D01*
G01*
X13704000Y-7550000D02*
X13804000Y-7650000D01*
X13804000Y-7550000D02*
X13704000Y-7650000D01*
X13804000Y-7600000D02*
G75*
G03X13804000Y-7600000I-50000J0D01*
G01*
X13704000Y-9074000D02*
X13804000Y-9174000D01*
X13804000Y-9074000D02*
X13704000Y-9174000D01*
X13804000Y-9124000D02*
G75*
G03X13804000Y-9124000I-50000J0D01*
G01*
X13958000Y-7550000D02*
X14058000Y-7650000D01*
X14058000Y-7550000D02*
X13958000Y-7650000D01*
X14058000Y-7600000D02*
G75*
G03X14058000Y-7600000I-50000J0D01*
G01*
X13958000Y-9074000D02*
X14058000Y-9174000D01*
X14058000Y-9074000D02*
X13958000Y-9174000D01*
X14058000Y-9124000D02*
G75*
G03X14058000Y-9124000I-50000J0D01*
G01*
X14212000Y-7550000D02*
X14312000Y-7650000D01*
X14312000Y-7550000D02*
X14212000Y-7650000D01*
X14312000Y-7600000D02*
G75*
G03X14312000Y-7600000I-50000J0D01*
G01*
X14212000Y-9074000D02*
X14312000Y-9174000D01*
X14312000Y-9074000D02*
X14212000Y-9174000D01*
X14312000Y-9124000D02*
G75*
G03X14312000Y-9124000I-50000J0D01*
G01*
X14339000Y-8820000D02*
X14439000Y-8920000D01*
X14439000Y-8820000D02*
X14339000Y-8920000D01*
X14439000Y-8870000D02*
G75*
G03X14439000Y-8870000I-50000J0D01*
G01*
X14466000Y-7550000D02*
X14566000Y-7650000D01*
X14566000Y-7550000D02*
X14466000Y-7650000D01*
X14566000Y-7600000D02*
G75*
G03X14566000Y-7600000I-50000J0D01*
G01*
X14466000Y-9074000D02*
X14566000Y-9174000D01*
X14566000Y-9074000D02*
X14466000Y-9174000D01*
X14566000Y-9124000D02*
G75*
G03X14566000Y-9124000I-50000J0D01*
G01*
X14593000Y-8820000D02*
X14693000Y-8920000D01*
X14693000Y-8820000D02*
X14593000Y-8920000D01*
X14693000Y-8870000D02*
G75*
G03X14693000Y-8870000I-50000J0D01*
G01*
X14720000Y-7550000D02*
X14820000Y-7650000D01*
X14820000Y-7550000D02*
X14720000Y-7650000D01*
X14820000Y-7600000D02*
G75*
G03X14820000Y-7600000I-50000J0D01*
G01*
X14720000Y-9074000D02*
X14820000Y-9174000D01*
X14820000Y-9074000D02*
X14720000Y-9174000D01*
X14820000Y-9124000D02*
G75*
G03X14820000Y-9124000I-50000J0D01*
G01*
X14974000Y-7550000D02*
X15074000Y-7650000D01*
X15074000Y-7550000D02*
X14974000Y-7650000D01*
X15074000Y-7600000D02*
G75*
G03X15074000Y-7600000I-50000J0D01*
G01*
X14974000Y-9074000D02*
X15074000Y-9174000D01*
X15074000Y-9074000D02*
X14974000Y-9174000D01*
X15074000Y-9124000D02*
G75*
G03X15074000Y-9124000I-50000J0D01*
G01*
X15228000Y-7550000D02*
X15328000Y-7650000D01*
X15328000Y-7550000D02*
X15228000Y-7650000D01*
X15328000Y-7600000D02*
G75*
G03X15328000Y-7600000I-50000J0D01*
G01*
X15228000Y-9074000D02*
X15328000Y-9174000D01*
X15328000Y-9074000D02*
X15228000Y-9174000D01*
X15328000Y-9124000D02*
G75*
G03X15328000Y-9124000I-50000J0D01*
G01*
X15482000Y-7550000D02*
X15582000Y-7650000D01*
X15582000Y-7550000D02*
X15482000Y-7650000D01*
X15582000Y-7600000D02*
G75*
G03X15582000Y-7600000I-50000J0D01*
G01*
X15482000Y-9074000D02*
X15582000Y-9174000D01*
X15582000Y-9074000D02*
X15482000Y-9174000D01*
X15582000Y-9124000D02*
G75*
G03X15582000Y-9124000I-50000J0D01*
G01*
X11645000Y-8445000D02*
X11755000Y-8555000D01*
X11755000Y-8445000D02*
X11645000Y-8555000D01*
X11700000Y-8445000D02*
X11700000Y-8555000D01*
X11645000Y-8500000D02*
X11755000Y-8500000D01*
X11645000Y-8895000D02*
X11755000Y-9005000D01*
X11755000Y-8895000D02*
X11645000Y-9005000D01*
X11700000Y-8895000D02*
X11700000Y-9005000D01*
X11645000Y-8950000D02*
X11755000Y-8950000D01*
X12295000Y-8445000D02*
X12405000Y-8555000D01*
X12405000Y-8445000D02*
X12295000Y-8555000D01*
X12350000Y-8445000D02*
X12350000Y-8555000D01*
X12295000Y-8500000D02*
X12405000Y-8500000D01*
X12295000Y-8895000D02*
X12405000Y-9005000D01*
X12405000Y-8895000D02*
X12295000Y-9005000D01*
X12350000Y-8895000D02*
X12350000Y-9005000D01*
X12295000Y-8950000D02*
X12405000Y-8950000D01*
X12076400Y-11372800D02*
X12226400Y-11522800D01*
X12226400Y-11372800D02*
X12076400Y-11522800D01*
X12204433Y-11500833D02*
X12204433Y-11394766D01*
X12098366Y-11394766D01*
X12098366Y-11500833D01*
X12204433Y-11500833D01*
X13121500Y-12550000D02*
X13421500Y-12850000D01*
X13421500Y-12550000D02*
X13121500Y-12850000D01*
X13271500Y-12850000D02*
X13421500Y-12700000D01*
X13271500Y-12550000D01*
X13121500Y-12700000D01*
X13271500Y-12850000D01*
X16868000Y-9819500D02*
X17168000Y-10119500D01*
X17168000Y-9819500D02*
X16868000Y-10119500D01*
X17018000Y-10119500D02*
X17168000Y-9969500D01*
X17018000Y-9819500D01*
X16868000Y-9969500D01*
X17018000Y-10119500D01*
X12042000Y-7787500D02*
X12342000Y-8087500D01*
X12342000Y-7787500D02*
X12042000Y-8087500D01*
X12192000Y-8087500D02*
X12342000Y-7937500D01*
X12192000Y-7787500D01*
X12042000Y-7937500D01*
X12192000Y-8087500D01*
D12*
X11229122Y-13698117D02*
X11229122Y-13398117D01*
X11300551Y-13398117D01*
X11343408Y-13412403D01*
X11371979Y-13440975D01*
X11386265Y-13469546D01*
X11400551Y-13526689D01*
X11400551Y-13569546D01*
X11386265Y-13626689D01*
X11371979Y-13655260D01*
X11343408Y-13683832D01*
X11300551Y-13698117D01*
X11229122Y-13698117D01*
X11529122Y-13698117D02*
X11529122Y-13498117D01*
X11529122Y-13555260D02*
X11543408Y-13526689D01*
X11557694Y-13512403D01*
X11586265Y-13498117D01*
X11614837Y-13498117D01*
X11714837Y-13698117D02*
X11714837Y-13498117D01*
X11714837Y-13398117D02*
X11700551Y-13412403D01*
X11714837Y-13426689D01*
X11729122Y-13412403D01*
X11714837Y-13398117D01*
X11714837Y-13426689D01*
X11900551Y-13698117D02*
X11871979Y-13683832D01*
X11857694Y-13655260D01*
X11857694Y-13398117D01*
X12057694Y-13698117D02*
X12029122Y-13683832D01*
X12014837Y-13655260D01*
X12014837Y-13398117D01*
X12400551Y-13698117D02*
X12400551Y-13398117D01*
X12500551Y-13612403D01*
X12600551Y-13398117D01*
X12600551Y-13698117D01*
X12871979Y-13698117D02*
X12871979Y-13540975D01*
X12857694Y-13512403D01*
X12829122Y-13498117D01*
X12771979Y-13498117D01*
X12743408Y-13512403D01*
X12871979Y-13683832D02*
X12843408Y-13698117D01*
X12771979Y-13698117D01*
X12743408Y-13683832D01*
X12729122Y-13655260D01*
X12729122Y-13626689D01*
X12743408Y-13598117D01*
X12771979Y-13583832D01*
X12843408Y-13583832D01*
X12871979Y-13569546D01*
X13014837Y-13498117D02*
X13014837Y-13798117D01*
X13014837Y-13512403D02*
X13043408Y-13498117D01*
X13100551Y-13498117D01*
X13129122Y-13512403D01*
X13143408Y-13526689D01*
X13157694Y-13555260D01*
X13157694Y-13640975D01*
X13143408Y-13669546D01*
X13129122Y-13683832D01*
X13100551Y-13698117D01*
X13043408Y-13698117D01*
X13014837Y-13683832D01*
X13286265Y-13669546D02*
X13300551Y-13683832D01*
X13286265Y-13698117D01*
X13271979Y-13683832D01*
X13286265Y-13669546D01*
X13286265Y-13698117D01*
X13286265Y-13512403D02*
X13300551Y-13526689D01*
X13286265Y-13540975D01*
X13271979Y-13526689D01*
X13286265Y-13512403D01*
X13286265Y-13540975D01*
X10892694Y-14167403D02*
X10942694Y-14217403D01*
X10942694Y-14167403D02*
X10892694Y-14217403D01*
X11286265Y-14028117D02*
X11314837Y-14028117D01*
X11343408Y-14042403D01*
X11357694Y-14056689D01*
X11371979Y-14085260D01*
X11386265Y-14142403D01*
X11386265Y-14213832D01*
X11371979Y-14270975D01*
X11357694Y-14299546D01*
X11343408Y-14313832D01*
X11314837Y-14328117D01*
X11286265Y-14328117D01*
X11257694Y-14313832D01*
X11243408Y-14299546D01*
X11229122Y-14270975D01*
X11214837Y-14213832D01*
X11214837Y-14142403D01*
X11229122Y-14085260D01*
X11243408Y-14056689D01*
X11257694Y-14042403D01*
X11286265Y-14028117D01*
X11514837Y-14299546D02*
X11529122Y-14313832D01*
X11514837Y-14328117D01*
X11500551Y-14313832D01*
X11514837Y-14299546D01*
X11514837Y-14328117D01*
X11800551Y-14028117D02*
X11657694Y-14028117D01*
X11643408Y-14170975D01*
X11657694Y-14156689D01*
X11686265Y-14142403D01*
X11757694Y-14142403D01*
X11786265Y-14156689D01*
X11800551Y-14170975D01*
X11814837Y-14199546D01*
X11814837Y-14270975D01*
X11800551Y-14299546D01*
X11786265Y-14313832D01*
X11757694Y-14328117D01*
X11686265Y-14328117D01*
X11657694Y-14313832D01*
X11643408Y-14299546D01*
X12000551Y-14028117D02*
X12029122Y-14028117D01*
X12057694Y-14042403D01*
X12071979Y-14056689D01*
X12086265Y-14085260D01*
X12100551Y-14142403D01*
X12100551Y-14213832D01*
X12086265Y-14270975D01*
X12071979Y-14299546D01*
X12057694Y-14313832D01*
X12029122Y-14328117D01*
X12000551Y-14328117D01*
X11971979Y-14313832D01*
X11957694Y-14299546D01*
X11943408Y-14270975D01*
X11929122Y-14213832D01*
X11929122Y-14142403D01*
X11943408Y-14085260D01*
X11957694Y-14056689D01*
X11971979Y-14042403D01*
X12000551Y-14028117D01*
X12229122Y-14328117D02*
X12229122Y-14128117D01*
X12229122Y-14156689D02*
X12243408Y-14142403D01*
X12271979Y-14128117D01*
X12314837Y-14128117D01*
X12343408Y-14142403D01*
X12357694Y-14170975D01*
X12357694Y-14328117D01*
X12357694Y-14170975D02*
X12371979Y-14142403D01*
X12400551Y-14128117D01*
X12443408Y-14128117D01*
X12471979Y-14142403D01*
X12486265Y-14170975D01*
X12486265Y-14328117D01*
X12629122Y-14328117D02*
X12629122Y-14128117D01*
X12629122Y-14156689D02*
X12643408Y-14142403D01*
X12671979Y-14128117D01*
X12714837Y-14128117D01*
X12743408Y-14142403D01*
X12757694Y-14170975D01*
X12757694Y-14328117D01*
X12757694Y-14170975D02*
X12771979Y-14142403D01*
X12800551Y-14128117D01*
X12843408Y-14128117D01*
X12871979Y-14142403D01*
X12886265Y-14170975D01*
X12886265Y-14328117D01*
X13471979Y-14013832D02*
X13214837Y-14399546D01*
X13857694Y-14028117D02*
X13886265Y-14028117D01*
X13914837Y-14042403D01*
X13929122Y-14056689D01*
X13943408Y-14085260D01*
X13957694Y-14142403D01*
X13957694Y-14213832D01*
X13943408Y-14270975D01*
X13929122Y-14299546D01*
X13914837Y-14313832D01*
X13886265Y-14328117D01*
X13857694Y-14328117D01*
X13829122Y-14313832D01*
X13814837Y-14299546D01*
X13800551Y-14270975D01*
X13786265Y-14213832D01*
X13786265Y-14142403D01*
X13800551Y-14085260D01*
X13814837Y-14056689D01*
X13829122Y-14042403D01*
X13857694Y-14028117D01*
X14086265Y-14299546D02*
X14100551Y-14313832D01*
X14086265Y-14328117D01*
X14071979Y-14313832D01*
X14086265Y-14299546D01*
X14086265Y-14328117D01*
X14286265Y-14028117D02*
X14314837Y-14028117D01*
X14343408Y-14042403D01*
X14357694Y-14056689D01*
X14371979Y-14085260D01*
X14386265Y-14142403D01*
X14386265Y-14213832D01*
X14371979Y-14270975D01*
X14357694Y-14299546D01*
X14343408Y-14313832D01*
X14314837Y-14328117D01*
X14286265Y-14328117D01*
X14257694Y-14313832D01*
X14243408Y-14299546D01*
X14229122Y-14270975D01*
X14214837Y-14213832D01*
X14214837Y-14142403D01*
X14229122Y-14085260D01*
X14243408Y-14056689D01*
X14257694Y-14042403D01*
X14286265Y-14028117D01*
X14500551Y-14056689D02*
X14514837Y-14042403D01*
X14543408Y-14028117D01*
X14614837Y-14028117D01*
X14643408Y-14042403D01*
X14657694Y-14056689D01*
X14671979Y-14085260D01*
X14671979Y-14113832D01*
X14657694Y-14156689D01*
X14486265Y-14328117D01*
X14671979Y-14328117D01*
X14857694Y-14028117D02*
X14886265Y-14028117D01*
X14914837Y-14042403D01*
X14929122Y-14056689D01*
X14943408Y-14085260D01*
X14957694Y-14142403D01*
X14957694Y-14213832D01*
X14943408Y-14270975D01*
X14929122Y-14299546D01*
X14914837Y-14313832D01*
X14886265Y-14328117D01*
X14857694Y-14328117D01*
X14829122Y-14313832D01*
X14814837Y-14299546D01*
X14800551Y-14270975D01*
X14786265Y-14213832D01*
X14786265Y-14142403D01*
X14800551Y-14085260D01*
X14814837Y-14056689D01*
X14829122Y-14042403D01*
X14857694Y-14028117D01*
X15071979Y-14028117D02*
X15071979Y-14085260D01*
X15186265Y-14028117D02*
X15186265Y-14085260D01*
X15629122Y-14442403D02*
X15614837Y-14428117D01*
X15586265Y-14385260D01*
X15571979Y-14356689D01*
X15557694Y-14313832D01*
X15543408Y-14242403D01*
X15543408Y-14185260D01*
X15557694Y-14113832D01*
X15571979Y-14070975D01*
X15586265Y-14042403D01*
X15614837Y-13999546D01*
X15629122Y-13985260D01*
X15729122Y-14056689D02*
X15743408Y-14042403D01*
X15771979Y-14028117D01*
X15843408Y-14028117D01*
X15871979Y-14042403D01*
X15886265Y-14056689D01*
X15900551Y-14085260D01*
X15900551Y-14113832D01*
X15886265Y-14156689D01*
X15714837Y-14328117D01*
X15900551Y-14328117D01*
X16157694Y-14128117D02*
X16157694Y-14328117D01*
X16086265Y-14013832D02*
X16014837Y-14228117D01*
X16200551Y-14228117D01*
X16543408Y-14328117D02*
X16543408Y-14028117D01*
X16671979Y-14328117D02*
X16671979Y-14170975D01*
X16657694Y-14142403D01*
X16629122Y-14128117D01*
X16586265Y-14128117D01*
X16557694Y-14142403D01*
X16543408Y-14156689D01*
X16857694Y-14328117D02*
X16829122Y-14313832D01*
X16814837Y-14299546D01*
X16800551Y-14270975D01*
X16800551Y-14185260D01*
X16814837Y-14156689D01*
X16829122Y-14142403D01*
X16857694Y-14128117D01*
X16900551Y-14128117D01*
X16929122Y-14142403D01*
X16943408Y-14156689D01*
X16957694Y-14185260D01*
X16957694Y-14270975D01*
X16943408Y-14299546D01*
X16929122Y-14313832D01*
X16900551Y-14328117D01*
X16857694Y-14328117D01*
X17129122Y-14328117D02*
X17100551Y-14313832D01*
X17086265Y-14285260D01*
X17086265Y-14028117D01*
X17357694Y-14313832D02*
X17329122Y-14328117D01*
X17271980Y-14328117D01*
X17243408Y-14313832D01*
X17229122Y-14285260D01*
X17229122Y-14170975D01*
X17243408Y-14142403D01*
X17271980Y-14128117D01*
X17329122Y-14128117D01*
X17357694Y-14142403D01*
X17371980Y-14170975D01*
X17371980Y-14199546D01*
X17229122Y-14228117D01*
X17486265Y-14313832D02*
X17514837Y-14328117D01*
X17571980Y-14328117D01*
X17600551Y-14313832D01*
X17614837Y-14285260D01*
X17614837Y-14270975D01*
X17600551Y-14242403D01*
X17571980Y-14228117D01*
X17529122Y-14228117D01*
X17500551Y-14213832D01*
X17486265Y-14185260D01*
X17486265Y-14170975D01*
X17500551Y-14142403D01*
X17529122Y-14128117D01*
X17571980Y-14128117D01*
X17600551Y-14142403D01*
X17714837Y-14442403D02*
X17729122Y-14428117D01*
X17757694Y-14385260D01*
X17771980Y-14356689D01*
X17786265Y-14313832D01*
X17800551Y-14242403D01*
X17800551Y-14185260D01*
X17786265Y-14113832D01*
X17771980Y-14070975D01*
X17757694Y-14042403D01*
X17729122Y-13999546D01*
X17714837Y-13985260D01*
X10942694Y-14588403D02*
G75*
G03X10942694Y-14588403I-30000J0D01*
G01*
X11286265Y-14424117D02*
X11314837Y-14424117D01*
X11343408Y-14438403D01*
X11357694Y-14452689D01*
X11371979Y-14481260D01*
X11386265Y-14538403D01*
X11386265Y-14609832D01*
X11371979Y-14666975D01*
X11357694Y-14695546D01*
X11343408Y-14709832D01*
X11314837Y-14724117D01*
X11286265Y-14724117D01*
X11257694Y-14709832D01*
X11243408Y-14695546D01*
X11229122Y-14666975D01*
X11214837Y-14609832D01*
X11214837Y-14538403D01*
X11229122Y-14481260D01*
X11243408Y-14452689D01*
X11257694Y-14438403D01*
X11286265Y-14424117D01*
X11514837Y-14695546D02*
X11529122Y-14709832D01*
X11514837Y-14724117D01*
X11500551Y-14709832D01*
X11514837Y-14695546D01*
X11514837Y-14724117D01*
X11786265Y-14424117D02*
X11729122Y-14424117D01*
X11700551Y-14438403D01*
X11686265Y-14452689D01*
X11657694Y-14495546D01*
X11643408Y-14552689D01*
X11643408Y-14666975D01*
X11657694Y-14695546D01*
X11671979Y-14709832D01*
X11700551Y-14724117D01*
X11757694Y-14724117D01*
X11786265Y-14709832D01*
X11800551Y-14695546D01*
X11814837Y-14666975D01*
X11814837Y-14595546D01*
X11800551Y-14566975D01*
X11786265Y-14552689D01*
X11757694Y-14538403D01*
X11700551Y-14538403D01*
X11671979Y-14552689D01*
X11657694Y-14566975D01*
X11643408Y-14595546D01*
X12000551Y-14424117D02*
X12029122Y-14424117D01*
X12057694Y-14438403D01*
X12071979Y-14452689D01*
X12086265Y-14481260D01*
X12100551Y-14538403D01*
X12100551Y-14609832D01*
X12086265Y-14666975D01*
X12071979Y-14695546D01*
X12057694Y-14709832D01*
X12029122Y-14724117D01*
X12000551Y-14724117D01*
X11971979Y-14709832D01*
X11957694Y-14695546D01*
X11943408Y-14666975D01*
X11929122Y-14609832D01*
X11929122Y-14538403D01*
X11943408Y-14481260D01*
X11957694Y-14452689D01*
X11971979Y-14438403D01*
X12000551Y-14424117D01*
X12229122Y-14724117D02*
X12229122Y-14524117D01*
X12229122Y-14552689D02*
X12243408Y-14538403D01*
X12271979Y-14524117D01*
X12314837Y-14524117D01*
X12343408Y-14538403D01*
X12357694Y-14566975D01*
X12357694Y-14724117D01*
X12357694Y-14566975D02*
X12371979Y-14538403D01*
X12400551Y-14524117D01*
X12443408Y-14524117D01*
X12471979Y-14538403D01*
X12486265Y-14566975D01*
X12486265Y-14724117D01*
X12629122Y-14724117D02*
X12629122Y-14524117D01*
X12629122Y-14552689D02*
X12643408Y-14538403D01*
X12671979Y-14524117D01*
X12714837Y-14524117D01*
X12743408Y-14538403D01*
X12757694Y-14566975D01*
X12757694Y-14724117D01*
X12757694Y-14566975D02*
X12771979Y-14538403D01*
X12800551Y-14524117D01*
X12843408Y-14524117D01*
X12871979Y-14538403D01*
X12886265Y-14566975D01*
X12886265Y-14724117D01*
X13471979Y-14409832D02*
X13214837Y-14795546D01*
X13857694Y-14424117D02*
X13886265Y-14424117D01*
X13914837Y-14438403D01*
X13929122Y-14452689D01*
X13943408Y-14481260D01*
X13957694Y-14538403D01*
X13957694Y-14609832D01*
X13943408Y-14666975D01*
X13929122Y-14695546D01*
X13914837Y-14709832D01*
X13886265Y-14724117D01*
X13857694Y-14724117D01*
X13829122Y-14709832D01*
X13814837Y-14695546D01*
X13800551Y-14666975D01*
X13786265Y-14609832D01*
X13786265Y-14538403D01*
X13800551Y-14481260D01*
X13814837Y-14452689D01*
X13829122Y-14438403D01*
X13857694Y-14424117D01*
X14086265Y-14695546D02*
X14100551Y-14709832D01*
X14086265Y-14724117D01*
X14071979Y-14709832D01*
X14086265Y-14695546D01*
X14086265Y-14724117D01*
X14286265Y-14424117D02*
X14314837Y-14424117D01*
X14343408Y-14438403D01*
X14357694Y-14452689D01*
X14371979Y-14481260D01*
X14386265Y-14538403D01*
X14386265Y-14609832D01*
X14371979Y-14666975D01*
X14357694Y-14695546D01*
X14343408Y-14709832D01*
X14314837Y-14724117D01*
X14286265Y-14724117D01*
X14257694Y-14709832D01*
X14243408Y-14695546D01*
X14229122Y-14666975D01*
X14214837Y-14609832D01*
X14214837Y-14538403D01*
X14229122Y-14481260D01*
X14243408Y-14452689D01*
X14257694Y-14438403D01*
X14286265Y-14424117D01*
X14500551Y-14452689D02*
X14514837Y-14438403D01*
X14543408Y-14424117D01*
X14614837Y-14424117D01*
X14643408Y-14438403D01*
X14657694Y-14452689D01*
X14671979Y-14481260D01*
X14671979Y-14509832D01*
X14657694Y-14552689D01*
X14486265Y-14724117D01*
X14671979Y-14724117D01*
X14929122Y-14524117D02*
X14929122Y-14724117D01*
X14857694Y-14409832D02*
X14786265Y-14624117D01*
X14971979Y-14624117D01*
X15071979Y-14424117D02*
X15071979Y-14481260D01*
X15186265Y-14424117D02*
X15186265Y-14481260D01*
X15629122Y-14838403D02*
X15614837Y-14824117D01*
X15586265Y-14781260D01*
X15571979Y-14752689D01*
X15557694Y-14709832D01*
X15543408Y-14638403D01*
X15543408Y-14581260D01*
X15557694Y-14509832D01*
X15571979Y-14466975D01*
X15586265Y-14438403D01*
X15614837Y-14395546D01*
X15629122Y-14381260D01*
X15729122Y-14452689D02*
X15743408Y-14438403D01*
X15771979Y-14424117D01*
X15843408Y-14424117D01*
X15871979Y-14438403D01*
X15886265Y-14452689D01*
X15900551Y-14481260D01*
X15900551Y-14509832D01*
X15886265Y-14552689D01*
X15714837Y-14724117D01*
X15900551Y-14724117D01*
X16257694Y-14724117D02*
X16257694Y-14424117D01*
X16386265Y-14724117D02*
X16386265Y-14566975D01*
X16371979Y-14538403D01*
X16343408Y-14524117D01*
X16300551Y-14524117D01*
X16271979Y-14538403D01*
X16257694Y-14552689D01*
X16571979Y-14724117D02*
X16543408Y-14709832D01*
X16529122Y-14695546D01*
X16514837Y-14666975D01*
X16514837Y-14581260D01*
X16529122Y-14552689D01*
X16543408Y-14538403D01*
X16571979Y-14524117D01*
X16614837Y-14524117D01*
X16643408Y-14538403D01*
X16657694Y-14552689D01*
X16671979Y-14581260D01*
X16671979Y-14666975D01*
X16657694Y-14695546D01*
X16643408Y-14709832D01*
X16614837Y-14724117D01*
X16571979Y-14724117D01*
X16843408Y-14724117D02*
X16814837Y-14709832D01*
X16800551Y-14681260D01*
X16800551Y-14424117D01*
X17071980Y-14709832D02*
X17043408Y-14724117D01*
X16986265Y-14724117D01*
X16957694Y-14709832D01*
X16943408Y-14681260D01*
X16943408Y-14566975D01*
X16957694Y-14538403D01*
X16986265Y-14524117D01*
X17043408Y-14524117D01*
X17071980Y-14538403D01*
X17086265Y-14566975D01*
X17086265Y-14595546D01*
X16943408Y-14624117D01*
X17200551Y-14709832D02*
X17229122Y-14724117D01*
X17286265Y-14724117D01*
X17314837Y-14709832D01*
X17329122Y-14681260D01*
X17329122Y-14666975D01*
X17314837Y-14638403D01*
X17286265Y-14624117D01*
X17243408Y-14624117D01*
X17214837Y-14609832D01*
X17200551Y-14581260D01*
X17200551Y-14566975D01*
X17214837Y-14538403D01*
X17243408Y-14524117D01*
X17286265Y-14524117D01*
X17314837Y-14538403D01*
X17686265Y-14609832D02*
X17914837Y-14609832D01*
X17800551Y-14724117D02*
X17800551Y-14495546D01*
X18271980Y-14452689D02*
X18286265Y-14438403D01*
X18314837Y-14424117D01*
X18386265Y-14424117D01*
X18414837Y-14438403D01*
X18429122Y-14452689D01*
X18443408Y-14481260D01*
X18443408Y-14509832D01*
X18429122Y-14552689D01*
X18257694Y-14724117D01*
X18443408Y-14724117D01*
X18786265Y-14709832D02*
X18814837Y-14724117D01*
X18871980Y-14724117D01*
X18900551Y-14709832D01*
X18914837Y-14681260D01*
X18914837Y-14666975D01*
X18900551Y-14638403D01*
X18871980Y-14624117D01*
X18829122Y-14624117D01*
X18800551Y-14609832D01*
X18786265Y-14581260D01*
X18786265Y-14566975D01*
X18800551Y-14538403D01*
X18829122Y-14524117D01*
X18871980Y-14524117D01*
X18900551Y-14538403D01*
X19086265Y-14724117D02*
X19057694Y-14709832D01*
X19043408Y-14681260D01*
X19043408Y-14424117D01*
X19243408Y-14724117D02*
X19214837Y-14709832D01*
X19200551Y-14695546D01*
X19186265Y-14666975D01*
X19186265Y-14581260D01*
X19200551Y-14552689D01*
X19214837Y-14538403D01*
X19243408Y-14524117D01*
X19286265Y-14524117D01*
X19314837Y-14538403D01*
X19329122Y-14552689D01*
X19343408Y-14581260D01*
X19343408Y-14666975D01*
X19329122Y-14695546D01*
X19314837Y-14709832D01*
X19286265Y-14724117D01*
X19243408Y-14724117D01*
X19429122Y-14524117D02*
X19543408Y-14524117D01*
X19471980Y-14424117D02*
X19471980Y-14681260D01*
X19486265Y-14709832D01*
X19514837Y-14724117D01*
X19543408Y-14724117D01*
X19629122Y-14709832D02*
X19657694Y-14724117D01*
X19714837Y-14724117D01*
X19743408Y-14709832D01*
X19757694Y-14681260D01*
X19757694Y-14666975D01*
X19743408Y-14638403D01*
X19714837Y-14624117D01*
X19671980Y-14624117D01*
X19643408Y-14609832D01*
X19629122Y-14581260D01*
X19629122Y-14566975D01*
X19643408Y-14538403D01*
X19671980Y-14524117D01*
X19714837Y-14524117D01*
X19743408Y-14538403D01*
X19857694Y-14838403D02*
X19871980Y-14824117D01*
X19900551Y-14781260D01*
X19914837Y-14752689D01*
X19929122Y-14709832D01*
X19943408Y-14638403D01*
X19943408Y-14581260D01*
X19929122Y-14509832D01*
X19914837Y-14466975D01*
X19900551Y-14438403D01*
X19871980Y-14395546D01*
X19857694Y-14381260D01*
X10902694Y-14944403D02*
X10902694Y-15024403D01*
X10862694Y-14984403D02*
X10942694Y-14984403D01*
X11286265Y-14820117D02*
X11314837Y-14820117D01*
X11343408Y-14834403D01*
X11357694Y-14848689D01*
X11371979Y-14877260D01*
X11386265Y-14934403D01*
X11386265Y-15005832D01*
X11371979Y-15062975D01*
X11357694Y-15091546D01*
X11343408Y-15105832D01*
X11314837Y-15120117D01*
X11286265Y-15120117D01*
X11257694Y-15105832D01*
X11243408Y-15091546D01*
X11229122Y-15062975D01*
X11214837Y-15005832D01*
X11214837Y-14934403D01*
X11229122Y-14877260D01*
X11243408Y-14848689D01*
X11257694Y-14834403D01*
X11286265Y-14820117D01*
X11514837Y-15091546D02*
X11529122Y-15105832D01*
X11514837Y-15120117D01*
X11500551Y-15105832D01*
X11514837Y-15091546D01*
X11514837Y-15120117D01*
X11700551Y-14948689D02*
X11671979Y-14934403D01*
X11657694Y-14920117D01*
X11643408Y-14891546D01*
X11643408Y-14877260D01*
X11657694Y-14848689D01*
X11671979Y-14834403D01*
X11700551Y-14820117D01*
X11757694Y-14820117D01*
X11786265Y-14834403D01*
X11800551Y-14848689D01*
X11814837Y-14877260D01*
X11814837Y-14891546D01*
X11800551Y-14920117D01*
X11786265Y-14934403D01*
X11757694Y-14948689D01*
X11700551Y-14948689D01*
X11671979Y-14962975D01*
X11657694Y-14977260D01*
X11643408Y-15005832D01*
X11643408Y-15062975D01*
X11657694Y-15091546D01*
X11671979Y-15105832D01*
X11700551Y-15120117D01*
X11757694Y-15120117D01*
X11786265Y-15105832D01*
X11800551Y-15091546D01*
X11814837Y-15062975D01*
X11814837Y-15005832D01*
X11800551Y-14977260D01*
X11786265Y-14962975D01*
X11757694Y-14948689D01*
X12000551Y-14820117D02*
X12029122Y-14820117D01*
X12057694Y-14834403D01*
X12071979Y-14848689D01*
X12086265Y-14877260D01*
X12100551Y-14934403D01*
X12100551Y-15005832D01*
X12086265Y-15062975D01*
X12071979Y-15091546D01*
X12057694Y-15105832D01*
X12029122Y-15120117D01*
X12000551Y-15120117D01*
X11971979Y-15105832D01*
X11957694Y-15091546D01*
X11943408Y-15062975D01*
X11929122Y-15005832D01*
X11929122Y-14934403D01*
X11943408Y-14877260D01*
X11957694Y-14848689D01*
X11971979Y-14834403D01*
X12000551Y-14820117D01*
X12229122Y-15120117D02*
X12229122Y-14920117D01*
X12229122Y-14948689D02*
X12243408Y-14934403D01*
X12271979Y-14920117D01*
X12314837Y-14920117D01*
X12343408Y-14934403D01*
X12357694Y-14962975D01*
X12357694Y-15120117D01*
X12357694Y-14962975D02*
X12371979Y-14934403D01*
X12400551Y-14920117D01*
X12443408Y-14920117D01*
X12471979Y-14934403D01*
X12486265Y-14962975D01*
X12486265Y-15120117D01*
X12629122Y-15120117D02*
X12629122Y-14920117D01*
X12629122Y-14948689D02*
X12643408Y-14934403D01*
X12671979Y-14920117D01*
X12714837Y-14920117D01*
X12743408Y-14934403D01*
X12757694Y-14962975D01*
X12757694Y-15120117D01*
X12757694Y-14962975D02*
X12771979Y-14934403D01*
X12800551Y-14920117D01*
X12843408Y-14920117D01*
X12871979Y-14934403D01*
X12886265Y-14962975D01*
X12886265Y-15120117D01*
X13471979Y-14805832D02*
X13214837Y-15191546D01*
X13857694Y-14820117D02*
X13886265Y-14820117D01*
X13914837Y-14834403D01*
X13929122Y-14848689D01*
X13943408Y-14877260D01*
X13957694Y-14934403D01*
X13957694Y-15005832D01*
X13943408Y-15062975D01*
X13929122Y-15091546D01*
X13914837Y-15105832D01*
X13886265Y-15120117D01*
X13857694Y-15120117D01*
X13829122Y-15105832D01*
X13814837Y-15091546D01*
X13800551Y-15062975D01*
X13786265Y-15005832D01*
X13786265Y-14934403D01*
X13800551Y-14877260D01*
X13814837Y-14848689D01*
X13829122Y-14834403D01*
X13857694Y-14820117D01*
X14086265Y-15091546D02*
X14100551Y-15105832D01*
X14086265Y-15120117D01*
X14071979Y-15105832D01*
X14086265Y-15091546D01*
X14086265Y-15120117D01*
X14286265Y-14820117D02*
X14314837Y-14820117D01*
X14343408Y-14834403D01*
X14357694Y-14848689D01*
X14371979Y-14877260D01*
X14386265Y-14934403D01*
X14386265Y-15005832D01*
X14371979Y-15062975D01*
X14357694Y-15091546D01*
X14343408Y-15105832D01*
X14314837Y-15120117D01*
X14286265Y-15120117D01*
X14257694Y-15105832D01*
X14243408Y-15091546D01*
X14229122Y-15062975D01*
X14214837Y-15005832D01*
X14214837Y-14934403D01*
X14229122Y-14877260D01*
X14243408Y-14848689D01*
X14257694Y-14834403D01*
X14286265Y-14820117D01*
X14486265Y-14820117D02*
X14671979Y-14820117D01*
X14571979Y-14934403D01*
X14614837Y-14934403D01*
X14643408Y-14948689D01*
X14657694Y-14962975D01*
X14671979Y-14991546D01*
X14671979Y-15062975D01*
X14657694Y-15091546D01*
X14643408Y-15105832D01*
X14614837Y-15120117D01*
X14529122Y-15120117D01*
X14500551Y-15105832D01*
X14486265Y-15091546D01*
X14957694Y-15120117D02*
X14786265Y-15120117D01*
X14871979Y-15120117D02*
X14871979Y-14820117D01*
X14843408Y-14862975D01*
X14814837Y-14891546D01*
X14786265Y-14905832D01*
X15071979Y-14820117D02*
X15071979Y-14877260D01*
X15186265Y-14820117D02*
X15186265Y-14877260D01*
X15629122Y-15234403D02*
X15614837Y-15220117D01*
X15586265Y-15177260D01*
X15571979Y-15148689D01*
X15557694Y-15105832D01*
X15543408Y-15034403D01*
X15543408Y-14977260D01*
X15557694Y-14905832D01*
X15571979Y-14862975D01*
X15586265Y-14834403D01*
X15614837Y-14791546D01*
X15629122Y-14777260D01*
X15900551Y-15120117D02*
X15729122Y-15120117D01*
X15814837Y-15120117D02*
X15814837Y-14820117D01*
X15786265Y-14862975D01*
X15757694Y-14891546D01*
X15729122Y-14905832D01*
X16157694Y-14920117D02*
X16157694Y-15120117D01*
X16086265Y-14805832D02*
X16014837Y-15020117D01*
X16200551Y-15020117D01*
X16543408Y-15120117D02*
X16543408Y-14820117D01*
X16671979Y-15120117D02*
X16671979Y-14962975D01*
X16657694Y-14934403D01*
X16629122Y-14920117D01*
X16586265Y-14920117D01*
X16557694Y-14934403D01*
X16543408Y-14948689D01*
X16857694Y-15120117D02*
X16829122Y-15105832D01*
X16814837Y-15091546D01*
X16800551Y-15062975D01*
X16800551Y-14977260D01*
X16814837Y-14948689D01*
X16829122Y-14934403D01*
X16857694Y-14920117D01*
X16900551Y-14920117D01*
X16929122Y-14934403D01*
X16943408Y-14948689D01*
X16957694Y-14977260D01*
X16957694Y-15062975D01*
X16943408Y-15091546D01*
X16929122Y-15105832D01*
X16900551Y-15120117D01*
X16857694Y-15120117D01*
X17129122Y-15120117D02*
X17100551Y-15105832D01*
X17086265Y-15077260D01*
X17086265Y-14820117D01*
X17357694Y-15105832D02*
X17329122Y-15120117D01*
X17271980Y-15120117D01*
X17243408Y-15105832D01*
X17229122Y-15077260D01*
X17229122Y-14962975D01*
X17243408Y-14934403D01*
X17271980Y-14920117D01*
X17329122Y-14920117D01*
X17357694Y-14934403D01*
X17371980Y-14962975D01*
X17371980Y-14991546D01*
X17229122Y-15020117D01*
X17486265Y-15105832D02*
X17514837Y-15120117D01*
X17571980Y-15120117D01*
X17600551Y-15105832D01*
X17614837Y-15077260D01*
X17614837Y-15062975D01*
X17600551Y-15034403D01*
X17571980Y-15020117D01*
X17529122Y-15020117D01*
X17500551Y-15005832D01*
X17486265Y-14977260D01*
X17486265Y-14962975D01*
X17500551Y-14934403D01*
X17529122Y-14920117D01*
X17571980Y-14920117D01*
X17600551Y-14934403D01*
X17714837Y-15234403D02*
X17729122Y-15220117D01*
X17757694Y-15177260D01*
X17771980Y-15148689D01*
X17786265Y-15105832D01*
X17800551Y-15034403D01*
X17800551Y-14977260D01*
X17786265Y-14905832D01*
X17771980Y-14862975D01*
X17757694Y-14834403D01*
X17729122Y-14791546D01*
X17714837Y-14777260D01*
X10930246Y-15410455D02*
X10930246Y-15350351D01*
X10870142Y-15350351D01*
X10870142Y-15410455D01*
X10930246Y-15410455D01*
X11286265Y-15216117D02*
X11314837Y-15216117D01*
X11343408Y-15230403D01*
X11357694Y-15244689D01*
X11371979Y-15273260D01*
X11386265Y-15330403D01*
X11386265Y-15401832D01*
X11371979Y-15458975D01*
X11357694Y-15487546D01*
X11343408Y-15501832D01*
X11314837Y-15516117D01*
X11286265Y-15516117D01*
X11257694Y-15501832D01*
X11243408Y-15487546D01*
X11229122Y-15458975D01*
X11214837Y-15401832D01*
X11214837Y-15330403D01*
X11229122Y-15273260D01*
X11243408Y-15244689D01*
X11257694Y-15230403D01*
X11286265Y-15216117D01*
X11514837Y-15487546D02*
X11529122Y-15501832D01*
X11514837Y-15516117D01*
X11500551Y-15501832D01*
X11514837Y-15487546D01*
X11514837Y-15516117D01*
X11700551Y-15344689D02*
X11671979Y-15330403D01*
X11657694Y-15316117D01*
X11643408Y-15287546D01*
X11643408Y-15273260D01*
X11657694Y-15244689D01*
X11671979Y-15230403D01*
X11700551Y-15216117D01*
X11757694Y-15216117D01*
X11786265Y-15230403D01*
X11800551Y-15244689D01*
X11814837Y-15273260D01*
X11814837Y-15287546D01*
X11800551Y-15316117D01*
X11786265Y-15330403D01*
X11757694Y-15344689D01*
X11700551Y-15344689D01*
X11671979Y-15358975D01*
X11657694Y-15373260D01*
X11643408Y-15401832D01*
X11643408Y-15458975D01*
X11657694Y-15487546D01*
X11671979Y-15501832D01*
X11700551Y-15516117D01*
X11757694Y-15516117D01*
X11786265Y-15501832D01*
X11800551Y-15487546D01*
X11814837Y-15458975D01*
X11814837Y-15401832D01*
X11800551Y-15373260D01*
X11786265Y-15358975D01*
X11757694Y-15344689D01*
X12086265Y-15216117D02*
X11943408Y-15216117D01*
X11929122Y-15358975D01*
X11943408Y-15344689D01*
X11971979Y-15330403D01*
X12043408Y-15330403D01*
X12071979Y-15344689D01*
X12086265Y-15358975D01*
X12100551Y-15387546D01*
X12100551Y-15458975D01*
X12086265Y-15487546D01*
X12071979Y-15501832D01*
X12043408Y-15516117D01*
X11971979Y-15516117D01*
X11943408Y-15501832D01*
X11929122Y-15487546D01*
X12229122Y-15516117D02*
X12229122Y-15316117D01*
X12229122Y-15344689D02*
X12243408Y-15330403D01*
X12271979Y-15316117D01*
X12314837Y-15316117D01*
X12343408Y-15330403D01*
X12357694Y-15358975D01*
X12357694Y-15516117D01*
X12357694Y-15358975D02*
X12371979Y-15330403D01*
X12400551Y-15316117D01*
X12443408Y-15316117D01*
X12471979Y-15330403D01*
X12486265Y-15358975D01*
X12486265Y-15516117D01*
X12629122Y-15516117D02*
X12629122Y-15316117D01*
X12629122Y-15344689D02*
X12643408Y-15330403D01*
X12671979Y-15316117D01*
X12714837Y-15316117D01*
X12743408Y-15330403D01*
X12757694Y-15358975D01*
X12757694Y-15516117D01*
X12757694Y-15358975D02*
X12771979Y-15330403D01*
X12800551Y-15316117D01*
X12843408Y-15316117D01*
X12871979Y-15330403D01*
X12886265Y-15358975D01*
X12886265Y-15516117D01*
X13471979Y-15201832D02*
X13214837Y-15587546D01*
X13857694Y-15216117D02*
X13886265Y-15216117D01*
X13914837Y-15230403D01*
X13929122Y-15244689D01*
X13943408Y-15273260D01*
X13957694Y-15330403D01*
X13957694Y-15401832D01*
X13943408Y-15458975D01*
X13929122Y-15487546D01*
X13914837Y-15501832D01*
X13886265Y-15516117D01*
X13857694Y-15516117D01*
X13829122Y-15501832D01*
X13814837Y-15487546D01*
X13800551Y-15458975D01*
X13786265Y-15401832D01*
X13786265Y-15330403D01*
X13800551Y-15273260D01*
X13814837Y-15244689D01*
X13829122Y-15230403D01*
X13857694Y-15216117D01*
X14086265Y-15487546D02*
X14100551Y-15501832D01*
X14086265Y-15516117D01*
X14071979Y-15501832D01*
X14086265Y-15487546D01*
X14086265Y-15516117D01*
X14286265Y-15216117D02*
X14314837Y-15216117D01*
X14343408Y-15230403D01*
X14357694Y-15244689D01*
X14371979Y-15273260D01*
X14386265Y-15330403D01*
X14386265Y-15401832D01*
X14371979Y-15458975D01*
X14357694Y-15487546D01*
X14343408Y-15501832D01*
X14314837Y-15516117D01*
X14286265Y-15516117D01*
X14257694Y-15501832D01*
X14243408Y-15487546D01*
X14229122Y-15458975D01*
X14214837Y-15401832D01*
X14214837Y-15330403D01*
X14229122Y-15273260D01*
X14243408Y-15244689D01*
X14257694Y-15230403D01*
X14286265Y-15216117D01*
X14486265Y-15216117D02*
X14671979Y-15216117D01*
X14571979Y-15330403D01*
X14614837Y-15330403D01*
X14643408Y-15344689D01*
X14657694Y-15358975D01*
X14671979Y-15387546D01*
X14671979Y-15458975D01*
X14657694Y-15487546D01*
X14643408Y-15501832D01*
X14614837Y-15516117D01*
X14529122Y-15516117D01*
X14500551Y-15501832D01*
X14486265Y-15487546D01*
X14771979Y-15216117D02*
X14957694Y-15216117D01*
X14857694Y-15330403D01*
X14900551Y-15330403D01*
X14929122Y-15344689D01*
X14943408Y-15358975D01*
X14957694Y-15387546D01*
X14957694Y-15458975D01*
X14943408Y-15487546D01*
X14929122Y-15501832D01*
X14900551Y-15516117D01*
X14814837Y-15516117D01*
X14786265Y-15501832D01*
X14771979Y-15487546D01*
X15071979Y-15216117D02*
X15071979Y-15273260D01*
X15186265Y-15216117D02*
X15186265Y-15273260D01*
X15629122Y-15630403D02*
X15614837Y-15616117D01*
X15586265Y-15573260D01*
X15571979Y-15544689D01*
X15557694Y-15501832D01*
X15543408Y-15430403D01*
X15543408Y-15373260D01*
X15557694Y-15301832D01*
X15571979Y-15258975D01*
X15586265Y-15230403D01*
X15614837Y-15187546D01*
X15629122Y-15173260D01*
X15714837Y-15216117D02*
X15914837Y-15216117D01*
X15786265Y-15516117D01*
X16257694Y-15516117D02*
X16257694Y-15216117D01*
X16386265Y-15516117D02*
X16386265Y-15358975D01*
X16371979Y-15330403D01*
X16343408Y-15316117D01*
X16300551Y-15316117D01*
X16271979Y-15330403D01*
X16257694Y-15344689D01*
X16571979Y-15516117D02*
X16543408Y-15501832D01*
X16529122Y-15487546D01*
X16514837Y-15458975D01*
X16514837Y-15373260D01*
X16529122Y-15344689D01*
X16543408Y-15330403D01*
X16571979Y-15316117D01*
X16614837Y-15316117D01*
X16643408Y-15330403D01*
X16657694Y-15344689D01*
X16671979Y-15373260D01*
X16671979Y-15458975D01*
X16657694Y-15487546D01*
X16643408Y-15501832D01*
X16614837Y-15516117D01*
X16571979Y-15516117D01*
X16843408Y-15516117D02*
X16814837Y-15501832D01*
X16800551Y-15473260D01*
X16800551Y-15216117D01*
X17071980Y-15501832D02*
X17043408Y-15516117D01*
X16986265Y-15516117D01*
X16957694Y-15501832D01*
X16943408Y-15473260D01*
X16943408Y-15358975D01*
X16957694Y-15330403D01*
X16986265Y-15316117D01*
X17043408Y-15316117D01*
X17071980Y-15330403D01*
X17086265Y-15358975D01*
X17086265Y-15387546D01*
X16943408Y-15416117D01*
X17200551Y-15501832D02*
X17229122Y-15516117D01*
X17286265Y-15516117D01*
X17314837Y-15501832D01*
X17329122Y-15473260D01*
X17329122Y-15458975D01*
X17314837Y-15430403D01*
X17286265Y-15416117D01*
X17243408Y-15416117D01*
X17214837Y-15401832D01*
X17200551Y-15373260D01*
X17200551Y-15358975D01*
X17214837Y-15330403D01*
X17243408Y-15316117D01*
X17286265Y-15316117D01*
X17314837Y-15330403D01*
X17429122Y-15630403D02*
X17443408Y-15616117D01*
X17471980Y-15573260D01*
X17486265Y-15544689D01*
X17500551Y-15501832D01*
X17514837Y-15430403D01*
X17514837Y-15373260D01*
X17500551Y-15301832D01*
X17486265Y-15258975D01*
X17471980Y-15230403D01*
X17443408Y-15187546D01*
X17429122Y-15173260D01*
X10897694Y-15821403D02*
X10942694Y-15776403D01*
X10897694Y-15731403D01*
X10852694Y-15776403D01*
X10897694Y-15821403D01*
X11286265Y-15612117D02*
X11314837Y-15612117D01*
X11343408Y-15626403D01*
X11357694Y-15640689D01*
X11371979Y-15669260D01*
X11386265Y-15726403D01*
X11386265Y-15797832D01*
X11371979Y-15854975D01*
X11357694Y-15883546D01*
X11343408Y-15897832D01*
X11314837Y-15912117D01*
X11286265Y-15912117D01*
X11257694Y-15897832D01*
X11243408Y-15883546D01*
X11229122Y-15854975D01*
X11214837Y-15797832D01*
X11214837Y-15726403D01*
X11229122Y-15669260D01*
X11243408Y-15640689D01*
X11257694Y-15626403D01*
X11286265Y-15612117D01*
X11514837Y-15883546D02*
X11529122Y-15897832D01*
X11514837Y-15912117D01*
X11500551Y-15897832D01*
X11514837Y-15883546D01*
X11514837Y-15912117D01*
X11671979Y-15912117D02*
X11729122Y-15912117D01*
X11757694Y-15897832D01*
X11771979Y-15883546D01*
X11800551Y-15840689D01*
X11814837Y-15783546D01*
X11814837Y-15669260D01*
X11800551Y-15640689D01*
X11786265Y-15626403D01*
X11757694Y-15612117D01*
X11700551Y-15612117D01*
X11671979Y-15626403D01*
X11657694Y-15640689D01*
X11643408Y-15669260D01*
X11643408Y-15740689D01*
X11657694Y-15769260D01*
X11671979Y-15783546D01*
X11700551Y-15797832D01*
X11757694Y-15797832D01*
X11786265Y-15783546D01*
X11800551Y-15769260D01*
X11814837Y-15740689D01*
X12000551Y-15612117D02*
X12029122Y-15612117D01*
X12057694Y-15626403D01*
X12071979Y-15640689D01*
X12086265Y-15669260D01*
X12100551Y-15726403D01*
X12100551Y-15797832D01*
X12086265Y-15854975D01*
X12071979Y-15883546D01*
X12057694Y-15897832D01*
X12029122Y-15912117D01*
X12000551Y-15912117D01*
X11971979Y-15897832D01*
X11957694Y-15883546D01*
X11943408Y-15854975D01*
X11929122Y-15797832D01*
X11929122Y-15726403D01*
X11943408Y-15669260D01*
X11957694Y-15640689D01*
X11971979Y-15626403D01*
X12000551Y-15612117D01*
X12229122Y-15912117D02*
X12229122Y-15712117D01*
X12229122Y-15740689D02*
X12243408Y-15726403D01*
X12271979Y-15712117D01*
X12314837Y-15712117D01*
X12343408Y-15726403D01*
X12357694Y-15754975D01*
X12357694Y-15912117D01*
X12357694Y-15754975D02*
X12371979Y-15726403D01*
X12400551Y-15712117D01*
X12443408Y-15712117D01*
X12471979Y-15726403D01*
X12486265Y-15754975D01*
X12486265Y-15912117D01*
X12629122Y-15912117D02*
X12629122Y-15712117D01*
X12629122Y-15740689D02*
X12643408Y-15726403D01*
X12671979Y-15712117D01*
X12714837Y-15712117D01*
X12743408Y-15726403D01*
X12757694Y-15754975D01*
X12757694Y-15912117D01*
X12757694Y-15754975D02*
X12771979Y-15726403D01*
X12800551Y-15712117D01*
X12843408Y-15712117D01*
X12871979Y-15726403D01*
X12886265Y-15754975D01*
X12886265Y-15912117D01*
X13471979Y-15597832D02*
X13214837Y-15983546D01*
X13857694Y-15612117D02*
X13886265Y-15612117D01*
X13914837Y-15626403D01*
X13929122Y-15640689D01*
X13943408Y-15669260D01*
X13957694Y-15726403D01*
X13957694Y-15797832D01*
X13943408Y-15854975D01*
X13929122Y-15883546D01*
X13914837Y-15897832D01*
X13886265Y-15912117D01*
X13857694Y-15912117D01*
X13829122Y-15897832D01*
X13814837Y-15883546D01*
X13800551Y-15854975D01*
X13786265Y-15797832D01*
X13786265Y-15726403D01*
X13800551Y-15669260D01*
X13814837Y-15640689D01*
X13829122Y-15626403D01*
X13857694Y-15612117D01*
X14086265Y-15883546D02*
X14100551Y-15897832D01*
X14086265Y-15912117D01*
X14071979Y-15897832D01*
X14086265Y-15883546D01*
X14086265Y-15912117D01*
X14286265Y-15612117D02*
X14314837Y-15612117D01*
X14343408Y-15626403D01*
X14357694Y-15640689D01*
X14371979Y-15669260D01*
X14386265Y-15726403D01*
X14386265Y-15797832D01*
X14371979Y-15854975D01*
X14357694Y-15883546D01*
X14343408Y-15897832D01*
X14314837Y-15912117D01*
X14286265Y-15912117D01*
X14257694Y-15897832D01*
X14243408Y-15883546D01*
X14229122Y-15854975D01*
X14214837Y-15797832D01*
X14214837Y-15726403D01*
X14229122Y-15669260D01*
X14243408Y-15640689D01*
X14257694Y-15626403D01*
X14286265Y-15612117D01*
X14486265Y-15612117D02*
X14671979Y-15612117D01*
X14571979Y-15726403D01*
X14614837Y-15726403D01*
X14643408Y-15740689D01*
X14657694Y-15754975D01*
X14671979Y-15783546D01*
X14671979Y-15854975D01*
X14657694Y-15883546D01*
X14643408Y-15897832D01*
X14614837Y-15912117D01*
X14529122Y-15912117D01*
X14500551Y-15897832D01*
X14486265Y-15883546D01*
X14943408Y-15612117D02*
X14800551Y-15612117D01*
X14786265Y-15754975D01*
X14800551Y-15740689D01*
X14829122Y-15726403D01*
X14900551Y-15726403D01*
X14929122Y-15740689D01*
X14943408Y-15754975D01*
X14957694Y-15783546D01*
X14957694Y-15854975D01*
X14943408Y-15883546D01*
X14929122Y-15897832D01*
X14900551Y-15912117D01*
X14829122Y-15912117D01*
X14800551Y-15897832D01*
X14786265Y-15883546D01*
X15071979Y-15612117D02*
X15071979Y-15669260D01*
X15186265Y-15612117D02*
X15186265Y-15669260D01*
X15629122Y-16026403D02*
X15614837Y-16012117D01*
X15586265Y-15969260D01*
X15571979Y-15940689D01*
X15557694Y-15897832D01*
X15543408Y-15826403D01*
X15543408Y-15769260D01*
X15557694Y-15697832D01*
X15571979Y-15654975D01*
X15586265Y-15626403D01*
X15614837Y-15583546D01*
X15629122Y-15569260D01*
X15729122Y-15640689D02*
X15743408Y-15626403D01*
X15771979Y-15612117D01*
X15843408Y-15612117D01*
X15871979Y-15626403D01*
X15886265Y-15640689D01*
X15900551Y-15669260D01*
X15900551Y-15697832D01*
X15886265Y-15740689D01*
X15714837Y-15912117D01*
X15900551Y-15912117D01*
X16257694Y-15912117D02*
X16257694Y-15612117D01*
X16386265Y-15912117D02*
X16386265Y-15754975D01*
X16371979Y-15726403D01*
X16343408Y-15712117D01*
X16300551Y-15712117D01*
X16271979Y-15726403D01*
X16257694Y-15740689D01*
X16571979Y-15912117D02*
X16543408Y-15897832D01*
X16529122Y-15883546D01*
X16514837Y-15854975D01*
X16514837Y-15769260D01*
X16529122Y-15740689D01*
X16543408Y-15726403D01*
X16571979Y-15712117D01*
X16614837Y-15712117D01*
X16643408Y-15726403D01*
X16657694Y-15740689D01*
X16671979Y-15769260D01*
X16671979Y-15854975D01*
X16657694Y-15883546D01*
X16643408Y-15897832D01*
X16614837Y-15912117D01*
X16571979Y-15912117D01*
X16843408Y-15912117D02*
X16814837Y-15897832D01*
X16800551Y-15869260D01*
X16800551Y-15612117D01*
X17071980Y-15897832D02*
X17043408Y-15912117D01*
X16986265Y-15912117D01*
X16957694Y-15897832D01*
X16943408Y-15869260D01*
X16943408Y-15754975D01*
X16957694Y-15726403D01*
X16986265Y-15712117D01*
X17043408Y-15712117D01*
X17071980Y-15726403D01*
X17086265Y-15754975D01*
X17086265Y-15783546D01*
X16943408Y-15812117D01*
X17200551Y-15897832D02*
X17229122Y-15912117D01*
X17286265Y-15912117D01*
X17314837Y-15897832D01*
X17329122Y-15869260D01*
X17329122Y-15854975D01*
X17314837Y-15826403D01*
X17286265Y-15812117D01*
X17243408Y-15812117D01*
X17214837Y-15797832D01*
X17200551Y-15769260D01*
X17200551Y-15754975D01*
X17214837Y-15726403D01*
X17243408Y-15712117D01*
X17286265Y-15712117D01*
X17314837Y-15726403D01*
X17429122Y-16026403D02*
X17443408Y-16012117D01*
X17471980Y-15969260D01*
X17486265Y-15940689D01*
X17500551Y-15897832D01*
X17514837Y-15826403D01*
X17514837Y-15769260D01*
X17500551Y-15697832D01*
X17486265Y-15654975D01*
X17471980Y-15626403D01*
X17443408Y-15583546D01*
X17429122Y-15569260D01*
X10842694Y-16122403D02*
X10942694Y-16222403D01*
X10942694Y-16122403D02*
X10842694Y-16222403D01*
X10942694Y-16172403D02*
G75*
G03X10942694Y-16172403I-50000J0D01*
G01*
X11386265Y-16308117D02*
X11214837Y-16308117D01*
X11300551Y-16308117D02*
X11300551Y-16008117D01*
X11271979Y-16050975D01*
X11243408Y-16079546D01*
X11214837Y-16093832D01*
X11514837Y-16279546D02*
X11529122Y-16293832D01*
X11514837Y-16308117D01*
X11500551Y-16293832D01*
X11514837Y-16279546D01*
X11514837Y-16308117D01*
X11714837Y-16008117D02*
X11743408Y-16008117D01*
X11771979Y-16022403D01*
X11786265Y-16036689D01*
X11800551Y-16065260D01*
X11814837Y-16122403D01*
X11814837Y-16193832D01*
X11800551Y-16250975D01*
X11786265Y-16279546D01*
X11771979Y-16293832D01*
X11743408Y-16308117D01*
X11714837Y-16308117D01*
X11686265Y-16293832D01*
X11671979Y-16279546D01*
X11657694Y-16250975D01*
X11643408Y-16193832D01*
X11643408Y-16122403D01*
X11657694Y-16065260D01*
X11671979Y-16036689D01*
X11686265Y-16022403D01*
X11714837Y-16008117D01*
X12000551Y-16008117D02*
X12029122Y-16008117D01*
X12057694Y-16022403D01*
X12071979Y-16036689D01*
X12086265Y-16065260D01*
X12100551Y-16122403D01*
X12100551Y-16193832D01*
X12086265Y-16250975D01*
X12071979Y-16279546D01*
X12057694Y-16293832D01*
X12029122Y-16308117D01*
X12000551Y-16308117D01*
X11971979Y-16293832D01*
X11957694Y-16279546D01*
X11943408Y-16250975D01*
X11929122Y-16193832D01*
X11929122Y-16122403D01*
X11943408Y-16065260D01*
X11957694Y-16036689D01*
X11971979Y-16022403D01*
X12000551Y-16008117D01*
X12229122Y-16308117D02*
X12229122Y-16108117D01*
X12229122Y-16136689D02*
X12243408Y-16122403D01*
X12271979Y-16108117D01*
X12314837Y-16108117D01*
X12343408Y-16122403D01*
X12357694Y-16150975D01*
X12357694Y-16308117D01*
X12357694Y-16150975D02*
X12371979Y-16122403D01*
X12400551Y-16108117D01*
X12443408Y-16108117D01*
X12471979Y-16122403D01*
X12486265Y-16150975D01*
X12486265Y-16308117D01*
X12629122Y-16308117D02*
X12629122Y-16108117D01*
X12629122Y-16136689D02*
X12643408Y-16122403D01*
X12671979Y-16108117D01*
X12714837Y-16108117D01*
X12743408Y-16122403D01*
X12757694Y-16150975D01*
X12757694Y-16308117D01*
X12757694Y-16150975D02*
X12771979Y-16122403D01*
X12800551Y-16108117D01*
X12843408Y-16108117D01*
X12871979Y-16122403D01*
X12886265Y-16150975D01*
X12886265Y-16308117D01*
X13471979Y-15993832D02*
X13214837Y-16379546D01*
X13857694Y-16008117D02*
X13886265Y-16008117D01*
X13914837Y-16022403D01*
X13929122Y-16036689D01*
X13943408Y-16065260D01*
X13957694Y-16122403D01*
X13957694Y-16193832D01*
X13943408Y-16250975D01*
X13929122Y-16279546D01*
X13914837Y-16293832D01*
X13886265Y-16308117D01*
X13857694Y-16308117D01*
X13829122Y-16293832D01*
X13814837Y-16279546D01*
X13800551Y-16250975D01*
X13786265Y-16193832D01*
X13786265Y-16122403D01*
X13800551Y-16065260D01*
X13814837Y-16036689D01*
X13829122Y-16022403D01*
X13857694Y-16008117D01*
X14086265Y-16279546D02*
X14100551Y-16293832D01*
X14086265Y-16308117D01*
X14071979Y-16293832D01*
X14086265Y-16279546D01*
X14086265Y-16308117D01*
X14286265Y-16008117D02*
X14314837Y-16008117D01*
X14343408Y-16022403D01*
X14357694Y-16036689D01*
X14371979Y-16065260D01*
X14386265Y-16122403D01*
X14386265Y-16193832D01*
X14371979Y-16250975D01*
X14357694Y-16279546D01*
X14343408Y-16293832D01*
X14314837Y-16308117D01*
X14286265Y-16308117D01*
X14257694Y-16293832D01*
X14243408Y-16279546D01*
X14229122Y-16250975D01*
X14214837Y-16193832D01*
X14214837Y-16122403D01*
X14229122Y-16065260D01*
X14243408Y-16036689D01*
X14257694Y-16022403D01*
X14286265Y-16008117D01*
X14486265Y-16008117D02*
X14671979Y-16008117D01*
X14571979Y-16122403D01*
X14614837Y-16122403D01*
X14643408Y-16136689D01*
X14657694Y-16150975D01*
X14671979Y-16179546D01*
X14671979Y-16250975D01*
X14657694Y-16279546D01*
X14643408Y-16293832D01*
X14614837Y-16308117D01*
X14529122Y-16308117D01*
X14500551Y-16293832D01*
X14486265Y-16279546D01*
X14814837Y-16308117D02*
X14871979Y-16308117D01*
X14900551Y-16293832D01*
X14914837Y-16279546D01*
X14943408Y-16236689D01*
X14957694Y-16179546D01*
X14957694Y-16065260D01*
X14943408Y-16036689D01*
X14929122Y-16022403D01*
X14900551Y-16008117D01*
X14843408Y-16008117D01*
X14814837Y-16022403D01*
X14800551Y-16036689D01*
X14786265Y-16065260D01*
X14786265Y-16136689D01*
X14800551Y-16165260D01*
X14814837Y-16179546D01*
X14843408Y-16193832D01*
X14900551Y-16193832D01*
X14929122Y-16179546D01*
X14943408Y-16165260D01*
X14957694Y-16136689D01*
X15071979Y-16008117D02*
X15071979Y-16065260D01*
X15186265Y-16008117D02*
X15186265Y-16065260D01*
X15629122Y-16422403D02*
X15614837Y-16408117D01*
X15586265Y-16365260D01*
X15571979Y-16336689D01*
X15557694Y-16293832D01*
X15543408Y-16222403D01*
X15543408Y-16165260D01*
X15557694Y-16093832D01*
X15571979Y-16050975D01*
X15586265Y-16022403D01*
X15614837Y-15979546D01*
X15629122Y-15965260D01*
X15871979Y-16108117D02*
X15871979Y-16308117D01*
X15800551Y-15993832D02*
X15729122Y-16208117D01*
X15914837Y-16208117D01*
X16157694Y-16008117D02*
X16100551Y-16008117D01*
X16071979Y-16022403D01*
X16057694Y-16036689D01*
X16029122Y-16079546D01*
X16014837Y-16136689D01*
X16014837Y-16250975D01*
X16029122Y-16279546D01*
X16043408Y-16293832D01*
X16071979Y-16308117D01*
X16129122Y-16308117D01*
X16157694Y-16293832D01*
X16171979Y-16279546D01*
X16186265Y-16250975D01*
X16186265Y-16179546D01*
X16171979Y-16150975D01*
X16157694Y-16136689D01*
X16129122Y-16122403D01*
X16071979Y-16122403D01*
X16043408Y-16136689D01*
X16029122Y-16150975D01*
X16014837Y-16179546D01*
X16543408Y-16308117D02*
X16543408Y-16008117D01*
X16671979Y-16308117D02*
X16671979Y-16150975D01*
X16657694Y-16122403D01*
X16629122Y-16108117D01*
X16586265Y-16108117D01*
X16557694Y-16122403D01*
X16543408Y-16136689D01*
X16857694Y-16308117D02*
X16829122Y-16293832D01*
X16814837Y-16279546D01*
X16800551Y-16250975D01*
X16800551Y-16165260D01*
X16814837Y-16136689D01*
X16829122Y-16122403D01*
X16857694Y-16108117D01*
X16900551Y-16108117D01*
X16929122Y-16122403D01*
X16943408Y-16136689D01*
X16957694Y-16165260D01*
X16957694Y-16250975D01*
X16943408Y-16279546D01*
X16929122Y-16293832D01*
X16900551Y-16308117D01*
X16857694Y-16308117D01*
X17129122Y-16308117D02*
X17100551Y-16293832D01*
X17086265Y-16265260D01*
X17086265Y-16008117D01*
X17357694Y-16293832D02*
X17329122Y-16308117D01*
X17271980Y-16308117D01*
X17243408Y-16293832D01*
X17229122Y-16265260D01*
X17229122Y-16150975D01*
X17243408Y-16122403D01*
X17271980Y-16108117D01*
X17329122Y-16108117D01*
X17357694Y-16122403D01*
X17371980Y-16150975D01*
X17371980Y-16179546D01*
X17229122Y-16208117D01*
X17486265Y-16293832D02*
X17514837Y-16308117D01*
X17571980Y-16308117D01*
X17600551Y-16293832D01*
X17614837Y-16265260D01*
X17614837Y-16250975D01*
X17600551Y-16222403D01*
X17571980Y-16208117D01*
X17529122Y-16208117D01*
X17500551Y-16193832D01*
X17486265Y-16165260D01*
X17486265Y-16150975D01*
X17500551Y-16122403D01*
X17529122Y-16108117D01*
X17571980Y-16108117D01*
X17600551Y-16122403D01*
X17714837Y-16422403D02*
X17729122Y-16408117D01*
X17757694Y-16365260D01*
X17771980Y-16336689D01*
X17786265Y-16293832D01*
X17800551Y-16222403D01*
X17800551Y-16165260D01*
X17786265Y-16093832D01*
X17771980Y-16050975D01*
X17757694Y-16022403D01*
X17729122Y-15979546D01*
X17714837Y-15965260D01*
X10832694Y-16513403D02*
X10942694Y-16623403D01*
X10942694Y-16513403D02*
X10832694Y-16623403D01*
X10887694Y-16513403D02*
X10887694Y-16623403D01*
X10832694Y-16568403D02*
X10942694Y-16568403D01*
X11386265Y-16704117D02*
X11214837Y-16704117D01*
X11300551Y-16704117D02*
X11300551Y-16404117D01*
X11271979Y-16446975D01*
X11243408Y-16475546D01*
X11214837Y-16489832D01*
X11514837Y-16675546D02*
X11529122Y-16689832D01*
X11514837Y-16704117D01*
X11500551Y-16689832D01*
X11514837Y-16675546D01*
X11514837Y-16704117D01*
X11814837Y-16704117D02*
X11643408Y-16704117D01*
X11729122Y-16704117D02*
X11729122Y-16404117D01*
X11700551Y-16446975D01*
X11671979Y-16475546D01*
X11643408Y-16489832D01*
X12000551Y-16404117D02*
X12029122Y-16404117D01*
X12057694Y-16418403D01*
X12071979Y-16432689D01*
X12086265Y-16461260D01*
X12100551Y-16518403D01*
X12100551Y-16589832D01*
X12086265Y-16646975D01*
X12071979Y-16675546D01*
X12057694Y-16689832D01*
X12029122Y-16704117D01*
X12000551Y-16704117D01*
X11971979Y-16689832D01*
X11957694Y-16675546D01*
X11943408Y-16646975D01*
X11929122Y-16589832D01*
X11929122Y-16518403D01*
X11943408Y-16461260D01*
X11957694Y-16432689D01*
X11971979Y-16418403D01*
X12000551Y-16404117D01*
X12229122Y-16704117D02*
X12229122Y-16504117D01*
X12229122Y-16532689D02*
X12243408Y-16518403D01*
X12271979Y-16504117D01*
X12314837Y-16504117D01*
X12343408Y-16518403D01*
X12357694Y-16546975D01*
X12357694Y-16704117D01*
X12357694Y-16546975D02*
X12371979Y-16518403D01*
X12400551Y-16504117D01*
X12443408Y-16504117D01*
X12471979Y-16518403D01*
X12486265Y-16546975D01*
X12486265Y-16704117D01*
X12629122Y-16704117D02*
X12629122Y-16504117D01*
X12629122Y-16532689D02*
X12643408Y-16518403D01*
X12671979Y-16504117D01*
X12714837Y-16504117D01*
X12743408Y-16518403D01*
X12757694Y-16546975D01*
X12757694Y-16704117D01*
X12757694Y-16546975D02*
X12771979Y-16518403D01*
X12800551Y-16504117D01*
X12843408Y-16504117D01*
X12871979Y-16518403D01*
X12886265Y-16546975D01*
X12886265Y-16704117D01*
X13471979Y-16389832D02*
X13214837Y-16775546D01*
X13857694Y-16404117D02*
X13886265Y-16404117D01*
X13914837Y-16418403D01*
X13929122Y-16432689D01*
X13943408Y-16461260D01*
X13957694Y-16518403D01*
X13957694Y-16589832D01*
X13943408Y-16646975D01*
X13929122Y-16675546D01*
X13914837Y-16689832D01*
X13886265Y-16704117D01*
X13857694Y-16704117D01*
X13829122Y-16689832D01*
X13814837Y-16675546D01*
X13800551Y-16646975D01*
X13786265Y-16589832D01*
X13786265Y-16518403D01*
X13800551Y-16461260D01*
X13814837Y-16432689D01*
X13829122Y-16418403D01*
X13857694Y-16404117D01*
X14086265Y-16675546D02*
X14100551Y-16689832D01*
X14086265Y-16704117D01*
X14071979Y-16689832D01*
X14086265Y-16675546D01*
X14086265Y-16704117D01*
X14286265Y-16404117D02*
X14314837Y-16404117D01*
X14343408Y-16418403D01*
X14357694Y-16432689D01*
X14371979Y-16461260D01*
X14386265Y-16518403D01*
X14386265Y-16589832D01*
X14371979Y-16646975D01*
X14357694Y-16675546D01*
X14343408Y-16689832D01*
X14314837Y-16704117D01*
X14286265Y-16704117D01*
X14257694Y-16689832D01*
X14243408Y-16675546D01*
X14229122Y-16646975D01*
X14214837Y-16589832D01*
X14214837Y-16518403D01*
X14229122Y-16461260D01*
X14243408Y-16432689D01*
X14257694Y-16418403D01*
X14286265Y-16404117D01*
X14643408Y-16504117D02*
X14643408Y-16704117D01*
X14571979Y-16389832D02*
X14500551Y-16604117D01*
X14686265Y-16604117D01*
X14771979Y-16404117D02*
X14957694Y-16404117D01*
X14857694Y-16518403D01*
X14900551Y-16518403D01*
X14929122Y-16532689D01*
X14943408Y-16546975D01*
X14957694Y-16575546D01*
X14957694Y-16646975D01*
X14943408Y-16675546D01*
X14929122Y-16689832D01*
X14900551Y-16704117D01*
X14814837Y-16704117D01*
X14786265Y-16689832D01*
X14771979Y-16675546D01*
X15071979Y-16404117D02*
X15071979Y-16461260D01*
X15186265Y-16404117D02*
X15186265Y-16461260D01*
X15629122Y-16818403D02*
X15614837Y-16804117D01*
X15586265Y-16761260D01*
X15571979Y-16732689D01*
X15557694Y-16689832D01*
X15543408Y-16618403D01*
X15543408Y-16561260D01*
X15557694Y-16489832D01*
X15571979Y-16446975D01*
X15586265Y-16418403D01*
X15614837Y-16375546D01*
X15629122Y-16361260D01*
X15871979Y-16504117D02*
X15871979Y-16704117D01*
X15800551Y-16389832D02*
X15729122Y-16604117D01*
X15914837Y-16604117D01*
X16257694Y-16704117D02*
X16257694Y-16404117D01*
X16386265Y-16704117D02*
X16386265Y-16546975D01*
X16371979Y-16518403D01*
X16343408Y-16504117D01*
X16300551Y-16504117D01*
X16271979Y-16518403D01*
X16257694Y-16532689D01*
X16571979Y-16704117D02*
X16543408Y-16689832D01*
X16529122Y-16675546D01*
X16514837Y-16646975D01*
X16514837Y-16561260D01*
X16529122Y-16532689D01*
X16543408Y-16518403D01*
X16571979Y-16504117D01*
X16614837Y-16504117D01*
X16643408Y-16518403D01*
X16657694Y-16532689D01*
X16671979Y-16561260D01*
X16671979Y-16646975D01*
X16657694Y-16675546D01*
X16643408Y-16689832D01*
X16614837Y-16704117D01*
X16571979Y-16704117D01*
X16843408Y-16704117D02*
X16814837Y-16689832D01*
X16800551Y-16661260D01*
X16800551Y-16404117D01*
X17071980Y-16689832D02*
X17043408Y-16704117D01*
X16986265Y-16704117D01*
X16957694Y-16689832D01*
X16943408Y-16661260D01*
X16943408Y-16546975D01*
X16957694Y-16518403D01*
X16986265Y-16504117D01*
X17043408Y-16504117D01*
X17071980Y-16518403D01*
X17086265Y-16546975D01*
X17086265Y-16575546D01*
X16943408Y-16604117D01*
X17200551Y-16689832D02*
X17229122Y-16704117D01*
X17286265Y-16704117D01*
X17314837Y-16689832D01*
X17329122Y-16661260D01*
X17329122Y-16646975D01*
X17314837Y-16618403D01*
X17286265Y-16604117D01*
X17243408Y-16604117D01*
X17214837Y-16589832D01*
X17200551Y-16561260D01*
X17200551Y-16546975D01*
X17214837Y-16518403D01*
X17243408Y-16504117D01*
X17286265Y-16504117D01*
X17314837Y-16518403D01*
X17429122Y-16818403D02*
X17443408Y-16804117D01*
X17471980Y-16761260D01*
X17486265Y-16732689D01*
X17500551Y-16689832D01*
X17514837Y-16618403D01*
X17514837Y-16561260D01*
X17500551Y-16489832D01*
X17486265Y-16446975D01*
X17471980Y-16418403D01*
X17443408Y-16375546D01*
X17429122Y-16361260D01*
X10792694Y-16889403D02*
X10942694Y-17039403D01*
X10942694Y-16889403D02*
X10792694Y-17039403D01*
X10920727Y-17017437D02*
X10920727Y-16911370D01*
X10814660Y-16911370D01*
X10814660Y-17017437D01*
X10920727Y-17017437D01*
X11386265Y-17100117D02*
X11214837Y-17100117D01*
X11300551Y-17100117D02*
X11300551Y-16800117D01*
X11271979Y-16842975D01*
X11243408Y-16871546D01*
X11214837Y-16885832D01*
X11514837Y-17071546D02*
X11529122Y-17085832D01*
X11514837Y-17100117D01*
X11500551Y-17085832D01*
X11514837Y-17071546D01*
X11514837Y-17100117D01*
X11800551Y-16800117D02*
X11657694Y-16800117D01*
X11643408Y-16942975D01*
X11657694Y-16928689D01*
X11686265Y-16914403D01*
X11757694Y-16914403D01*
X11786265Y-16928689D01*
X11800551Y-16942975D01*
X11814837Y-16971546D01*
X11814837Y-17042975D01*
X11800551Y-17071546D01*
X11786265Y-17085832D01*
X11757694Y-17100117D01*
X11686265Y-17100117D01*
X11657694Y-17085832D01*
X11643408Y-17071546D01*
X12000551Y-16800117D02*
X12029122Y-16800117D01*
X12057694Y-16814403D01*
X12071979Y-16828689D01*
X12086265Y-16857260D01*
X12100551Y-16914403D01*
X12100551Y-16985832D01*
X12086265Y-17042975D01*
X12071979Y-17071546D01*
X12057694Y-17085832D01*
X12029122Y-17100117D01*
X12000551Y-17100117D01*
X11971979Y-17085832D01*
X11957694Y-17071546D01*
X11943408Y-17042975D01*
X11929122Y-16985832D01*
X11929122Y-16914403D01*
X11943408Y-16857260D01*
X11957694Y-16828689D01*
X11971979Y-16814403D01*
X12000551Y-16800117D01*
X12229122Y-17100117D02*
X12229122Y-16900117D01*
X12229122Y-16928689D02*
X12243408Y-16914403D01*
X12271979Y-16900117D01*
X12314837Y-16900117D01*
X12343408Y-16914403D01*
X12357694Y-16942975D01*
X12357694Y-17100117D01*
X12357694Y-16942975D02*
X12371979Y-16914403D01*
X12400551Y-16900117D01*
X12443408Y-16900117D01*
X12471979Y-16914403D01*
X12486265Y-16942975D01*
X12486265Y-17100117D01*
X12629122Y-17100117D02*
X12629122Y-16900117D01*
X12629122Y-16928689D02*
X12643408Y-16914403D01*
X12671979Y-16900117D01*
X12714837Y-16900117D01*
X12743408Y-16914403D01*
X12757694Y-16942975D01*
X12757694Y-17100117D01*
X12757694Y-16942975D02*
X12771979Y-16914403D01*
X12800551Y-16900117D01*
X12843408Y-16900117D01*
X12871979Y-16914403D01*
X12886265Y-16942975D01*
X12886265Y-17100117D01*
X13471979Y-16785832D02*
X13214837Y-17171546D01*
X13857694Y-16800117D02*
X13886265Y-16800117D01*
X13914837Y-16814403D01*
X13929122Y-16828689D01*
X13943408Y-16857260D01*
X13957694Y-16914403D01*
X13957694Y-16985832D01*
X13943408Y-17042975D01*
X13929122Y-17071546D01*
X13914837Y-17085832D01*
X13886265Y-17100117D01*
X13857694Y-17100117D01*
X13829122Y-17085832D01*
X13814837Y-17071546D01*
X13800551Y-17042975D01*
X13786265Y-16985832D01*
X13786265Y-16914403D01*
X13800551Y-16857260D01*
X13814837Y-16828689D01*
X13829122Y-16814403D01*
X13857694Y-16800117D01*
X14086265Y-17071546D02*
X14100551Y-17085832D01*
X14086265Y-17100117D01*
X14071979Y-17085832D01*
X14086265Y-17071546D01*
X14086265Y-17100117D01*
X14286265Y-16800117D02*
X14314837Y-16800117D01*
X14343408Y-16814403D01*
X14357694Y-16828689D01*
X14371979Y-16857260D01*
X14386265Y-16914403D01*
X14386265Y-16985832D01*
X14371979Y-17042975D01*
X14357694Y-17071546D01*
X14343408Y-17085832D01*
X14314837Y-17100117D01*
X14286265Y-17100117D01*
X14257694Y-17085832D01*
X14243408Y-17071546D01*
X14229122Y-17042975D01*
X14214837Y-16985832D01*
X14214837Y-16914403D01*
X14229122Y-16857260D01*
X14243408Y-16828689D01*
X14257694Y-16814403D01*
X14286265Y-16800117D01*
X14657694Y-16800117D02*
X14514837Y-16800117D01*
X14500551Y-16942975D01*
X14514837Y-16928689D01*
X14543408Y-16914403D01*
X14614837Y-16914403D01*
X14643408Y-16928689D01*
X14657694Y-16942975D01*
X14671979Y-16971546D01*
X14671979Y-17042975D01*
X14657694Y-17071546D01*
X14643408Y-17085832D01*
X14614837Y-17100117D01*
X14543408Y-17100117D01*
X14514837Y-17085832D01*
X14500551Y-17071546D01*
X14814837Y-17100117D02*
X14871979Y-17100117D01*
X14900551Y-17085832D01*
X14914837Y-17071546D01*
X14943408Y-17028689D01*
X14957694Y-16971546D01*
X14957694Y-16857260D01*
X14943408Y-16828689D01*
X14929122Y-16814403D01*
X14900551Y-16800117D01*
X14843408Y-16800117D01*
X14814837Y-16814403D01*
X14800551Y-16828689D01*
X14786265Y-16857260D01*
X14786265Y-16928689D01*
X14800551Y-16957260D01*
X14814837Y-16971546D01*
X14843408Y-16985832D01*
X14900551Y-16985832D01*
X14929122Y-16971546D01*
X14943408Y-16957260D01*
X14957694Y-16928689D01*
X15071979Y-16800117D02*
X15071979Y-16857260D01*
X15186265Y-16800117D02*
X15186265Y-16857260D01*
X15629122Y-17214403D02*
X15614837Y-17200117D01*
X15586265Y-17157260D01*
X15571979Y-17128689D01*
X15557694Y-17085832D01*
X15543408Y-17014403D01*
X15543408Y-16957260D01*
X15557694Y-16885832D01*
X15571979Y-16842975D01*
X15586265Y-16814403D01*
X15614837Y-16771546D01*
X15629122Y-16757260D01*
X15900551Y-17100117D02*
X15729122Y-17100117D01*
X15814837Y-17100117D02*
X15814837Y-16800117D01*
X15786265Y-16842975D01*
X15757694Y-16871546D01*
X15729122Y-16885832D01*
X16257694Y-17100117D02*
X16257694Y-16800117D01*
X16386265Y-17100117D02*
X16386265Y-16942975D01*
X16371979Y-16914403D01*
X16343408Y-16900117D01*
X16300551Y-16900117D01*
X16271979Y-16914403D01*
X16257694Y-16928689D01*
X16571979Y-17100117D02*
X16543408Y-17085832D01*
X16529122Y-17071546D01*
X16514837Y-17042975D01*
X16514837Y-16957260D01*
X16529122Y-16928689D01*
X16543408Y-16914403D01*
X16571979Y-16900117D01*
X16614837Y-16900117D01*
X16643408Y-16914403D01*
X16657694Y-16928689D01*
X16671979Y-16957260D01*
X16671979Y-17042975D01*
X16657694Y-17071546D01*
X16643408Y-17085832D01*
X16614837Y-17100117D01*
X16571979Y-17100117D01*
X16843408Y-17100117D02*
X16814837Y-17085832D01*
X16800551Y-17057260D01*
X16800551Y-16800117D01*
X17071980Y-17085832D02*
X17043408Y-17100117D01*
X16986265Y-17100117D01*
X16957694Y-17085832D01*
X16943408Y-17057260D01*
X16943408Y-16942975D01*
X16957694Y-16914403D01*
X16986265Y-16900117D01*
X17043408Y-16900117D01*
X17071980Y-16914403D01*
X17086265Y-16942975D01*
X17086265Y-16971546D01*
X16943408Y-17000117D01*
X17186265Y-17214403D02*
X17200551Y-17200117D01*
X17229122Y-17157260D01*
X17243408Y-17128689D01*
X17257694Y-17085832D01*
X17271980Y-17014403D01*
X17271980Y-16957260D01*
X17257694Y-16885832D01*
X17243408Y-16842975D01*
X17229122Y-16814403D01*
X17200551Y-16771546D01*
X17186265Y-16757260D01*
X10642694Y-17210403D02*
X10942694Y-17510403D01*
X10942694Y-17210403D02*
X10642694Y-17510403D01*
X10792694Y-17510403D02*
X10942694Y-17360403D01*
X10792694Y-17210403D01*
X10642694Y-17360403D01*
X10792694Y-17510403D01*
X11200551Y-17196117D02*
X11386265Y-17196117D01*
X11286265Y-17310403D01*
X11329122Y-17310403D01*
X11357694Y-17324689D01*
X11371979Y-17338975D01*
X11386265Y-17367546D01*
X11386265Y-17438975D01*
X11371979Y-17467546D01*
X11357694Y-17481832D01*
X11329122Y-17496117D01*
X11243408Y-17496117D01*
X11214837Y-17481832D01*
X11200551Y-17467546D01*
X11514837Y-17467546D02*
X11529122Y-17481832D01*
X11514837Y-17496117D01*
X11500551Y-17481832D01*
X11514837Y-17467546D01*
X11514837Y-17496117D01*
X11714837Y-17196117D02*
X11743408Y-17196117D01*
X11771979Y-17210403D01*
X11786265Y-17224689D01*
X11800551Y-17253260D01*
X11814837Y-17310403D01*
X11814837Y-17381832D01*
X11800551Y-17438975D01*
X11786265Y-17467546D01*
X11771979Y-17481832D01*
X11743408Y-17496117D01*
X11714837Y-17496117D01*
X11686265Y-17481832D01*
X11671979Y-17467546D01*
X11657694Y-17438975D01*
X11643408Y-17381832D01*
X11643408Y-17310403D01*
X11657694Y-17253260D01*
X11671979Y-17224689D01*
X11686265Y-17210403D01*
X11714837Y-17196117D01*
X12000551Y-17196117D02*
X12029122Y-17196117D01*
X12057694Y-17210403D01*
X12071979Y-17224689D01*
X12086265Y-17253260D01*
X12100551Y-17310403D01*
X12100551Y-17381832D01*
X12086265Y-17438975D01*
X12071979Y-17467546D01*
X12057694Y-17481832D01*
X12029122Y-17496117D01*
X12000551Y-17496117D01*
X11971979Y-17481832D01*
X11957694Y-17467546D01*
X11943408Y-17438975D01*
X11929122Y-17381832D01*
X11929122Y-17310403D01*
X11943408Y-17253260D01*
X11957694Y-17224689D01*
X11971979Y-17210403D01*
X12000551Y-17196117D01*
X12229122Y-17496117D02*
X12229122Y-17296117D01*
X12229122Y-17324689D02*
X12243408Y-17310403D01*
X12271979Y-17296117D01*
X12314837Y-17296117D01*
X12343408Y-17310403D01*
X12357694Y-17338975D01*
X12357694Y-17496117D01*
X12357694Y-17338975D02*
X12371979Y-17310403D01*
X12400551Y-17296117D01*
X12443408Y-17296117D01*
X12471979Y-17310403D01*
X12486265Y-17338975D01*
X12486265Y-17496117D01*
X12629122Y-17496117D02*
X12629122Y-17296117D01*
X12629122Y-17324689D02*
X12643408Y-17310403D01*
X12671979Y-17296117D01*
X12714837Y-17296117D01*
X12743408Y-17310403D01*
X12757694Y-17338975D01*
X12757694Y-17496117D01*
X12757694Y-17338975D02*
X12771979Y-17310403D01*
X12800551Y-17296117D01*
X12843408Y-17296117D01*
X12871979Y-17310403D01*
X12886265Y-17338975D01*
X12886265Y-17496117D01*
X13471979Y-17181832D02*
X13214837Y-17567546D01*
X13857694Y-17196117D02*
X13886265Y-17196117D01*
X13914837Y-17210403D01*
X13929122Y-17224689D01*
X13943408Y-17253260D01*
X13957694Y-17310403D01*
X13957694Y-17381832D01*
X13943408Y-17438975D01*
X13929122Y-17467546D01*
X13914837Y-17481832D01*
X13886265Y-17496117D01*
X13857694Y-17496117D01*
X13829122Y-17481832D01*
X13814837Y-17467546D01*
X13800551Y-17438975D01*
X13786265Y-17381832D01*
X13786265Y-17310403D01*
X13800551Y-17253260D01*
X13814837Y-17224689D01*
X13829122Y-17210403D01*
X13857694Y-17196117D01*
X14086265Y-17467546D02*
X14100551Y-17481832D01*
X14086265Y-17496117D01*
X14071979Y-17481832D01*
X14086265Y-17467546D01*
X14086265Y-17496117D01*
X14386265Y-17496117D02*
X14214837Y-17496117D01*
X14300551Y-17496117D02*
X14300551Y-17196117D01*
X14271979Y-17238975D01*
X14243408Y-17267546D01*
X14214837Y-17281832D01*
X14671979Y-17496117D02*
X14500551Y-17496117D01*
X14586265Y-17496117D02*
X14586265Y-17196117D01*
X14557694Y-17238975D01*
X14529122Y-17267546D01*
X14500551Y-17281832D01*
X14843408Y-17324689D02*
X14814837Y-17310403D01*
X14800551Y-17296117D01*
X14786265Y-17267546D01*
X14786265Y-17253260D01*
X14800551Y-17224689D01*
X14814837Y-17210403D01*
X14843408Y-17196117D01*
X14900551Y-17196117D01*
X14929122Y-17210403D01*
X14943408Y-17224689D01*
X14957694Y-17253260D01*
X14957694Y-17267546D01*
X14943408Y-17296117D01*
X14929122Y-17310403D01*
X14900551Y-17324689D01*
X14843408Y-17324689D01*
X14814837Y-17338975D01*
X14800551Y-17353260D01*
X14786265Y-17381832D01*
X14786265Y-17438975D01*
X14800551Y-17467546D01*
X14814837Y-17481832D01*
X14843408Y-17496117D01*
X14900551Y-17496117D01*
X14929122Y-17481832D01*
X14943408Y-17467546D01*
X14957694Y-17438975D01*
X14957694Y-17381832D01*
X14943408Y-17353260D01*
X14929122Y-17338975D01*
X14900551Y-17324689D01*
X15071979Y-17196117D02*
X15071979Y-17253260D01*
X15186265Y-17196117D02*
X15186265Y-17253260D01*
X15629122Y-17610403D02*
X15614837Y-17596117D01*
X15586265Y-17553260D01*
X15571979Y-17524689D01*
X15557694Y-17481832D01*
X15543408Y-17410403D01*
X15543408Y-17353260D01*
X15557694Y-17281832D01*
X15571979Y-17238975D01*
X15586265Y-17210403D01*
X15614837Y-17167546D01*
X15629122Y-17153260D01*
X15714837Y-17196117D02*
X15900551Y-17196117D01*
X15800551Y-17310403D01*
X15843408Y-17310403D01*
X15871979Y-17324689D01*
X15886265Y-17338975D01*
X15900551Y-17367546D01*
X15900551Y-17438975D01*
X15886265Y-17467546D01*
X15871979Y-17481832D01*
X15843408Y-17496117D01*
X15757694Y-17496117D01*
X15729122Y-17481832D01*
X15714837Y-17467546D01*
X16257694Y-17496117D02*
X16257694Y-17196117D01*
X16386265Y-17496117D02*
X16386265Y-17338975D01*
X16371979Y-17310403D01*
X16343408Y-17296117D01*
X16300551Y-17296117D01*
X16271979Y-17310403D01*
X16257694Y-17324689D01*
X16571979Y-17496117D02*
X16543408Y-17481832D01*
X16529122Y-17467546D01*
X16514837Y-17438975D01*
X16514837Y-17353260D01*
X16529122Y-17324689D01*
X16543408Y-17310403D01*
X16571979Y-17296117D01*
X16614837Y-17296117D01*
X16643408Y-17310403D01*
X16657694Y-17324689D01*
X16671979Y-17353260D01*
X16671979Y-17438975D01*
X16657694Y-17467546D01*
X16643408Y-17481832D01*
X16614837Y-17496117D01*
X16571979Y-17496117D01*
X16843408Y-17496117D02*
X16814837Y-17481832D01*
X16800551Y-17453260D01*
X16800551Y-17196117D01*
X17071980Y-17481832D02*
X17043408Y-17496117D01*
X16986265Y-17496117D01*
X16957694Y-17481832D01*
X16943408Y-17453260D01*
X16943408Y-17338975D01*
X16957694Y-17310403D01*
X16986265Y-17296117D01*
X17043408Y-17296117D01*
X17071980Y-17310403D01*
X17086265Y-17338975D01*
X17086265Y-17367546D01*
X16943408Y-17396117D01*
X17200551Y-17481832D02*
X17229122Y-17496117D01*
X17286265Y-17496117D01*
X17314837Y-17481832D01*
X17329122Y-17453260D01*
X17329122Y-17438975D01*
X17314837Y-17410403D01*
X17286265Y-17396117D01*
X17243408Y-17396117D01*
X17214837Y-17381832D01*
X17200551Y-17353260D01*
X17200551Y-17338975D01*
X17214837Y-17310403D01*
X17243408Y-17296117D01*
X17286265Y-17296117D01*
X17314837Y-17310403D01*
X17429122Y-17610403D02*
X17443408Y-17596117D01*
X17471980Y-17553260D01*
X17486265Y-17524689D01*
X17500551Y-17481832D01*
X17514837Y-17410403D01*
X17514837Y-17353260D01*
X17500551Y-17281832D01*
X17486265Y-17238975D01*
X17471980Y-17210403D01*
X17443408Y-17167546D01*
X17429122Y-17153260D01*
M02*
